<svg  id="return" xmlns="http://www.w3.org/2000/svg" width="22.879" height="16" viewBox="0 0 22.879 16">
  <g id="Group_92" data-name="Group 92" transform="translate(0)">
    <path id="Path_1245" data-name="Path 1245" d="M5.683,81.6H21.266l-3.277-3.673a.578.578,0,0,1,.862-.769l3.69,4.136a1.327,1.327,0,0,1,0,1.768L18.852,87.2a.578.578,0,0,1-.862-.769l3.277-3.673H5.683a4.527,4.527,0,0,0,0,9.053H8.434a.578.578,0,1,1,0,1.156H5.683a5.682,5.682,0,1,1,0-11.365Z" transform="translate(0 -76.97)" fill="#848f99"/>
  </g>
</svg>
