<svg xmlns="http://www.w3.org/2000/svg" width="22.879" height="16" viewBox="0 0 22.879 16">
  <g id="undo" transform="translate(0 -76.97)">
    <g id="Group_92" data-name="Group 92" transform="translate(0 76.97)">
      <path id="Path_1245" data-name="Path 1245" d="M17.2,81.6H1.613L4.89,77.932a.578.578,0,0,0-.862-.769L.337,81.3a1.327,1.327,0,0,0,0,1.768L4.028,87.2a.578.578,0,0,0,.862-.769L1.613,82.761H17.2a4.527,4.527,0,0,1,0,9.053H14.445a.578.578,0,0,0,0,1.156H17.2a5.682,5.682,0,1,0,0-11.365Z" transform="translate(0 -76.97)" fill="#848f99"/>
    </g>
  </g>
</svg>
