<svg id="copy" xmlns="http://www.w3.org/2000/svg" width="20.576" height="20.576" viewBox="0 0 20.576 20.576">
  <path id="Path_877" data-name="Path 877" d="M20.255,4.731a1.063,1.063,0,0,0-.781-.321H14.7a2.92,2.92,0,0,0-1.47.459V1.1a1.062,1.062,0,0,0-.321-.781A1.063,1.063,0,0,0,12.125,0H7.349a2.652,2.652,0,0,0-1.01.23,2.672,2.672,0,0,0-.873.551L.781,5.466a2.671,2.671,0,0,0-.551.873A2.652,2.652,0,0,0,0,7.349v7.716a1.063,1.063,0,0,0,.321.781,1.063,1.063,0,0,0,.781.321H7.349v3.307a1.1,1.1,0,0,0,1.1,1.1H19.474a1.1,1.1,0,0,0,1.1-1.1V5.512A1.063,1.063,0,0,0,20.255,4.731ZM13.228,6.855v3.433H9.794ZM5.879,2.446V5.879H2.446ZM8.129,9.875a2.671,2.671,0,0,0-.551.873,2.652,2.652,0,0,0-.23,1.01V14.7H1.47V7.349H6.246a1.1,1.1,0,0,0,1.1-1.1V1.47h4.409V6.246Zm10.977,9.232H8.818V11.758h4.777a1.1,1.1,0,0,0,1.1-1.1V5.879h4.409V19.107h0Z" transform="translate(0)" fill="#fff"/>
</svg>
