<svg xmlns="http://www.w3.org/2000/svg" width="15.951" height="15.951" viewBox="0 0 15.951 15.951">
  <path id="edit_5_" data-name="edit (5)" d="M15.191.76a2.6,2.6,0,0,0-3.675,0L1.1,11.171s-.008.011-.012.016-.011.014-.017.022a.281.281,0,0,0-.036.069c0,.008-.006.014-.008.022l0,.009L.008,15.6A.286.286,0,0,0,0,15.654s0,.007,0,.011a.287.287,0,0,0,.019.1c0,.007.005.014.009.02a.288.288,0,0,0,.057.085.291.291,0,0,0,.095.063.287.287,0,0,0,.109.022.29.29,0,0,0,.067-.008l4.287-1.021a.208.208,0,0,0,.022-.009l.029-.011a.284.284,0,0,0,.058-.036c.007-.005.014-.01.021-.016l.008-.006L15.191,4.434A2.6,2.6,0,0,0,15.191.76Zm-.408.408a2.023,2.023,0,0,1,.188,2.638L12.145.98A2.023,2.023,0,0,1,14.783,1.168ZM13.354,5.455,10.5,2.6l.408-.408,2.858,2.858ZM1.432,14.518a.288.288,0,0,0-.408,0l-.219.219.737-3.1L2.819,11.5l-.164,1.479a.288.288,0,0,0,0,.032.3.3,0,0,0,0,.032c0,.01.006.017.008.027a.293.293,0,0,0,.014.048.281.281,0,0,0,.027.052.273.273,0,0,0,.029.037.289.289,0,0,0,.045.039.293.293,0,0,0,.04.024.3.3,0,0,0,.06.019.3.3,0,0,0,.031.01l.031,0h0l.031,0,1.479-.164-.142,1.277-3.1.737.219-.219A.289.289,0,0,0,1.432,14.518Zm3.623-1.582,6.461-6.461a.289.289,0,0,0-.408-.408L4.647,12.528l-1.378.153L3.422,11.3,9.883,4.843a.289.289,0,0,0-.408-.408L3.014,10.895,2.1,11l7.992-7.992,2.858,2.858L4.953,13.855Zm9.115-8.3L11.312,1.78l.409-.409L14.578,4.23Z" fill="#61666e"/>
</svg>
