<svg id="Group_94" data-name="Group 94" xmlns="http://www.w3.org/2000/svg" width="21.047" height="19.6" viewBox="0 0 21.047 19.6">
  <path id="Path_1252" data-name="Path 1252" d="M11.125,188.952a.587.587,0,0,0,0,.833,2.45,2.45,0,0,1,0,3.461L6.112,198.26a2.45,2.45,0,0,1-3.461,0l-.754-.754a2.45,2.45,0,0,1,0-3.461l5.013-5.013a.589.589,0,0,0-.833-.833l-5.013,5.013a3.62,3.62,0,0,0,0,5.127l.754.754a3.631,3.631,0,0,0,5.127,0l5.013-5.013a3.631,3.631,0,0,0,0-5.127A.587.587,0,0,0,11.125,188.952Z" transform="translate(0 -180.552)" fill="#61666e"/>
  <path id="Path_1253" data-name="Path 1253" d="M196.254,18.414l-.754-.754a3.631,3.631,0,0,0-5.127,0l-5.013,5.013a3.631,3.631,0,0,0,0,5.127.589.589,0,0,0,.833-.833,2.45,2.45,0,0,1,0-3.461l5.013-5.013a2.45,2.45,0,0,1,3.461,0l.754.754a2.45,2.45,0,0,1,0,3.461l-5.013,5.013a.591.591,0,0,0,.414,1.007.574.574,0,0,0,.414-.174l5.013-5.013a3.626,3.626,0,0,0,0-5.127Z" transform="translate(-176.266 -16.6)" fill="#61666e"/>
</svg>
