<svg id="focus" xmlns="http://www.w3.org/2000/svg" width="27.526" height="27.526" viewBox="0 0 27.526 27.526">
  <path id="Path_1266" data-name="Path 1266" d="M47.827,128.62l.258-.421-.258-.421a15.51,15.51,0,0,0-3.1-3.426,13.975,13.975,0,0,0-18.3,0,15.66,15.66,0,0,0-3.122,3.424l-.264.425.264.425a15.66,15.66,0,0,0,3.122,3.424,13.975,13.975,0,0,0,18.3,0A15.5,15.5,0,0,0,47.827,128.62Zm-4.174,2.222a12.358,12.358,0,0,1-16.157,0A15.219,15.219,0,0,1,24.97,128.2a15.219,15.219,0,0,1,2.526-2.641,12.358,12.358,0,0,1,16.157,0,15.021,15.021,0,0,1,2.507,2.643A15.024,15.024,0,0,1,43.653,130.842Zm0,0" transform="translate(-21.8 -114.436)" fill="#f15c22"/>
  <path id="Path_1267" data-name="Path 1267" d="M170.713,165.867a4.846,4.846,0,1,0,4.846,4.846A4.851,4.851,0,0,0,170.713,165.867Zm0,8.079a3.233,3.233,0,1,1,3.233-3.233A3.237,3.237,0,0,1,170.713,173.946Zm0,0" transform="translate(-156.95 -156.95)" fill="#f15c22"/>
  <path id="Path_1268" data-name="Path 1268" d="M1.613,1.613H4.98V0H0V4.919H1.613Zm0,0" fill="#f15c22"/>
  <path id="Path_1269" data-name="Path 1269" d="M419.375,0V1.613h3.367V4.919h1.613V0Zm0,0" transform="translate(-396.828)" fill="#f15c22"/>
  <path id="Path_1270" data-name="Path 1270" d="M1.613,420.5H0v4.919H4.98v-1.613H1.613Zm0,0" transform="translate(0 -397.893)" fill="#f15c22"/>
  <path id="Path_1271" data-name="Path 1271" d="M422.742,423.806h-3.367v1.613h4.98V420.5h-1.613Zm0,0" transform="translate(-396.828 -397.893)" fill="#f15c22"/>
</svg>
