<svg xmlns="http://www.w3.org/2000/svg" width="20.824" height="19.057" viewBox="0 0 20.824 19.057">
  <path id="chat" d="M299.53,394.983h4.455a.344.344,0,0,0,0-.688H299.53a.344.344,0,0,0,0,.688Zm8.91,1.365h-8.91a.344.344,0,1,0,0,.688h8.91a.344.344,0,1,0,0-.688Zm0,2.053h-8.91a.344.344,0,1,0,0,.688h8.91a.344.344,0,1,0,0-.688Zm6.191-11.281H302.99a2.032,2.032,0,0,0-2.032,2.032v1.757h-2.847a2.032,2.032,0,0,0-2.032,2.032v7.238a2.032,2.032,0,0,0,2.032,2.032h2.116v3.429a.339.339,0,0,0,.222.317h.127a.339.339,0,0,0,.254-.116l3.323-3.661h5.693a2.032,2.032,0,0,0,2.032-2.032h0l1.8,1.979a.339.339,0,0,0,.254.116h.127a.339.339,0,0,0,.222-.317V398.5h.37a2.032,2.032,0,0,0,2.032-2.032v-7.238a2.032,2.032,0,0,0-2.032-2.032h0Zm-3.45,13.016a1.344,1.344,0,0,1-1.344,1.344H304a.338.338,0,0,0-.254.116l-2.826,3.111v-2.9a.339.339,0,0,0-.339-.339h-2.466a1.344,1.344,0,0,1-1.344-1.344v-7.238a1.344,1.344,0,0,1,1.344-1.344h11.757a1.344,1.344,0,0,1,1.344,1.344v7.238h0Zm4.794-3.746a1.344,1.344,0,0,1-1.344,1.344h-.709a.339.339,0,0,0-.339.339v2.878l-1.714-1.862v-6.18a2.032,2.032,0,0,0-2.032-2.032h-8.244v-1.767a1.344,1.344,0,0,1,1.344-1.344h11.641a1.344,1.344,0,0,1,1.344,1.344v7.238h0Z" transform="translate(-295.97 -387.01)" fill="#848f99" stroke="#848f99" stroke-linecap="round" stroke-linejoin="round" stroke-width="0.22" fill-rule="evenodd"/>
</svg>
