<svg xmlns="http://www.w3.org/2000/svg" width="28.5" height="19" viewBox="0 0 28.5 19">
  <g id="credit-card" transform="translate(0 -85.333)">
    <g id="Group_74" data-name="Group 74" transform="translate(0 85.333)">
      <g id="Group_73" data-name="Group 73" transform="translate(0 0)">
        <path id="Path_1079" data-name="Path 1079" d="M25.531,85.333H2.969A2.973,2.973,0,0,0,0,88.3v13.063a2.973,2.973,0,0,0,2.969,2.969H25.531a2.973,2.973,0,0,0,2.969-2.969V88.3A2.973,2.973,0,0,0,25.531,85.333Zm1.781,16.031a1.783,1.783,0,0,1-1.781,1.781H2.969a1.783,1.783,0,0,1-1.781-1.781V88.3a1.783,1.783,0,0,1,1.781-1.781H25.531A1.783,1.783,0,0,1,27.312,88.3v13.062Z" transform="translate(0 -85.333)" fill="#848f99"/>
      </g>
    </g>
    <g id="Group_76" data-name="Group 76" transform="translate(0 88.895)">
      <g id="Group_75" data-name="Group 75" transform="translate(0 0)">
        <path id="Path_1080" data-name="Path 1080" d="M27.906,149.333H.594a.594.594,0,0,0-.594.594v3.563a.594.594,0,0,0,.594.594H27.906a.594.594,0,0,0,.594-.594v-3.562A.594.594,0,0,0,27.906,149.333Zm-.594,3.563H1.187V150.52H27.312V152.9Z" transform="translate(0 -149.333)" fill="#848f99"/>
      </g>
    </g>
    <g id="Group_78" data-name="Group 78" transform="translate(3.562 97.208)">
      <g id="Group_77" data-name="Group 77" transform="translate(0 0)">
        <path id="Path_1081" data-name="Path 1081" d="M71.719,298.667H64.594a.594.594,0,1,0,0,1.187h7.125a.594.594,0,1,0,0-1.187Z" transform="translate(-64 -298.667)" fill="#848f99"/>
      </g>
    </g>
    <g id="Group_80" data-name="Group 80" transform="translate(3.562 99.583)">
      <g id="Group_79" data-name="Group 79">
        <path id="Path_1082" data-name="Path 1082" d="M71.719,341.333H64.594a.594.594,0,0,0,0,1.188h7.125a.594.594,0,0,0,0-1.188Z" transform="translate(-64 -341.333)" fill="#848f99"/>
      </g>
    </g>
    <g id="Group_82" data-name="Group 82" transform="translate(20.187 96.02)">
      <g id="Group_81" data-name="Group 81" transform="translate(0 0)">
        <path id="Path_1083" data-name="Path 1083" d="M365.636,277.333h-1.187a1.783,1.783,0,0,0-1.781,1.781V280.3a1.783,1.783,0,0,0,1.781,1.781h1.188a1.783,1.783,0,0,0,1.781-1.781v-1.187A1.783,1.783,0,0,0,365.636,277.333Zm.594,2.969a.594.594,0,0,1-.594.594h-1.187a.594.594,0,0,1-.594-.594v-1.187a.594.594,0,0,1,.594-.594h1.188a.594.594,0,0,1,.594.594Z" transform="translate(-362.667 -277.333)" fill="#848f99"/>
      </g>
    </g>
  </g>
</svg>
