<svg xmlns="http://www.w3.org/2000/svg" width="21.258" height="19.861" viewBox="0 0 21.258 19.861">
  <g id="message" transform="translate(0 -16.814)">
    <g id="Group_64" data-name="Group 64" transform="translate(0 16.814)">
      <g id="Group_63" data-name="Group 63">
        <path id="Path_739" data-name="Path 739" d="M21.242,24.32a.314.314,0,0,0-.02-.108.543.543,0,0,0-.214-.3l-3.043-2.115V19.527a.544.544,0,0,0-.544-.544h-3.5l-2.979-2.071a.544.544,0,0,0-.62,0l-3,2.072H3.838a.544.544,0,0,0-.544.544v2.241L.235,23.881a.543.543,0,0,0-.234.44s0,.006,0,.01l.016,11.8a.544.544,0,0,0,.544.544h0l20.153-.028a.544.544,0,0,0,.544-.545Zm-3.277-1.2L19.7,24.33l-1.74,1.209Zm-7.336-5.1,1.383.961H9.239Zm-6.248,2.05H16.876V26.3l-4.2,2.916-1.71-1.327-.008-.005a.544.544,0,0,0-.66.005L8.581,29.222l-4.2-2.9Zm-1.089,3.02v2.476L1.5,24.33Zm-2.2,2.278,6.588,4.553L1.1,35.022ZM2.154,35.585,10.637,29l8.453,6.557Zm11.429-5.673,6.572-4.569.013,9.677Z" transform="translate(0 -16.814)" fill="#fff"/>
      </g>
    </g>
    <g id="Group_66" data-name="Group 66" transform="translate(6.399 22.249)">
      <g id="Group_65" data-name="Group 65">
        <path id="Path_740" data-name="Path 740" d="M162.038,147.713h-7.371a.544.544,0,0,0,0,1.089h7.371a.544.544,0,0,0,0-1.089Z" transform="translate(-154.122 -147.713)" fill="#fff"/>
      </g>
    </g>
    <g id="Group_68" data-name="Group 68" transform="translate(6.399 25.08)">
      <g id="Group_67" data-name="Group 67">
        <path id="Path_741" data-name="Path 741" d="M162.038,215.9h-7.371a.544.544,0,0,0,0,1.089h7.371a.544.544,0,0,0,0-1.089Z" transform="translate(-154.122 -215.895)" fill="#fff"/>
      </g>
    </g>
  </g>
</svg>
