<svg xmlns="http://www.w3.org/2000/svg" width="338.623" height="165.44" viewBox="0 0 338.623 165.44">
  <g id="email" transform="translate(-0.01)">
    <path id="Path_1066" data-name="Path 1066" d="M411.205,331.6H392.165V329.72h19.03a6.916,6.916,0,0,1,6.9,6.9v119.3a6.916,6.916,0,0,1-6.9,6.9H217.065a6.916,6.916,0,0,1-6.9-6.9V442.268h1.884v13.643a5.032,5.032,0,0,0,5.021,5.021H411.205a5.032,5.032,0,0,0,5.021-5.021v-119.3a5.032,5.032,0,0,0-5.021-5.021h0Zm-3.469,7.692H392.22v-1.884h16.514a.942.942,0,0,1,.942.942V453.417a.942.942,0,0,1-.942.942H217.486a.942.942,0,0,1-.942-.942V442.268h1.884v10.207H407.736V339.285h0Z" transform="translate(-146.903 -321.256)" fill="#f15c22"/>
    <path id="Path_1067" data-name="Path 1067" d="M197.34,322.85H389.231V438.2H197.34V322.85Zm0,23.274H389.231v92.1H197.34v-92.1Z" transform="translate(-148.291 -322)" fill="none" stroke="#f15c22" stroke-linecap="round" stroke-linejoin="round" stroke-width="1.7"/>
    <path id="Path_1068" data-name="Path 1068" stroke="#f15c22" d="M88.81,35.45h95.513V97.182H88.81V35.45Z" fill="#f15c22" transform="translate(9.525 3.747)" stroke-linecap="round" stroke-linejoin="round" stroke-width="1.7" fill-rule="evenodd"/>
    <path id="Path_1069" data-name="Path 1069" stroke="#f6f7f9" d="M88.81,35.45h95.513L136.168,64.2,88.81,35.45Z" fill="#f6f7f9" transform="translate(9.525 3.747)" stroke-linecap="round" stroke-linejoin="round" stroke-width="1.7" fill-rule="evenodd"/>
    <path id="Path_1070" data-name="Path 1070" stroke="#f15c22" d="M329.093,372.77a13.743,13.743,0,1,1-13.743,13.743,13.743,13.743,0,0,1,13.743-13.743Z" fill="#fff" transform="translate(-135.511 -316.594)" stroke-linecap="round" stroke-linejoin="round" stroke-width="1.7" fill-rule="evenodd"/>
    <path id="Path_1071" data-name="Path 1071" d="M329.639,391.205h-2.095v-7.9a7.192,7.192,0,0,1-2.7,1.6v-1.928a5.963,5.963,0,0,0,1.784-1.02,3.868,3.868,0,0,0,1.319-1.751h1.7v11.005h0Z" transform="translate(-134.483 -315.789)" fill="#f15c22"/>
    <path id="Path_1072" data-name="Path 1072" d="M339.551,329.72a4,4,0,1,1-4,4,4,4,0,0,1,4-4Z" transform="translate(-133.323 -321.256)" fill="#f15c22" fill-rule="evenodd"/>
    <path id="Path_1073" data-name="Path 1073" d="M351.151,329.72a4,4,0,1,1-4,4,4,4,0,0,1,4-4Z" transform="translate(-132.067 -321.256)" fill="#f15c22" fill-rule="evenodd"/>
    <path id="Path_1074" data-name="Path 1074" d="M362.3,329.72a4,4,0,1,1-4,4,4,4,0,0,1,4-4Z" transform="translate(-130.859 -321.256)" fill="#f15c22" fill-rule="evenodd"/>
    <path id="Path_1075" data-name="Path 1075" d="M245.94,411.681l36.84-24.261M332.3,411.681l-36.84-24.261" transform="translate(-143.028 -315.007)" fill="none" stroke="#fff" stroke-linecap="round" stroke-linejoin="round" stroke-width="1.7"/>
    <path id="Path_1076" data-name="Path 1076" d="M184.892,388c1.341,4.245,4.311,6.738,8.224,8.224a15.915,15.915,0,0,0-8.224,8.224c-1.408-4.267-4.045-7.115-8.224-8.224A13.566,13.566,0,0,0,184.892,388ZM153.86,479.534h9.8m8.955,0H470.578m10.407,0h9.8m-180.93-13.078h20.758" transform="translate(-153 -314.944)" fill="none" stroke="#f15c22" stroke-linecap="round" stroke-linejoin="round" stroke-width="1.7"/>
    <path id="Path_1077" data-name="Path 1077" d="M84.37,130.67H288.64v6.517l-7.326,6.506H45.136l-7.326-6.506V130.67Z" transform="translate(4.002 14.059)" fill="#f15c22" fill-rule="evenodd"/>
    <path id="Path_1078" data-name="Path 1078" d="M402.989,350.374c5.276-.4,8.678,2.46,10.629,7.758,11.282-3.535,15.815,1.884,16.3,12.657h9.31a3.148,3.148,0,0,1,3.491,3.491m-6.328.554h13.056m-48.588,5.054h22.476m4.256,0h4.356m0,3.846H409.461m-4.256,0H400.85m24.383,60.247v7.891m3.946-3.946h-7.891" transform="translate(-126.251 -319.023)" fill="none" stroke="#f15c22" stroke-linecap="round" stroke-linejoin="round" stroke-width="1.7"/>
  </g>
</svg>
