<svg xmlns="http://www.w3.org/2000/svg" width="22.91" height="20.609" viewBox="0 0 22.91 20.609">
  <g id="Events" transform="translate(-0.005 0.004)">
    <path id="Path_687" data-name="Path 687" d="M294.57,389.87h16.72m-16-3.31H310.6a.7.7,0,0,1,.69.71v7.21a5.806,5.806,0,0,0-5.14,9.54H295.26a.7.7,0,0,1-.69-.71v-16a.7.7,0,0,1,.69-.71h0Z" transform="translate(-294 -386)" fill="none" stroke="#fff" stroke-linecap="round" stroke-linejoin="round" stroke-width="1.13"/>
    <path id="Path_688" data-name="Path 688" d="M310.55,394.44a5.8,5.8,0,1,1-5.8,5.8,5.8,5.8,0,0,1,5.8-5.8Zm-1.91,5.89,1.35,1.35,2.5-2.5m-15.05-5h5.32m-5.32,3.2h2.66" transform="translate(-294 -386)" fill="none" stroke="#fff" stroke-linecap="round" stroke-linejoin="round" stroke-width="1.13"/>
  </g>
</svg>
