<svg xmlns="http://www.w3.org/2000/svg" xmlns:xlink="http://www.w3.org/1999/xlink" width="330.995" height="268.017" viewBox="0 0 330.995 268.017">
  <defs>
    <filter id="Path_1100" x="57.165" y="0" width="273.829" height="268.017" filterUnits="userSpaceOnUse">
      <feOffset input="SourceAlpha"/>
      <feGaussianBlur stdDeviation="10" result="blur"/>
      <feFlood flood-opacity="0.059"/>
      <feComposite operator="in" in2="blur"/>
      <feComposite in="SourceGraphic"/>
    </filter>
  </defs>
  <g id="New_project" data-name="New project" transform="translate(-742.933 -426.301)">
    <g id="_1" data-name="1" transform="matrix(0.985, -0.174, 0.174, 0.985, 742.929, 491.402)">
      <path id="Path_1086" data-name="Path 1086" stroke="#848f99" d="M191.917,282.35H359.671a5.579,5.579,0,0,1,5.557,5.557V448.472a5.579,5.579,0,0,1-5.557,5.557H191.917a5.579,5.579,0,0,1-5.557-5.557V287.914a5.579,5.579,0,0,1,5.557-5.557h0Z" fill="#fff" transform="translate(-186 -282)" stroke-linecap="round" stroke-linejoin="round" stroke-width="0.71" fill-rule="evenodd"/>
      <path id="Path_1087" data-name="Path 1087" d="M335.742,323.82V427.805a4.239,4.239,0,0,1-4.231,4.231H249.131a4.239,4.239,0,0,1-4.231-4.231V323.82Z" transform="translate(-200.699 -292.413)" fill="none" stroke="#848f99" stroke-linecap="round" stroke-linejoin="round" stroke-width="1.13"/>
      <path id="Path_1088" data-name="Path 1088" stroke="#848f99" d="M249.161,306.34h82.379a4.239,4.239,0,0,1,4.209,4.239v8.859H244.93v-8.859a4.239,4.239,0,0,1,4.231-4.231h0Z" fill="#dfe9f2" transform="translate(-200.707 -288.024)" stroke-linecap="round" stroke-linejoin="round" stroke-width="1.13" fill-rule="evenodd"/>
      <path id="Path_1089" data-name="Path 1089" d="M283.724,311.53h52.805a.824.824,0,0,1,.824.824v3.67a.824.824,0,0,1-.824.824H283.724a.824.824,0,0,1-.824-.824v-3.67a.824.824,0,0,1,.824-.824Z" transform="translate(-210.241 -289.327)" fill="#fff" fill-rule="evenodd"/>
      <path id="Path_1090" data-name="Path 1090" d="M255.988,312.79a1.708,1.708,0,1,1-1.707,1.708,1.707,1.707,0,0,1,1.707-1.708Z" transform="translate(-203.054 -289.643)" fill="#ff6259" fill-rule="evenodd"/>
      <path id="Path_1091" data-name="Path 1091" d="M262.617,312.79a1.708,1.708,0,1,1-1.707,1.708,1.708,1.708,0,0,1,1.707-1.708Z" transform="translate(-204.719 -289.643)" fill="#ffbd2d" fill-rule="evenodd"/>
      <path id="Path_1092" data-name="Path 1092" d="M269.247,312.79a1.708,1.708,0,1,1-1.707,1.708,1.707,1.707,0,0,1,1.707-1.708Z" transform="translate(-206.384 -289.643)" fill="#2bca41" fill-rule="evenodd"/>
      <path id="Path_1093" data-name="Path 1093" d="M293.251,336.95a17.7,17.7,0,1,1-.03,0h0Zm-.285,16.042v11.556m-3-2.486,2.748,2.748,2.674-2.674m-5.242-2.793h-2.771c-4.344,0-4.681-6.066-.427-6.875-.195-6.411,8.74-8.627,11.75-2.629,6.051,1.925,5.242,9.361.667,9.361l-3.437.045M256.24,380.918h73.085" transform="translate(-203.547 -295.71)" fill="none" stroke="#f15c22" stroke-linecap="round" stroke-linejoin="round" stroke-width="1.13"/>
      <path id="Path_1094" data-name="Path 1094" d="M269.984,401.86h45.032m-59.044,4.074h73.085m-69.648,4.359h66.226m-68.285,6.066H328.6a1.947,1.947,0,0,1,1.94,1.94v4.973a1.947,1.947,0,0,1-1.94,1.94H257.35a1.947,1.947,0,0,1-1.94-1.94V418.3a1.947,1.947,0,0,1,1.94-1.94Z" transform="translate(-203.338 -312.009)" fill="none" stroke="#bfcbd6" stroke-linecap="round" stroke-linejoin="round" stroke-width="1.13"/>
      <path id="Path_1095" data-name="Path 1095" d="M257.871,437.3h70.195a2.479,2.479,0,0,1,2.471,2.471v6.291a2.479,2.479,0,0,1-2.471,2.471H257.871a2.479,2.479,0,0,1-2.471-2.471v-6.291a2.479,2.479,0,0,1,2.471-2.471Z" transform="translate(-203.336 -320.907)" fill="#f15c22" fill-rule="evenodd"/>
      <path id="Path_1096" data-name="Path 1096" d="M280,441.682h1.715a3.324,3.324,0,0,1,.884.09,1.55,1.55,0,0,1,.7.427,2.022,2.022,0,0,1,.442.749,3.469,3.469,0,0,1,.15,1.1,3.057,3.057,0,0,1-.142.989,2.045,2.045,0,0,1-.5.824,1.647,1.647,0,0,1-.659.374,2.816,2.816,0,0,1-.831.1H280v-4.658h0Zm.944.786v3.086h.7a2.575,2.575,0,0,0,.569-.045.86.86,0,0,0,.382-.195.973.973,0,0,0,.247-.449,3,3,0,0,0,.1-.854,2.762,2.762,0,0,0-.1-.831,1.063,1.063,0,0,0-.262-.449.891.891,0,0,0-.434-.217,4.262,4.262,0,0,0-.749-.045h-.419Zm3.565,1.573a3,3,0,0,1,.217-1.2,2.188,2.188,0,0,1,.434-.637,1.835,1.835,0,0,1,.6-.419,2.568,2.568,0,0,1,1-.187,2.194,2.194,0,0,1,1.648.637,2.868,2.868,0,0,1,0,3.55,2.172,2.172,0,0,1-1.64.637,2.194,2.194,0,0,1-1.655-.637,2.411,2.411,0,0,1-.614-1.752h0Zm.974,0a1.752,1.752,0,0,0,.367,1.206,1.258,1.258,0,0,0,1.857,0,1.79,1.79,0,0,0,.359-1.221,1.752,1.752,0,0,0-.352-1.2,1.3,1.3,0,0,0-1.872,0,1.768,1.768,0,0,0-.359,1.206h0Zm4.928,2.337-1.093-4.658h.974l.7,3.205.854-3.205h1.123l.816,3.258.711-3.258h.951l-1.123,4.658h-1.011l-.921-3.482-.929,3.482h-1.034Zm5.5,0v-4.658h.914l1.917,3.123v-3.123h.869v4.658h-.891l-1.887-3.063v3.063h-.869Zm4.726,0v-4.621h.944v3.834h2.382v.786h-3.28Zm3.745-2.3a3,3,0,0,1,.217-1.2,2.187,2.187,0,0,1,.434-.637,1.835,1.835,0,0,1,.6-.419,2.57,2.57,0,0,1,1-.187,2.194,2.194,0,0,1,1.648.637,2.868,2.868,0,0,1,0,3.55,2.172,2.172,0,0,1-1.64.637,2.194,2.194,0,0,1-1.655-.637,2.411,2.411,0,0,1-.614-1.752h0Zm.974,0a1.752,1.752,0,0,0,.367,1.206,1.258,1.258,0,0,0,1.857,0,1.79,1.79,0,0,0,.359-1.221,1.753,1.753,0,0,0-.352-1.2,1.3,1.3,0,0,0-1.872,0,1.767,1.767,0,0,0-.359,1.206h0Zm8.485,2.337h-1.018l-.4-1.063h-1.872l-.389,1.063h-.951l1.812-4.658h1l1.865,4.658h0Zm-1.722-1.85-.652-1.723-.629,1.723Zm2.247-2.816h1.715a3.325,3.325,0,0,1,.884.09,1.55,1.55,0,0,1,.7.427,2.021,2.021,0,0,1,.442.749,3.468,3.468,0,0,1,.15,1.1,3.056,3.056,0,0,1-.142.989,2.044,2.044,0,0,1-.5.824,1.648,1.648,0,0,1-.659.374,2.817,2.817,0,0,1-.831.1h-1.752v-4.658h0Zm.944.786v3.085h.7a2.575,2.575,0,0,0,.569-.045.862.862,0,0,0,.382-.195.974.974,0,0,0,.247-.449,3,3,0,0,0,.1-.854,2.772,2.772,0,0,0-.1-.831,1.064,1.064,0,0,0-.262-.449.891.891,0,0,0-.434-.217,4.264,4.264,0,0,0-.749-.045h-.419Z" transform="translate(-209.513 -321.986)" fill="#fff"/>
      <path id="Path_1097" data-name="Path 1097" stroke="#848f99" d="M365.248,437.75v49.735a5.579,5.579,0,0,1-5.557,5.557H191.937a5.579,5.579,0,0,1-5.557-5.557V437.75Z" fill="#fff" transform="translate(-186.005 -321.02)" stroke-linecap="round" stroke-linejoin="round" stroke-width="0.71" fill-rule="evenodd"/>
      <path id="Path_1098" data-name="Path 1098" d="M219.689,460.86H346.628a3.924,3.924,0,0,1,3.909,3.909h0a3.924,3.924,0,0,1-3.909,3.909H219.689a3.924,3.924,0,0,1-3.909-3.909h0a3.924,3.924,0,0,1,3.909-3.909Z" transform="translate(-193.387 -326.823)" fill="#bfcbd6" fill-rule="evenodd"/>
      <path id="Path_1099" data-name="Path 1099" d="M253.859,478h75.819a3.924,3.924,0,0,1,3.909,3.909h0a3.924,3.924,0,0,1-3.909,3.909H253.859a3.924,3.924,0,0,1-3.909-3.909h0A3.924,3.924,0,0,1,253.859,478Z" transform="translate(-201.967 -331.127)" fill="#bfcbd6" fill-rule="evenodd"/>
    </g>
    <g id="_2" data-name="2" transform="translate(863.718 456.305) rotate(11)">
      <g transform="matrix(0.98, -0.19, 0.19, 0.98, -124.29, -6.41)" filter="url(#Path_1100)">
        <path id="Path_1100-2" data-name="Path 1100" stroke="#848f99" d="M192.041,282.35h171.5a5.7,5.7,0,0,1,5.681,5.681V452.185a5.7,5.7,0,0,1-5.681,5.681h-171.5a5.7,5.7,0,0,1-5.681-5.681V288.039a5.7,5.7,0,0,1,5.681-5.681h0Z" fill="#fff" transform="translate(-7.99 -282.31) rotate(11)" stroke-linecap="round" stroke-linejoin="round" stroke-width="0.71" fill-rule="evenodd"/>
      </g>
      <path id="Path_1101" data-name="Path 1101" stroke="#848f99" d="M337.84,323.65V429.439a4.318,4.318,0,0,1-4.3,4.3H249.753a4.318,4.318,0,0,1-4.3-4.3V323.65Z" fill="#fff" transform="translate(-199.848 -291.679)" stroke-linecap="round" stroke-linejoin="round" stroke-width="1.13" fill-rule="evenodd"/>
      <path id="Path_1102" data-name="Path 1102" stroke="#848f99" d="M249.753,306.26h83.784a4.318,4.318,0,0,1,4.3,4.3v9.019H245.45v-9.019a4.318,4.318,0,0,1,4.3-4.3Z" fill="#dfe9f2" transform="translate(-199.848 -287.603)" stroke-linecap="round" stroke-linejoin="round" stroke-width="1.13" fill-rule="evenodd"/>
      <path id="Path_1103" data-name="Path 1103" d="M284.115,311.42H337.84a.842.842,0,0,1,.835.835v3.736a.842.842,0,0,1-.835.835H284.115a.842.842,0,0,1-.835-.835v-3.736a.842.842,0,0,1,.835-.835Z" transform="translate(-208.714 -288.813)" fill="#fff" fill-rule="evenodd"/>
      <path id="Path_1104" data-name="Path 1104" d="M256.468,312.68a1.738,1.738,0,1,1-1.738,1.738,1.738,1.738,0,0,1,1.738-1.738Z" transform="translate(-202.023 -289.108)" fill="#ff6259" fill-rule="evenodd"/>
      <path id="Path_1105" data-name="Path 1105" d="M263.088,312.68a1.738,1.738,0,1,1-1.738,1.738,1.738,1.738,0,0,1,1.738-1.738Z" transform="translate(-203.574 -289.108)" fill="#ffbd2d" fill-rule="evenodd"/>
      <path id="Path_1106" data-name="Path 1106" d="M269.688,312.68a1.738,1.738,0,1,1-1.738,1.738,1.738,1.738,0,0,1,1.738-1.738Z" transform="translate(-205.121 -289.108)" fill="#2bca41" fill-rule="evenodd"/>
      <path id="Path_1107" data-name="Path 1107" d="M259.415,338.78h69.191a2.343,2.343,0,0,1,2.335,2.335v25.052a2.343,2.343,0,0,1-2.335,2.335H259.415a2.343,2.343,0,0,1-2.335-2.335V341.115a2.343,2.343,0,0,1,2.335-2.335Zm35.327,6.891a1.922,1.922,0,1,1-1.922,1.922,1.922,1.922,0,0,1,1.922-1.922Zm-8.935,14.716h22.257l-7.526-10.535-5.314,5.359-3.139-3.361-6.278,8.537ZM257.2,376.32h74.352" transform="translate(-202.574 -295.225)" fill="none" stroke="#f15c22" stroke-linecap="round" stroke-linejoin="round" stroke-width="1.13"/>
      <path id="Path_1108" data-name="Path 1108" d="M271.519,393.93H317.3m-60.065,4.15h74.352m-70.86,4.433h67.377M274.666,406.8h39.492" transform="translate(-202.611 -308.149)" fill="none" stroke="#bfcbd6" stroke-linecap="round" stroke-linejoin="round" stroke-width="1.13"/>
      <path id="Path_1109" data-name="Path 1109" d="M257.23,422.16h49m-49,4.356h38.6" transform="translate(-202.609 -314.765)" fill="none" stroke="#f15c22" stroke-linecap="round" stroke-linejoin="round" stroke-width="1.13"/>
      <path id="Path_1110" data-name="Path 1110" d="M257.225,433.54h45.763M257.21,437.9h45.778m-45.778,4.357H290.9M257.21,446.61h49.767" transform="translate(-202.604 -317.432)" fill="none" stroke="#bfcbd6" stroke-linecap="round" stroke-linejoin="round" stroke-width="1.13"/>
      <line id="Line_71" data-name="Line 71" x2="20.182" transform="translate(108.316 107.395)" fill="none" stroke="#f15c22" stroke-linecap="round" stroke-linejoin="round" stroke-width="1.13"/>
      <path id="Path_1111" data-name="Path 1111" d="M327.36,427.85h15.887m-15.887,4.357h18.865m-18.842,4.357h18.842m-18.842,4.357h13.858m-13.858,4.357h20.481" transform="translate(-219.044 -316.099)" fill="none" stroke="#bfcbd6" stroke-linecap="round" stroke-linejoin="round" stroke-width="1.13"/>
      <path id="Path_1112" data-name="Path 1112" stroke="#848f99" d="M369.247,437.75V488.6a5.7,5.7,0,0,1-5.681,5.681h-171.5a5.7,5.7,0,0,1-5.681-5.681V437.75Z" fill="#fff" transform="translate(-186.005 -318.419)" stroke-linecap="round" stroke-linejoin="round" stroke-width="0.71" fill-rule="evenodd"/>
      <path id="Path_1113" data-name="Path 1113" d="M219.777,460.86H349.553a4.012,4.012,0,0,1,4,4h0a4.012,4.012,0,0,1-4,4H219.777a4.012,4.012,0,0,1-4-4h0a4.012,4.012,0,0,1,4-4Z" transform="translate(-192.895 -323.835)" fill="#bfcbd6" fill-rule="evenodd"/>
      <path id="Path_1114" data-name="Path 1114" d="M253.947,478h77.514a4.012,4.012,0,0,1,4,4h0a4.012,4.012,0,0,1-4,4H253.947a4.012,4.012,0,0,1-4-4h0a4.012,4.012,0,0,1,4-4Z" transform="translate(-200.903 -327.852)" fill="#bfcbd6" fill-rule="evenodd"/>
    </g>
  </g>
</svg>
