<svg xmlns="http://www.w3.org/2000/svg" width="21" height="19.91" viewBox="0 0 21 19.91">
  <path id="Projects" d="M302.88,392.31h11.67a.86.86,0,0,1,.86.86v12.3a.86.86,0,0,1-.86.86H302.88a.86.86,0,0,1-.86-.86v-12.3a.86.86,0,0,1,.86-.86Zm-.88,2.92h13.39m-10.25,3.18h7.11v3.89h-7.11v-3.89Zm-8.73-10.84H308.1a.86.86,0,0,1,.86.86v3.88h-6.08a.86.86,0,0,0-.86.86v.51H298.7v3.89H302v4h-5.6a.86.86,0,0,1-.86-.86v-12.3a.86.86,0,0,1,.86-.86h0Zm-.86,2.92H309" transform="translate(-294.975 -386.985)" fill="none" stroke="#fff" stroke-linecap="round" stroke-linejoin="round" stroke-width="1.13"/>
</svg>
