<svg xmlns="http://www.w3.org/2000/svg" width="20.89" height="20.89" viewBox="0 0 20.89 20.89">
  <path id="Settings" d="M315.41,394.79a.39.39,0,0,0-.33-.38l-1.43-.23-.76-1.83.85-1.17a.39.39,0,0,0,0-.5l-2.4-2.4a.39.39,0,0,0-.5,0l-1.17.85-1.83-.76-.23-1.43a.39.39,0,0,0-.38-.33h-3.4a.39.39,0,0,0-.38.33l-.23,1.43-1.83.76-1.17-.85a.39.39,0,0,0-.5,0l-2.4,2.4a.39.39,0,0,0,0,.5l.85,1.17-.76,1.83-1.43.23a.39.39,0,0,0-.33.38v3.4a.39.39,0,0,0,.33.38l1.43.23.76,1.83-.85,1.17a.39.39,0,0,0,0,.5l2.4,2.4a.39.39,0,0,0,.5,0l1.17-.85,1.83.76.23,1.43a.39.39,0,0,0,.38.33h3.4a.39.39,0,0,0,.38-.33l.23-1.43,1.83-.76,1.17.85a.39.39,0,0,0,.5,0l2.4-2.4a.39.39,0,0,0,0-.5l-.85-1.17.76-1.83,1.43-.23a.39.39,0,0,0,.33-.38v-3.4Zm-9.92-3.54a5.24,5.24,0,1,1-5.24,5.24,5.24,5.24,0,0,1,5.24-5.24Z" transform="translate(-295.085 -386.045)" fill="none" stroke="#fff" stroke-miterlimit="22.93" stroke-width="1.13"/>
</svg>
