<svg width="45" height="45" viewBox="0 0 45 45" fill="none" xmlns="http://www.w3.org/2000/svg">
<g clip-path="url(#clip0)">
<path d="M39.912 44.13H4.22C3.10211 44.1268 2.03087 43.6815 1.24021 42.8912C0.449549 42.1009 0.00369368 41.0299 0 39.912L0 4.22C0.00263868 3.10194 0.447818 2.03041 1.23822 1.23963C2.02862 0.448856 3.09994 0.00316869 4.218 0L39.91 0C41.0279 0.00316374 42.0991 0.448511 42.8898 1.2388C43.6805 2.02908 44.1263 3.10011 44.13 4.218V39.91C44.1263 41.0277 43.6808 42.0987 42.8906 42.8892C42.1004 43.6798 41.0297 44.1258 39.912 44.13V44.13ZM4.222 1.13C3.4026 1.13211 2.61736 1.45855 2.03796 2.03796C1.45855 2.61736 1.13211 3.4026 1.13 4.222V39.91C1.13264 40.7291 1.45931 41.5138 2.03866 42.0928C2.61801 42.6717 3.40295 42.9979 4.222 43H39.91C40.7291 42.9974 41.5138 42.6707 42.0928 42.0913C42.6717 41.512 42.9979 40.7271 43 39.908V4.22C42.9974 3.40095 42.6707 2.61622 42.0913 2.03725C41.512 1.45828 40.7271 1.13211 39.908 1.13H4.222Z" fill="#626D82"/>
<path d="M28.053 13.565C28.1885 13.5647 28.3185 13.6179 28.415 13.713C28.4624 13.7594 28.5 13.8148 28.5258 13.8759C28.5515 13.9371 28.5649 14.0027 28.565 14.069V18.255C28.5649 18.3213 28.5515 18.387 28.5258 18.4481C28.5 18.5092 28.4624 18.5646 28.415 18.611C28.3185 18.7061 28.1885 18.7593 28.053 18.759H26C25.8645 18.7593 25.7345 18.7061 25.638 18.611C25.5906 18.5646 25.553 18.5092 25.5272 18.4481C25.5015 18.387 25.4881 18.3213 25.488 18.255V17.645H23.343V22.78C22.9678 23.1059 22.6288 23.4714 22.332 23.87V17.141C22.332 17.0745 22.3453 17.0087 22.371 16.9474C22.3968 16.8861 22.4345 16.8305 22.482 16.784C22.5785 16.6898 22.7081 16.637 22.843 16.637H26C26.1349 16.637 26.2645 16.6898 26.361 16.784C26.4085 16.8305 26.4462 16.8861 26.472 16.9474C26.4977 17.0087 26.511 17.0745 26.511 17.141V17.741H27.558V14.55H14.588V17.739H15.635V17.139C15.635 17.0725 15.6483 17.0067 15.674 16.9454C15.6998 16.8841 15.7375 16.8285 15.785 16.782C15.8814 16.6876 16.0111 16.6348 16.146 16.635H19.3C19.4352 16.6348 19.5652 16.6875 19.662 16.782C19.7095 16.8285 19.7472 16.8841 19.773 16.9454C19.7987 17.0067 19.812 17.0725 19.812 17.139V27.693C19.8119 27.7593 19.7985 27.825 19.7728 27.8861C19.747 27.9472 19.7094 28.0026 19.662 28.049C19.5655 28.1441 19.4355 28.1973 19.3 28.197H17.883V29.568H21.154C21.2353 29.9091 21.3426 30.2434 21.475 30.568H17.375C17.2398 30.5685 17.11 30.5152 17.014 30.42C16.9665 30.3736 16.9288 30.3182 16.903 30.257C16.8772 30.1959 16.8639 30.1303 16.864 30.064V27.716C16.864 27.6495 16.8773 27.5837 16.903 27.5224C16.9288 27.4611 16.9665 27.4055 17.014 27.359C17.1105 27.2648 17.2401 27.212 17.375 27.212H18.791V17.712H16.646V18.312C16.646 18.3785 16.6327 18.4443 16.607 18.5056C16.5812 18.5669 16.5435 18.6225 16.496 18.669C16.3992 18.7635 16.2692 18.8162 16.134 18.816H14.076C14.0075 18.8166 13.9395 18.8037 13.876 18.778C13.8139 18.7531 13.7575 18.7161 13.71 18.669C13.6626 18.6222 13.6248 18.5664 13.599 18.505C13.5732 18.4439 13.5599 18.3783 13.56 18.312V14.128C13.5599 14.0617 13.5732 13.9961 13.599 13.935C13.6248 13.8736 13.6626 13.8178 13.71 13.771C13.7575 13.7239 13.8139 13.6869 13.876 13.662C13.9395 13.6363 14.0075 13.6234 14.076 13.624L28.053 13.565Z" fill="#F15C22"/>
<path fill-rule="evenodd" clip-rule="evenodd" d="M30.048 24.026C28.9926 23.5169 27.7784 23.4468 26.6714 23.8311C25.5644 24.2154 24.6548 25.0227 24.1418 26.0762C23.6288 27.1298 23.5543 28.3437 23.9344 29.4521C24.3146 30.5605 25.1185 31.4731 26.1701 31.99C27.2218 32.5069 28.4354 32.586 29.5452 32.2099C30.655 31.8339 31.5706 31.0333 32.0914 29.9836C32.6122 28.9339 32.6958 27.7206 32.3238 26.6094C31.9519 25.4982 31.1548 24.5797 30.107 24.055V24.055L30.048 24.026Z" fill="white"/>
<path d="M28.06 32.993C27.2223 32.9916 26.3987 32.7767 25.6672 32.3686C24.9356 31.9604 24.3201 31.3725 23.8789 30.6604C23.4378 29.9482 23.1854 29.1354 23.1457 28.2986C23.106 27.4618 23.2802 26.6287 23.652 25.878C24.2332 24.7127 25.2499 23.8232 26.482 23.402C27.0928 23.1931 27.7389 23.1069 28.3832 23.1484C29.0274 23.1899 29.6571 23.3584 30.236 23.644V23.644L30.294 23.673C31.2789 24.1764 32.0659 24.9964 32.5284 26.0012C32.9908 27.006 33.1019 28.1371 32.8437 29.2126C32.5855 30.2882 31.973 31.2456 31.1048 31.9309C30.2366 32.6162 29.1631 32.9896 28.057 32.991L28.06 32.993ZM28.069 23.988C27.4221 23.9874 26.7844 24.1408 26.2085 24.4355C25.6326 24.7302 25.1351 25.1576 24.757 25.6826C24.379 26.2076 24.1314 26.815 24.0345 27.4546C23.9376 28.0942 23.9944 28.7477 24.2 29.361C24.4129 29.9943 24.7782 30.5656 25.2639 31.0245C25.7496 31.4833 26.3407 31.8157 26.9851 31.9922C27.6295 32.1688 28.3074 32.1842 28.9592 32.037C29.6109 31.8898 30.2164 31.5846 30.7224 31.1482C31.2284 30.7119 31.6193 30.1578 31.8606 29.5347C32.102 28.9117 32.1864 28.2388 32.1064 27.5755C32.0265 26.9121 31.7846 26.2786 31.4021 25.7308C31.0196 25.183 30.5082 24.7376 29.913 24.434L29.859 24.408C29.3026 24.1322 28.69 23.9885 28.069 23.988Z" fill="#F15C22"/>
<path d="M28.065 30.99C27.9524 30.9897 27.8444 30.9449 27.7648 30.8652C27.6851 30.7856 27.6403 30.6776 27.64 30.565V28.49H25.565C25.4523 28.49 25.3442 28.4452 25.2645 28.3655C25.1848 28.2858 25.14 28.1777 25.14 28.065C25.14 27.9523 25.1848 27.8442 25.2645 27.7645C25.3442 27.6848 25.4523 27.64 25.565 27.64H27.64V25.565C27.64 25.4523 27.6848 25.3442 27.7645 25.2645C27.8442 25.1848 27.9523 25.14 28.065 25.14C28.1777 25.14 28.2858 25.1848 28.3655 25.2645C28.4452 25.3442 28.49 25.4523 28.49 25.565V27.64H30.565C30.6777 27.64 30.7858 27.6848 30.8655 27.7645C30.9452 27.8442 30.99 27.9523 30.99 28.065C30.99 28.1777 30.9452 28.2858 30.8655 28.3655C30.7858 28.4452 30.6777 28.49 30.565 28.49H28.49V30.565C28.4898 30.6776 28.4449 30.7856 28.3652 30.8652C28.2856 30.9449 28.1777 30.9897 28.065 30.99V30.99Z" fill="#F15C22"/>
</g>
<defs>
<clipPath id="clip0">
<rect width="44.13" height="44.13" fill="white"/>
</clipPath>
</defs>
</svg>
