<svg xmlns="http://www.w3.org/2000/svg" width="23.17" height="23.165" viewBox="0 0 23.17 23.165">
  <path id="Collaborations" d="M303.85,385.72a2.45,2.45,0,1,1-.72,1.73,2.45,2.45,0,0,1,.72-1.73Zm-1.16,2.7a1.528,1.528,0,0,1,0,.32l-.78,1.62a.55.55,0,0,1-.5.31h-.24a.55.55,0,0,1-.26-.73h0a8.19,8.19,0,0,0-3.54,6.75.54.54,0,0,1-.16.39.55.55,0,0,1-.94-.39,9.29,9.29,0,0,1,4.61-8l-.49-.22a.55.55,0,0,1,.46-1,4.08,4.08,0,0,1,1.83,1,.321.321,0,0,0,0,.08h0Zm12.78,6.48a.55.55,0,0,1,.55.55.54.54,0,0,1-.16.39c-.14.14-1.1,1.13-1.16,1.16a.55.55,0,0,1-.76,0l-1.14-1.14a.552.552,0,1,1,.78-.78l.07.07A8.19,8.19,0,0,0,308.8,389a.55.55,0,0,1,.43-1,9.29,9.29,0,0,1,5.58,7.32l.29-.29a.55.55,0,0,1,.39-.16h0Zm-6.12,9.6h0a.38.38,0,0,0-.5-.2h0a8.44,8.44,0,0,1-5.43.37l.36-.11a.38.38,0,0,0-.21-.73l-1.52.45h0l-.1.05h0a.369.369,0,0,0-.09.13.379.379,0,0,0,0,.16,1.171,1.171,0,0,0,0,.15l.76,1.46a.382.382,0,1,0,.68-.35l-.31-.59a9.16,9.16,0,0,0,6.21-.34.38.38,0,0,0,.2-.5h0Zm-10.33-2h.09a2.07,2.07,0,0,1,2.07,2.07v2.28a1.31,1.31,0,0,1-1.31,1.31H295.3a1.31,1.31,0,0,1-1.31-1.31v-2.28a2.07,2.07,0,0,1,2.07-2.07h.13l.12.06a2.87,2.87,0,0,0,2.55,0l.12-.06h0Zm1,4.51a.21.21,0,0,0,.06-.15v-2.28a1,1,0,0,0-.86-1,4,4,0,0,1-3.27,0,1,1,0,0,0-.86,1v2.28a.21.21,0,0,0,.21.21h4.57A.21.21,0,0,0,300,407h0Zm-4.17-8.73a2.45,2.45,0,1,1-.72,1.73,2.45,2.45,0,0,1,.72-1.73Zm.78,2.69a1.35,1.35,0,1,0-.4-1,1.35,1.35,0,0,0,.4,1ZM315,402.51h.09a2.07,2.07,0,0,1,2.07,2.07v2.28a1.31,1.31,0,0,1-1.31,1.31h-4.57a1.31,1.31,0,0,1-1.31-1.31v-2.28a2.07,2.07,0,0,1,2.07-2.07h.13l.12.06a2.87,2.87,0,0,0,2.55,0l.12-.06h0Zm1,4.51a.21.21,0,0,0,.06-.15v-2.28a1,1,0,0,0-.86-1,4,4,0,0,1-3.27,0,1,1,0,0,0-.86,1v2.28a.21.21,0,0,0,.21.21h4.57A.21.21,0,0,0,316,407h0Zm-4.17-8.73a2.45,2.45,0,1,1-.72,1.73,2.45,2.45,0,0,1,.72-1.73Zm.78,2.69a1.36,1.36,0,1,0-.4-1,1.36,1.36,0,0,0,.4,1Zm-5.6-11h.09a2.07,2.07,0,0,1,2.07,2.07v2.28a1.31,1.31,0,0,1-1.31,1.31H303.3a1.31,1.31,0,0,1-1.3-1.34V392a2.07,2.07,0,0,1,2.07-2.07h.13l.12.06a2.87,2.87,0,0,0,2.55,0l.12-.06h0Zm1,4.51a.21.21,0,0,0,.06-.15V392a1,1,0,0,0-.86-1,4,4,0,0,1-3.26,0,1,1,0,0,0-.86,1v2.28a.21.21,0,0,0,.21.21h4.57a.21.21,0,0,0,.15-.06h0Zm-3.39-6a1.35,1.35,0,1,0-.4-1,1.35,1.35,0,0,0,.4,1Z" transform="translate(-293.99 -385.005)" fill="#fff" fill-rule="evenodd"/>
</svg>
