<svg width="256" height="126" viewBox="0 0 256 126" fill="none" xmlns="http://www.w3.org/2000/svg">
<g clip-path="url(#clip0)">
<path d="M199.6 8.00001H185.2V6.60001H199.6C202.5 6.60001 204.8 8.90001 204.8 11.8V101.8C204.8 104.7 202.5 107 199.6 107H53.1C50.2 107 47.9 104.7 47.9 101.8V91.5H49.3V101.8C49.3 103.9 51 105.6 53.1 105.6H199.5C201.6 105.6 203.3 103.9 203.3 101.8V11.8C203.3 9.70001 201.7 8.00001 199.6 8.00001ZM197 13.8H185.3V12.4H197.8C198.2 12.4 198.5 12.7 198.5 13.1V99.9C198.5 100.3 198.2 100.6 197.8 100.6H53.4C53 100.6 52.7 100.3 52.7 99.9V91.5H54.1V99.2H197V13.8Z" fill="#F15C22"/>
<path d="M182 88.7H37.2C36.7 88.7 36.3 88.3 36.3 87.9V0.9C36.3 0.4 36.7 0 37.2 0H182C182.5 0 182.8 0.4 182.8 0.9V17.4C183.3 17.4 183.6 17.8 183.6 18.3V87.8C183.6 88.3 183.2 88.6 182.8 88.6H182.4C182.3 88.7 182.1 88.7 182 88.7ZM38.9 86.9H181.1V19.1H38.9V86.9ZM38.1 17.4H181.1V1.7H38.1V17.4V17.4Z" fill="#F15C22"/>
<path d="M155.8 6.60001C157.5 6.60001 158.8 7.90001 158.8 9.60001C158.8 11.3 157.5 12.6 155.8 12.6C154.1 12.6 152.8 11.3 152.8 9.60001C152.8 7.90001 154.1 6.60001 155.8 6.60001Z" fill="#F15C22"/>
<path d="M165.5 6.60001C167.2 6.60001 168.5 7.90001 168.5 9.60001C168.5 11.3 167.2 12.6 165.5 12.6C163.8 12.6 162.5 11.3 162.5 9.60001C162.5 7.90001 163.8 6.60001 165.5 6.60001Z" fill="#F15C22"/>
<path d="M174.8 6.60001C176.5 6.60001 177.8 7.90001 177.8 9.60001C177.8 11.3 176.5 12.6 174.8 12.6C173.1 12.6 171.8 11.3 171.8 9.60001C171.8 7.90001 173.1 6.60001 174.8 6.60001Z" fill="#F15C22"/>
<path d="M255 125.2H247.6C247.1 125.2 246.8 124.8 246.8 124.4C246.8 124 247.2 123.6 247.6 123.6H255C255.5 123.6 255.8 124 255.8 124.4C255.8 124.8 255.5 125.2 255 125.2ZM239.8 125.2H15C14.5 125.2 14.1 124.8 14.1 124.4C14.1 124 14.5 123.6 15 123.6H239.8C240.3 123.6 240.6 124 240.6 124.4C240.6 124.8 240.2 125.2 239.8 125.2ZM8.2 125.2H0.9C0.4 125.2 0 124.8 0 124.4C0 124 0.4 123.6 0.9 123.6H8.3C8.8 123.6 9.2 124 9.2 124.4C9.2 124.8 8.7 125.2 8.2 125.2ZM134.2 115.3H118.5C118 115.3 117.6 114.9 117.6 114.5C117.6 114.1 118 113.7 118.5 113.7H134.2C134.7 113.7 135 114.1 135 114.5C135 114.9 134.6 115.3 134.2 115.3ZM24.3 68.6C24.2 68.6 24.2 68.6 24.3 68.6C23.9 68.6 23.6 68.3 23.5 68C22.8 65.3 20.6 63.1 17.9 62.4C17.5 62.3 17.3 62 17.3 61.6C17.3 61.2 17.5 60.9 17.9 60.8C20.6 59.9 22.6 57.8 23.6 55.1C23.7 54.8 24 54.5 24.4 54.5C24.8 54.5 25.1 54.7 25.2 55.1C26.1 57.8 28.2 59.9 30.8 60.7C31.1 60.8 31.4 61.1 31.4 61.5C31.4 61.9 31.2 62.2 30.9 62.3C28.3 63.4 26.3 65.5 25.1 68.1C24.9 68.4 24.6 68.6 24.3 68.6ZM20.2 61.5C22 62.4 23.5 63.9 24.4 65.7C25.4 64.1 26.8 62.7 28.5 61.6C26.7 60.6 25.2 59.2 24.3 57.4C23.3 59.1 21.9 60.5 20.2 61.5Z" fill="#F15C22"/>
<path d="M66.9 109.4H185.8H220.9V114.3L215.4 119.2H185.8H66.9H37.3L31.8 114.3V109.4H66.9Z" fill="#F15C22"/>
<path d="M225.7 101.2C225.2 101.2 224.9 100.8 224.9 100.4V98.2H222.8C222.3 98.2 222 97.8 222 97.4C222 97 222.4 96.6 222.8 96.6H224.9V94.5C224.9 94 225.3 93.7 225.7 93.7C226.1 93.7 226.5 94.1 226.5 94.5V96.6H228.7C229.2 96.6 229.5 97 229.5 97.4C229.5 97.8 229.1 98.2 228.7 98.2H226.5V100.4C226.5 100.8 226.2 101.2 225.7 101.2ZM161.4 78.2H140.5C138.7 78.2 137.3 76.8 137.3 75V47.5C137.3 45.7 138.7 44.3 140.5 44.3H140.6H161.4C163.2 44.3 164.6 45.7 164.6 47.5V75C164.6 76.8 163.2 78.2 161.4 78.2ZM140.4 46C139.6 46.1 139 46.7 139 47.5V75C139 75.8 139.7 76.5 140.5 76.5H161.4C162.2 76.5 162.9 75.8 162.9 75V47.6C162.9 46.8 162.2 46.1 161.4 46.1H140.5C140.4 46 140.4 46 140.4 46ZM80.5 76.2H55.9C55.1 76.2 54.5 75.6 54.5 74.8V70C54.5 69.2 55.1 68.6 55.9 68.6H56H80.5C81.3 68.6 81.9 69.2 81.9 70V74.8C81.9 75.6 81.3 76.2 80.5 76.2ZM56.2 74.6H80.2V70.4H56.2V74.6ZM78.7 61.9H57.7C55.9 61.9 54.5 60.5 54.5 58.7V31.3C54.5 29.6 55.8 28.2 57.5 28.1C57.6 28.1 57.6 28.1 57.7 28.1H78.6C80.4 28.1 81.8 29.5 81.8 31.3V58.8C81.9 60.5 80.5 61.9 78.7 61.9ZM57.9 29.7C57.8 29.7 57.8 29.7 57.7 29.7C56.9 29.7 56.2 30.4 56.2 31.2V58.6C56.2 59.4 56.9 60.1 57.7 60.1H78.6C79.4 60.1 80.1 59.4 80.1 58.6V31.2C80.1 30.4 79.4 29.7 78.6 29.7H57.9ZM121.9 60.8H97.3C96.5 60.8 95.9 60.2 95.9 59.4V54.6C95.9 53.8 96.5 53.2 97.3 53.2H121.9C122.7 53.2 123.3 53.8 123.3 54.6V59.4C123.3 60.2 122.7 60.8 121.9 60.8ZM97.6 59.1H121.6V54.9H97.6V59.1ZM230.8 49.8H213.8C213.3 49.8 213 49.4 213 48.9C213 48.4 213.4 48 213.8 48H230.8C231.3 48 231.6 48.4 231.6 48.9C231.6 49.4 231.3 49.8 230.8 49.8ZM210.6 49.8H207.3C206.8 49.8 206.5 49.4 206.5 48.9C206.5 48.4 206.9 48 207.3 48H210.6C211.1 48 211.4 48.4 211.4 48.9C211.4 49.4 211.1 49.8 210.6 49.8ZM121.9 48.8H97.3C96.5 48.8 95.9 48.2 95.9 47.4V42.6C95.9 41.8 96.5 41.2 97.3 41.2H121.9C122.7 41.2 123.3 41.8 123.3 42.6V47.4C123.3 48.2 122.7 48.8 121.9 48.8ZM97.6 47.1H121.6V42.9H97.6V47.1ZM230.8 46.9H227.5C227 46.9 226.7 46.5 226.7 46C226.7 45.5 227.1 45.1 227.5 45.1H230.8C231.3 45.1 231.6 45.5 231.6 46C231.6 46.5 231.3 46.9 230.8 46.9ZM224.3 46.9H207.3C206.8 46.9 206.5 46.5 206.5 46C206.5 45.5 206.9 45.1 207.3 45.1H224.3C224.8 45.1 225.1 45.5 225.1 46C225.1 46.5 224.8 46.9 224.3 46.9ZM244 43.2H234.2C233.7 43.2 233.4 42.8 233.4 42.3C233.4 41.8 233.8 41.4 234.2 41.4H238.1C238 40.6 237.2 40 236.4 40.1H229.3C228.8 40.1 228.5 39.7 228.5 39.3C228.3 35 227.2 32.1 225.3 30.8C223.5 29.5 220.8 29.5 217.3 30.6C216.9 30.7 216.4 30.5 216.2 30.1C214.8 26.2 212.5 24.5 209.1 24.8C208.6 24.8 208.2 24.5 208.2 24C208.2 23.5 208.5 23.1 209 23.1C213 22.8 215.9 24.7 217.6 28.8C221.3 27.8 224.2 28 226.3 29.5C228.6 31.1 229.9 34.1 230.2 38.6H236.4C238.1 38.4 239.7 39.7 239.9 41.4C239.9 41.5 239.9 41.5 239.9 41.6H244.1C244.6 41.6 244.9 42 244.9 42.5C244.9 43 244.5 43.2 244 43.2ZM163.2 36.8H138.6C137.8 36.8 137.2 36.2 137.2 35.4V30.6C137.2 29.8 137.8 29.2 138.6 29.2H163.2C164 29.2 164.6 29.8 164.6 30.6V35.4C164.6 36.2 164 36.8 163.2 36.8ZM138.9 35.1H162.9V30.9H138.9V35.1ZM121.9 36.8H97.3C96.5 36.8 95.9 36.2 95.9 35.4V30.6C95.9 29.8 96.5 29.2 97.3 29.2H121.9C122.7 29.2 123.3 29.8 123.3 30.6V35.4C123.3 36.2 122.7 36.8 121.9 36.8ZM97.6 35.1H121.6V30.9H97.6V35.1Z" fill="#F15C22"/>
<path d="M68.2 67.5C68 67.5 67.8 67.3 67.8 67.1V66.6C67.8 66.4 68 66.2 68.2 66.2C68.4 66.2 68.6 66.4 68.6 66.6V67.1C68.6 67.3 68.4 67.5 68.2 67.5ZM68.2 64.9C68 64.9 67.8 64.7 67.8 64.5V63.8C67.8 63.6 68 63.4 68.2 63.4C68.4 63.4 68.6 63.6 68.6 63.8V64.5C68.6 64.7 68.4 64.9 68.2 64.9ZM134.1 61.4H134L133.3 61.1C133.1 61 133 60.8 133.1 60.6C133.2 60.4 133.4 60.3 133.6 60.4L134.3 60.7C134.5 60.8 134.6 61 134.5 61.2C134.3 61.4 134.2 61.4 134.1 61.4ZM131.5 60.3H131.4L130.7 60C130.5 59.9 130.4 59.7 130.5 59.5C130.6 59.3 130.8 59.2 131 59.3L131.7 59.6C131.9 59.7 132 59.9 131.9 60.1C131.7 60.2 131.6 60.3 131.5 60.3ZM134.3 60.3C134.2 60.3 134.1 60.2 134 60.1L133.7 59.5C133.6 59.3 133.7 59.1 133.8 59C134 58.9 134.2 59 134.3 59.1L134.6 59.7C134.7 59.9 134.6 60.1 134.5 60.2C134.4 60.2 134.3 60.3 134.3 60.3ZM128.9 59.2H128.8L128.1 58.9C127.9 58.8 127.8 58.6 127.9 58.4C128 58.2 128.2 58.1 128.4 58.2L129.1 58.5C129.3 58.6 129.4 58.8 129.3 59C129.1 59.1 129 59.2 128.9 59.2ZM126.3 58.1H126.2L125.5 57.8C125.3 57.7 125.2 57.5 125.3 57.3C125.4 57.1 125.6 57 125.8 57.1L126.5 57.4C126.7 57.5 126.8 57.7 126.7 57.9C126.5 58 126.4 58.1 126.3 58.1ZM132.9 57.8C132.8 57.8 132.7 57.7 132.6 57.6L132.3 57C132.2 56.8 132.3 56.6 132.4 56.5C132.6 56.4 132.8 56.5 132.9 56.6L133.2 57.2C133.3 57.4 133.2 57.6 133.1 57.7C133 57.8 133 57.8 132.9 57.8ZM94.2 56.5C94.1 56.5 94 56.5 93.9 56.4L93.4 55.9C93.3 55.8 93.3 55.5 93.4 55.4C93.5 55.3 93.8 55.3 93.9 55.4L94.4 55.9C94.5 56 94.5 56.3 94.4 56.4C94.3 56.5 94.2 56.5 94.2 56.5ZM131.5 55.3C131.4 55.3 131.3 55.2 131.2 55.1L130.9 54.5C130.8 54.3 130.9 54.1 131 54C131.2 53.9 131.4 54 131.5 54.1L131.8 54.7C131.9 54.9 131.8 55.1 131.7 55.2C131.6 55.3 131.6 55.3 131.5 55.3ZM92.3 54.4C92.2 54.4 92.1 54.4 92 54.3L91.5 53.8C91.4 53.7 91.4 53.4 91.5 53.3C91.6 53.2 91.9 53.2 92 53.3L92.5 53.8C92.6 53.9 92.6 54.2 92.5 54.3C92.5 54.4 92.4 54.4 92.3 54.4ZM130.1 52.8C130 52.8 129.9 52.7 129.8 52.6L129.5 52C129.4 51.8 129.5 51.6 129.6 51.5C129.8 51.4 130 51.5 130.1 51.6L130.4 52.2C130.5 52.4 130.4 52.6 130.3 52.7C130.2 52.8 130.2 52.8 130.1 52.8ZM90.5 52.2C90.4 52.2 90.3 52.2 90.2 52.1L89.7 51.6C89.6 51.5 89.6 51.2 89.7 51.1C89.9 51 90.1 51 90.2 51.1L90.7 51.6C90.8 51.7 90.8 52 90.7 52.1C90.7 52.2 90.6 52.2 90.5 52.2ZM128.7 50.3C128.6 50.3 128.5 50.2 128.4 50.1L128.1 49.5C128 49.3 128.1 49.1 128.2 49C128.4 48.9 128.6 49 128.7 49.1L129 49.7C129.1 49.9 129 50.1 128.9 50.2C128.8 50.3 128.8 50.3 128.7 50.3ZM88.7 50C88.6 50 88.5 50 88.4 49.9L87.9 49.4C87.8 49.3 87.8 49 87.9 48.9C88.1 48.8 88.3 48.8 88.4 48.9L88.9 49.4C89 49.5 89 49.8 88.9 49.9C88.8 50 88.8 50 88.7 50ZM127.3 47.9C127.2 47.9 127.1 47.8 127 47.7L126.7 47.1C126.6 46.9 126.7 46.7 126.8 46.6C127 46.5 127.2 46.6 127.3 46.7L127.6 47.3C127.7 47.5 127.6 47.7 127.5 47.8C127.5 47.9 127.4 47.9 127.3 47.9ZM86.8 47.9C86.7 47.9 86.6 47.9 86.5 47.8L86 47.3C85.9 47.2 85.9 46.9 86 46.8C86.1 46.7 86.4 46.7 86.5 46.8L87 47.3C87.1 47.4 87.1 47.7 87 47.8C87 47.8 86.9 47.9 86.8 47.9ZM85 45.7C84.9 45.7 84.8 45.7 84.7 45.6L84.3 45C84.3 45 84.3 44.9 84.2 44.9C84.2 44.9 84.2 44.9 84.2 44.8C84.2 44.8 84.2 44.8 84.2 44.7C84.2 44.7 84.2 44.7 84.2 44.6C84.2 44.6 84.2 44.6 84.2 44.5C84.2 44.5 84.2 44.4 84.3 44.4L84.8 43.9C84.9 43.8 85.2 43.7 85.3 43.9C85.4 44 85.5 44.2 85.4 44.4C85.6 44.4 85.7 44.6 85.7 44.8C85.7 45 85.6 45.1 85.4 45.2C85.5 45.3 85.5 45.5 85.3 45.7C85.2 45.7 85.1 45.7 85 45.7ZM125.9 45.4C125.8 45.4 125.7 45.3 125.6 45.2L125.3 44.6C125.2 44.4 125.3 44.2 125.4 44.1C125.6 44 125.8 44.1 125.9 44.2L126.2 44.8C126.3 45 126.2 45.2 126.1 45.3C126.1 45.4 126 45.4 125.9 45.4ZM93.8 45.2H93.1C92.9 45.2 92.7 45 92.7 44.8C92.7 44.6 92.9 44.4 93.1 44.4H93.8C94 44.4 94.2 44.6 94.2 44.8C94.2 45 94 45.2 93.8 45.2ZM90.9 45.2H90.2C90 45.2 89.8 45 89.8 44.8C89.8 44.6 90 44.4 90.2 44.4H90.9C91.1 44.4 91.3 44.6 91.3 44.8C91.3 45 91.1 45.2 90.9 45.2ZM88.1 45.2H87.4C87.2 45.2 87 45 87 44.8C87 44.6 87.2 44.4 87.4 44.4H88.1C88.3 44.4 88.5 44.6 88.5 44.8C88.5 45 88.3 45.2 88.1 45.2ZM86.4 43C86.3 43 86.2 43 86.2 42.9C86.1 42.8 86 42.5 86.2 42.4L86.7 41.9C86.8 41.8 87.1 41.7 87.2 41.9C87.3 42 87.4 42.3 87.2 42.4L86.7 42.9C86.6 42.9 86.5 43 86.4 43ZM151 42.3C150.8 42.3 150.6 42.1 150.6 41.9V41.4C150.6 41.2 150.8 41 151 41C151.2 41 151.4 41.2 151.4 41.4V41.9C151.4 42.1 151.2 42.3 151 42.3ZM88.2 40.8C88.1 40.8 88 40.8 88 40.7C87.9 40.6 87.8 40.3 88 40.2L88.5 39.7C88.6 39.6 88.9 39.5 89 39.7C89.1 39.8 89.2 40.1 89 40.2L88.5 40.7C88.4 40.8 88.3 40.8 88.2 40.8ZM151 39.7C150.8 39.7 150.6 39.5 150.6 39.3V38.6C150.6 38.4 150.8 38.2 151 38.2C151.2 38.2 151.4 38.4 151.4 38.6V39.3C151.4 39.5 151.2 39.7 151 39.7ZM90 38.6C89.9 38.6 89.8 38.6 89.8 38.5C89.7 38.4 89.6 38.1 89.8 38L90.3 37.5C90.4 37.4 90.7 37.3 90.8 37.5C90.9 37.6 91 37.9 90.8 38L90.3 38.5C90.2 38.6 90.1 38.6 90 38.6ZM91.9 36.5C91.8 36.5 91.7 36.5 91.7 36.4C91.6 36.3 91.5 36 91.7 35.9L92.2 35.4C92.3 35.2 92.6 35.2 92.7 35.4C92.8 35.5 92.9 35.8 92.7 35.9L92.2 36.4C92.1 36.4 92 36.5 91.9 36.5ZM93.7 34.3C93.6 34.3 93.5 34.3 93.5 34.2C93.3 34.1 93.3 33.8 93.5 33.7L94 33.2C94.1 33 94.4 33 94.5 33.2C94.7 33.3 94.7 33.6 94.5 33.7L94 34.2C93.9 34.3 93.8 34.3 93.7 34.3ZM134.8 33.4H134.1C133.9 33.4 133.7 33.2 133.7 33C133.7 32.8 133.9 32.6 134.1 32.6H134.8C135 32.6 135.2 32.8 135.2 33C135.2 33.2 135 33.4 134.8 33.4ZM132 33.4H131.3C131.1 33.4 130.9 33.2 130.9 33C130.9 32.8 131.1 32.6 131.3 32.6H132C132.2 32.6 132.4 32.8 132.4 33C132.4 33.2 132.2 33.4 132 33.4ZM129.2 33.4H128.5C128.3 33.4 128.1 33.2 128.1 33C128.1 32.8 128.3 32.6 128.5 32.6H129.2C129.4 32.6 129.6 32.8 129.6 33C129.6 33.2 129.3 33.4 129.2 33.4ZM126.3 33.4H125.6C125.4 33.4 125.2 33.2 125.2 33C125.2 32.8 125.4 32.6 125.6 32.6H126.3C126.5 32.6 126.7 32.8 126.7 33C126.7 33.2 126.5 33.4 126.3 33.4Z" fill="#F15C22"/>
</g>
<defs>
<clipPath id="clip0">
<rect width="255.8" height="125.2" fill="white"/>
</clipPath>
</defs>
</svg>
