<svg xmlns="http://www.w3.org/2000/svg" width="14.603" height="18.85" viewBox="0 0 14.603 18.85">
  <g id="Заметки" transform="translate(0.425 0.425)">
    <path id="blank" d="M300.824,388.43h8.62l3.739,3.739v12.866a1.394,1.394,0,0,1-1.394,1.394H300.824a1.394,1.394,0,0,1-1.394-1.394V389.824a1.394,1.394,0,0,1,1.394-1.394ZM313.1,392.2h-2.345a1.394,1.394,0,0,1-1.394-1.394v-2.345L313.1,392.2Zm-10.87,10.563h8.155m-8.155-2.9h8.155m-8.155-2.9h8.155m-8.155-2.9h4.077" transform="translate(-299.43 -388.43)" fill="none" stroke="#848f99" stroke-linecap="round" stroke-linejoin="round" stroke-width="0.85"/>
  </g>
</svg>
