<svg xmlns="http://www.w3.org/2000/svg" width="57.648" height="57.648" viewBox="0 0 57.648 57.648">
  <g id="picture" transform="translate(0 0)">
    <g id="Group_50" data-name="Group 50" transform="translate(0 0)">
      <g id="Group_49" data-name="Group 49" transform="translate(0 0)">
        <path id="Path_608" data-name="Path 608" d="M42.111,12.159H17.441L34.341,2.4a1.127,1.127,0,0,1,1.538.412l3.813,6.6a1.126,1.126,0,1,0,1.95-1.126l-3.813-6.6A3.382,3.382,0,0,0,33.215.452L12.962,12.145l-.022.014H3.378A3.382,3.382,0,0,0,0,15.537V54.27a3.382,3.382,0,0,0,3.378,3.378H42.111a3.382,3.382,0,0,0,3.378-3.378V15.537A3.382,3.382,0,0,0,42.111,12.159ZM43.237,54.27A1.127,1.127,0,0,1,42.111,55.4H3.378A1.127,1.127,0,0,1,2.252,54.27V15.537a1.127,1.127,0,0,1,1.126-1.126H42.111a1.127,1.127,0,0,1,1.126,1.126V54.27Z" transform="translate(0 0)" fill="#2b333b"/>
      </g>
    </g>
    <g id="Group_52" data-name="Group 52" transform="translate(48.442 23.146)">
      <g id="Group_51" data-name="Group 51">
        <path id="Path_609" data-name="Path 609" d="M432.159,205.9a1.125,1.125,0,1,0,.33.8A1.135,1.135,0,0,0,432.159,205.9Z" transform="translate(-430.237 -205.574)" fill="#2b333b"/>
      </g>
    </g>
    <g id="Group_54" data-name="Group 54" transform="translate(47.029 26.6)">
      <g id="Group_53" data-name="Group 53">
        <path id="Path_610" data-name="Path 610" d="M427.86,244.877l-4.659-8.069a1.126,1.126,0,0,0-1.95,1.126L425.91,246a1.127,1.127,0,0,1-.412,1.538l-7.241,4.181a1.126,1.126,0,1,0,1.126,1.95l7.241-4.181A3.382,3.382,0,0,0,427.86,244.877Z" transform="translate(-417.693 -236.245)" fill="#2b333b"/>
      </g>
    </g>
    <g id="Group_56" data-name="Group 56" transform="translate(27.698 17.564)">
      <g id="Group_55" data-name="Group 55">
        <path id="Path_611" data-name="Path 611" d="M247.927,156.322a1.125,1.125,0,1,0,.33.8A1.134,1.134,0,0,0,247.927,156.322Z" transform="translate(-246.005 -155.992)" fill="#2b333b"/>
      </g>
    </g>
    <g id="Group_58" data-name="Group 58" transform="translate(5.405 17.564)">
      <g id="Group_57" data-name="Group 57">
        <path id="Path_612" data-name="Path 612" d="M81.554,155.992H77.163a1.126,1.126,0,1,0,0,2.252h3.265V174.3l-8.939-8.939a1.126,1.126,0,0,0-1.592,0l-5.965,5.965a1.126,1.126,0,0,0,1.592,1.592l5.169-5.169,9.727,9.727.008.007v5.534H51.845l8.174-8.174,6.072,6.072a1.126,1.126,0,0,0,1.592-1.592l-6.868-6.868a1.126,1.126,0,0,0-1.592,0l-8.97,8.97V158.244H65.341a1.126,1.126,0,0,0,0-2.252H49.127A1.126,1.126,0,0,0,48,157.118v27.023a1.126,1.126,0,0,0,1.126,1.126H81.554a1.126,1.126,0,0,0,1.126-1.126V157.118A1.126,1.126,0,0,0,81.554,155.992Z" transform="translate(-48.001 -155.992)" fill="#2b333b"/>
      </g>
    </g>
    <g id="Group_60" data-name="Group 60" transform="translate(12.798 22.405)">
      <g id="Group_59" data-name="Group 59">
        <path id="Path_613" data-name="Path 613" d="M117.272,198.992a3.6,3.6,0,1,0,3.6,3.6A3.607,3.607,0,0,0,117.272,198.992Zm0,4.954a1.351,1.351,0,1,1,1.351-1.351A1.353,1.353,0,0,1,117.272,203.946Z" transform="translate(-113.669 -198.992)" fill="#2b333b"/>
      </g>
    </g>
  </g>
</svg>
