<svg xmlns="http://www.w3.org/2000/svg" width="23.84" height="21.732" viewBox="0 0 23.84 21.732">
  <path id="Helpdesk" d="M312.22,391.11a2,2,0,0,1-.91,1.48,1.49,1.49,0,0,0-.42.43.58.58,0,0,1-.59.59h0a.58.58,0,0,1-.59-.58,1.77,1.77,0,0,1,.84-1.34,1.1,1.1,0,0,0,.49-.58.585.585,0,1,0-1.17,0,.59.59,0,1,1-1.18,0,1.765,1.765,0,1,1,3.53,0h0Zm-1.9,3a.58.58,0,0,0-.58.59h0a.58.58,0,0,0,.58.59.59.59,0,1,0,0-1.18Zm-11.9,4.11a.59.59,0,1,0,0,1.18h0a.59.59,0,0,0,0-1.18Zm2.05,0a.59.59,0,1,0,0,1.18h0a.59.59,0,0,0,0-1.18Zm17.34-9.43v6.65a2.84,2.84,0,0,1-2.84,2.85h-8.31s-.17.14-.29.25l-.16.14-2.17,2a.6.6,0,0,1-1-.44V394h-6.19a1.69,1.69,0,0,0-1.69,1.68v6.65a1.67,1.67,0,0,0,1.69,1.65h8.55a.59.59,0,0,1,.39.17l1.76,1.63v-5.61a.59.59,0,1,1,1.18,0v6.95a.58.58,0,0,1-.35.54.57.57,0,0,1-.23,0,.6.6,0,0,1-.4-.16l-2.59-2.38h-8.32a2.85,2.85,0,0,1-2.87-2.83v-6.65a2.87,2.87,0,0,1,2.87-2.86h6.19v-4a2.86,2.86,0,0,1,2.88-2.84h9a2.83,2.83,0,0,1,2.84,2.84h0Zm-1.18,0a1.65,1.65,0,0,0-1.65-1.66h-9a1.68,1.68,0,0,0-1.7,1.66v10.09l1.19-1.07.16-.14a1.49,1.49,0,0,1,1.39-.56h8a1.66,1.66,0,0,0,1.65-1.67v-6.65h0Z" transform="translate(-293.97 -385.94)" fill="#fff" fill-rule="evenodd"/>
</svg>
