<svg xmlns="http://www.w3.org/2000/svg" width="17.731" height="18.91" viewBox="0 0 17.731 18.91">
  <g id="Расшарить" transform="translate(0.425 0.425)">
    <path id="share" d="M303.16,399.082l5.1,2.859m-5.1-6.208,5.1-2.859m-7.752,1.45a3.13,3.13,0,1,1-3.13,3.13,3.13,3.13,0,0,1,3.13-3.13Zm10.621,5.905a3.13,3.13,0,1,1-3.13,3.13,3.13,3.13,0,0,1,3.13-3.13Zm0-11.8a3.13,3.13,0,1,1-3.13,3.13,3.13,3.13,0,0,1,3.13-3.13Z" transform="translate(-297.38 -388.43)" fill="none" stroke="#848f99" stroke-linecap="round" stroke-linejoin="round" stroke-width="0.85"/>
  </g>
</svg>
