<svg xmlns="http://www.w3.org/2000/svg" xmlns:xlink="http://www.w3.org/1999/xlink" width="315.549" height="237.774" viewBox="0 0 315.549 237.774">
  <defs>
    <filter id="Path_1115" x="71.94" y="0" width="243.609" height="237.774" filterUnits="userSpaceOnUse">
      <feOffset input="SourceAlpha"/>
      <feGaussianBlur stdDeviation="5" result="blur"/>
      <feFlood flood-opacity="0.078"/>
      <feComposite operator="in" in2="blur"/>
      <feComposite in="SourceGraphic"/>
    </filter>
  </defs>
  <g id="New_funnel" data-name="New funnel" transform="translate(-743.54 -441.318)">
    <g id="_4" data-name="4" transform="matrix(0.985, -0.174, 0.174, 0.985, 743.536, 490.964)">
      <path id="Path_1143" data-name="Path 1143" d="M190.949,282.35H359.68a5.612,5.612,0,0,1,5.6,5.6V449.431a5.612,5.612,0,0,1-5.6,5.6H190.949a5.612,5.612,0,0,1-5.589-5.6V287.947a5.612,5.612,0,0,1,5.589-5.6Z" transform="translate(-185 -282)" fill="#fff" fill-rule="evenodd"/>
      <path id="Path_1144" data-name="Path 1144" d="M190.949,282.35H359.68a5.612,5.612,0,0,1,5.6,5.6V449.431a5.612,5.612,0,0,1-5.6,5.6H190.949a5.612,5.612,0,0,1-5.589-5.6V287.947a5.612,5.612,0,0,1,5.589-5.6Z" transform="translate(-185 -282)" fill="none" stroke="#848f99" stroke-linecap="round" stroke-linejoin="round" stroke-width="0.71"/>
      <path id="Path_1145" data-name="Path 1145" stroke="#848f99" d="M335.406,324.21v104.7a4.271,4.271,0,0,1-4.263,4.256H248.193a4.271,4.271,0,0,1-4.263-4.256V324.21Z" fill="#fff" transform="translate(-199.451 -292.328)" stroke-linecap="round" stroke-linejoin="round" stroke-width="1.13" fill-rule="evenodd"/>
      <path id="Path_1146" data-name="Path 1146" d="M275.56,432.45h32.722m-32.7,3.5h36.548" transform="translate(-207.256 -319.035)" fill="none" stroke="#bfcbd6" stroke-linecap="round" stroke-linejoin="round" stroke-width="1.13"/>
      <path id="Path_1147" data-name="Path 1147" d="M255.82,437.792h10.418a7.9,7.9,0,0,0-3.8-3.51c3.058-2.923,1.085-6.358-1.665-6.282-2.373.173-3.766,3.955-1.07,6.282-2.124,1.122-3.337,2.26-3.879,3.51Zm7.615-4.761a2.184,2.184,0,0,0,1.876.957m-6.945-.957a2.185,2.185,0,0,1-1.876.957" transform="translate(-202.385 -317.937)" fill="none" stroke="#f15c22" stroke-linecap="round" stroke-linejoin="round" stroke-width="1.13"/>
      <path id="Path_1148" data-name="Path 1148" d="M319.338,445.88h-32.7m32.7,3.5H282.79" transform="translate(-209.04 -322.349)" fill="none" stroke="#bfcbd6" stroke-linecap="round" stroke-linejoin="round" stroke-width="1.13"/>
      <path id="Path_1149" data-name="Path 1149" d="M318.864,426.25h10.418a7.9,7.9,0,0,0-3.8-3.51c3.051-2.923,1.085-6.358-1.665-6.282-2.373.173-3.766,3.955-1.07,6.282-2.124,1.122-3.337,2.26-3.879,3.51Zm-61.572-88.32H325.8a2.32,2.32,0,0,1,2.313,2.313v24.8a2.32,2.32,0,0,1-2.313,2.313H257.293a2.32,2.32,0,0,1-2.313-2.313v-24.8a2.32,2.32,0,0,1,2.313-2.313Zm34.982,6.779a1.906,1.906,0,1,1-1.906,1.906,1.906,1.906,0,0,1,1.906-1.906Zm-8.851,14.568h22.04l-7.45-10.425-5.273,5.273-3.1-3.292-6.222,8.459h0ZM255,373.386h74.219M255,377.612h59.289" transform="translate(-202.178 -295.714)" fill="none" stroke="#f15c22" stroke-linecap="round" stroke-linejoin="round" stroke-width="1.13"/>
      <path id="Path_1150" data-name="Path 1150" d="M255,396.23h67.319M255,400.471h73.993M255,404.7h48.359M255,408.945h74.822" transform="translate(-202.183 -310.099)" fill="none" stroke="#b4bcc8" stroke-linecap="round" stroke-linejoin="round" stroke-width="1.13"/>
      <line id="Line_73" data-name="Line 73" x2="91.476" transform="translate(44.479 105.618)" fill="none" stroke="#848f99" stroke-linecap="round" stroke-linejoin="round" stroke-width="1.13"/>
      <path id="Path_1151" data-name="Path 1151" stroke="#848f99" d="M248.193,306.34h82.949a4.271,4.271,0,0,1,4.263,4.263v8.926H243.93V310.6a4.271,4.271,0,0,1,4.263-4.263Z" fill="#dfe9f2" transform="translate(-199.451 -287.919)" stroke-linecap="round" stroke-linejoin="round" stroke-width="1.13" fill-rule="evenodd"/>
      <path id="Path_1152" data-name="Path 1152" d="M282.829,311.53h53.188a.829.829,0,0,1,.829.829v3.7a.829.829,0,0,1-.829.829H282.829a.829.829,0,0,1-.829-.829v-3.7a.829.829,0,0,1,.829-.829Z" transform="translate(-208.845 -289.2)" fill="#fff" fill-rule="evenodd"/>
      <path id="Path_1153" data-name="Path 1153" d="M255,312.8a1.725,1.725,0,1,1-1.725,1.725A1.725,1.725,0,0,1,255,312.8Z" transform="translate(-201.758 -289.513)" fill="#ff6259" fill-rule="evenodd"/>
      <path id="Path_1154" data-name="Path 1154" d="M261.655,312.8a1.725,1.725,0,1,1-1.725,1.725,1.725,1.725,0,0,1,1.725-1.725Z" transform="translate(-203.399 -289.513)" fill="#ffbd2d" fill-rule="evenodd"/>
      <path id="Path_1155" data-name="Path 1155" d="M268.295,312.8a1.725,1.725,0,1,1-1.725,1.725,1.725,1.725,0,0,1,1.725-1.725Z" transform="translate(-205.038 -289.513)" fill="#2bca41" fill-rule="evenodd"/>
      <path id="Path_1156" data-name="Path 1156" d="M365.287,437.75v50.024a5.612,5.612,0,0,1-5.6,5.6H190.959a5.612,5.612,0,0,1-5.589-5.6V437.75Z" transform="translate(-185.002 -320.343)" fill="#fff" fill-rule="evenodd"/>
      <path id="Path_1157" data-name="Path 1157" d="M365.287,437.75v50.024a5.612,5.612,0,0,1-5.6,5.6H190.959a5.612,5.612,0,0,1-5.589-5.6V437.75Z" transform="translate(-185.002 -320.343)" fill="none" stroke="#848f99" stroke-linecap="round" stroke-linejoin="round" stroke-width="0.71"/>
      <path id="Path_1158" data-name="Path 1158" d="M218.712,460.85H346.39a3.947,3.947,0,0,1,3.932,3.932h0a3.947,3.947,0,0,1-3.932,3.932H218.712a3.947,3.947,0,0,1-3.932-3.932h0a3.947,3.947,0,0,1,3.932-3.932Z" transform="translate(-192.259 -326.043)" fill="#bfcbd6" fill-rule="evenodd"/>
      <path id="Path_1159" data-name="Path 1159" d="M252.882,478h76.26a3.947,3.947,0,0,1,3.932,3.932h0a3.947,3.947,0,0,1-3.932,3.932h-76.26a3.947,3.947,0,0,1-3.932-3.932h0A3.947,3.947,0,0,1,252.882,478Z" transform="translate(-200.69 -330.274)" fill="#bfcbd6" fill-rule="evenodd"/>
    </g>
    <g id="_3" data-name="3" transform="translate(863.778 455.905) rotate(11)">
      <g transform="matrix(0.98, -0.19, 0.19, 0.98, -120.81, 8.62)" filter="url(#Path_1115)">
        <path id="Path_1115-2" data-name="Path 1115" d="M191.057,282.35H363.049a5.72,5.72,0,0,1,5.7,5.7V452.66a5.72,5.72,0,0,1-5.7,5.7H191.057a5.72,5.72,0,0,1-5.7-5.7V288.055a5.72,5.72,0,0,1,5.7-5.7Z" transform="translate(-7.55 -297.53) rotate(11)" fill="#fff" fill-rule="evenodd"/>
      </g>
      <path id="Path_1116" data-name="Path 1116" d="M191.057,282.35H363.049a5.72,5.72,0,0,1,5.7,5.7V452.66a5.72,5.72,0,0,1-5.7,5.7H191.057a5.72,5.72,0,0,1-5.7-5.7V288.055a5.72,5.72,0,0,1,5.7-5.7Z" transform="translate(-185 -282)" fill="none" stroke="#848f99" stroke-linecap="round" stroke-linejoin="round" stroke-width="0.71"/>
      <path id="Path_1117" data-name="Path 1117" stroke="#848f99" d="M337.161,323.84V430.567a4.354,4.354,0,0,1-4.338,4.338H248.278a4.354,4.354,0,0,1-4.338-4.338V323.84Z" fill="#fff" transform="translate(-198.601 -291.633)" stroke-linecap="round" stroke-linejoin="round" stroke-width="1.13" fill-rule="evenodd"/>
      <path id="Path_1118" data-name="Path 1118" stroke="#848f99" d="M248.276,306.34h84.537a4.354,4.354,0,0,1,4.338,4.338v9.1H243.93v-9.091a4.354,4.354,0,0,1,4.338-4.338h0Z" fill="#dfe9f2" transform="translate(-198.599 -287.57)" stroke-linecap="round" stroke-linejoin="round" stroke-width="1.13" fill-rule="evenodd"/>
      <path id="Path_1119" data-name="Path 1119" d="M282.835,311.53h54.208a.845.845,0,0,1,.845.845v3.77a.845.845,0,0,1-.845.845H282.835a.845.845,0,0,1-.845-.845v-3.77a.845.845,0,0,1,.845-.845Z" transform="translate(-207.436 -288.775)" fill="#fff" fill-rule="evenodd"/>
      <path id="Path_1120" data-name="Path 1120" d="M255.038,312.8a1.758,1.758,0,1,1-1.758,1.758,1.758,1.758,0,0,1,1.758-1.758Z" transform="translate(-200.77 -289.07)" fill="#ff6259" fill-rule="evenodd"/>
      <path id="Path_1121" data-name="Path 1121" d="M261.678,312.8a1.758,1.758,0,1,1-1.758,1.758,1.758,1.758,0,0,1,1.758-1.758Z" transform="translate(-202.311 -289.07)" fill="#ffbd2d" fill-rule="evenodd"/>
      <path id="Path_1122" data-name="Path 1122" d="M268.318,312.8a1.758,1.758,0,1,1-1.758,1.758,1.758,1.758,0,0,1,1.758-1.758Z" transform="translate(-203.853 -289.07)" fill="#2bca41" fill-rule="evenodd"/>
      <path id="Path_1123" data-name="Path 1123" stroke="#bfcbd6" d="M258.3,385.8h31.4a1.536,1.536,0,0,1,1.536,1.536v3.839a1.536,1.536,0,0,1-1.536,1.536H258.3a1.536,1.536,0,0,1-1.536-1.536v-3.839A1.536,1.536,0,0,1,258.3,385.8Z" fill="#fff" transform="translate(-201.578 -306.019)" stroke-linecap="round" stroke-linejoin="round" stroke-width="1.13" fill-rule="evenodd"/>
      <path id="Path_1124" data-name="Path 1124" stroke="#bfcbd6" d="M258.3,398.43h31.4a1.536,1.536,0,0,1,1.536,1.536V403.8a1.536,1.536,0,0,1-1.536,1.536H258.3a1.536,1.536,0,0,1-1.536-1.536v-3.839a1.536,1.536,0,0,1,1.536-1.536Z" fill="#fff" transform="translate(-201.578 -308.952)" stroke-linecap="round" stroke-linejoin="round" stroke-width="1.13" fill-rule="evenodd"/>
      <path id="Path_1125" data-name="Path 1125" stroke="#bfcbd6" d="M309.156,385.8h31.4a1.536,1.536,0,0,1,1.536,1.536v3.839a1.536,1.536,0,0,1-1.536,1.536h-31.4a1.536,1.536,0,0,1-1.536-1.536v-3.839a1.536,1.536,0,0,1,1.536-1.536Z" fill="#fff" transform="translate(-213.386 -306.019)" stroke-linecap="round" stroke-linejoin="round" stroke-width="1.13" fill-rule="evenodd"/>
      <path id="Path_1126" data-name="Path 1126" stroke="#bfcbd6" d="M309.156,398.43h31.4a1.536,1.536,0,0,1,1.536,1.536V403.8a1.536,1.536,0,0,1-1.536,1.536h-31.4a1.536,1.536,0,0,1-1.536-1.536v-3.839a1.536,1.536,0,0,1,1.536-1.536Z" fill="#fff" transform="translate(-213.386 -308.952)" stroke-linecap="round" stroke-linejoin="round" stroke-width="1.13" fill-rule="evenodd"/>
      <line id="Line_72" data-name="Line 72" x2="75.016" transform="translate(54.438 102.562)" fill="none" stroke="#f15c22" stroke-linecap="round" stroke-linejoin="round" stroke-width="1.13"/>
      <path id="Path_1127" data-name="Path 1127" d="M267.665,427.315h62.823M254.42,424.19H260.7v6.281H254.42V424.19Z" transform="translate(-201.034 -314.933)" fill="none" stroke="#b4bcc8" stroke-linecap="round" stroke-linejoin="round" stroke-width="1.13"/>
      <path id="Path_1128" data-name="Path 1128" d="M71.71,144.48h2.764v2.764H71.71V144.48Z" transform="translate(-16.566 -33.464)" fill="#f15c22" fill-rule="evenodd"/>
      <path id="Path_1129" data-name="Path 1129" d="M307.86,337.66h35.6m-35.6,4.315h30.713M307.86,346.29h21.092" transform="translate(-213.442 -294.842)" fill="none" stroke="#f15c22" stroke-linecap="round" stroke-linejoin="round" stroke-width="1.13"/>
      <path id="Path_1130" data-name="Path 1130" d="M307.86,354.53h27.212m-27.2,4.315h35.519m-35.519,4.315h35.519m-35.519,4.315H338.58m-30.713,4.315h18.113" transform="translate(-213.442 -298.759)" fill="none" stroke="#b4bcc8" stroke-linecap="round" stroke-linejoin="round" stroke-width="1.13"/>
      <path id="Path_1131" data-name="Path 1131" stroke="#f15c22" d="M258.445,336.68h31.135a1.643,1.643,0,0,1,1.635,1.635V367.17a1.643,1.643,0,0,1-1.635,1.635H258.445a1.643,1.643,0,0,1-1.635-1.635V338.315a1.643,1.643,0,0,1,1.635-1.635Z" fill="#fff" transform="translate(-201.589 -294.614)" stroke-linecap="round" stroke-linejoin="round" stroke-width="1.13" fill-rule="evenodd"/>
      <path id="Path_1132" data-name="Path 1132" d="M284.724,352.333l-5.413-5.413a1.536,1.536,0,0,0-2.2,0L268.53,355.5a1.536,1.536,0,0,0,0,2.2l.668.668h0l4.484,4.484h-.622a.357.357,0,1,0,0,.714h7.125a.357.357,0,0,0,0-.714H276.4l8.323-8.3a1.536,1.536,0,0,0,0-2.2h0Zm-.507,1.689-8.584,8.584a.837.837,0,0,1-.591.246h0a.837.837,0,0,1-.591-.246l-4.492-4.492,8.239-8.239a.358.358,0,1,0-.507-.507l-8.239,8.254-.415-.415a.845.845,0,0,1,0-1.19l8.584-8.584a.845.845,0,0,1,1.19,0l1.927,1.927-8.254,8.262a.358.358,0,0,0,.507.507l8.239-8.239,2.987,2.987a.845.845,0,0,1,0,1.19h0Z" transform="translate(-204.203 -296.885)" fill="#f15c22" fill-rule="evenodd"/>
      <path id="Path_1133" data-name="Path 1133" d="M278.478,359.828a.353.353,0,0,0-.507,0l-2.8,2.8a.358.358,0,0,0,.507.507l2.8-2.8a.353.353,0,0,0,0-.507Z" transform="translate(-205.827 -299.964)" fill="#f15c22" fill-rule="evenodd"/>
      <path id="Path_1134" data-name="Path 1134" d="M277.62,363.3l-1.152,1.152a.358.358,0,1,0,.507.507l1.152-1.152a.358.358,0,0,0-.507-.507Z" transform="translate(-206.129 -300.77)" fill="#f15c22" fill-rule="evenodd"/>
      <path id="Path_1135" data-name="Path 1135" d="M279.312,361.968l-.154.154a.358.358,0,1,0,.507.507l.154-.154a.358.358,0,1,0-.507-.507Z" transform="translate(-206.754 -300.461)" fill="#f15c22" fill-rule="evenodd"/>
      <path id="Path_1136" data-name="Path 1136" d="M285.13,353.558a.353.353,0,0,0-.507,0l-1.536,1.536a.353.353,0,0,0,0,.507l1.006,1.006a.353.353,0,0,0,.507,0l1.536-1.536a.353.353,0,0,0,0-.507l-1.006-1.006Zm-.768,2.3-.507-.507,1.006-1.006.507.507-1.006,1.006Z" transform="translate(-207.666 -298.508)" fill="#f15c22" fill-rule="evenodd"/>
      <path id="Path_1137" data-name="Path 1137" d="M281.891,349.736a.353.353,0,0,0,.253-.107l.154-.154a.358.358,0,0,0-.507-.507l-.154.154a.353.353,0,0,0,.253.607h0Z" transform="translate(-207.329 -297.443)" fill="#f15c22" fill-rule="evenodd"/>
      <path id="Path_1138" data-name="Path 1138" d="M272.662,361.968l-.154.154a.358.358,0,1,0,.507.507l.154-.154a.358.358,0,1,0-.507-.507Z" transform="translate(-205.21 -300.461)" fill="#f15c22" fill-rule="evenodd"/>
      <path id="Path_1139" data-name="Path 1139" d="M368.764,437.75v50.991a5.72,5.72,0,0,1-5.7,5.7H191.067a5.72,5.72,0,0,1-5.7-5.7V437.75Z" transform="translate(-185.002 -318.081)" fill="#fff" fill-rule="evenodd"/>
      <path id="Path_1140" data-name="Path 1140" d="M368.764,437.75v50.991a5.72,5.72,0,0,1-5.7,5.7H191.067a5.72,5.72,0,0,1-5.7-5.7V437.75Z" transform="translate(-185.002 -318.081)" fill="none" stroke="#848f99" stroke-linecap="round" stroke-linejoin="round" stroke-width="0.71"/>
      <path id="Path_1141" data-name="Path 1141" d="M218.788,460.85H348.933a4.023,4.023,0,0,1,4.008,4.008h0a4.023,4.023,0,0,1-4.008,4.008H218.788a4.023,4.023,0,0,1-4.008-4.008h0a4.023,4.023,0,0,1,4.008-4.008Z" transform="translate(-191.831 -323.444)" fill="#bfcbd6" fill-rule="evenodd"/>
      <path id="Path_1142" data-name="Path 1142" d="M252.958,478h77.734a4.023,4.023,0,0,1,4.008,4.008h0a4.023,4.023,0,0,1-4.008,4.008H252.958a4.023,4.023,0,0,1-4.008-4.008h0A4.023,4.023,0,0,1,252.958,478Z" transform="translate(-199.764 -327.426)" fill="#bfcbd6" fill-rule="evenodd"/>
    </g>
  </g>
</svg>
