<svg xmlns="http://www.w3.org/2000/svg" width="18.76" height="18.671" viewBox="0 0 18.76 18.671">
  <path id="Pages" d="M297.27,387h6.3a1.27,1.27,0,0,1,1.27,1.27v6.3a1.27,1.27,0,0,1-1.27,1.27h-6.3a1.27,1.27,0,0,1-1.27-1.27v-6.3a1.27,1.27,0,0,1,1.27-1.27Zm6.48,7.75a.25.25,0,0,0,.07-.18v-6.3a.24.24,0,0,0-.25-.25h-6.3a.25.25,0,0,0-.25.25v6.3a.25.25,0,0,0,.07.18.26.26,0,0,0,.18.07h6.3a.26.26,0,0,0,.18-.07Zm3.3-7.75h6.3a1.28,1.28,0,0,1,1.27,1.27v6.3a1.27,1.27,0,0,1-1.27,1.27h-6.3a1.28,1.28,0,0,1-1.27-1.27v-6.3a1.27,1.27,0,0,1,1.27-1.27Zm6.48,7.75a.25.25,0,0,0,.07-.18v-6.3a.25.25,0,0,0-.25-.25h-6.3a.25.25,0,0,0-.18.07.26.26,0,0,0-.07.18v6.3a.25.25,0,0,0,.25.25h6.3a.25.25,0,0,0,.18-.07Zm-16.26,2h6.3a1.28,1.28,0,0,1,1.27,1.27v6.3a1.27,1.27,0,0,1-1.27,1.27h-6.3a1.27,1.27,0,0,1-1.27-1.27v-6.3a1.27,1.27,0,0,1,1.27-1.27Zm6.48,7.75a.26.26,0,0,0,.07-.18v-6.3a.25.25,0,0,0-.25-.25h-6.3a.24.24,0,0,0-.25.25v6.3a.25.25,0,0,0,.25.25h6.3a.25.25,0,0,0,.18-.07Zm7-3.84h3.4a.51.51,0,1,1,0,1h-3.4v3.4a.51.51,0,1,1-1,0v-3.4h-3.4a.51.51,0,0,1,0-1h3.4v-3.4a.51.51,0,0,1,1,0v3.4Z" transform="translate(-296 -387)" fill="#fff" fill-rule="evenodd"/>
</svg>
