<svg xmlns="http://www.w3.org/2000/svg" width="22" height="22" viewBox="0 0 22 22">
  <g id="question-mark" transform="translate(-0.001 0)">
    <path id="Path_616" data-name="Path 616" d="M10.854,0A11,11,0,1,0,22,10.852,11,11,0,0,0,10.854,0ZM10.821,17.7h-.061a1.6,1.6,0,0,1,.038-3.2h.054a1.6,1.6,0,1,1-.031,3.2Zm3.935-7.81a7.273,7.273,0,0,1-1.313,1.176l-.671.463a1.825,1.825,0,0,0-.674.821,1.7,1.7,0,0,0-.1.689v.108H9.43l.007-.217a2.8,2.8,0,0,1,.423-1.849,10.885,10.885,0,0,1,1.913-1.539,2.018,2.018,0,0,0,.453-.463,1.629,1.629,0,0,0,.388-.95,1.851,1.851,0,0,0-.352-1.094,1.465,1.465,0,0,0-1.268-.477,1.383,1.383,0,0,0-1.282.593,2.38,2.38,0,0,0-.388,1.279v.109H6.681l0-.114A4.016,4.016,0,0,1,8.4,4.957,4.521,4.521,0,0,1,10.889,4.3a5.367,5.367,0,0,1,3.207.923,3.2,3.2,0,0,1,1.3,2.763A3.161,3.161,0,0,1,14.756,9.886Z" transform="translate(0 0)" fill="#848f99"/>
  </g>
</svg>
