<?xml version="1.0" standalone="no"?>
<!DOCTYPE svg PUBLIC "-//W3C//DTD SVG 20010904//EN"
 "http://www.w3.org/TR/2001/REC-SVG-20010904/DTD/svg10.dtd">
<svg version="1.0" xmlns="http://www.w3.org/2000/svg"
 width="512.000000pt" height="512.000000pt" viewBox="0 0 512.000000 512.000000"
 preserveAspectRatio="xMidYMid meet">

<g transform="translate(0.000000,512.000000) scale(0.100000,-0.100000)"
fill="#fff" stroke="none">
<path d="M137 5100 c-46 -14 -94 -56 -117 -106 -22 -45 -23 -49 -17 -372 4
-213 11 -367 21 -442 105 -763 432 -1415 972 -1940 490 -476 1078 -774 1744
-884 158 -26 363 -46 476 -46 l63 0 3 -508 3 -508 38 -76 c41 -85 98 -143 182
-186 43 -23 66 -27 163 -30 114 -4 114 -4 185 31 67 33 110 74 618 584 596
599 589 590 629 749 36 138 20 278 -46 414 -35 71 -63 102 -573 614 -295 296
-560 554 -588 572 -116 76 -261 83 -389 20 -86 -43 -144 -103 -187 -194 -31
-65 -32 -71 -35 -230 -5 -192 4 -235 58 -290 86 -90 228 -77 304 27 31 42 31
45 36 187 l5 145 507 -508 c529 -531 528 -529 528 -612 0 -83 0 -82 -529 -614
l-506 -507 -5 508 -5 508 -37 76 c-45 90 -104 148 -195 190 -61 29 -75 31
-236 39 -305 15 -510 48 -747 120 -953 288 -1690 1038 -1955 1989 -75 271 -96
438 -104 832 l-6 326 -30 43 c-52 74 -142 105 -228 79z"/>
</g>
</svg>
