<svg width="22" height="22" viewBox="0 0 22 22" fill="none" xmlns="http://www.w3.org/2000/svg">
<g clip-path="url(#clip0)">
<path d="M11 22C8.82441 22 6.69767 21.3549 4.88873 20.1462C3.07979 18.9375 1.66989 17.2195 0.83733 15.2095C0.00476617 13.1995 -0.213071 10.9878 0.211367 8.85401C0.635804 6.72022 1.68345 4.76021 3.22183 3.22183C4.76021 1.68345 6.72022 0.635804 8.85401 0.211367C10.9878 -0.213071 13.1995 0.00476617 15.2095 0.83733C17.2195 1.66989 18.9375 3.07979 20.1462 4.88873C21.3549 6.69767 22 8.82441 22 11C21.9966 13.9163 20.8365 16.7122 18.7744 18.7744C16.7122 20.8365 13.9163 21.9966 11 22ZM11 2.00001C9.21997 2.00001 7.47992 2.52785 5.99987 3.51678C4.51983 4.50571 3.36628 5.91132 2.68509 7.55585C2.0039 9.20039 1.82567 11.01 2.17294 12.7558C2.5202 14.5016 3.37737 16.1053 4.63604 17.364C5.89472 18.6226 7.49836 19.4798 9.24419 19.8271C10.99 20.1743 12.7996 19.9961 14.4442 19.3149C16.0887 18.6337 17.4943 17.4802 18.4832 16.0001C19.4722 14.5201 20 12.78 20 11C19.9971 8.61395 19.0479 6.32646 17.3608 4.63926C15.6736 2.95206 13.3861 2.00292 11 2.00001V2.00001Z" fill="white"/>
<path d="M9.551 15.862C9.2858 15.8619 9.03149 15.7565 8.844 15.569L5.293 12.018C5.10496 11.8305 4.99911 11.576 4.99873 11.3104C4.99836 11.0449 5.10349 10.79 5.291 10.602C5.47851 10.414 5.73303 10.3081 5.99858 10.3077C6.26413 10.3074 6.51896 10.4125 6.707 10.6L9.551 13.444L14.706 8.289C14.7991 8.19615 14.9096 8.12256 15.0311 8.07241C15.1527 8.02226 15.2829 7.99655 15.4144 7.99674C15.5459 7.99692 15.6761 8.023 15.7975 8.07349C15.9189 8.12398 16.0292 8.19789 16.122 8.291C16.2148 8.38411 16.2884 8.49459 16.3386 8.61614C16.3887 8.73769 16.4144 8.86793 16.4143 8.99941C16.4141 9.1309 16.388 9.26106 16.3375 9.38247C16.287 9.50388 16.2131 9.61415 16.12 9.707L10.258 15.569C10.0705 15.7565 9.81619 15.8619 9.551 15.862Z" fill="white"/>
</g>
<defs>
<clipPath id="clip0">
<rect width="22" height="22" fill="white"/>
</clipPath>
</defs>
</svg>
