<svg xmlns="http://www.w3.org/2000/svg" width="20" height="18.981" viewBox="0 0 20 18.981">
  <path id="Templates" d="M297.83,401.5h6.25v3.91h-6.25V401.5Zm0-8h14.51V399H297.83v-5.47h0Zm-2.27-2.86h18.87m-18.1-3.08h17.32a.75.75,0,0,1,.78.72v16.4a.75.75,0,0,1-.78.72H296.34a.75.75,0,0,1-.78-.72v-16.4a.75.75,0,0,1,.78-.72h0Zm9.75,13.93h6.25v3.91H306.1v-3.9h0Z" transform="translate(-294.995 -386.994)" fill="none" stroke="#fff" stroke-linecap="round" stroke-linejoin="round" stroke-width="1.13"/>
</svg>
