<svg xmlns="http://www.w3.org/2000/svg" width="38.07" height="38.068" viewBox="0 0 38.07 38.068">
  <g id="Text_Panel" data-name="Text Panel" transform="translate(-0.005 -0.005)">
    <path id="Path_1185" data-name="Path 1185" d="M289.71,377.57h30.66a3.15,3.15,0,0,1,3.14,3.14v30.66a3.15,3.15,0,0,1-3.14,3.14H289.71a3.15,3.15,0,0,1-3.14-3.14V380.71a3.15,3.15,0,0,1,3.14-3.14h0Z" transform="translate(-286 -377)" fill="none" stroke="#636e84" stroke-linecap="round" stroke-linejoin="round" stroke-width="1.13"/>
    <path id="Path_1186" data-name="Path 1186" d="M298.2,388.38h13.67a.83.83,0,0,1,.82.82v13.67a.83.83,0,0,1-.82.82H298.2a.83.83,0,0,1-.82-.82V389.2a.83.83,0,0,1,.82-.82ZM309.36,391h-8.64v2.62H302V393h1.95v6.58h-1.18V401h3.12m-5.16-10h8.64v2.62H308.1V393h-1.95v6.58h1.18V401H304.2" transform="translate(-286 -377)" fill="none" stroke="#f15c22" stroke-linecap="round" stroke-linejoin="round" stroke-width="0.85"/>
  </g>
</svg>
