<?xml version="1.0" standalone="no"?>
<!DOCTYPE svg PUBLIC "-//W3C//DTD SVG 20010904//EN"
 "http://www.w3.org/TR/2001/REC-SVG-20010904/DTD/svg10.dtd">
<svg version="1.0" xmlns="http://www.w3.org/2000/svg"
 width="512.000000pt" height="512.000000pt" viewBox="0 0 512.000000 512.000000"
 preserveAspectRatio="xMidYMid meet">

<g transform="translate(0.000000,512.000000) scale(0.100000,-0.100000)"
fill="#fff" stroke="none">
<path d="M4857 5100 c-46 -14 -93 -56 -115 -102 -19 -39 -21 -69 -25 -363 -6
-364 -20 -488 -86 -748 -217 -855 -815 -1568 -1621 -1928 -127 -57 -324 -125
-470 -163 -177 -45 -477 -86 -637 -86 l-62 0 -3 508 -3 507 -32 67 c-43 91
-101 151 -187 194 -128 63 -273 56 -389 -20 -29 -19 -293 -276 -593 -577 -518
-522 -542 -547 -572 -615 -63 -139 -77 -274 -42 -408 40 -159 33 -150 629
-749 508 -510 551 -551 618 -584 71 -35 72 -35 185 -31 106 3 117 6 176 37 78
42 135 103 175 189 l32 67 0 190 c0 183 -1 191 -24 228 -13 21 -42 50 -64 65
-34 23 -52 27 -107 27 -55 0 -73 -4 -107 -27 -75 -49 -87 -83 -93 -246 l-5
-143 -507 508 c-530 532 -528 530 -528 613 0 84 -3 81 528 613 l507 507 5
-508 5 -508 37 -76 c45 -90 104 -148 195 -190 82 -39 181 -46 401 -29 678 52
1283 290 1822 717 129 103 423 403 530 542 311 403 522 861 620 1342 54 267
64 375 64 732 l1 326 -30 43 c-52 74 -142 105 -228 79z"/>
</g>
</svg>
