<svg id="copy" xmlns="http://www.w3.org/2000/svg" width="16" height="16" viewBox="0 0 16 16">
  <path id="Path_877" data-name="Path 877" d="M15.75,3.679a.827.827,0,0,0-.607-.25H11.429a2.271,2.271,0,0,0-1.143.357V.857a.826.826,0,0,0-.25-.607A.827.827,0,0,0,9.428,0H5.714a2.062,2.062,0,0,0-.786.179A2.078,2.078,0,0,0,4.25.607L.607,4.25a2.077,2.077,0,0,0-.429.679A2.062,2.062,0,0,0,0,5.714v6a.826.826,0,0,0,.25.607.826.826,0,0,0,.607.25H5.714v2.572A.853.853,0,0,0,6.571,16h8.572A.854.854,0,0,0,16,15.143V4.286A.826.826,0,0,0,15.75,3.679ZM10.286,5.33V8H7.616ZM4.571,1.9v2.67H1.9Zm1.75,5.777a2.077,2.077,0,0,0-.429.679,2.062,2.062,0,0,0-.179.786v2.286H1.143V5.714H4.857a.854.854,0,0,0,.857-.857V1.143H9.143V4.857Zm8.536,7.179h-8V9.143h3.714a.854.854,0,0,0,.857-.857V4.571h3.428V14.857h0Z" transform="translate(0)" fill="#848f99"/>
</svg>
