<svg xmlns="http://www.w3.org/2000/svg" width="18.999" height="15.722" viewBox="0 0 18.999 15.722">
  <g id="pic" transform="translate(-0.001 -0.5)">
    <g id="image" transform="translate(3 2)">
      <path id="Subtraction_4" data-name="Subtraction 4" d="M-3031.583-11531.778h-14.831a.584.584,0,0,1-.585-.582v-2.359h1.347l-.408.409v1.6h14.124v-3.1l-2.208-2.209v-1.324l2.208,2.206v-7.419h-2.208v-.936h2.562a.583.583,0,0,1,.583.582v12.557A.583.583,0,0,1-3031.583-11531.778Z" transform="translate(3047 11546)" fill="#848f99"/>
    </g>
    <path id="Path_1249" data-name="Path 1249" d="M182.329,99.476a1.58,1.58,0,1,0-1.58-1.58A1.581,1.581,0,0,0,182.329,99.476Zm0-2.233a.653.653,0,1,1-.653.653A.654.654,0,0,1,182.329,97.243Zm0,0" transform="translate(-175.084 -92.811)" fill="#848f99"/>
    <path id="Path_1250" data-name="Path 1250" d="M15.416.5H.585A.585.585,0,0,0,0,1.084V13.638a.585.585,0,0,0,.584.584H15.416A.585.585,0,0,0,16,13.638V1.084A.585.585,0,0,0,15.416.5Zm-.353.938V8.856L12.115,5.908a.494.494,0,0,0-.7,0l-4.17,4.17L4.584,7.415a.493.493,0,0,0-.7,0L.938,10.363V1.437ZM.938,13.285v-1.6l3.3-3.3L6.9,11.055a.493.493,0,0,0,.7,0l4.17-4.17,3.3,3.3v3.1Zm0,0" fill="#848f99"/>
  </g>
</svg>
