<svg xmlns="http://www.w3.org/2000/svg" width="10.291" height="12.967" viewBox="0 0 10.291 12.967">
  <g id="delete" transform="translate(-81.033 0.1)">
    <g id="Group_69" data-name="Group 69" transform="translate(81.133)">
      <path id="Path_876" data-name="Path 876" d="M90.354,1.5h-1.7V.4a.4.4,0,0,0-.4-.4A.06.06,0,0,0,88.2.014.055.055,0,0,0,88.175,0H84.111a.39.39,0,0,0-.4.4V1.5H82a.86.86,0,0,0-.87.87V3.8h.755V11.9a.848.848,0,0,0,.863.863h6.855a.854.854,0,0,0,.87-.863V3.8h.748V2.374A.86.86,0,0,0,90.354,1.5ZM84.506.791h3.345V1.5H84.506ZM89.678,11.9c0,.05-.022.072-.072.072H82.751c-.05,0-.072-.021-.072-.072V3.8h7Zm.748-8.9H81.931V2.374c0-.05.022-.079.072-.079h8.351c.05,0,.072.029.072.079Z" transform="translate(-81.133)" fill="#3b4049" stroke="#3b4049" stroke-width="0.2"/>
      <rect id="Rectangle_111" data-name="Rectangle 111" width="0.798" height="6.545" transform="translate(6.495 4.726)" fill="#3b4049" stroke="#3b4049" stroke-width="0.2"/>
      <rect id="Rectangle_112" data-name="Rectangle 112" width="0.798" height="6.545" transform="translate(4.654 4.726)" fill="#3b4049" stroke="#3b4049" stroke-width="0.2"/>
      <rect id="Rectangle_113" data-name="Rectangle 113" width="0.798" height="6.545" transform="translate(2.812 4.726)" fill="#3b4049" stroke="#3b4049" stroke-width="0.2"/>
    </g>
  </g>
</svg>
