<svg xmlns="http://www.w3.org/2000/svg" width="11.442" height="12.767" viewBox="0 0 11.442 12.767">
  <g id="Notes" transform="translate(-26.57 0)">
    <g id="Group_71" data-name="Group 71" transform="translate(26.57)">
      <g id="Group_70" data-name="Group 70">
        <path id="Path_878" data-name="Path 878" d="M112.593,200.5a.5.5,0,0,0-.5-.5h-5.137a.5.5,0,1,0,0,1h5.137A.5.5,0,0,0,112.593,200.5Z" transform="translate(-104.467 -195.013)" fill="#3b4049"/>
        <path id="Path_879" data-name="Path 879" d="M106.958,280a.5.5,0,0,0,0,1h3.12a.5.5,0,0,0,0-1Z" transform="translate(-104.467 -273.018)" fill="#3b4049"/>
        <path id="Path_880" data-name="Path 880" d="M30.233,11.769H28.565a1,1,0,0,1-1-1V1.995a1,1,0,0,1,1-1H34.7a1,1,0,0,1,1,1V5.062a.5.5,0,0,0,1,0V1.995A2,2,0,0,0,34.7,0H28.565A2,2,0,0,0,26.57,1.995v8.777a2,2,0,0,0,1.995,1.995h1.668a.5.5,0,1,0,0-1Z" transform="translate(-26.57)" fill="#3b4049"/>
        <path id="Path_881" data-name="Path 881" d="M249.053,272.462a1.5,1.5,0,0,0-2.115,0l-2.738,2.732a.5.5,0,0,0-.125.208l-.6,1.963a.5.5,0,0,0,.61.626l2.013-.558a.5.5,0,0,0,.219-.128l2.732-2.727A1.5,1.5,0,0,0,249.053,272.462Zm-3.344,4.044-1.013.28.3-.976,1.847-1.843.705.705Zm2.639-2.634-.1.1-.705-.705.1-.1a.5.5,0,0,1,.706.7Z" transform="translate(-238.049 -265.241)" fill="#3b4049"/>
        <path id="Path_882" data-name="Path 882" d="M112.094,120h-5.137a.5.5,0,1,0,0,1h5.137a.5.5,0,1,0,0-1Z" transform="translate(-104.467 -117.008)" fill="#3b4049"/>
      </g>
    </g>
  </g>
</svg>
