<svg xmlns="http://www.w3.org/2000/svg" width="12.967" height="12.967" viewBox="0 0 12.967 12.967">
  <g id="settings" transform="translate(1.099 12.867) rotate(-90)">
    <g id="Group_72" data-name="Group 72" transform="translate(0 -0.999)">
      <path id="Path_883" data-name="Path 883" d="M12.113,5.044l-.9-.152a5.06,5.06,0,0,0-.36-.869l.528-.739A.786.786,0,0,0,11.3,2.268l-.795-.795a.783.783,0,0,0-.557-.232.775.775,0,0,0-.456.147l-.741.528a5.007,5.007,0,0,0-.9-.371L7.7.66A.788.788,0,0,0,6.921,0H5.8A.788.788,0,0,0,5.019.66l-.155.907A4.935,4.935,0,0,0,4,1.932L3.264,1.4a.788.788,0,0,0-1.016.085l-.8.795A.789.789,0,0,0,1.365,3.3l.533.749a4.942,4.942,0,0,0-.355.872l-.885.149A.788.788,0,0,0,0,5.85V6.972a.788.788,0,0,0,.659.779l.907.155a4.935,4.935,0,0,0,.365.867L1.405,9.5a.786.786,0,0,0,.085,1.016l.795.795a.783.783,0,0,0,.557.232A.775.775,0,0,0,3.3,11.4l.749-.533a5.045,5.045,0,0,0,.843.347l.149.9a.788.788,0,0,0,.779.659H6.945a.788.788,0,0,0,.779-.659l.152-.9a5.06,5.06,0,0,0,.869-.36l.739.528a.783.783,0,0,0,.459.147h0A.783.783,0,0,0,10.5,11.3l.795-.795a.789.789,0,0,0,.085-1.016l-.528-.741a5.023,5.023,0,0,0,.36-.869l.9-.149a.788.788,0,0,0,.659-.779V5.823A.778.778,0,0,0,12.113,5.044Zm-.061,1.9a.069.069,0,0,1-.059.069l-1.12.187a.358.358,0,0,0-.288.264,4.269,4.269,0,0,1-.464,1.117.361.361,0,0,0,.016.392L10.8,9.9a.073.073,0,0,1-.008.091l-.795.795a.068.068,0,0,1-.051.021A.066.066,0,0,1,9.9,10.8l-.925-.659a.36.36,0,0,0-.392-.016,4.269,4.269,0,0,1-1.117.464.354.354,0,0,0-.264.288l-.189,1.12a.069.069,0,0,1-.069.059H5.822a.069.069,0,0,1-.069-.059l-.187-1.12a.358.358,0,0,0-.264-.288,4.433,4.433,0,0,1-1.093-.448.369.369,0,0,0-.181-.048.351.351,0,0,0-.208.067l-.933.664a.079.079,0,0,1-.04.013.071.071,0,0,1-.051-.021L2,10.018a.072.072,0,0,1-.008-.091l.656-.92a.365.365,0,0,0,.016-.395A4.229,4.229,0,0,1,2.195,7.5a.365.365,0,0,0-.288-.264L.779,7.042A.069.069,0,0,1,.72,6.972V5.85A.069.069,0,0,1,.779,5.78l1.112-.187a.361.361,0,0,0,.291-.267,4.265,4.265,0,0,1,.456-1.12.356.356,0,0,0-.019-.389l-.664-.933a.073.073,0,0,1,.008-.091L2.758,2a.068.068,0,0,1,.051-.021.066.066,0,0,1,.04.013l.92.656a.365.365,0,0,0,.395.016,4.229,4.229,0,0,1,1.115-.469.365.365,0,0,0,.264-.288L5.734.777A.069.069,0,0,1,5.8.718H6.926A.069.069,0,0,1,7,.777l.187,1.112a.361.361,0,0,0,.267.291,4.329,4.329,0,0,1,1.144.469.361.361,0,0,0,.392-.016l.92-.661a.079.079,0,0,1,.04-.013A.071.071,0,0,1,10,1.98l.795.795a.072.072,0,0,1,.008.091l-.659.925a.36.36,0,0,0-.016.392A4.269,4.269,0,0,1,10.588,5.3a.354.354,0,0,0,.288.264L12,5.754a.069.069,0,0,1,.059.069V6.946Z" transform="translate(0 -0.001)" fill="#3b4049" stroke="#3b4049" stroke-width="0.2"/>
      <path id="Path_884" data-name="Path 884" d="M138.855,136a2.755,2.755,0,1,0,2.755,2.755A2.757,2.757,0,0,0,138.855,136Zm0,4.79a2.035,2.035,0,1,1,2.035-2.035A2.036,2.036,0,0,1,138.855,140.791Z" transform="translate(-132.47 -132.374)" fill="#3b4049" stroke="#3b4049" stroke-width="0.2"/>
    </g>
  </g>
</svg>
