<svg xmlns="http://www.w3.org/2000/svg" width="12.767" height="12.767" viewBox="0 0 12.767 12.767">
  <g id="copy" transform="translate(0 0)">
    <path id="Path_877" data-name="Path 877" d="M12.567,2.935a.66.66,0,0,0-.484-.2H9.119a1.812,1.812,0,0,0-.912.285V.684A.659.659,0,0,0,8.008.2.66.66,0,0,0,7.523,0H4.56a1.645,1.645,0,0,0-.627.142,1.658,1.658,0,0,0-.541.342L.484,3.391a1.657,1.657,0,0,0-.342.541A1.645,1.645,0,0,0,0,4.56V9.347a.659.659,0,0,0,.2.485.659.659,0,0,0,.484.2H4.56v2.052a.681.681,0,0,0,.684.684h6.839a.681.681,0,0,0,.684-.684V3.42A.659.659,0,0,0,12.567,2.935ZM8.207,4.253v2.13H6.077ZM3.648,1.517v2.13H1.517Zm1.4,4.609a1.657,1.657,0,0,0-.342.542A1.646,1.646,0,0,0,4.56,7.3V9.119H.912V4.56H3.876a.681.681,0,0,0,.684-.684V.912H7.3V3.876Zm6.811,5.728H5.471V7.3H8.435a.681.681,0,0,0,.684-.684V3.648h2.736v8.207h0Z" transform="translate(0)" fill="#3b4049"/>
  </g>
</svg>
