<svg width="91" height="122" viewBox="0 0 91 122" fill="none" xmlns="http://www.w3.org/2000/svg">
<g clip-path="url(#clip0)">
<path d="M90.2 13.7V116.3C90.2 118.6 88.3 120.5 86 120.5H4.7C2.4 120.5 0.5 118.6 0.5 116.3V13.7H90.2Z" fill="white"/>
<path d="M86 121.1H4.7C2.1 121.1 0 119 0 116.4V13.7C0 13.4 0.3 13.1 0.6 13.1H90.2C90.5 13.1 90.8 13.4 90.8 13.7V13.8V116.3C90.7 119 88.6 121.1 86 121.1ZM1.1 14.3V116.3C1.1 118.3 2.7 119.9 4.7 119.9H86C88 119.9 89.6 118.3 89.6 116.3V14.3H1.1V14.3Z" fill="#848F99"/>
<path d="M59.7 97.6H23.9C23.6 97.6 23.3 97.3 23.3 97C23.3 96.7 23.6 96.4 23.9 96.4H59.7C60 96.4 60.3 96.7 60.3 97C60.3 97.3 60 97.6 59.7 97.6ZM55.9 94.2H23.9C23.6 94.2 23.3 93.9 23.3 93.6C23.3 93.3 23.6 93 23.9 93H55.9C56.2 93 56.5 93.3 56.5 93.6C56.5 93.9 56.2 94.2 55.9 94.2Z" fill="#BFCBD6"/>
<path d="M19.5 100.5H9.30001C9.00001 100.5 8.70001 100.2 8.70001 99.9C8.70001 99.7 8.80001 99.6 8.90001 99.5C9.70001 98.2 10.8 97.1 12.1 96.4C12.1 96.2 12 96.1 12 96C11.5 96.5 10.8 96.8 10 96.8C9.70001 96.8 9.40001 96.5 9.50001 96.2C9.50001 95.9 9.80001 95.7 10.1 95.7C10.6 95.7 11.1 95.5 11.5 95C11.1 94 11.2 93 11.4 92.3C11.8 90.9 13 90 14.2 89.9C15.7 89.9 17.1 90.7 17.7 92.1C18.1 93.1 18.1 94.2 17.6 95.3C17.9 95.6 18.3 95.7 18.7 95.7C19 95.7 19.3 95.9 19.3 96.2C19.3 96.5 19.1 96.8 18.8 96.8C18.1 96.8 17.5 96.6 17 96.2C17 96.3 16.9 96.3 16.9 96.4C18.3 97.2 19.4 98.3 20.2 99.7C20.3 99.9 20.3 100.1 20.2 100.3C20.1 100.5 19.7 100.5 19.5 100.5ZM10.4 99.4H18.5C17.8 98.4 16.7 97.6 15.6 97C15.4 96.9 15.3 96.8 15.3 96.6C15.3 96.4 15.3 96.2 15.5 96.1C15.9 95.8 16.1 95.4 16.4 95C16.4 95 16.4 94.9 16.5 94.9C17 94.1 17.1 93.2 16.7 92.4C16.3 91.4 15.4 90.9 14.3 90.9C13.5 91 12.8 91.6 12.5 92.5C12.1 93.8 12.5 95.1 13.6 96C13.8 96.1 13.8 96.3 13.8 96.5C13.8 96.7 13.6 96.9 13.5 96.9C12.2 97.5 11.2 98.3 10.4 99.4Z" fill="#F15C22"/>
<path d="M65 107.6H29.2C28.9 107.6 28.6 107.3 28.6 107C28.6 106.7 28.9 106.4 29.2 106.4H65C65.3 106.4 65.6 106.7 65.6 107C65.6 107.3 65.3 107.6 65 107.6ZM65 104.1H33C32.7 104.1 32.4 103.8 32.4 103.5C32.4 103.2 32.7 102.9 33 102.9H65C65.3 102.9 65.6 103.2 65.6 103.5C65.6 103.8 65.3 104.1 65 104.1Z" fill="#BFCBD6"/>
<path d="M81.5 111H71.3C71 111 70.7 110.7 70.7 110.4C70.7 110.2 70.8 110.1 70.9 110C71.7 108.7 72.8 107.6 74.1 106.9C72.9 105.5 72.8 103.9 73.2 102.8C73.6 101.4 74.8 100.5 76 100.4C77.5 100.4 78.9 101.2 79.5 102.6C80.1 104 79.8 105.6 78.6 106.9C80 107.7 81.1 108.8 81.9 110.2C82 110.4 82 110.6 81.9 110.8C81.9 110.9 81.7 111 81.5 111ZM72.4 109.8H80.5C79.7 108.8 78.7 108 77.6 107.4C77.4 107.3 77.3 107.2 77.3 107C77.3 106.8 77.3 106.6 77.5 106.5C78.7 105.3 79.1 104 78.6 102.8C78.2 101.8 77.2 101.3 76.2 101.3C75.4 101.4 74.7 102 74.4 102.9C74 104.2 74.4 105.5 75.5 106.4C75.6 106.5 75.7 106.7 75.7 106.9C75.7 107.1 75.5 107.3 75.4 107.3C74.2 108 73.2 108.8 72.4 109.8ZM66.8 63.3H8.70001C8.40001 63.3 8.10001 63 8.10001 62.7C8.10001 62.4 8.40001 62.1 8.70001 62.1H66.8C67.1 62.1 67.4 62.4 67.4 62.7C67.4 63 67.1 63.3 66.8 63.3ZM81.4 59.2H8.70001C8.40001 59.2 8.10001 58.9 8.10001 58.6C8.10001 58.3 8.40001 58 8.70001 58H81.4C81.7 58 82 58.3 82 58.6C82 58.9 81.7 59.2 81.4 59.2ZM78.1 53.3H11C9.40001 53.3 8.20001 52 8.20001 50.5V26.1C8.20001 24.5 9.50001 23.3 11 23.3H78.1C79.7 23.3 80.9 24.6 80.9 26.1V50.4C80.9 52 79.7 53.3 78.1 53.3ZM11 24.4C10.1 24.4 9.30001 25.2 9.30001 26.1V50.4C9.30001 51.3 10.1 52.1 11 52.1H78.1C79 52.1 79.8 51.3 79.8 50.4V26.1C79.8 25.2 79 24.4 78.1 24.4H11V24.4ZM58.2 45.4H36.6C36.3 45.4 36 45.1 36 44.8C36 44.6 36.1 44.4 36.3 44.3L42.3 36.2C42.4 36.1 42.6 36 42.7 36C42.9 36 43 36.1 43.1 36.2L45.7 39L50.4 34.2C50.5 34.1 50.7 34 50.8 34C51 34 51.1 34.1 51.2 34.2L58.5 44.4C58.6 44.6 58.6 44.8 58.5 45C58.6 45.2 58.4 45.4 58.2 45.4ZM37.8 44.2H57.1L50.8 35.4L46.1 40.1C46 40.2 45.9 40.3 45.7 40.3C45.5 40.3 45.4 40.2 45.3 40.1L42.8 37.3L37.8 44.2ZM45.3 34.8C44 34.8 42.9 33.7 42.9 32.4C42.9 31.1 44 30 45.3 30C46.6 30 47.7 31.1 47.7 32.4C47.7 33.7 46.6 34.8 45.3 34.8ZM45.3 31.1C44.6 31.1 44 31.7 44 32.4C44 33.1 44.6 33.7 45.3 33.7C46 33.7 46.6 33.1 46.6 32.4C46.6 31.7 46 31.1 45.3 31.1Z" fill="#F15C22"/>
<path d="M82 79.9H8.70001C8.40001 79.9 8.10001 79.6 8.10001 79.3C8.10001 79 8.40001 78.7 8.70001 78.7H82C82.3 78.7 82.6 79 82.6 79.3C82.6 79.6 82.3 79.9 82 79.9ZM56.1 75.8H8.70001C8.40001 75.8 8.10001 75.5 8.10001 75.2C8.10001 74.9 8.40001 74.6 8.70001 74.6H56.1C56.4 74.6 56.7 74.9 56.7 75.2C56.7 75.5 56.4 75.8 56.1 75.8ZM81.2 71.6H8.70001C8.40001 71.6 8.10001 71.3 8.10001 71C8.10001 70.7 8.40001 70.4 8.70001 70.4H81.2C81.5 70.4 81.8 70.7 81.8 71C81.8 71.3 81.5 71.6 81.2 71.6ZM74.7 67.5H8.70001C8.40001 67.5 8.10001 67.2 8.10001 66.9C8.10001 66.6 8.40001 66.3 8.70001 66.3H74.6C74.9 66.3 75.2 66.6 75.2 66.9C75.2 67.2 75 67.5 74.7 67.5Z" fill="#B4BCC8"/>
<path d="M90.2 86.6H0.6C0.3 86.6 0 86.3 0 86C0 85.7 0.3 85.4 0.6 85.4H90.2C90.5 85.4 90.8 85.7 90.8 86C90.8 86.3 90.5 86.6 90.2 86.6Z" fill="#848F99"/>
<path d="M4.70001 0.6H86C88.3 0.6 90.2 2.5 90.2 4.8V13.5H0.600006V4.7C0.600006 2.4 2.40001 0.6 4.70001 0.6Z" fill="#DFE9F2"/>
<path d="M90.2 14H0.6C0.3 14 0 13.8 0 13.5V4.7C0 2.1 2.1 0 4.7 0H86C88.6 0 90.7 2.1 90.7 4.7V13.4C90.7 13.8 90.5 14 90.2 14ZM1.1 12.9H89.6V4.7C89.6 2.7 88 1.1 86 1.1H4.7C2.7 1.1 1.1 2.7 1.1 4.7V12.9Z" fill="#848F99"/>
<path d="M29.5 4.4H81.6C82 4.4 82.4 4.8 82.4 5.2V8.8C82.4 9.2 82 9.6 81.6 9.6H29.5C29.1 9.6 28.7 9.2 28.7 8.8V5.2C28.7 4.8 29 4.4 29.5 4.4Z" fill="white"/>
<path d="M9.2 5.3C10.1 5.3 10.9 6.1 10.9 7C10.9 7.9 10.1 8.7 9.2 8.7C8.3 8.7 7.5 8 7.5 7C7.5 6 8.2 5.3 9.2 5.3Z" fill="#FF6259"/>
<path d="M14.1 5.3C15 5.3 15.8 6.1 15.8 7C15.8 7.9 15 8.7 14.1 8.7C13.2 8.7 12.4 8 12.4 7C12.4 6 13.1 5.3 14.1 5.3Z" fill="#FFBD2D"/>
<path d="M19 5.3C19.9 5.3 20.7 6.1 20.7 7C20.7 7.9 19.9 8.7 19 8.7C18.1 8.7 17.3 8 17.3 7C17.3 6 18.1 5.3 19 5.3Z" fill="#2BCA41"/>
</g>
<defs>
<clipPath id="clip0">
<rect width="90.7" height="121.1" fill="white"/>
</clipPath>
</defs>
</svg>
