<svg width="51" height="51" viewBox="0 0 51 51" fill="none" xmlns="http://www.w3.org/2000/svg">
<g clip-path="url(#clip0)">
<path d="M25.1 50.2C24 50.2 22.9 49.8 22.1 49L1.2 28.1C-0.4 26.5 -0.4 23.8 1.2 22.1L22.1 1.2C23.7 -0.4 26.4 -0.4 28.1 1.2L49 22.1C50.6 23.7 50.6 26.4 49 28.1L28.1 49C27.3 49.8 26.2 50.2 25.1 50.2ZM25.1 1.1C24.3 1.1 23.5 1.4 22.9 2L2 22.9C0.8 24.1 0.8 26.1 2 27.3L22.9 48.2C24.1 49.4 26.1 49.4 27.3 48.2L48.2 27.3C49.4 26.1 49.4 24.1 48.2 22.9L27.3 2C26.7 1.4 25.9 1.1 25.1 1.1Z" fill="#636E84"/>
<path d="M21.5 26.2L21.2 26.1C19.9 25.7 18.8 24.8 18.1 23.6C17.4 22.3 17.2 20.8 17.6 19.4C18 18 18.9 16.8 20.2 16.1C21.5 15.4 23 15.2 24.4 15.6C25.2 15.8 26 16.2 26.6 16.8C26.8 17 27.2 17 27.4 16.8C27.5 16.7 27.6 16.5 27.5 16.4C27.5 16.2 27.4 16.1 27.3 16C24.6 13.6 20.4 13.8 18 16.5C15.6 19.2 15.8 23.4 18.5 25.8C19.3 26.5 20.2 27 21.2 27.2H21.3H21.4C21.7 27.2 22 26.9 22 26.6C22 26.5 21.8 26.3 21.5 26.2Z" fill="#F15C22"/>
<path d="M23 16.5C21.8 16.5 20.7 17 19.8 17.8C19 18.6 18.5 19.8 18.5 21C18.5 22.8 19.5 24.4 21.2 25.1H21.3H21.4C21.7 25.1 22 24.8 22 24.5C22 24.3 21.9 24.1 21.7 24C20 23.2 19.3 21.2 20.1 19.5C20.5 18.7 21.1 18.1 22 17.8C22.8 17.5 23.8 17.5 24.6 17.9C25.8 18.5 26.6 19.7 26.6 21V21.3C26.6 21.6 26.8 21.9 27.1 21.9H27.4V21.8C27.6 21.7 27.7 21.5 27.7 21.3V21C27.7 19.8 27.2 18.7 26.4 17.8C25.3 17 24.2 16.5 23 16.5Z" fill="#F15C22"/>
<path d="M28.4 17.1C28.2 16.8 27.9 16.8 27.6 17C27.5 17.1 27.4 17.2 27.4 17.4C27.4 17.6 27.4 17.7 27.5 17.8C28.2 18.7 28.5 19.8 28.5 21V21.2C28.5 21.6 28.4 22 28.3 22.4C28.2 22.7 28.4 23 28.7 23.1H28.8C29.1 23.1 29.3 22.9 29.3 22.7C29.4 22.1 29.5 21.6 29.5 21C29.6 19.6 29.2 18.2 28.4 17.1Z" fill="#F15C22"/>
<path d="M33.3 26L24 20C23.7 19.8 23.3 19.7 22.9 19.8C22.5 19.9 22.2 20.1 22 20.5C21.8 20.8 21.8 21.1 21.8 21.4L22.1 29.5C22.1 29.8 22.4 30.1 22.7 30.1C22.8 30.1 23 30 23.1 29.9C23.2 29.8 23.3 29.7 23.3 29.5L23 21.4C23 21.2 23.1 21 23.3 21C23.4 21 23.5 21 23.6 21.1L32.9 27L33 27.1V27.2L32.9 27.3L29.5 27.9C29.4 27.9 29.2 28 29.1 28.1C29 28.2 29 28.4 29 28.5C29 28.6 29 28.6 29.1 28.7L31.9 33.5C32 33.6 32 33.7 31.9 33.8C31.9 33.9 31.8 34 31.7 34L30 34.7C29.8 34.8 29.6 34.8 29.5 34.6L26.7 29.8C26.6 29.7 26.5 29.6 26.3 29.6C26.2 29.6 26 29.6 25.9 29.7C25.8 29.7 25.8 29.8 25.8 29.8L23.6 32.5C23.5 32.6 23.4 32.6 23.4 32.5L23.3 32.4L23.2 30.8C23.2 30.5 22.9 30.3 22.6 30.3C22.3 30.3 22 30.6 22.1 30.9L22.2 32.5C22.2 32.8 22.3 33.2 22.5 33.4C22.7 33.6 23 33.8 23.4 33.8C23.9 33.8 24.3 33.6 24.5 33.2L26.2 31.1L28.5 35.2C28.8 35.7 29.3 36 29.8 36C30.1 36 30.3 35.9 30.6 35.8L32 35C32.7 34.6 33 33.6 32.6 32.9L30.3 28.8L32.9 28.4C33.6 28.4 34.1 27.8 34.1 27.1C34 26.6 33.7 26.2 33.3 26Z" fill="#636E84"/>
<path d="M27.8 28.3L24.2 22C24.1 21.9 24 21.8 23.9 21.7C23.8 21.7 23.6 21.7 23.5 21.8C23.4 21.9 23.3 22 23.2 22.1C23.1 22.2 23.2 22.4 23.3 22.5L26.9 28.8C27 29 27.2 29.1 27.4 29.1C27.5 29.1 27.7 29 27.8 28.9C27.9 28.8 28 28.7 28 28.5C27.9 28.5 27.9 28.4 27.8 28.3Z" fill="#636E84"/>
</g>
<defs>
<clipPath id="clip0">
<rect width="50.2" height="50.2" fill="white"/>
</clipPath>
</defs>
</svg>
