<svg width="38" height="38" viewBox="0 0 38 38" fill="none" xmlns="http://www.w3.org/2000/svg">
<path d="M13.8 18.7H13.6H11.2V22.7C11.2 23 10.9 23.2 10.6 23.2C10.3 23.2 10.1 23 10.1 22.7V18.1C10.1 17.8 10.4 17.5 10.7 17.5H13.1C13.2 17.4 13.2 17.4 13.3 17.3L18.3 14.8V12C18.3 11.7 18.6 11.5 18.9 11.5C19.2 11.5 19.4 11.7 19.4 12V15L24.4 17.5C24.5 17.5 24.5 17.6 24.6 17.7H26.9C27.2 17.7 27.5 18 27.5 18.3V22.9C27.5 23.2 27.2 23.4 26.9 23.4C26.6 23.4 26.4 23.2 26.4 22.9V18.9H23.8L19.1 21.2C18.9 21.3 18.8 21.3 18.6 21.2L13.8 18.7ZM19.1 16.1C18.9 16.2 18.7 16.2 18.5 16.1L14.8 18L18.8 20L22.8 18L19.1 16.1Z" fill="#636E84"/>
<path d="M19 0C29.5 0 38 8.5 38 19C38 29.5 29.5 38 19 38C8.5 38 0 29.5 0 19C0 14 2 9.1 5.6 5.6C9.1 2 14 0 19 0ZM31.6 6.4C24.6 -0.6 13.3 -0.6 6.3 6.4C-0.7 13.4 -0.7 24.7 6.3 31.7C13.3 38.7 24.6 38.7 31.6 31.7C35 28.4 36.8 23.8 36.8 19.1C36.9 14.3 35 9.7 31.6 6.4Z" fill="#636E84"/>
<path d="M19.3 8.2C19 7.9 18.6 7.9 18.4 8.2C18.1 8.5 18.1 8.9 18.4 9.1C18.7 9.4 19.1 9.4 19.3 9.1C19.4 9 19.5 8.8 19.5 8.6C19.5 8.5 19.4 8.4 19.3 8.2ZM18.8 6.9C19.8 6.9 20.6 7.7 20.6 8.7C20.6 9.7 19.8 10.5 18.8 10.5C17.8 10.5 17 9.7 17 8.7C17 8.2 17.2 7.8 17.5 7.4C17.9 7.1 18.4 6.9 18.8 6.9Z" fill="#F15C22"/>
<path d="M24.9 26.4C24.7 26.2 24.6 25.8 24.8 25.6C25 25.4 25.4 25.3 25.6 25.5L25.7 25.6L26.5 26.4L27.8 25.1C28.1 24.9 28.4 25 28.6 25.2C28.8 25.4 28.7 25.7 28.6 25.9L26.8 27.6C26.6 27.8 26.2 27.8 26 27.6L24.9 26.4Z" fill="#F15C22"/>
<path d="M9.29999 25.8C9.09999 25.6 8.99999 25.3 9.19999 25C9.39999 24.7 9.79999 24.7 9.99999 24.9L10.1 25L10.7 25.6L11.3 25C11.5 24.8 11.9 24.7 12.1 24.9C12.3 25.1 12.4 25.5 12.2 25.7L12.1 25.8L11.5 26.4L12.1 27C12.3 27.2 12.2 27.6 12 27.8C11.8 28 11.5 28 11.3 27.8L10.7 27.2L10.1 27.8C9.89999 28 9.49999 27.9 9.29999 27.7C9.09999 27.5 9.09999 27.2 9.29999 27L9.89999 26.4L9.29999 25.8Z" fill="#F15C22"/>
</svg>
