<svg width="38" height="38" viewBox="0 0 38 38" fill="none" xmlns="http://www.w3.org/2000/svg">
<path d="M33.8 38H4.2C1.9 38 0 36.1 0 33.8V4.2C0 1.9 1.9 0 4.2 0H4.3H33.8C36.1 0 38 1.9 38 4.2V33.8C38 36.1 36.1 38 33.8 38ZM4.1 1.1C2.4 1.2 1.1 2.5 1.1 4.2V33.8C1.1 35.5 2.5 36.9 4.2 36.9H33.8C35.5 36.9 36.9 35.5 36.9 33.8V4.2C36.9 2.5 35.5 1.1 33.8 1.1H4.1C4.2 1.1 4.2 1.1 4.1 1.1Z" fill="#D13C99"/>
<path d="M17 30.3H16L15.6 29.2H13.7L13.3 30.3H12.3L14.1 25.7H15.1L17 30.3ZM15.3 28.5L14.7 26.8L14 28.5H15.3Z" fill="#D13C99"/>
<path d="M17.5 25.6H19.2C19.5 25.6 19.8 25.6 20.1 25.7C20.4 25.8 20.6 25.9 20.8 26.1C21 26.3 21.2 26.6 21.2 26.9C21.3 27.3 21.4 27.6 21.3 28C21.3 28.3 21.3 28.7 21.2 29C21.1 29.3 20.9 29.6 20.7 29.8C20.5 30 20.3 30.1 20 30.2C19.7 30.3 19.5 30.3 19.2 30.3H17.4L17.5 25.6ZM18.4 26.4V29.5H19.1C19.3 29.5 19.5 29.5 19.7 29.5C19.8 29.5 20 29.4 20.1 29.3C20.2 29.2 20.3 29 20.3 28.8C20.4 28.5 20.4 28.2 20.4 27.9C20.4 27.6 20.4 27.3 20.3 27.1C20.2 26.9 20.2 26.8 20 26.6C19.9 26.5 19.7 26.4 19.6 26.4C19.3 26.4 19.1 26.4 18.8 26.4H18.4Z" fill="#D13C99"/>
<path d="M21.9 28.8L22.8 28.7C22.8 29 22.9 29.2 23.1 29.4C23.3 29.6 23.5 29.6 23.8 29.6C24 29.6 24.3 29.6 24.5 29.4C24.6 29.3 24.7 29.1 24.7 28.9C24.7 28.8 24.7 28.7 24.6 28.6C24.5 28.5 24.4 28.4 24.3 28.4L23.5 28.2C23.1 28.1 22.8 28 22.4 27.7C21.9 27.3 21.8 26.6 22.2 26.1C22.3 25.9 22.5 25.7 22.8 25.6C23.1 25.5 23.4 25.4 23.7 25.4C24.2 25.4 24.6 25.5 25 25.8C25.3 26.1 25.5 26.4 25.5 26.8H24.6C24.6 26.6 24.5 26.4 24.3 26.3C24.1 26.2 23.9 26.1 23.7 26.1C23.5 26.1 23.2 26.1 23.1 26.3C23 26.5 23 26.6 23 26.7C23 26.8 23.1 26.9 23.1 27C23.4 27.2 23.7 27.3 24 27.3C24.3 27.4 24.7 27.5 25 27.6C25.2 27.7 25.4 27.9 25.5 28.1C25.6 28.3 25.7 28.6 25.7 28.8C25.7 29.1 25.6 29.3 25.5 29.6C25.3 29.8 25.1 30 24.9 30.1C24.6 30.2 24.2 30.3 23.9 30.3C23.4 30.3 22.9 30.2 22.5 29.9C22.1 29.6 21.9 29.2 21.9 28.8Z" fill="#D13C99"/>
<path d="M23 24.1H15C12.7 24.1 10.8 22.2 10.8 19.9V11.8C10.8 9.50001 12.7 7.60001 15 7.60001H23C25.3 7.60001 27.2 9.50001 27.2 11.8V19.9C27.2 22.2 25.3 24.1 23 24.1ZM15 8.50001C13.2 8.50001 11.7 10 11.7 11.8V19.9C11.7 21.7 13.2 23.2 15 23.2H23C24.8 23.2 26.3 21.7 26.3 19.9V11.8C26.3 10 24.8 8.50001 23 8.50001H15Z" fill="#D13C99"/>
<path d="M26.8 13.8H21C20.7 13.8 20.5 13.6 20.5 13.3C20.5 13 20.7 12.8 21 12.8H26.8C27.1 12.8 27.3 13 27.3 13.3C27.3 13.6 27.1 13.8 26.8 13.8Z" fill="#D13C99"/>
<path d="M16.9 13.8H11.2C10.9 13.8 10.7 13.6 10.7 13.3C10.7 13 10.9 12.8 11.2 12.8H16.9C17.2 12.8 17.4 13 17.4 13.3C17.4 13.6 17.2 13.8 16.9 13.8Z" fill="#D13C99"/>
<path d="M19 19.5C17 19.5 15.3 17.9 15.3 15.8C15.3 13.7 16.9 12.1 19 12.1C21.1 12.1 22.7 13.7 22.7 15.8C22.7 17.9 21 19.5 19 19.5ZM19 13.1C17.5 13.1 16.3 14.3 16.3 15.8C16.3 17.3 17.5 18.5 19 18.5C20.5 18.5 21.7 17.3 21.7 15.8C21.7 14.3 20.5 13.1 19 13.1Z" fill="#D13C99"/>
<path d="M24.3 12.6H22.2C21.9 12.6 21.7 12.4 21.7 12.1V10C21.7 9.7 21.9 9.5 22.2 9.5H24.3C24.6 9.5 24.8 9.7 24.8 10V12.1C24.8 12.4 24.6 12.6 24.3 12.6ZM22.7 11.6H23.9V10.4H22.7V11.6Z" fill="#D13C99"/>
</svg>
