<svg width="38" height="38" viewBox="0 0 38 38" fill="none" xmlns="http://www.w3.org/2000/svg">
<path d="M33.8 0H4.3H4.2C1.9 0 0 1.9 0 4.2V33.8C0 36.1 1.9 38 4.2 38H33.8C36.1 38 38 36.1 38 33.8V4.2C38 1.9 36.1 0 33.8 0ZM36.9 33.8C36.9 35.5 35.5 36.9 33.8 36.9H4.2C2.5 36.9 1.1 35.5 1.1 33.8V4.2C1.1 2.5 2.4 1.2 4.1 1.1H4.2H33.8C35.5 1.1 36.9 2.5 36.9 4.2V33.8Z" fill="#0077B7"/>
<path d="M15 15.2H11C10.9 15.2 10.9 15.2 10.9 15.3V26.4C10.9 26.5 10.9 26.5 11 26.5H15C15.1 26.5 15.1 26.5 15.1 26.4V15.3C15.1 15.2 15.1 15.2 15 15.2ZM11.9 25.6V16.1H14.2V25.6H11.9Z" fill="#0077B7"/>
<path d="M13 10C11.7 10 10.6 11.1 10.6 12.3C10.6 13.6 11.7 14.7 13 14.7C14.3 14.7 15.3 13.6 15.3 12.3C15.4 11 14.3 10 13 10ZM13 10.9C13.8 10.9 14.4 11.5 14.4 12.3C14.4 13.1 13.8 13.7 13 13.7C12.2 13.7 11.6 13.1 11.6 12.3C11.6 11.9 11.7 11.6 12 11.3C12.3 11.1 12.7 10.9 13 10.9Z" fill="#0077B7"/>
<path d="M27.2 20.4C27.2 17.7 26.7 15 22.8 15C21.8 15 20.9 15.3 20.2 15.9V15.3C20.2 15.2 20.2 15.2 20.1 15.2H16.3C16.2 15.2 16.2 15.2 16.2 15.3V26.4C16.2 26.5 16.2 26.5 16.3 26.5H20.3C20.4 26.5 20.4 26.5 20.4 26.4V20.9C20.4 19.3 20.8 18.7 21.9 18.7C22.8 18.7 23.1 19.2 23.1 21V26.4C23.1 26.5 23.1 26.5 23.2 26.5H27.2L27.3 26.4C27.2 26.4 27.2 20.4 27.2 20.4ZM19.4 20.9V25.6H17.1V16.1H19.3V17.4C19.3 17.5 19.3 17.5 19.4 17.5H20C20 17.5 20.1 17.5 20.1 17.4L20.2 17.2C20.7 16.3 21.8 15.7 22.8 15.8C24.9 15.8 26.2 16.6 26.2 20.3V25.5H24V21C24 19.9 24 17.8 21.9 17.8C19.4 17.8 19.4 20 19.4 20.9Z" fill="#0077B7"/>
</svg>
