<svg width="91" height="122" viewBox="0 0 91 122" fill="none" xmlns="http://www.w3.org/2000/svg">
<g clip-path="url(#clip0)">
<path d="M90.2 13.7V116.3C90.2 118.6 88.3 120.5 86 120.5H4.7C2.4 120.5 0.5 118.6 0.5 116.3V13.7H90.2Z" fill="white"/>
<path d="M86 121.1H4.7C2.1 121.1 0 119 0 116.4V13.7C0 13.4 0.3 13.1 0.6 13.1H90.2C90.5 13.1 90.8 13.4 90.8 13.7V13.8V116.3C90.7 119 88.6 121.1 86 121.1ZM1.1 14.3V116.3C1.1 118.3 2.7 119.9 4.7 119.9H86C88 119.9 89.6 118.3 89.6 116.3V14.3H1.1V14.3Z" fill="#848F99"/>
<path d="M15.7 84.4H9.70001C9.40001 84.4 9.10001 84.1 9.10001 83.8V77.7C9.10001 77.4 9.40001 77.1 9.70001 77.1H15.7C16 77.1 16.3 77.4 16.3 77.7V83.8C16.3 84.2 16 84.4 15.7 84.4ZM10.2 83.3H15.1V78.4H10.2V83.3Z" fill="#B4BCC8"/>
<path d="M14 79.5H11.4V82.2H14V79.5Z" fill="#F15C22"/>
<path d="M15.7 93.2H9.70001C9.40001 93.2 9.10001 92.9 9.10001 92.6V86.6C9.10001 86.3 9.40001 86 9.70001 86H15.7C16 86 16.3 86.3 16.3 86.6V92.6C16.2 92.9 16 93.2 15.7 93.2ZM10.2 92.1H15.1V87.2H10.2V92.1ZM80.4 81.4H20C19.7 81.4 19.4 81.1 19.4 80.8C19.4 80.5 19.7 80.2 20 80.2H80.5C80.8 80.2 81.1 80.5 81.1 80.8C81.1 81.1 80.8 81.4 80.4 81.4Z" fill="#B4BCC8"/>
<path d="M14 88.3H11.4V91H14V88.3Z" fill="#F15C22"/>
<path d="M15.7 101.2H9.70001C9.40001 101.2 9.10001 100.9 9.10001 100.6V94.6C9.10001 94.3 9.40001 94 9.70001 94H15.7C16 94 16.3 94.3 16.3 94.6V100.6C16.3 100.9 16 101.2 15.7 101.2ZM10.3 100H15.2V95.1H10.3V100ZM69 90.2H20C19.7 90.2 19.4 89.9 19.4 89.6C19.4 89.3 19.7 89 20 89H69C69.3 89 69.6 89.3 69.6 89.6C69.6 89.9 69.3 90.2 69 90.2Z" fill="#B4BCC8"/>
<path d="M14 96.3H11.4V98.9H14V96.3Z" fill="#F15C22"/>
<path d="M15.7 110H9.70001C9.40001 110 9.10001 109.7 9.10001 109.4V103.4C9.10001 103.1 9.40001 102.8 9.70001 102.8H15.7C16 102.8 16.3 103.1 16.3 103.4V109.4C16.2 109.7 16 110 15.7 110ZM10.2 108.8H15.1V104H10.2V108.8ZM76.5 98.2H20C19.7 98.2 19.4 97.9 19.4 97.6C19.4 97.3 19.7 97 20 97H76.5C76.8 97 77.1 97.3 77.1 97.6C77.1 97.9 76.8 98.2 76.5 98.2Z" fill="#B4BCC8"/>
<path d="M14 105.1H11.4V107.8H14V105.1Z" fill="#F15C22"/>
<path d="M63 107H20C19.7 107 19.4 106.7 19.4 106.4C19.4 106.1 19.7 105.8 20 105.8H63C63.3 105.8 63.6 106.1 63.6 106.4C63.6 106.7 63.3 107 63 107Z" fill="#B4BCC8"/>
<path d="M81.4 25.4H9.3C9 25.4 8.7 25.1 8.7 24.8C8.7 24.5 9 24.2 9.3 24.2H81.4C81.7 24.2 82 24.5 82 24.8C82 25.1 81.7 25.4 81.4 25.4Z" fill="#F15C22"/>
<path d="M56.4 38.3H34.4C34.1 38.3 33.8 38 33.8 37.7C33.8 37.4 34.1 37.1 34.4 37.1H56.4C56.7 37.1 57 37.4 57 37.7C57 38 56.7 38.3 56.4 38.3ZM81.4 34H9.3C9 34 8.7 33.7 8.7 33.4C8.7 33.1 9 32.8 9.3 32.8H81.4C81.7 32.8 82 33.1 82 33.4C82 33.7 81.7 34 81.4 34ZM67.6 30H23.2C22.9 30 22.6 29.7 22.6 29.4C22.6 29.1 22.9 28.8 23.2 28.8H67.6C67.9 28.8 68.2 29.1 68.2 29.4C68.2 29.7 67.9 30 67.6 30Z" fill="#BFCBD6"/>
<path d="M78.9 73.5H11.8C10.2 73.5 9 72.2 9 70.7V45.1C9 43.5 10.3 42.3 11.8 42.3H78.9C80.5 42.3 81.7 43.6 81.7 45.1V70.6C81.8 72.2 80.5 73.5 78.9 73.5ZM11.8 43.4C10.9 43.4 10.1 44.2 10.1 45.1V70.6C10.1 71.5 10.9 72.3 11.8 72.3H78.9C79.8 72.3 80.6 71.5 80.6 70.6V45.1C80.6 44.2 79.8 43.4 78.9 43.4H11.8Z" fill="#F15C22"/>
<path d="M49.4 60.1H49.3H49.2C48.3 60.1 47.5 59.4 47.3 58.4C47.6 58.2 47.9 57.9 48.1 57.5C48.7 56.7 49 55.9 49.1 54.9C49.1 54.9 49.2 54.8 49.2 54.7C49.4 54.1 49.6 53.6 49.6 53C49.6 51.9 49.3 50.9 48.5 50C47.8 49.2 46.7 48.7 45.6 48.7C45 48.7 44.5 48.8 44 49.1C43.8 49.1 43.6 49.2 43.5 49.2C42.5 49.5 41.8 50.2 41.4 51.1C41 52 40.9 53.1 41.2 54.1C41.3 54.3 41.3 54.5 41.4 54.7C41.4 54.7 41.4 54.8 41.5 54.8C41.6 56.1 42.3 57.4 43.3 58.2V58.4C43 59.2 42.3 59.8 41.4 59.8C39.8 59.9 38.6 61.2 38.5 62.8V65.8C38.5 66.2 38.8 66.5 39.2 66.5H51.6C52 66.5 52.3 66.2 52.3 65.8V62.8C52.3 61.5 51 60.2 49.4 60.1ZM46.1 59.2C46.3 59.8 46.6 60.3 47.1 60.7L45.4 63.1L43.7 60.7C44.1 60.3 44.5 59.8 44.6 59.2C45.2 59.3 45.7 59.3 46.1 59.2ZM44.7 52.6C44.5 52.6 44.4 52.5 44.3 52.3C44.2 52.1 44.1 52 43.9 51.9C43.7 51.8 43.5 51.8 43.3 51.9C43.1 52 42.9 52.2 42.8 52.4C42.7 52.8 42.6 53.1 42.3 53.4C42.2 52.3 42.8 51.2 43.9 50.7L44.1 50.6H44.2C44.3 50.6 44.4 50.6 44.5 50.6H44.6C44.9 50.4 45.3 50.3 45.7 50.3C47.1 50.4 48.2 51.4 48.3 52.8C48 52.7 47.7 52.6 47.4 52.6H44.7ZM43.8 53.7C44.1 53.9 44.4 53.9 44.7 53.9H47.4C47.6 53.9 47.8 54 48 54.2C48 56.2 46.8 57.8 45.4 57.8C44.8 57.8 44.3 57.5 43.9 57.1L43.7 57C43.2 56.4 42.9 55.7 42.8 54.9C43.2 54.6 43.6 54.2 43.8 53.7ZM50.9 63.2V65.5H39.9V63.2C39.9 62.3 40.6 61.6 41.5 61.6C41.8 61.6 42.2 61.5 42.5 61.4L44.5 64.2C44.7 64.5 45.1 64.7 45.4 64.7C45.8 64.7 46.1 64.5 46.3 64.2L48.3 61.4C48.6 61.5 49 61.6 49.3 61.6C50.2 61.6 50.9 62.3 50.9 63.2Z" fill="#F15C22"/>
<path d="M4.7 0.6H86C88.3 0.6 90.2 2.5 90.2 4.8V13.5H0.599998V4.7C0.599998 2.4 2.4 0.6 4.7 0.6Z" fill="#DFE9F2"/>
<path d="M90.2 14H0.6C0.3 14 0 13.8 0 13.5V4.7C0 2.1 2.1 0 4.7 0H86C88.6 0 90.7 2.1 90.7 4.7V13.4C90.7 13.8 90.5 14 90.2 14ZM1.1 12.9H89.6V4.7C89.6 2.7 88 1.1 86 1.1H4.7C2.7 1.1 1.1 2.7 1.1 4.7V12.9Z" fill="#848F99"/>
<path d="M29.5 4.4H81.6C82 4.4 82.4 4.8 82.4 5.2V8.8C82.4 9.2 82 9.6 81.6 9.6H29.5C29.1 9.6 28.7 9.2 28.7 8.8V5.2C28.7 4.8 29 4.4 29.5 4.4Z" fill="white"/>
<path d="M9.2 5.3C10.1 5.3 10.9 6.1 10.9 7C10.9 7.9 10.1 8.7 9.2 8.7C8.3 8.7 7.5 8 7.5 7C7.5 6 8.2 5.3 9.2 5.3Z" fill="#FF6259"/>
<path d="M14.1 5.3C15 5.3 15.8 6.1 15.8 7C15.8 7.9 15 8.7 14.1 8.7C13.2 8.7 12.4 8 12.4 7C12.4 6 13.1 5.3 14.1 5.3Z" fill="#FFBD2D"/>
<path d="M19 5.3C19.9 5.3 20.7 6.1 20.7 7C20.7 7.9 19.9 8.7 19 8.7C18.1 8.7 17.3 8 17.3 7C17.3 6 18.1 5.3 19 5.3Z" fill="#2BCA41"/>
</g>
<defs>
<clipPath id="clip0">
<rect width="90.7" height="121.1" fill="white"/>
</clipPath>
</defs>
</svg>
