<svg width="38" height="38" viewBox="0 0 38 38" fill="none" xmlns="http://www.w3.org/2000/svg">
<path d="M19 0C29.5 0 38 8.5 38 19C38 29.5 29.5 38 19 38C8.5 38 0 29.5 0 19C0 8.5 8.5 0 19 0ZM24.6 20.2C27 20.2 29 22.2 29 24.6C29 27 27 29 24.6 29C22.7 29 21 27.8 20.4 26H10C9.7 26 9.4 25.7 9.4 25.4C9.4 21.9 11.6 18.7 15 17.5L15.2 17.4C14.6 17 14.1 16.4 13.8 15.7C12.7 13.5 13.6 10.8 15.8 9.7C18 8.6 20.7 9.5 21.8 11.7C22.4 13 22.4 14.5 21.8 15.7C21.5 16.4 21 16.9 20.4 17.4C22 17.9 23.3 18.9 24.3 20.1H24.6V20.2ZM20.2 24.8C20.1 23 21.2 21.3 22.9 20.6C20.2 17.7 15.7 17.6 12.9 20.3C11.7 21.5 10.9 23 10.7 24.7V24.8H20.2V24.8ZM26.9 22.3C25.6 21 23.6 21 22.3 22.3C21 23.6 21 25.6 22.3 26.9C23.6 28.2 25.6 28.2 26.9 26.9C28.1 25.6 28.1 23.6 26.9 22.3ZM15.5 11.5C14.2 12.8 14.2 14.8 15.5 16.1C16.8 17.4 18.8 17.4 20.1 16.1C21.4 14.8 21.4 12.8 20.1 11.5C18.8 10.3 16.7 10.3 15.5 11.5ZM31.6 6.4C24.6 -0.6 13.3 -0.6 6.3 6.4C-0.7 13.4 -0.7 24.7 6.3 31.7C13.3 38.7 24.6 38.7 31.6 31.7C35 28.4 36.8 23.8 36.8 19.1C36.9 14.3 35 9.7 31.6 6.4Z" fill="#636E84"/>
<path d="M24.6 20.2C27 20.2 29 22.2 29 24.6C29 27 27 29 24.6 29C23.4 29 22.3 28.5 21.5 27.7C19.8 26 19.8 23.2 21.6 21.5C22.4 20.7 23.5 20.2 24.6 20.2ZM26.9 22.3C25.6 21 23.6 21 22.3 22.3C21 23.6 21 25.6 22.3 26.9C23.6 28.2 25.6 28.2 26.9 26.9C28.2 25.6 28.1 23.5 26.9 22.3Z" fill="#F15C22"/>
<path d="M24.3 22.4H25.1V24.1H26.8V25.1H25.1V26.8H24.1V25.1H22.4V24.1H24.1V22.4H24.3Z" fill="#F15C22"/>
</svg>
