<svg width="38" height="38" viewBox="0 0 38 38" fill="none" xmlns="http://www.w3.org/2000/svg">
<path d="M33.8 38H4.2C1.9 38 0 36.1 0 33.8V4.2C0 1.9 1.9 0 4.2 0H4.3H33.8C36.1 0 38 1.9 38 4.2V33.8C38 36.1 36.1 38 33.8 38ZM4.1 1.1C2.4 1.2 1.1 2.5 1.1 4.2V33.8C1.1 35.5 2.5 36.9 4.2 36.9H33.8C35.5 36.9 36.9 35.5 36.9 33.8V4.2C36.9 2.5 35.5 1.1 33.8 1.1H4.1C4.2 1.1 4.2 1.1 4.1 1.1Z" fill="#7B47EA"/>
<path d="M20.3 17.7C20.1 17.5 19.7 17.5 19.4 17.7C19.4 17.7 19.4 17.7 19.4 17.8C19.2 18 19.3 18.4 19.5 18.6C19.9 19 20.1 19.5 20.1 20.1C20.1 20.7 19.9 21.2 19.5 21.6L14.9 26C14.1 26.8 12.8 26.8 12 26L11.3 25.3C10.5 24.5 10.5 23.2 11.3 22.4L15.8 17.9C15.9 17.8 15.9 17.6 15.9 17.4C15.9 17.2 15.8 17.1 15.6 17C15.4 16.8 15.1 16.8 14.8 17L10.3 21.5C9.7 22.1 9.3 23 9.3 23.9C9.3 24.8 9.6 25.6 10.3 26.3L11 27C11.7 27.7 12.5 28 13.4 28C14.3 28 15.1 27.7 15.8 27L20.3 22.5C21.6 21.1 21.6 19 20.3 17.7Z" fill="#7B47EA"/>
<path d="M27.6 11.8L26.9 11.1C25.6 9.8 23.5 9.8 22.2 11.1L17.7 15.6C16.4 16.9 16.4 19 17.7 20.4C17.8 20.5 18 20.5 18.2 20.5C18.4 20.5 18.5 20.4 18.6 20.2C18.8 20 18.8 19.7 18.6 19.4C18.2 19 18 18.5 18 17.9C18 17.3 18.2 16.8 18.6 16.4L23 12C23.4 11.6 23.9 11.4 24.5 11.4C25.1 11.4 25.6 11.6 26 12L26.7 12.7C27.1 13.1 27.3 13.6 27.3 14.2C27.3 14.8 27.1 15.3 26.7 15.7L22.2 20.2C22 20.5 22 20.9 22.2 21.1C22.3 21.2 22.5 21.3 22.6 21.3C22.8 21.3 22.9 21.2 23 21.1L27.5 16.6C28.8 15.2 28.8 13.1 27.6 11.8Z" fill="#7B47EA"/>
</svg>
