<svg width="38" height="38" viewBox="0 0 38 38" fill="none" xmlns="http://www.w3.org/2000/svg">
<path d="M15.9 15C15.6 14.8 15.2 14.8 15 15.1C14.8 15.3 14.8 15.6 15 15.9L17.1 18C16.5 19 16.9 20.3 18 20.9C19 21.5 20.3 21.1 20.9 20C21.2 19.4 21.2 18.6 20.9 18L25.1 13.8C25.3 13.5 25.3 13.1 25 12.9C24.8 12.7 24.5 12.7 24.2 12.9L20 17.1C19.4 16.8 18.6 16.8 18 17.1L15.9 15ZM19.9 19C19.9 19.5 19.5 19.9 19 19.9C18.5 19.9 18.1 19.5 18.1 19C18.1 18.5 18.5 18.1 19 18.1C19.5 18.1 19.9 18.5 19.9 19Z" fill="#F15C22"/>
<path d="M19 0C29.5 0 38 8.5 38 19C38 29.5 29.5 38 19 38C8.5 38 0 29.5 0 19C0 14 2 9.1 5.6 5.6C9.1 2 14 0 19 0ZM31.6 6.4C24.6 -0.6 13.3 -0.6 6.3 6.4C-0.7 13.4 -0.7 24.7 6.3 31.7C13.3 38.7 24.6 38.7 31.6 31.7C35 28.4 36.8 23.8 36.8 19.1C36.9 14.3 35 9.7 31.6 6.4Z" fill="#636E84"/>
<path d="M11.5 11.6C11.7 11.4 11.7 11 11.5 10.7C11.3 10.4 10.9 10.5 10.6 10.7C10.4 10.9 10.4 11.3 10.6 11.6C10.7 11.7 10.9 11.8 11 11.8C11.3 11.7 11.4 11.7 11.5 11.6Z" fill="#F15C22"/>
<path d="M18.4 27V27.8C18.4 28.1 18.6 28.5 18.9 28.5C19.2 28.5 19.6 28.3 19.6 28C19.6 27.9 19.6 27.9 19.6 27.8V27C19.6 26.7 19.2 26.4 18.9 26.5C18.6 26.5 18.4 26.7 18.4 27Z" fill="#636E84"/>
<path d="M19.6 11V10.2C19.6 9.9 19.4 9.5 19.1 9.5C18.8 9.5 18.4 9.7 18.4 10C18.4 10.1 18.4 10.1 18.4 10.2V11C18.4 11.3 18.8 11.6 19.1 11.5C19.4 11.5 19.6 11.3 19.6 11Z" fill="#636E84"/>
<path d="M9.6 19C9.6 19.3 9.9 19.6 10.2 19.6H11C11.3 19.6 11.6 19.2 11.5 18.9C11.5 18.6 11.2 18.4 11 18.4H10.2C9.9 18.4 9.6 18.7 9.6 19Z" fill="#636E84"/>
<path d="M27 19.6H27.8C28.1 19.6 28.5 19.4 28.5 19.1C28.5 18.8 28.3 18.4 28 18.4C27.9 18.4 27.9 18.4 27.8 18.4H27C26.7 18.4 26.4 18.8 26.5 19.1C26.5 19.4 26.7 19.6 27 19.6Z" fill="#636E84"/>
<path d="M9.9 12.5C9.6 12.3 9.2 12.4 9 12.7C5.5 18.2 7.2 25.5 12.7 28.9C18.2 32.3 25.5 30.7 28.9 25.2C32.4 19.7 30.7 12.4 25.2 9C21.4 6.6 16.5 6.6 12.7 9C12.5 9.3 12.5 9.6 12.8 9.9C13 10 13.2 10.1 13.4 10C18.3 6.9 24.8 8.4 27.9 13.3C31 18.2 29.5 24.7 24.6 27.8C20.4 30.4 15 29.8 11.5 26.3C8 22.8 7.4 17.4 10 13.2C10.3 13 10.2 12.7 9.9 12.5Z" fill="#636E84"/>
</svg>
