<svg width="38" height="38" viewBox="0 0 38 38" fill="none" xmlns="http://www.w3.org/2000/svg">
<path d="M4.20001 0.599998H33.8C35.8 0.599998 37.4 2.2 37.4 4.2V33.8C37.4 35.8 35.8 37.4 33.8 37.4H4.20001C2.20001 37.4 0.600006 35.8 0.600006 33.8V4.2C0.600006 2.2 2.20001 0.599998 4.20001 0.599998Z" stroke="#28B446" stroke-width="1.13" stroke-linecap="round" stroke-linejoin="round"/>
<path d="M27.9 27.2L22.5 10.5C22.4 10.3 22.2 10.1 22 10.1H16.2C15.9 10.1 15.7 10.3 15.7 10.5L10.3 27.2C10.2 27.5 10.4 27.8 10.7 27.9C10.8 27.9 10.8 27.9 10.9 27.9H15C16.3 27.9 17.4 27.1 17.8 25.9L19.3 21.4L20.8 25.9C21.2 27.1 22.3 27.9 23.6 27.9H27.7C28 27.9 28.3 27.6 28.3 27.3C28 27.3 27.9 27.2 27.9 27.2ZM16.4 25.6C16.2 26.3 15.5 26.8 14.7 26.8H11.4L16.5 11.3H21.1L16.4 25.6ZM23.2 26.8C22.4 26.8 21.8 26.3 21.5 25.6L19.6 19.6L21.9 12.5L26.5 26.8H23.2Z" fill="#28B446"/>
</svg>
