<svg width="38" height="38" viewBox="0 0 38 38" fill="none" xmlns="http://www.w3.org/2000/svg">
<path d="M14.6 12.7C15.4 11.9 16.7 11.9 17.5 12.7C18.3 13.5 18.3 14.8 17.5 15.6C16.7 16.4 15.4 16.4 14.6 15.6C14.2 15.2 14 14.7 14 14.1C14 13.6 14.2 13 14.6 12.7ZM15.4 14.8C15.8 15.1 16.3 15.1 16.6 14.8C16.9 14.5 16.9 13.9 16.6 13.6C16.2 13.3 15.7 13.3 15.4 13.6C15.2 13.8 15.2 14 15.2 14.2C15.1 14.4 15.2 14.6 15.4 14.8Z" fill="#636E84"/>
<path d="M19.5 9.9L29.4 19.8C30.1 20.4 30.1 21.5 29.5 22.1C29.5 22.1 29.5 22.1 29.4 22.2L24 27.6C23.8 27.9 23.4 28 23 28C22.6 28 22.2 27.9 21.9 27.6L21.8 27.5L19.7 25.4C19.3 25.9 18.8 26.4 18.2 26.7C17.6 27.1 16.8 27.3 16.1 27.3C13.7 27.3 11.8 25.4 11.8 23C11.8 22.3 12 21.6 12.3 20.9C12.6 20.3 13.1 19.8 13.6 19.4L11.7 17.5V11.5C11.7 10.6 12.5 9.8 13.4 9.8L19.5 9.9ZM13.8 25.2C15 26.4 17 26.4 18.3 25.2C19.5 24 19.5 22 18.3 20.7C17.1 19.5 15.1 19.5 13.8 20.7C13.2 21.3 12.9 22.1 12.9 22.9C12.9 23.8 13.2 24.6 13.8 25.2ZM23.3 26.7L28.6 21.4V21.3C28.7 21.2 28.7 21.1 28.7 20.9C28.7 20.8 28.7 20.7 28.6 20.6C25.3 17.7 22 14 18.8 10.9H13.3C13.2 10.9 13 11 12.9 11.1C12.8 11.2 12.7 11.3 12.7 11.5V17L14.6 18.9C14.8 18.8 14.9 18.8 15.1 18.8C15.3 18.8 15.6 18.7 15.8 18.7C18.2 18.7 20.1 20.6 20.1 23C20.1 23.4 20 23.9 19.9 24.3L22.3 26.7C22.7 26.9 23 27 23.3 26.7C23.3 26.7 23.3 26.8 23.3 26.7Z" fill="#636E84"/>
<path d="M19 0C29.5 0 38 8.5 38 19C38 29.5 29.5 38 19 38C8.5 38 0 29.5 0 19C0 14 2 9.1 5.6 5.6C9.1 2 14 0 19 0ZM31.6 6.4C24.6 -0.6 13.3 -0.6 6.3 6.4C-0.7 13.4 -0.7 24.7 6.3 31.7C13.3 38.7 24.6 38.7 31.6 31.7C35 28.4 36.8 23.8 36.8 19.1C36.9 14.3 35 9.7 31.6 6.4Z" fill="#636E84"/>
<path d="M15.8 20.8H16.5V22.5H18.3V23.5H16.5V25.2H15.6V23.5H13.8V22.5H15.6V20.8H15.8Z" fill="#F15C22"/>
<path d="M16.1 18.7C18.5 18.7 20.4 20.6 20.5 22.9C20.6 25.2 18.6 27.2 16.3 27.3C15.1 27.3 14 26.9 13.2 26C11.5 24.3 11.6 21.6 13.3 19.9C13.9 19.2 15 18.7 16.1 18.7ZM18.3 20.8C17.1 19.6 15.1 19.5 13.8 20.8C12.5 22.1 12.5 24 13.8 25.3C15 26.5 17 26.5 18.3 25.3C19.6 24.1 19.5 22 18.3 20.8Z" fill="#F15C22"/>
</svg>
