<svg width="51" height="51" viewBox="0 0 51 51" fill="none" xmlns="http://www.w3.org/2000/svg">
<g clip-path="url(#clip0)">
<path d="M25.1 50.2C24 50.2 22.9 49.8 22.1 49L1.2 28.1C-0.4 26.5 -0.4 23.8 1.2 22.1L22.1 1.2C23.7 -0.4 26.4 -0.4 28.1 1.2L49 22.1C50.6 23.7 50.6 26.4 49 28.1L28.1 49C27.3 49.8 26.2 50.2 25.1 50.2ZM25.1 1.1C24.3 1.1 23.5 1.4 22.9 2L2 22.9C0.8 24.1 0.8 26.1 2 27.3L22.9 48.2C24.1 49.4 26.1 49.4 27.3 48.2L48.2 27.3C49.4 26.1 49.4 24.1 48.2 22.9L27.3 2C26.7 1.4 25.9 1.1 25.1 1.1Z" fill="#636E84"/>
<path d="M20.6 30.8C19.6 30.8 18.7 31.6 18.7 32.7C18.7 33.8 19.5 34.6 20.6 34.6C21.6 34.6 22.5 33.8 22.5 32.7C22.5 31.6 21.7 30.8 20.6 30.8ZM20.6 33.4C20.2 33.4 19.8 33.1 19.8 32.6C19.8 32.1 20.1 31.8 20.6 31.8C21.1 31.8 21.4 32.1 21.4 32.6C21.4 33.1 21.1 33.4 20.6 33.4ZM26.9 30.8C25.9 30.8 25 31.6 25 32.7C25 33.8 25.8 34.6 26.9 34.6C27.9 34.6 28.8 33.8 28.8 32.7C28.7 31.6 27.9 30.8 26.9 30.8ZM26.9 33.4C26.5 33.4 26.1 33.1 26.1 32.6C26.1 32.1 26.4 31.8 26.9 31.8C27.4 31.8 27.7 32.1 27.7 32.6C27.6 33.1 27.3 33.4 26.9 33.4ZM34.8 16.2H33.7C33 16.2 32.3 16.7 32.1 17.4L31 21.2H30.9C30.8 21.2 30.7 21.2 30.5 21.2H21.6V21.1C21.1 18.8 18.9 17.4 16.6 17.9C14.3 18.4 12.9 20.6 13.4 22.9C13.8 24.6 15.2 25.9 16.9 26.1H17V26.2C17 26.2 17 26.2 17 26.3L17.2 28.5C17.3 29.3 17.9 29.8 18.7 29.8H28.4C29.1 29.8 29.8 29.3 30 28.6L31.2 24.1L33 17.7C33.1 17.5 33.3 17.3 33.5 17.3H34.6C34.9 17.3 35.2 17 35.2 16.7C35.3 16.5 35.1 16.2 34.8 16.2ZM14.5 22C14.5 20.3 15.9 18.9 17.6 18.9C19.3 18.9 20.7 20.3 20.7 22C20.7 23.7 19.3 25.1 17.6 25.1C15.9 25 14.6 23.7 14.5 22ZM29 28.3C28.9 28.5 28.7 28.7 28.5 28.7H18.8C18.6 28.7 18.5 28.6 18.4 28.4L18.2 26.1H18.3C20.2 25.8 21.6 24.2 21.8 22.3V22.2H30.7V22.3L29 28.3Z" fill="#636E84"/>
<path d="M18.2 23.6V22.7H19.1C19.4 22.7 19.7 22.4 19.7 22.1C19.7 21.8 19.4 21.5 19.1 21.5H18.2V20.6C18.2 20.3 17.9 20 17.6 20C17.3 20 17 20.1 17 20.5V21.4H16C15.7 21.4 15.4 21.7 15.4 22C15.4 22.3 15.7 22.6 16 22.6H17V23.5C17 23.8 17.3 24.1 17.6 24.1C17.9 24.1 18.3 23.9 18.2 23.6Z" fill="#F15C22"/>
<path d="M17.6 26.2C16.5 26.2 15.4 25.8 14.7 25C13.9 24.2 13.5 23.2 13.4 22C13.4 19.6 15.3 17.7 17.6 17.7C17.7 17.7 17.7 17.7 17.8 17.7C20 17.8 21.8 19.6 21.8 21.9C21.9 24.3 20 26.2 17.6 26.2C17.6 26.2 17.7 26.2 17.6 26.2ZM17.5 18.9C15.9 19 14.6 20.3 14.6 22C14.6 22.9 14.9 23.6 15.5 24.2C16.1 24.8 16.9 25.1 17.7 25.1C18.5 25.1 19.3 24.8 19.9 24.2C20.5 23.6 20.8 22.8 20.8 22C20.8 21.2 20.5 20.4 19.9 19.8C19.3 19.2 18.5 18.9 17.7 18.9C17.5 18.9 17.5 18.9 17.5 18.9Z" fill="#F15C22"/>
</g>
<defs>
<clipPath id="clip0">
<rect width="50.2" height="50.2" fill="white"/>
</clipPath>
</defs>
</svg>
