<svg width="91" height="121" viewBox="0 0 91 121" fill="none" xmlns="http://www.w3.org/2000/svg">
<g clip-path="url(#clip0)">
<path d="M90.2 13.5V116.1C90.2 118.4 88.3 120.3 86 120.3H4.7C2.4 120.3 0.5 118.4 0.5 116.1V13.5H90.2Z" fill="white"/>
<path d="M4.7 120.8C2.1 120.8 0 118.7 0 116.1V13.5C0 13.2 0.3 12.9 0.6 12.9H90.2C90.5 12.9 90.8 13.2 90.8 13.5V13.6V116.1C90.8 118.7 88.7 120.8 86.1 120.8H4.7ZM1.1 14V116C1.1 118 2.7 119.6 4.7 119.6H86C88 119.6 89.6 118 89.6 116V14H1.1Z" fill="#848F99"/>
<path d="M12 30.8H78.8C80.1 30.8 81.2 31.9 81.2 33.2V46H9.60001V33.3C9.60001 31.9 10.6 30.8 12 30.8Z" fill="#F15C22"/>
<path d="M31.8 39.3L32.6 39.6C32.5 40 32.3 40.4 32 40.6C31.7 40.8 31.3 41 30.9 40.9C30.4 40.9 29.9 40.7 29.5 40.3C29.1 39.9 28.9 39.3 29 38.7C29 38.1 29.2 37.5 29.5 37C29.9 36.6 30.4 36.4 31 36.4C31.5 36.4 31.9 36.6 32.3 36.9C32.5 37.1 32.7 37.4 32.7 37.7L31.8 37.9C31.7 37.5 31.3 37.2 30.9 37.2C30.6 37.2 30.3 37.3 30.1 37.5C29.9 37.8 29.8 38.2 29.8 38.6C29.8 39 29.9 39.4 30.1 39.8C30.3 40 30.6 40.2 30.9 40.2C31.1 40.2 31.3 40.1 31.5 40C31.6 39.8 31.8 39.5 31.8 39.3Z" fill="white"/>
<path d="M37.3 40.9H36.4L36 39.9H34.3L33.9 40.9H33L34.7 36.6H35.6L37.3 40.9ZM35.7 39.2L35.1 37.6L34.5 39.2H35.7Z" fill="white"/>
<path d="M37.8 40.9V36.6H38.6V40.1H40.8V40.9H37.8Z" fill="white"/>
<path d="M41.4 40.9V36.6H44.6V37.3H42.3V38.3H44.4V39H42.3V40.1H44.7V40.9H41.4Z" fill="white"/>
<path d="M45.4 40.9V36.6H46.2L48 39.5V36.6H48.8V40.9H47.9L46.2 38V40.9H45.4Z" fill="white"/>
<path d="M49.7 36.6H51.3C51.6 36.6 51.9 36.6 52.1 36.7C52.3 36.8 52.6 36.9 52.7 37.1C52.9 37.3 53 37.5 53.1 37.8C53.2 38.1 53.2 38.5 53.2 38.8C53.2 39.1 53.2 39.4 53.1 39.7C53 40 52.9 40.2 52.6 40.5C52.4 40.7 52.2 40.8 52 40.8C51.7 40.9 51.5 40.9 51.2 40.9H49.6L49.7 36.6ZM50.6 37.3V40.1H51.2C51.4 40.1 51.5 40.1 51.7 40.1C51.8 40.1 52 40 52.1 39.9C52.2 39.8 52.3 39.6 52.3 39.5C52.4 39.2 52.4 39 52.4 38.7C52.4 38.4 52.4 38.2 52.3 37.9C52.3 37.7 52.2 37.6 52.1 37.5C52 37.4 51.8 37.3 51.7 37.3C51.5 37.3 51.2 37.3 51 37.3H50.6Z" fill="white"/>
<path d="M57.9 40.9H57L56.6 39.9H54.9L54.5 40.9H53.6L55.3 36.6H56.2L57.9 40.9ZM56.3 39.2L55.7 37.6L55.1 39.2H56.3Z" fill="white"/>
<path d="M58.4 40.9V36.6H60.2C60.5 36.6 60.9 36.6 61.2 36.7C61.4 36.8 61.6 36.9 61.7 37.1C61.8 37.3 61.9 37.5 61.9 37.8C61.9 38.1 61.8 38.4 61.6 38.6C61.4 38.8 61.1 39 60.7 39C60.9 39.1 61 39.2 61.2 39.4C61.4 39.6 61.5 39.9 61.7 40.1L62.2 40.9H61.2L60.6 40C60.5 39.8 60.3 39.6 60.1 39.4C60 39.3 59.9 39.3 59.8 39.2C59.7 39.2 59.5 39.2 59.4 39.2H59.2V41L58.4 40.9ZM59.3 38.4H59.9C60.2 38.4 60.4 38.4 60.7 38.4C60.8 38.4 60.9 38.3 60.9 38.2C61 38.1 61 38 61 37.8C61 37.7 61 37.5 60.9 37.4C60.8 37.3 60.7 37.2 60.6 37.2H60H59.3V38.4Z" fill="white"/>
<path d="M9.90001 48.4H20V59.3H9.90001V48.4Z" fill="#B4BCC8"/>
<path d="M20 59.9H9.9C9.6 59.9 9.3 59.6 9.3 59.3V48.4C9.3 48.1 9.6 47.8 9.9 47.8H20C20.3 47.8 20.6 48.1 20.6 48.4V59.3C20.6 59.6 20.3 59.9 20 59.9ZM10.4 58.8H19.4V49H10.4V58.8V58.8Z" fill="#B4BCC8"/>
<path d="M20 103.5H9.9C9.6 103.5 9.3 103.2 9.3 102.9V59.3C9.3 59 9.6 58.7 9.9 58.7H20C20.3 58.7 20.6 59 20.6 59.3V92V102.9C20.6 103.2 20.3 103.5 20 103.5ZM10.5 102.4H19.5V92.6H10.5V102.4ZM10.5 91.4H19.5V81.7H10.5V91.4ZM10.5 80.6H19.5V70.8H10.5V80.6ZM10.5 69.7H19.5V59.9H10.5V69.7Z" fill="#B4BCC8"/>
<path d="M20 48.4H30.2V59.3H20V48.4Z" fill="#B4BCC8"/>
<path d="M30.2 59.9H20C19.7 59.9 19.4 59.6 19.4 59.3V48.4C19.4 48.1 19.7 47.8 20 47.8H30.1C30.4 47.8 30.7 48.1 30.7 48.4V59.3C30.7 59.6 30.5 59.9 30.2 59.9ZM20.6 58.8H29.6V49H20.6V58.8Z" fill="#B4BCC8"/>
<path d="M30.1 103.5H20C19.7 103.5 19.4 103.2 19.4 102.9V59.3C19.4 59 19.7 58.7 20 58.7H30.1C30.4 58.7 30.7 59 30.7 59.3V92V102.9C30.7 103.2 30.4 103.5 30.1 103.5ZM20.6 102.4H29.6V92.6H20.6V102.4ZM20.6 91.4H29.6V81.7H20.6V91.4ZM20.6 80.6H29.6V70.8H20.6V80.6ZM20.6 69.7H29.6V59.9H20.6V69.7Z" fill="#B4BCC8"/>
<path d="M30.2 48.4H40.3V59.3H30.2V48.4Z" fill="#B4BCC8"/>
<path d="M40.3 59.9H30.2C29.9 59.9 29.6 59.6 29.6 59.3V48.4C29.6 48.1 29.9 47.8 30.2 47.8H40.3C40.6 47.8 40.9 48.1 40.9 48.4V59.3C40.9 59.6 40.6 59.9 40.3 59.9ZM30.7 58.8H39.7V49H30.7V58.8V58.8Z" fill="#B4BCC8"/>
<path d="M70.7 103.5H60.6H60.5H40.3H40.2H30.2C29.9 103.5 29.6 103.2 29.6 102.9V59.3C29.6 59 29.9 58.7 30.2 58.7H39.8V48.4C39.8 48.1 40.1 47.8 40.4 47.8H50.5H50.6H70.8H70.9H80.9C81.2 47.8 81.5 48.1 81.5 48.4V92C81.5 92.3 81.2 92.6 80.9 92.6H71.3V103C71.3 103.3 71 103.5 70.7 103.5ZM61.1 102.4H70.1V92.6H61.1V102.4V102.4ZM51 102.4H60V92.6H51V102.4ZM40.9 102.4H49.9V92.6H40.9V102.4ZM30.7 102.4H39.7V92.6H30.7V102.4V102.4ZM71.3 91.4H80.3V81.7H71.3V91.4ZM61.1 91.4H70.1V81.7H61.1V91.4V91.4ZM51 91.4H60V81.7H51V91.4ZM40.9 91.4H49.9V81.7H40.9V91.4ZM30.7 91.4H39.7V81.7H30.7V91.4V91.4ZM71.3 80.6H80.3V70.8H71.3V80.6ZM61.1 80.6H70.1V70.8H61.1V80.6V80.6ZM51 80.6H60V70.8H51V80.6ZM40.9 80.6H49.9V70.8H40.9V80.6ZM30.7 80.6H39.7V70.8H30.7V80.6V80.6ZM71.3 69.7H80.3V59.9H71.3V69.7ZM61.1 69.7H70.1V59.9H61.1V69.7V69.7ZM51 69.7H60V59.9H51V69.7ZM40.9 69.7H49.9V59.9H40.9V69.7ZM30.7 69.7H39.7V59.9H30.7V69.7V69.7ZM71.3 58.8H80.3V49H71.3V58.8ZM61.1 58.8H70.1V49H61.1V58.8V58.8ZM51 58.8H60V49H51V58.8ZM40.9 58.8H49.9V49H40.9V58.8Z" fill="#B4BCC8"/>
<path d="M70.7 92H80.9V102.9H70.7V92Z" fill="#B4BCC8"/>
<path d="M80.9 103.5H70.7C70.4 103.5 70.1 103.2 70.1 102.9V92C70.1 91.7 70.4 91.4 70.7 91.4H80.8C81.1 91.4 81.4 91.7 81.4 92V102.9C81.4 103.2 81.2 103.5 80.9 103.5ZM71.3 102.4H80.3V92.6H71.3V102.4Z" fill="#B4BCC8"/>
<path d="M50.4 70.2H60.6V81.1H50.4V70.2Z" fill="#FF7448"/>
<path d="M60.6 81.7H50.4C50.1 81.7 49.8 81.4 49.8 81.1V70.2C49.8 69.9 50.1 69.6 50.4 69.6H60.5C60.8 69.6 61.1 69.9 61.1 70.2V81.1C61.1 81.4 60.9 81.7 60.6 81.7ZM51 80.6H60V70.8H51V80.6Z" fill="#FF7448"/>
<path d="M4.70001 0.6H86C88.3 0.6 90.2 2.5 90.2 4.8V13.5H0.600006V4.7C0.600006 2.4 2.40001 0.6 4.70001 0.6Z" fill="#DFE9F2"/>
<path d="M90.2 14H0.6C0.3 14 0 13.8 0 13.5V4.7C0 2.1 2.1 0 4.7 0H86C88.6 0 90.7 2.1 90.7 4.7V13.4C90.7 13.8 90.5 14 90.2 14ZM1.1 12.9H89.6V4.7C89.6 2.7 88 1.1 86 1.1H4.7C2.7 1.1 1.1 2.7 1.1 4.7V12.9Z" fill="#848F99"/>
<path d="M29.5 4.4H81.6C82 4.4 82.4 4.8 82.4 5.2V8.8C82.4 9.2 82 9.6 81.6 9.6H29.5C29.1 9.6 28.7 9.2 28.7 8.8V5.2C28.7 4.8 29 4.4 29.5 4.4Z" fill="white"/>
<path d="M9.2 5.3C10.1 5.3 10.9 6.1 10.9 7C10.9 7.9 10.1 8.7 9.2 8.7C8.3 8.7 7.5 8 7.5 7C7.5 6 8.2 5.3 9.2 5.3Z" fill="#FF6259"/>
<path d="M14.1 5.3C15 5.3 15.8 6.1 15.8 7C15.8 7.9 15 8.7 14.1 8.7C13.2 8.7 12.4 8 12.4 7C12.4 6 13.1 5.3 14.1 5.3Z" fill="#FFBD2D"/>
<path d="M19 5.3C19.9 5.3 20.7 6.1 20.7 7C20.7 7.9 19.9 8.7 19 8.7C18.1 8.7 17.3 8 17.3 7C17.3 6 18.1 5.3 19 5.3Z" fill="#2BCA41"/>
</g>
<defs>
<clipPath id="clip0">
<rect width="90.7" height="120.8" fill="white"/>
</clipPath>
</defs>
</svg>
