<svg width="51" height="51" viewBox="0 0 51 51" fill="none" xmlns="http://www.w3.org/2000/svg">
<g clip-path="url(#clip0)">
<path d="M25.1 50.2C24 50.2 22.9 49.8 22.1 49L1.2 28.1C-0.4 26.5 -0.4 23.8 1.2 22.1L22.1 1.2C23.7 -0.4 26.4 -0.4 28.1 1.2L49 22.1C50.6 23.7 50.6 26.4 49 28.1L28.1 49C27.3 49.8 26.2 50.2 25.1 50.2ZM25.1 1.1C24.3 1.1 23.5 1.4 22.9 2L2 22.9C0.8 24.1 0.8 26.1 2 27.3L22.9 48.2C24.1 49.4 26.1 49.4 27.3 48.2L48.2 27.3C49.4 26.1 49.4 24.1 48.2 22.9L27.3 2C26.7 1.4 25.9 1.1 25.1 1.1Z" fill="#636E84"/>
<path d="M24.3 28.2H26C26.7 28.2 27.3 28.8 27.3 29.5C27.3 30.2 26.7 30.8 26 30.8H24.3C23.6 30.8 23 30.2 23 29.5C23 28.8 23.6 28.2 24.3 28.2ZM31.1 27.3L32.7 28.9C32.9 29.1 32.9 29.4 32.7 29.6L32 30.4C31.8 30.6 31.5 30.6 31.3 30.4L29.7 28.8L28.9 29.6C28.8 29.7 28.8 29.7 28.7 29.7C28.5 29.7 28.3 29.7 28.2 29.6C28 29.6 28 29.5 28 29.4L27.6 28H20.6C20.3 28 20.1 27.8 20.1 27.5V21.9C20.1 21.6 20.3 21.4 20.6 21.4H29.6C29.9 21.4 30.1 21.6 30.1 21.9V25.1L31.7 25.6C31.8 25.6 31.9 25.7 31.9 25.7C32 25.8 32 25.8 32 25.9C32 26 32 26.1 32 26.2C32 26.3 31.9 26.4 31.9 26.4L31.1 27.3ZM30 27.8L31.6 29.4L31.7 29.3L30.1 27.7C29.9 27.5 29.9 27.2 30.1 27L30.7 26.4L28 25.7L28.7 28.4L29.3 27.8C29.5 27.6 29.8 27.6 30 27.8ZM21.1 22.4V27H27.3L26.8 25C26.8 24.9 26.8 24.8 26.8 24.8C26.8 24.7 26.9 24.6 26.9 24.6C27 24.5 27 24.5 27.1 24.5C27.2 24.5 27.3 24.5 27.3 24.5L29 25V22.5L21.1 22.4ZM24.3 29.9H26C26.1 29.9 26.2 29.9 26.2 29.8C26.3 29.7 26.3 29.4 26.2 29.3C26.1 29.2 26 29.2 26 29.2H24.3C24.1 29.2 23.9 29.4 23.9 29.5C23.9 29.6 23.9 29.7 24 29.8C24.1 29.8 24.2 29.9 24.3 29.9Z" fill="#F15C22"/>
<path d="M16.4 16.8H33.8C34.1 16.8 34.3 17 34.3 17.3V33C34.3 33.3 34.1 33.5 33.8 33.5H16.4C16.1 33.5 15.9 33.3 15.9 33V17.2C15.9 17 16.1 16.8 16.4 16.8ZM19.6 19H33.3V17.7H16.9V19H18.4C18.7 19 18.9 19.2 18.9 19.5C18.9 19.8 18.7 20 18.4 20H16.9V32.5H33.3V20H19.6C19.3 20 19.1 19.8 19.1 19.5C19.1 19.2 19.4 19 19.6 19Z" fill="#636E84"/>
</g>
<defs>
<clipPath id="clip0">
<rect width="50.2" height="50.2" fill="white"/>
</clipPath>
</defs>
</svg>
