<svg width="91" height="121" viewBox="0 0 91 121" fill="none" xmlns="http://www.w3.org/2000/svg">
<g clip-path="url(#clip0)">
<path d="M90.2 13.5V116.1C90.2 118.4 88.3 120.3 86 120.3H4.7C2.4 120.3 0.5 118.4 0.5 116.1V13.5H90.2Z" fill="white"/>
<path d="M4.7 120.8C2.1 120.8 0 118.7 0 116.1V13.5C0 13.2 0.3 12.9 0.6 12.9H90.2C90.5 12.9 90.8 13.2 90.8 13.5V13.6V116.1C90.8 118.7 88.7 120.8 86.1 120.8H4.7ZM1.1 14V116C1.1 118 2.7 119.6 4.7 119.6H86C88 119.6 89.6 118 89.6 116V14H1.1Z" fill="#848F99"/>
<path d="M4.7 0.6H86C88.3 0.6 90.2 2.5 90.2 4.8V13.5H0.599998V4.7C0.599998 2.4 2.4 0.6 4.7 0.6Z" fill="#DFE9F2"/>
<path d="M90.2 14H0.6C0.3 14 0 13.8 0 13.5V4.7C0 2.1 2.1 0 4.7 0H86C88.6 0 90.7 2.1 90.7 4.7V13.4C90.7 13.8 90.5 14 90.2 14ZM1.1 12.9H89.6V4.7C89.6 2.7 88 1.1 86 1.1H4.7C2.7 1.1 1.1 2.7 1.1 4.7V12.9Z" fill="#848F99"/>
<path d="M29.5 4.4H81.6C82 4.4 82.4 4.8 82.4 5.2V8.8C82.4 9.2 82 9.6 81.6 9.6H29.5C29.1 9.6 28.7 9.2 28.7 8.8V5.2C28.7 4.8 29 4.4 29.5 4.4Z" fill="white"/>
<path d="M9.2 5.3C10.1 5.3 10.9 6.1 10.9 7C10.9 7.9 10.1 8.7 9.2 8.7C8.3 8.7 7.5 8 7.5 7C7.5 6 8.2 5.3 9.2 5.3Z" fill="#FF6259"/>
<path d="M14.1 5.3C15 5.3 15.8 6.1 15.8 7C15.8 7.9 15 8.7 14.1 8.7C13.2 8.7 12.4 8 12.4 7C12.4 6 13.1 5.3 14.1 5.3Z" fill="#FFBD2D"/>
<path d="M19 5.3C19.9 5.3 20.7 6.1 20.7 7C20.7 7.9 19.9 8.7 19 8.7C18.1 8.7 17.3 8 17.3 7C17.3 6 18.1 5.3 19 5.3Z" fill="#2BCA41"/>
<path d="M80.9 67.1H8.8C8.5 67.1 8.2 66.8 8.2 66.5C8.2 66.2 8.5 65.9 8.8 65.9H80.9C81.2 65.9 81.5 66.2 81.5 66.5C81.5 66.8 81.3 67.1 80.9 67.1ZM45.5 58.7C35.6 58.7 27.5 50.6 27.5 40.7C27.5 30.7 35.6 22.6 45.5 22.6H45.6C50.4 22.6 54.8 24.5 58.2 27.9C61.6 31.3 63.5 35.8 63.5 40.6C63.5 50.6 55.4 58.7 45.5 58.7ZM45.3 23.7C36 23.8 28.5 31.3 28.5 40.6C28.5 45.1 30.3 49.4 33.5 52.6C36.7 55.8 40.9 57.5 45.4 57.5C49.9 57.5 54.2 55.7 57.3 52.5C60.4 49.3 62.2 45.1 62.2 40.5C62.2 36 60.4 31.7 57.2 28.6C54 25.4 49.8 23.7 45.3 23.7C45.4 23.8 45.4 23.7 45.3 23.7ZM44.9 51.2C44.8 51.2 44.6 51.1 44.5 51L41.8 48.3C41.6 48.1 41.6 47.7 41.8 47.5C42 47.3 42.4 47.3 42.6 47.5L44.6 49.5V39C44.6 38.7 44.9 38.4 45.2 38.4C45.5 38.4 45.8 38.7 45.8 39V49L47.2 47.6C47.4 47.4 47.8 47.4 48 47.6C48.2 47.8 48.2 48.2 48 48.4L45.7 50.7C45.6 50.8 45.6 50.9 45.5 50.9L45.3 51.1C45.2 51.2 45 51.2 44.9 51.2ZM42.3 45.8H39.6C37.1 45.8 35.8 44 35.7 42.3C35.5 40.6 36.4 38.6 38.7 38C38.8 34.7 41.2 32.6 43.6 32C46.2 31.3 49.5 32.1 51.2 35.4C54.7 36.6 56 39.6 55.6 42C55.3 44.2 53.6 45.7 51.5 45.7H48C47.7 45.7 47.4 45.4 47.4 45.1C47.4 44.8 47.7 44.5 48 44.5H51.4C53.3 44.5 54.2 43 54.4 41.8C54.7 39.9 53.6 37.4 50.6 36.4C50.5 36.4 50.3 36.3 50.3 36.1C48.8 33.1 45.9 32.6 43.9 33.1C42 33.6 39.7 35.3 39.8 38.4C39.8 38.7 39.6 38.9 39.3 39C37.4 39.4 36.7 40.9 36.8 42.2C36.9 43.3 37.7 44.7 39.6 44.7H42.3C42.6 44.7 42.9 45 42.9 45.3C42.9 45.6 42.6 45.8 42.3 45.8Z" fill="#F15C22"/>
<path d="M80.5 94.8H10.2C8.8 94.8 7.7 93.7 7.7 92.3V87.4C7.7 86 8.8 84.9 10.2 84.9H80.5C81.9 84.9 83 86 83 87.4V92.3C83 93.6 81.9 94.8 80.5 94.8ZM10.2 86C9.5 86 8.8 86.6 8.8 87.4V92.3C8.8 93 9.4 93.7 10.2 93.7H80.5C81.2 93.7 81.9 93.1 81.9 92.3V87.4C81.9 86.7 81.3 86 80.5 86H10.2ZM77.5 80H12.2C11.9 80 11.6 79.7 11.6 79.4C11.6 79.1 11.9 78.8 12.2 78.8H77.5C77.8 78.8 78.1 79.1 78.1 79.4C78.1 79.7 77.9 80 77.5 80ZM80.9 75.7H8.8C8.5 75.7 8.2 75.4 8.2 75.1C8.2 74.8 8.5 74.5 8.8 74.5H80.9C81.2 74.5 81.5 74.8 81.5 75.1C81.5 75.4 81.2 75.7 80.9 75.7ZM67.1 71.7H22.7C22.4 71.7 22.1 71.4 22.1 71.1C22.1 70.8 22.4 70.5 22.7 70.5H67.1C67.4 70.5 67.7 70.8 67.7 71.1C67.7 71.4 67.4 71.7 67.1 71.7Z" fill="#BFCBD6"/>
<path d="M10.7 97.3H80C81.3 97.3 82.4 98.4 82.4 99.7V105.9C82.4 107.2 81.3 108.3 80 108.3H10.7C9.4 108.3 8.3 107.2 8.3 105.9V99.7C8.3 98.4 9.4 97.3 10.7 97.3Z" fill="#F15C22"/>
<path d="M26.5 100.6H28.2C28.5 100.6 28.8 100.6 29.1 100.7C29.4 100.8 29.6 100.9 29.8 101.1C30 101.3 30.2 101.6 30.2 101.9C30.3 102.3 30.4 102.6 30.3 103C30.3 103.3 30.3 103.7 30.2 104C30.1 104.3 29.9 104.6 29.7 104.8C29.5 105 29.3 105.1 29.1 105.2C28.8 105.3 28.6 105.3 28.3 105.3H26.6V100.6H26.5ZM27.4 101.4V104.4H28.1C28.3 104.4 28.5 104.4 28.7 104.4C28.8 104.4 29 104.3 29.1 104.2C29.2 104.1 29.3 103.9 29.3 103.8C29.4 103.5 29.4 103.2 29.4 103C29.4 102.7 29.4 102.4 29.3 102.2C29.3 102 29.2 101.9 29 101.7C28.9 101.6 28.7 101.5 28.6 101.5C28.3 101.5 28.1 101.5 27.8 101.5L27.4 101.4ZM30.9 102.9C30.9 102.5 31 102.1 31.1 101.7C31.2 101.5 31.4 101.3 31.5 101.1C31.7 100.9 31.9 100.8 32.1 100.7C32.4 100.6 32.8 100.5 33.1 100.5C33.7 100.5 34.3 100.7 34.7 101.1C35.5 102.1 35.5 103.6 34.7 104.6C34.3 105 33.7 105.3 33.1 105.2C32.5 105.2 31.9 105 31.5 104.6C31.1 104.2 30.9 103.6 30.9 102.9ZM31.9 102.9C31.9 103.3 32 103.8 32.3 104.1C32.8 104.6 33.5 104.6 34.1 104.2L34.2 104.1C34.5 103.8 34.6 103.3 34.6 102.9C34.6 102.5 34.5 102.1 34.2 101.7C33.7 101.2 32.9 101.2 32.4 101.7C32 102.1 31.9 102.5 31.9 102.9ZM36.8 105.2L35.7 100.6H36.7L37.4 103.8L38.2 100.6H39.3L40.1 103.8L40.8 100.6H41.7L40.6 105.2H39.6L38.7 101.8L37.8 105.2H36.8ZM42.2 105.2V100.6H43.1L45 103.7V100.6H45.9V105.2H45L43.1 102.2V105.2H42.2ZM46.9 105.2V100.6H47.8V104.4H50.1V105.2H46.9ZM50.6 103C50.6 102.6 50.7 102.2 50.8 101.8C50.9 101.6 51.1 101.4 51.2 101.2C51.4 101 51.6 100.9 51.8 100.8C52.1 100.7 52.5 100.6 52.8 100.6C53.4 100.6 54 100.8 54.4 101.2C55.2 102.2 55.2 103.7 54.4 104.7C54 105.1 53.4 105.4 52.8 105.3C52.2 105.3 51.6 105.1 51.2 104.7C50.8 104.2 50.6 103.6 50.6 103ZM51.6 103C51.6 103.4 51.7 103.9 52 104.2C52.5 104.7 53.2 104.7 53.8 104.3L53.9 104.2C54.2 103.9 54.3 103.4 54.3 103C54.3 102.6 54.2 102.2 53.9 101.8C53.4 101.3 52.6 101.3 52.1 101.8C51.7 102.1 51.6 102.5 51.6 103ZM60 105.3H59L58.6 104.3H56.8L56.4 105.3H55.4L57.2 100.7H58.2L60 105.3ZM58.3 103.4L57.7 101.7L57.1 103.4H58.3ZM60.5 100.7H62.2C62.5 100.7 62.8 100.7 63.1 100.8C63.4 100.9 63.6 101 63.8 101.2C64 101.4 64.2 101.7 64.2 102C64.3 102.4 64.4 102.7 64.3 103.1C64.3 103.4 64.3 103.8 64.2 104.1C64.1 104.4 63.9 104.7 63.7 104.9C63.5 105.1 63.3 105.2 63.1 105.3C62.8 105.4 62.6 105.4 62.3 105.4H60.6V100.7H60.5ZM61.4 101.4V104.4H62C62.2 104.4 62.4 104.4 62.6 104.4C62.7 104.4 62.9 104.3 63 104.2C63.1 104.1 63.2 103.9 63.2 103.8C63.3 103.5 63.3 103.2 63.3 103C63.3 102.7 63.3 102.4 63.2 102.2C63.2 102 63.1 101.9 62.9 101.7C62.8 101.6 62.6 101.5 62.5 101.5C62.2 101.5 62 101.5 61.7 101.5H61.3L61.4 101.4Z" fill="white"/>
</g>
<defs>
<clipPath id="clip0">
<rect width="90.7" height="120.8" fill="white"/>
</clipPath>
</defs>
</svg>
