<svg width="38" height="38" viewBox="0 0 38 38" fill="none" xmlns="http://www.w3.org/2000/svg">
<path d="M33.8 38H4.2C1.9 38 0 36.1 0 33.8V4.2C0 1.9 1.9 0 4.2 0H4.3H33.8C36.1 0 38 1.9 38 4.2V33.8C38 36.1 36.1 38 33.8 38ZM4.1 1.1C2.4 1.2 1.1 2.5 1.1 4.2V33.8C1.1 35.5 2.5 36.9 4.2 36.9H33.8C35.5 36.9 36.9 35.5 36.9 33.8V4.2C36.9 2.5 35.5 1.1 33.8 1.1H4.1C4.2 1.1 4.2 1.1 4.1 1.1Z" fill="#FDAF11"/>
<path d="M26.4 12.2H11.6C10.7 12.2 10 12.9 10 13.8V24.3C10 25.2 10.7 25.9 11.6 25.9H26.4C27.3 25.9 28 25.2 28 24.3V13.7C28 12.9 27.3 12.2 26.4 12.2ZM26.2 13.2L19 20.4L11.8 13.2H26.2ZM11.1 24V13.9L16.2 18.9L11.1 24ZM11.8 24.7L16.9 19.6L18.7 21.4C18.9 21.6 19.2 21.6 19.4 21.4L21.1 19.7L26.1 24.7H11.8ZM26.9 24L21.9 19L26.9 14V24Z" fill="#FDAF11"/>
</svg>
