<svg width="38" height="38" viewBox="0 0 38 38" fill="none" xmlns="http://www.w3.org/2000/svg">
<path d="M33.8 38H4.2C1.9 38 0 36.1 0 33.8V4.2C0 1.9 1.9 0 4.2 0H4.3H33.8C36.1 0 38 1.9 38 4.2V33.8C38 36.1 36.1 38 33.8 38ZM4.1 1.1C2.4 1.2 1.1 2.5 1.1 4.2V33.8C1.1 35.5 2.5 36.9 4.2 36.9H33.8C35.5 36.9 36.9 35.5 36.9 33.8V4.2C36.9 2.5 35.5 1.1 33.8 1.1H4.1C4.2 1.1 4.2 1.1 4.1 1.1Z" fill="#3B5998"/>
<path d="M20.2 28.2H17.3C16.8 28.2 16.4 27.8 16.4 27.3V20.7H14.7C14.2 20.7 13.8 20.3 13.8 19.8V17C13.8 16.5 14.2 16.1 14.7 16.1H16.4V14.7C16.4 13.4 16.8 12.2 17.7 11.2C18.6 10.3 19.8 9.79999 21.1 9.89999H23.3C23.8 9.89999 24.2 10.3 24.2 10.8V13.4C24.2 13.9 23.8 14.3 23.3 14.3H21.8C21.6 14.3 21.4 14.3 21.2 14.4C21.1 14.6 21.1 14.8 21.1 14.9V16H23.2C23.4 16 23.5 16 23.6 16.1C23.9 16.3 24.1 16.6 24.1 16.9V19.7C24.1 20.2 23.7 20.6 23.2 20.6H21.1V27.2C21.1 27.7 20.7 28.1 20.2 28.2ZM17.5 27.1H20V20.2C20 19.9 20.3 19.6 20.6 19.6H23V17.1H20.6C20.3 17.1 20 16.8 20 16.5V14.9C19.9 14.1 20.4 13.3 21.2 13.2C21.4 13.2 21.6 13.2 21.7 13.2H23V10.9H21C19.1 10.8 17.5 12.2 17.4 14.1C17.4 14.3 17.4 14.5 17.4 14.7V16.6C17.4 16.9 17.1 17.2 16.8 17.2H14.8V19.7H16.8C17.1 19.7 17.4 20 17.4 20.3L17.5 27.1Z" fill="#3B5998"/>
</svg>
