<svg width="91" height="121" viewBox="0 0 91 121" fill="none" xmlns="http://www.w3.org/2000/svg">
<g clip-path="url(#clip0)">
<path d="M90.2 13.5V116.1C90.2 118.4 88.3 120.3 86 120.3H4.7C2.4 120.3 0.5 118.4 0.5 116.1V13.5H90.2Z" fill="white"/>
<path d="M4.7 120.8C2.1 120.8 0 118.7 0 116.1V13.5C0 13.2 0.3 12.9 0.6 12.9H90.2C90.5 12.9 90.8 13.2 90.8 13.5V13.6V116.1C90.8 118.7 88.7 120.8 86.1 120.8H4.7ZM1.1 14V116C1.1 118 2.7 119.6 4.7 119.6H86C88 119.6 89.6 118 89.6 116V14H1.1Z" fill="#848F99"/>
<path d="M4.7 0.6H86C88.3 0.6 90.2 2.5 90.2 4.8V13.5H0.6V4.7C0.6 2.4 2.4 0.6 4.7 0.6Z" fill="#DFE9F2"/>
<path d="M90.2 14H0.6C0.3 14 0 13.8 0 13.5V4.7C0 2.1 2.1 0 4.7 0H86C88.6 0 90.7 2.1 90.7 4.7V13.4C90.7 13.8 90.5 14 90.2 14ZM1.1 12.9H89.6V4.7C89.6 2.7 88 1.1 86 1.1H4.7C2.7 1.1 1.1 2.7 1.1 4.7V12.9Z" fill="#848F99"/>
<path d="M29.5 4.4H81.6C82 4.4 82.4 4.8 82.4 5.2V8.8C82.4 9.2 82 9.6 81.6 9.6H29.5C29.1 9.6 28.7 9.2 28.7 8.8V5.2C28.7 4.8 29 4.4 29.5 4.4Z" fill="white"/>
<path d="M9.2 5.3C10.1 5.3 10.9 6.1 10.9 7C10.9 7.9 10.1 8.7 9.2 8.7C8.3 8.7 7.5 8 7.5 7C7.5 6 8.2 5.3 9.2 5.3Z" fill="#FF6259"/>
<path d="M14.1 5.3C15 5.3 15.8 6.1 15.8 7C15.8 7.9 15 8.7 14.1 8.7C13.2 8.7 12.4 8 12.4 7C12.4 6 13.1 5.3 14.1 5.3Z" fill="#FFBD2D"/>
<path d="M19 5.3C19.9 5.3 20.7 6.1 20.7 7C20.7 7.9 19.9 8.7 19 8.7C18.1 8.7 17.3 8 17.3 7C17.3 6 18.1 5.3 19 5.3Z" fill="#2BCA41"/>
<path d="M81.4 61.7H9.3C9 61.7 8.7 61.4 8.7 61.1C8.7 60.8 9 60.5 9.3 60.5H81.4C81.7 60.5 82 60.8 82 61.1C82 61.4 81.7 61.7 81.4 61.7ZM78.6 54.1H11.5C9.9 54.1 8.7 52.8 8.7 51.3V27C8.7 25.5 9.9 24.2 11.4 24.2H11.5H78.6C80.2 24.2 81.4 25.5 81.4 27V51.3C81.4 52.8 80.1 54.1 78.6 54.1ZM11.6 25.3H11.5C10.6 25.3 9.8 26.1 9.8 27V51.3C9.8 52.2 10.6 53 11.5 53H78.6C79.5 53 80.3 52.2 80.3 51.3V27C80.3 26.1 79.5 25.3 78.6 25.3H11.6ZM58.6 46.2H37.1C36.8 46.2 36.5 45.9 36.5 45.6C36.5 45.4 36.6 45.2 36.8 45.1L42.8 37C42.9 36.9 43.1 36.8 43.2 36.8C43.4 36.8 43.5 36.9 43.6 37L46.2 39.8L50.9 35C51 34.9 51.2 34.8 51.3 34.8C51.5 34.8 51.6 34.9 51.7 35L59 45.2C59.1 45.4 59.1 45.6 59 45.8C59.1 46.1 58.9 46.2 58.6 46.2ZM38.2 45.1H57.5L51.2 36.3L46.6 41C46.5 41.1 46.3 41.2 46.2 41.2C46 41.2 45.9 41.1 45.8 41L43.3 38.2L38.2 45.1ZM45.7 35.7C44.4 35.7 43.3 34.6 43.3 33.3C43.3 32 44.4 30.9 45.7 30.9C47 30.9 48.1 32 48.1 33.3C48.2 34.6 47.1 35.7 45.7 35.7ZM45.7 31.9C45 31.9 44.4 32.5 44.4 33.2C44.4 33.9 45 34.5 45.7 34.5C46.4 34.5 47 33.9 47 33.2C47 32.5 46.4 31.9 45.7 31.9Z" fill="#F15C22"/>
<path d="M64.5 78.7H26.2C25.9 78.7 25.6 78.4 25.6 78.1C25.6 77.8 25.9 77.5 26.2 77.5H64.5C64.8 77.5 65.1 77.8 65.1 78.1C65.1 78.4 64.8 78.7 64.5 78.7ZM78 74.6H12.7C12.4 74.6 12.1 74.3 12.1 74C12.1 73.7 12.4 73.4 12.7 73.4H78C78.3 73.4 78.6 73.7 78.6 74C78.6 74.3 78.3 74.6 78 74.6ZM81.4 70.2H9.3C9 70.2 8.7 69.9 8.7 69.6C8.7 69.3 9 69 9.3 69H81.4C81.7 69 82 69.3 82 69.6C82 69.9 81.7 70.2 81.4 70.2ZM67.6 66.2H23.2C22.9 66.2 22.6 65.9 22.6 65.6C22.6 65.3 22.9 65 23.2 65H67.6C67.9 65 68.2 65.3 68.2 65.6C68.2 65.9 67.9 66.2 67.6 66.2Z" fill="#BFCBD6"/>
<path d="M46.8 91.4H9.3C9 91.4 8.7 91.1 8.7 90.8C8.7 90.5 9 90.2 9.3 90.2H46.7C47 90.2 47.3 90.5 47.3 90.8C47.3 91.1 47.1 91.4 46.8 91.4ZM56.9 87.2H9.3C9 87.2 8.7 86.9 8.7 86.6C8.7 86.3 9 86 9.3 86H56.8C57.1 86 57.4 86.3 57.4 86.6C57.4 86.9 57.2 87.2 56.9 87.2Z" fill="#F15C22"/>
<path d="M57.6 108.3H9.3C9 108.3 8.7 108 8.7 107.7C8.7 107.4 9 107.1 9.3 107.1H57.6C57.9 107.1 58.2 107.4 58.2 107.7C58.2 108 57.9 108.3 57.6 108.3ZM42 104.1H9.3C9 104.1 8.7 103.8 8.7 103.5C8.7 103.2 9 103 9.3 103H42C42.3 103 42.6 103.3 42.6 103.6C42.6 103.9 42.3 104.1 42 104.1ZM53.7 99.9H9.3C9 99.9 8.7 99.6 8.7 99.3C8.7 99 9 98.7 9.3 98.7H53.7C54 98.7 54.3 99 54.3 99.3C54.3 99.6 54 99.9 53.7 99.9ZM53.7 95.7H9.3C9 95.7 8.7 95.4 8.7 95.1C8.7 94.8 9 94.5 9.3 94.5H53.7C54 94.5 54.3 94.8 54.3 95.1C54.3 95.4 54 95.7 53.7 95.7Z" fill="#BFCBD6"/>
<path d="M81 87.2H61.4C61.1 87.2 60.8 86.9 60.8 86.6C60.8 86.3 61.1 86 61.4 86H81C81.3 86 81.6 86.3 81.6 86.6C81.6 86.9 81.3 87.2 81 87.2Z" fill="#F15C22"/>
<path d="M81.3 108.3H61.4C61.1 108.3 60.8 108 60.8 107.7C60.8 107.4 61.1 107.1 61.4 107.1H81.3C81.6 107.1 81.9 107.4 81.9 107.7C81.9 108 81.6 108.3 81.3 108.3ZM74.8 104.1H61.4C61.1 104.1 60.8 103.8 60.8 103.5C60.8 103.2 61.1 102.9 61.4 102.9H74.8C75.1 102.9 75.4 103.2 75.4 103.5C75.4 103.8 75.1 104.1 74.8 104.1ZM79.7 99.9H61.4C61.1 99.9 60.8 99.6 60.8 99.3C60.8 99 61.1 98.7 61.4 98.7H79.7C80 98.7 80.3 99 80.3 99.3C80.3 99.6 80 99.9 79.7 99.9ZM79.7 95.6H61.4C61.1 95.6 60.8 95.3 60.8 95C60.8 94.7 61.1 94.4 61.4 94.4H79.7C80 94.4 80.3 94.7 80.3 95C80.3 95.3 80 95.6 79.7 95.6ZM76.8 91.4H61.4C61.1 91.4 60.8 91.1 60.8 90.8C60.8 90.5 61.1 90.2 61.4 90.2H76.8C77.1 90.2 77.4 90.5 77.4 90.8C77.4 91.1 77.1 91.4 76.8 91.4Z" fill="#BFCBD6"/>
</g>
<defs>
<clipPath id="clip0">
<rect width="90.7" height="120.8" fill="white"/>
</clipPath>
</defs>
</svg>
