<svg width="38" height="38" viewBox="0 0 38 38" fill="none" xmlns="http://www.w3.org/2000/svg">
<path d="M33.8 38H4.2C1.9 38 0 36.1 0 33.8V4.2C0 1.9 1.9 0 4.2 0H4.3H33.8C36.1 0 38 1.9 38 4.2V33.8C38 36.1 36.1 38 33.8 38ZM4.1 1.1C2.4 1.2 1.1 2.5 1.1 4.2V33.8C1.1 35.5 2.5 36.9 4.2 36.9H33.8C35.5 36.9 36.9 35.5 36.9 33.8V4.2C36.9 2.5 35.5 1.1 33.8 1.1H4.1C4.2 1.1 4.2 1.1 4.1 1.1Z" fill="#0077B7"/>
<path d="M17 29.5H16L15.6 28.4H13.7L13.3 29.5H12.3L14.1 24.9H15.1L17 29.5ZM15.3 27.6L14.7 25.9L14 27.7L15.3 27.6Z" fill="#0077B7"/>
<path d="M17.5 24.8H19.2C19.5 24.8 19.8 24.8 20.1 24.9C20.4 25 20.6 25.1 20.8 25.3C21 25.5 21.2 25.8 21.2 26.1C21.3 26.5 21.4 26.8 21.3 27.2C21.3 27.5 21.3 27.9 21.2 28.2C21.1 28.5 20.9 28.8 20.7 29C20.5 29.2 20.3 29.3 20 29.4C19.7 29.5 19.5 29.5 19.2 29.5H17.4L17.5 24.8ZM18.4 25.6V28.7H19.1C19.3 28.7 19.5 28.7 19.7 28.7C19.8 28.7 20 28.6 20.1 28.5C20.2 28.4 20.3 28.2 20.3 28C20.4 27.7 20.4 27.4 20.4 27.1C20.4 26.8 20.4 26.5 20.3 26.3C20.2 26.1 20.2 26 20 25.8C19.9 25.7 19.7 25.6 19.6 25.6C19.3 25.6 19.1 25.6 18.8 25.6H18.4Z" fill="#0077B7"/>
<path d="M21.9 28L22.8 27.9C22.8 28.2 22.9 28.4 23.1 28.6C23.3 28.8 23.5 28.8 23.8 28.8C24 28.8 24.3 28.8 24.5 28.6C24.6 28.5 24.7 28.3 24.7 28.1C24.7 28 24.7 27.9 24.6 27.8C24.5 27.7 24.4 27.6 24.3 27.6L23.5 27.4C23.1 27.3 22.8 27.2 22.4 26.9C21.9 26.5 21.8 25.8 22.2 25.3C22.3 25.1 22.5 24.9 22.8 24.8C23.1 24.7 23.4 24.6 23.7 24.6C24.2 24.6 24.6 24.7 25 25C25.3 25.3 25.5 25.6 25.5 26H24.6C24.6 25.8 24.5 25.6 24.3 25.5C24.1 25.4 23.9 25.3 23.7 25.3C23.5 25.3 23.2 25.3 23.1 25.5C23 25.7 23 25.8 23 26C23 26.1 23.1 26.2 23.1 26.3C23.4 26.5 23.7 26.6 24 26.6C24.3 26.7 24.7 26.8 25 26.9C25.2 27 25.4 27.2 25.5 27.4C25.6 27.6 25.7 27.9 25.7 28.1C25.7 28.4 25.6 28.6 25.5 28.9C25.3 29.1 25.1 29.3 24.9 29.4C24.6 29.5 24.2 29.6 23.9 29.6C23.4 29.6 22.9 29.5 22.5 29.2C22.1 28.8 21.9 28.4 21.9 28Z" fill="#0077B7"/>
<path d="M15.6 12.7H12.2C12.1 12.7 12.1 12.7 12.1 12.8V22.3C12.1 22.4 12.1 22.4 12.2 22.4H15.6C15.7 22.4 15.7 22.4 15.7 22.3V12.8C15.7 12.8 15.7 12.7 15.6 12.7ZM13 21.6V13.6H14.9V21.6H13Z" fill="#0077B7"/>
<path d="M22.3 12.6C21.4 12.6 20.7 12.9 20.1 13.4V13C20.1 12.9 20.1 12.9 20 12.9H16.7C16.6 12.9 16.6 12.9 16.6 13V22.5C16.6 22.6 16.6 22.6 16.7 22.6H20.1C20.2 22.6 20.2 22.6 20.2 22.5V17.8C20.2 16.2 20.7 15.9 21.4 15.9C22.2 15.9 22.4 16.3 22.4 17.8V22.4C22.4 22.5 22.4 22.5 22.5 22.5H26V17.3C26.1 14.9 25.6 12.6 22.3 12.6ZM21.5 14.9C19.4 14.9 19.4 16.9 19.4 17.6V21.6H17.5V13.6H19.3V14.7C19.3 14.8 19.3 14.8 19.4 14.8H19.9C19.9 14.8 20 14.8 20 14.7L20.1 14.5C20.6 13.7 21.4 13.3 22.3 13.3C24.7 13.3 25.2 14.7 25.2 17.1V21.5H23.3V17.6C23.4 16.8 23.4 14.9 21.5 14.9Z" fill="#0077B7"/>
<path d="M13.9 8.3C12.8 8.3 11.9 9.2 11.9 10.3C11.9 11.4 12.8 12.3 13.9 12.3C15 12.3 15.9 11.4 15.9 10.3C15.9 9.2 15.1 8.3 13.9 8.3ZM15.1 10.3C15.1 11 14.6 11.5 13.9 11.5C13.2 11.5 12.7 11 12.7 10.3C12.7 9.6 13.2 9.1 13.9 9.1C14.6 9.1 15.1 9.7 15.1 10.3Z" fill="#0077B7"/>
</svg>
