<svg width="91" height="121" viewBox="0 0 91 121" fill="none" xmlns="http://www.w3.org/2000/svg">
<g clip-path="url(#clip0)">
<path d="M90.2 13.5V116.1C90.2 118.4 88.3 120.3 86 120.3H4.7C2.4 120.3 0.5 118.4 0.5 116.1V13.5H90.2Z" fill="white"/>
<path d="M4.7 120.8C2.1 120.8 0 118.7 0 116.1V13.5C0 13.2 0.3 12.9 0.6 12.9H90.2C90.5 12.9 90.8 13.2 90.8 13.5V13.6V116.1C90.8 118.7 88.7 120.8 86.1 120.8H4.7ZM1.1 14V116C1.1 118 2.7 119.6 4.7 119.6H86C88 119.6 89.6 118 89.6 116V14H1.1Z" fill="#848F99"/>
<path d="M4.70001 0.6H86C88.3 0.6 90.2 2.5 90.2 4.8V13.5H0.600006V4.7C0.600006 2.4 2.40001 0.6 4.70001 0.6Z" fill="#DFE9F2"/>
<path d="M90.2 14H0.6C0.3 14 0 13.8 0 13.5V4.7C0 2.1 2.1 0 4.7 0H86C88.6 0 90.7 2.1 90.7 4.7V13.4C90.7 13.8 90.5 14 90.2 14ZM1.1 12.9H89.6V4.7C89.6 2.7 88 1.1 86 1.1H4.7C2.7 1.1 1.1 2.7 1.1 4.7V12.9Z" fill="#848F99"/>
<path d="M29.5 4.4H81.6C82 4.4 82.4 4.8 82.4 5.2V8.8C82.4 9.2 82 9.6 81.6 9.6H29.5C29.1 9.6 28.7 9.2 28.7 8.8V5.2C28.7 4.8 29 4.4 29.5 4.4Z" fill="white"/>
<path d="M9.2 5.3C10.1 5.3 10.9 6.1 10.9 7C10.9 7.9 10.1 8.7 9.2 8.7C8.3 8.7 7.5 8 7.5 7C7.5 6 8.2 5.3 9.2 5.3Z" fill="#FF6259"/>
<path d="M14.1 5.3C15 5.3 15.8 6.1 15.8 7C15.8 7.9 15 8.7 14.1 8.7C13.2 8.7 12.4 8 12.4 7C12.4 6 13.1 5.3 14.1 5.3Z" fill="#FFBD2D"/>
<path d="M19 5.3C19.9 5.3 20.7 6.1 20.7 7C20.7 7.9 19.9 8.7 19 8.7C18.1 8.7 17.3 8 17.3 7C17.3 6 18.1 5.3 19 5.3Z" fill="#2BCA41"/>
<path d="M10.2 69.8H80.5C81.6 69.8 82.4 70.7 82.4 71.7V76.6C82.4 77.7 81.5 78.5 80.5 78.5H10.2C9.1 78.5 8.3 77.6 8.3 76.6V71.7C8.3 70.6 9.2 69.8 10.2 69.8Z" fill="white"/>
<path d="M80.5 79.1H10.2C8.8 79.1 7.7 78 7.7 76.6V71.7C7.7 70.3 8.8 69.2 10.2 69.2H80.5C81.9 69.2 83 70.3 83 71.7V76.6C83 78 81.9 79.1 80.5 79.1ZM10.2 70.3C9.5 70.3 8.8 70.9 8.8 71.7V76.6C8.8 77.3 9.4 78 10.2 78H80.5C81.2 78 81.9 77.4 81.9 76.6V71.7C81.9 71 81.3 70.3 80.5 70.3H10.2Z" fill="#BFCBD6"/>
<path d="M10.7 81.7H80C81.3 81.7 82.4 82.8 82.4 84.1V90.3C82.4 91.6 81.3 92.7 80 92.7H10.7C9.4 92.7 8.3 91.6 8.3 90.3V84.1C8.3 82.7 9.4 81.7 10.7 81.7Z" fill="#F15C22"/>
<path d="M34.8 87.4C34.8 87 34.9 86.6 35 86.2C35.1 86 35.3 85.7 35.4 85.6C35.6 85.4 35.8 85.3 36 85.2C36.3 85.1 36.7 85 37 85C37.6 85 38.2 85.2 38.7 85.6C39.5 86.7 39.5 88.1 38.7 89.2C38.3 89.6 37.7 89.9 37 89.8C36.4 89.8 35.8 89.6 35.3 89.2C35 88.7 34.7 88 34.8 87.4ZM35.8 87.4C35.8 87.8 35.9 88.3 36.2 88.6C36.7 89.1 37.5 89.2 38 88.7C38 88.7 38 88.7 38.1 88.6C38.4 88.2 38.5 87.8 38.5 87.4C38.5 87 38.4 86.5 38.1 86.2C37.9 85.9 37.5 85.8 37.1 85.8C36.7 85.8 36.4 85.9 36.1 86.2C35.8 86.5 35.7 86.9 35.8 87.4Z" fill="white"/>
<path d="M40.1 89.7V85H41.6C42 85 42.4 85 42.7 85.1C43 85.2 43.2 85.3 43.4 85.6C43.6 85.9 43.7 86.2 43.7 86.5C43.7 86.8 43.7 87 43.5 87.2C43.4 87.4 43.3 87.5 43.1 87.7C43 87.8 42.8 87.9 42.6 87.9C42.3 88 41.9 88 41.6 88H41V89.8L40.1 89.7ZM41.1 85.8V87.1H41.6C41.9 87.1 42.1 87.1 42.4 87C42.5 87 42.6 86.9 42.7 86.8C42.8 86.7 42.8 86.6 42.8 86.4C42.8 86.2 42.8 86.1 42.7 86C42.6 85.9 42.5 85.8 42.3 85.8C42.1 85.8 41.8 85.8 41.6 85.8H41.1Z" fill="white"/>
<path d="M45.6 89.7V85.8H44.2V85H47.9V85.8H46.5V89.7H45.6Z" fill="white"/>
<path d="M50.3 89.7V85H51.3V89.7H50.3Z" fill="white"/>
<path d="M52.2 89.7V85H53.1L55.1 88.1V85H55.9V89.7H55L53.1 86.6V89.7H52.2Z" fill="white"/>
<path d="M10.2 59.4H80.5C81.6 59.4 82.4 60.3 82.4 61.3V66.2C82.4 67.3 81.5 68.1 80.5 68.1H10.2C9.1 68.1 8.3 67.2 8.3 66.2V61.3C8.3 60.3 9.2 59.4 10.2 59.4Z" fill="white"/>
<path d="M80.5 68.7H10.2C8.8 68.7 7.7 67.6 7.7 66.2V61.3C7.7 59.9 8.8 58.8 10.2 58.8H80.5C81.9 58.8 83 59.9 83 61.3V66.2C83 67.6 81.9 68.7 80.5 68.7ZM10.2 60C9.5 60 8.8 60.6 8.8 61.4V66.3C8.8 67 9.4 67.7 10.2 67.7H80.5C81.2 67.7 81.9 67.1 81.9 66.3V61.4C81.9 60.7 81.3 60 80.5 60H10.2Z" fill="#BFCBD6"/>
<path d="M81.8 41.5H9.70001C9.40001 41.5 9.10001 41.2 9.10001 40.9C9.10001 40.6 9.40001 40.3 9.70001 40.3H81.8C82.1 40.3 82.4 40.6 82.4 40.9C82.4 41.2 82.1 41.5 81.8 41.5Z" fill="#F15C22"/>
<path d="M69.3 54.4H22.1C21.8 54.4 21.5 54.1 21.5 53.8C21.5 53.5 21.8 53.2 22.1 53.2H69.3C69.6 53.2 69.9 53.5 69.9 53.8C69.9 54.1 69.7 54.4 69.3 54.4ZM81.8 50.1H9.70001C9.40001 50.1 9.10001 49.8 9.10001 49.5C9.10001 49.2 9.40001 49 9.70001 49H81.8C82.1 49 82.4 49.3 82.4 49.6C82.4 49.9 82.1 50.1 81.8 50.1ZM67.9 46.1H23.5C23.2 46.1 22.9 45.8 22.9 45.5C22.9 45.2 23.2 44.9 23.5 44.9H67.9C68.2 44.9 68.5 45.2 68.5 45.5C68.5 45.8 68.2 46.1 67.9 46.1Z" fill="#BFCBD6"/>
</g>
<defs>
<clipPath id="clip0">
<rect width="90.7" height="120.8" fill="white"/>
</clipPath>
</defs>
</svg>
