<svg width="91" height="121" viewBox="0 0 91 121" fill="none" xmlns="http://www.w3.org/2000/svg">
<g clip-path="url(#clip0)">
<path d="M90.2 13.5V116.1C90.2 118.4 88.3 120.3 86 120.3H4.7C2.4 120.3 0.5 118.4 0.5 116.1V13.5H90.2Z" fill="white"/>
<path d="M4.7 120.8C2.1 120.8 0 118.7 0 116.1V13.5C0 13.2 0.3 12.9 0.6 12.9H90.2C90.5 12.9 90.8 13.2 90.8 13.5V13.6V116.1C90.8 118.7 88.7 120.8 86.1 120.8H4.7ZM1.1 14V116C1.1 118 2.7 119.6 4.7 119.6H86C88 119.6 89.6 118 89.6 116V14H1.1Z" fill="#848F99"/>
<path d="M10.7 99.4H80C81.3 99.4 82.4 100.5 82.4 101.8V108C82.4 109.3 81.3 110.4 80 110.4H10.7C9.39999 110.4 8.29999 109.3 8.29999 108V101.8C8.29999 100.5 9.39999 99.4 10.7 99.4Z" fill="#F15C22"/>
<path d="M32.1 102.7H34C34.3 102.7 34.6 102.7 34.8 102.7C35 102.7 35.1 102.8 35.3 102.9C35.4 103 35.6 103.1 35.7 103.3C35.8 103.5 35.8 103.7 35.8 103.8C35.8 104.2 35.5 104.6 35.1 104.8C35.4 104.9 35.6 105 35.8 105.2C36 105.4 36 105.7 36 105.9C36 106.1 35.9 106.3 35.9 106.5C35.8 106.7 35.7 106.9 35.5 107C35.3 107.1 35.1 107.2 34.9 107.2C34.7 107.2 34.4 107.2 33.8 107.2H32.2V102.5L32.1 102.7ZM33.1 103.5V104.6H33.7H34.4C34.5 104.6 34.7 104.5 34.8 104.4C34.9 104.3 34.9 104.2 34.9 104C34.9 103.9 34.9 103.7 34.8 103.6C34.7 103.5 34.6 103.4 34.4 103.4H33.6L33.1 103.5ZM33.1 105.4V106.7H34C34.2 106.7 34.4 106.7 34.6 106.7C34.7 106.7 34.9 106.6 35 106.5C35.1 106.4 35.1 106.2 35.1 106.1C35.1 106 35.1 105.8 35 105.7C34.9 105.6 34.8 105.5 34.7 105.5C34.4 105.4 34.1 105.4 33.8 105.4H33.1Z" fill="white"/>
<path d="M38.1 107.4V105.4L36.4 102.7H37.5L38.6 104.6L39.7 102.7H40.8L39.1 105.5V107.4H38.1Z" fill="white"/>
<path d="M43 107.4V102.7H43.9L45.9 105.9V102.7H46.7V107.4H45.8L43.9 104.3V107.4H43Z" fill="white"/>
<path d="M47.6 105.1C47.6 104.7 47.7 104.3 47.8 103.9C47.9 103.7 48.1 103.4 48.2 103.3C48.4 103.1 48.6 103 48.8 102.9C49.1 102.8 49.5 102.7 49.8 102.7C50.4 102.7 51 102.9 51.5 103.3C52.3 104.4 52.3 105.8 51.5 106.9C51.1 107.3 50.5 107.6 49.8 107.5C49.2 107.5 48.6 107.3 48.1 106.9C47.7 106.4 47.5 105.8 47.6 105.1ZM48.6 105.1C48.6 105.5 48.7 106 49 106.3C49.5 106.8 50.3 106.9 50.8 106.4C50.8 106.4 50.8 106.4 50.9 106.3C51.2 105.9 51.3 105.5 51.3 105.1C51.3 104.7 51.2 104.2 50.9 103.9C50.7 103.6 50.3 103.5 49.9 103.5C49.5 103.5 49.2 103.6 48.9 103.9C48.6 104.2 48.5 104.7 48.6 105.1Z" fill="white"/>
<path d="M53.5 107.4L52.4 102.7H53.4L54.1 106L55 102.7H56.1L56.9 106L57.6 102.7H58.6L57.5 107.4H56.4L55.5 103.9L54.6 107.4H53.5Z" fill="white"/>
<path d="M4.70001 0.6H86C88.3 0.6 90.2 2.5 90.2 4.8V13.5H0.600006V4.7C0.600006 2.4 2.40001 0.6 4.70001 0.6Z" fill="#DFE9F2"/>
<path d="M90.2 14H0.6C0.3 14 0 13.8 0 13.5V4.7C0 2.1 2.1 0 4.7 0H86C88.6 0 90.7 2.1 90.7 4.7V13.4C90.7 13.8 90.5 14 90.2 14ZM1.1 12.9H89.6V4.7C89.6 2.7 88 1.1 86 1.1H4.7C2.7 1.1 1.1 2.7 1.1 4.7V12.9Z" fill="#848F99"/>
<path d="M29.5 4.4H81.6C82 4.4 82.4 4.8 82.4 5.2V8.8C82.4 9.2 82 9.6 81.6 9.6H29.5C29.1 9.6 28.7 9.2 28.7 8.8V5.2C28.7 4.8 29 4.4 29.5 4.4Z" fill="white"/>
<path d="M9.2 5.3C10.1 5.3 10.9 6.1 10.9 7C10.9 7.9 10.1 8.7 9.2 8.7C8.3 8.7 7.5 8 7.5 7C7.5 6 8.2 5.3 9.2 5.3Z" fill="#FF6259"/>
<path d="M14.1 5.3C15 5.3 15.8 6.1 15.8 7C15.8 7.9 15 8.7 14.1 8.7C13.2 8.7 12.4 8 12.4 7C12.4 6 13.1 5.3 14.1 5.3Z" fill="#FFBD2D"/>
<path d="M19 5.3C19.9 5.3 20.7 6.1 20.7 7C20.7 7.9 19.9 8.7 19 8.7C18.1 8.7 17.3 8 17.3 7C17.3 6 18.1 5.3 19 5.3Z" fill="#2BCA41"/>
<path d="M11.5 59.2H41.7C42.5 59.2 43.1 59.8 43.1 60.6V64.3C43.1 65.1 42.5 65.7 41.7 65.7H11.5C10.7 65.7 10.1 65.1 10.1 64.3V60.6C10.1 59.9 10.7 59.2 11.5 59.2Z" fill="white"/>
<path d="M41.7 58.6H11.5C10.4 58.6 9.5 59.5 9.5 60.6V64.3C9.5 65.4 10.4 66.3 11.5 66.3H41.7C42.8 66.3 43.7 65.4 43.7 64.3V60.6C43.7 59.5 42.8 58.6 41.7 58.6ZM42.6 64.3C42.6 64.8 42.2 65.2 41.7 65.2H11.5C11 65.2 10.6 64.8 10.6 64.3V60.6C10.6 60.1 11 59.7 11.5 59.7H41.7C42.2 59.7 42.6 60.1 42.6 60.6V64.3Z" fill="#BFCBD6"/>
<path d="M11.5 68.5H41.7C42.5 68.5 43.1 69.1 43.1 69.9V73.6C43.1 74.4 42.5 75 41.7 75H11.5C10.7 75 10.1 74.4 10.1 73.6V70C10.1 69.2 10.7 68.6 11.5 68.5Z" fill="white"/>
<path d="M41.7 68H11.5C11.4 68 11.4 68 11.3 68C10.3 68.1 9.5 69 9.5 70V73.7C9.5 74.8 10.4 75.7 11.5 75.7H41.7C42.8 75.7 43.7 74.8 43.7 73.7V70C43.7 68.9 42.8 68 41.7 68ZM42.6 73.7C42.6 74.2 42.2 74.6 41.7 74.6H11.5C11 74.6 10.6 74.2 10.6 73.7V70C10.6 69.5 11 69.1 11.5 69.1H11.6H41.6C42.1 69.1 42.5 69.5 42.5 70V73.7H42.6Z" fill="#BFCBD6"/>
<path d="M49 59.2H79.2C80 59.2 80.6 59.8 80.6 60.6V64.3C80.6 65.1 80 65.7 79.2 65.7H49C48.2 65.7 47.6 65.1 47.6 64.3V60.6C47.6 59.9 48.2 59.2 49 59.2Z" fill="white"/>
<path d="M79.2 58.6H49C47.9 58.6 47 59.5 47 60.6V64.3C47 65.4 47.9 66.3 49 66.3H79.2C80.3 66.3 81.2 65.4 81.2 64.3V60.6C81.2 59.5 80.3 58.6 79.2 58.6ZM80 64.3C80 64.8 79.6 65.2 79.1 65.2H49C48.5 65.2 48.1 64.8 48.1 64.3V60.6C48.1 60.1 48.5 59.7 49 59.7H79.2C79.7 59.7 80.1 60.1 80.1 60.6V64.3H80Z" fill="#BFCBD6"/>
<path d="M49 68.5H79.2C80 68.5 80.6 69.1 80.6 69.9V73.6C80.6 74.4 80 75 79.2 75H49C48.2 75 47.6 74.4 47.6 73.6V70C47.6 69.2 48.2 68.6 49 68.5Z" fill="white"/>
<path d="M79.2 68H49C48.9 68 48.9 68 48.8 68C47.8 68.1 47 69 47 70V73.7C47 74.8 47.9 75.7 49 75.7H79.2C80.3 75.7 81.2 74.8 81.2 73.7V70C81.2 68.9 80.3 68 79.2 68ZM80 73.7C80 74.2 79.6 74.6 79.1 74.6H49C48.5 74.6 48.1 74.2 48.1 73.7V70C48.1 69.5 48.5 69.1 49 69.1H49.1H79.1C79.6 69.1 80 69.5 80 70V73.7Z" fill="#BFCBD6"/>
<path d="M81.4 81.7H9.30001C9.00001 81.7 8.70001 81.4 8.70001 81.1C8.70001 80.8 9.00001 80.5 9.30001 80.5H81.4C81.7 80.5 82 80.8 82 81.1C82 81.4 81.7 81.7 81.4 81.7Z" fill="#F15C22"/>
<path d="M14.3 94.1H8.30001C8.00001 94.1 7.70001 93.8 7.70001 93.5V87.5C7.70001 87.2 8.00001 87 8.30001 87H14.3C14.6 87 14.9 87.3 14.9 87.6V93.6C14.8 93.9 14.6 94.1 14.3 94.1ZM8.80001 93H13.7V88.1H8.80001V93ZM81.4 91.1H21C20.7 91.1 20.4 90.8 20.4 90.5C20.4 90.2 20.7 90 21 90H81.4C81.7 90 82 90.3 82 90.6C82 90.9 81.7 91.1 81.4 91.1Z" fill="#B4BCC8"/>
<path d="M10 89.2H12.6V91.9H10V89.2Z" fill="#F15C22"/>
<path d="M68 32.6H47.7C47.4 32.6 47.1 32.3 47.1 32C47.1 31.7 47.4 31.4 47.7 31.4H68C68.3 31.4 68.6 31.7 68.6 32C68.6 32.3 68.3 32.6 68 32.6ZM77.3 28.4H47.8C47.5 28.4 47.2 28.1 47.2 27.8C47.2 27.5 47.5 27.2 47.8 27.2H77.3C77.6 27.2 77.9 27.5 77.9 27.8C77.9 28.1 77.6 28.4 77.3 28.4ZM82 24.2H47.7C47.4 24.2 47.1 23.9 47.1 23.6C47.1 23.3 47.4 23 47.7 23H82C82.3 23 82.6 23.3 82.6 23.6C82.6 23.9 82.3 24.2 82 24.2Z" fill="#F15C22"/>
<path d="M65.2 53.3H47.7C47.4 53.3 47.1 53 47.1 52.7C47.1 52.4 47.4 52.1 47.7 52.1H65.1C65.4 52.1 65.7 52.4 65.7 52.7C65.7 53 65.5 53.3 65.2 53.3ZM77.3 49.1H47.7C47.4 49.1 47.1 48.8 47.1 48.5C47.1 48.2 47.4 47.9 47.7 47.9H77.2C77.5 47.9 77.8 48.2 77.8 48.5C77.8 48.8 77.6 49.1 77.3 49.1ZM81.9 45H47.7C47.4 45 47.1 44.7 47.1 44.4C47.1 44.1 47.4 43.8 47.7 43.8H81.8C82.1 43.8 82.4 44.1 82.4 44.4C82.4 44.7 82.2 45 81.9 45ZM81.9 40.8H47.7C47.4 40.8 47.1 40.5 47.1 40.2C47.1 39.9 47.4 39.6 47.7 39.6H81.8C82.1 39.6 82.4 39.9 82.4 40.2C82.4 40.5 82.2 40.8 81.9 40.8ZM73.9 36.7H47.7C47.4 36.7 47.1 36.4 47.1 36.1C47.1 35.8 47.4 35.5 47.7 35.5H73.9C74.2 35.5 74.5 35.8 74.5 36.1C74.5 36.4 74.2 36.7 73.9 36.7Z" fill="#B4BCC8"/>
<path d="M11.6 23H41.5C42.4 23 43.1 23.7 43.1 24.6V52.3C43.1 53.2 42.4 53.9 41.5 53.9H11.6C10.7 53.9 10 53.2 10 52.3V24.5C10.1 23.7 10.8 23 11.6 23Z" fill="white"/>
<path d="M11.6 54.4C10.4 54.4 9.5 53.4 9.5 52.3V24.5C9.5 23.3 10.5 22.4 11.6 22.4C11.7 22.4 11.7 22.4 11.8 22.4H41.5C42.7 22.4 43.6 23.4 43.6 24.5V52.2C43.6 53.4 42.6 54.3 41.5 54.3H11.6V54.4ZM11.5 23.5C11 23.6 10.7 24 10.7 24.5V52.3C10.7 52.8 11.2 53.3 11.7 53.3H41.6C42.1 53.3 42.6 52.8 42.6 52.3V24.6C42.6 24.1 42.1 23.6 41.6 23.6H11.6C11.6 23.6 11.5 23.6 11.5 23.5Z" fill="#F15C22"/>
<path d="M34.4 35.8L29.2 30.6C28.6 30 27.7 30 27.1 30.6L18.9 38.8C18.3 39.4 18.3 40.3 18.9 40.9L19.5 41.5L23.8 45.8H23.2C23 45.8 22.9 46 22.9 46.1C22.9 46.3 23.1 46.4 23.2 46.4H30C30.2 46.4 30.3 46.2 30.3 46.1C30.3 45.9 30.1 45.8 30 45.8H26.4L34.4 37.8C34.9 37.3 34.9 36.4 34.4 35.8ZM33.9 37.4L25.7 45.6C25.5 45.8 25.3 45.8 25.1 45.8C24.9 45.8 24.7 45.7 24.5 45.6L20.2 41.3L28.1 33.4C28.2 33.3 28.3 33.1 28.1 32.9C28 32.8 27.8 32.7 27.6 32.9L19.7 40.8L19.3 40.4C19 40.1 19 39.6 19.3 39.3L27.5 31.1C27.8 30.8 28.3 30.8 28.6 31.1L30.5 33L22.6 40.9C22.5 41 22.4 41.2 22.6 41.4C22.7 41.5 22.9 41.6 23.1 41.4L31 33.5L33.9 36.4C34.2 36.6 34.2 37.1 33.9 37.4Z" fill="#F15C22"/>
<path d="M26.8 40.1C26.7 40 26.5 40 26.3 40.1L23.6 42.8C23.5 42.9 23.4 43.1 23.6 43.3C23.7 43.4 23.9 43.5 24.1 43.3L26.8 40.6C26.9 40.4 26.9 40.2 26.8 40.1Z" fill="#F15C22"/>
<path d="M25.7 42.6L24.6 43.7C24.5 43.8 24.4 44 24.6 44.2C24.7 44.3 24.9 44.4 25.1 44.2L26.2 43.1C26.3 43 26.3 42.7 26.2 42.6C26 42.5 25.8 42.5 25.7 42.6Z" fill="#F15C22"/>
<path d="M26.7 41.6L26.6 41.7C26.5 41.8 26.5 42.1 26.6 42.2C26.7 42.3 26.9 42.3 27.1 42.2L27.2 42.1C27.3 42 27.4 41.8 27.2 41.6C27.1 41.5 26.9 41.5 26.7 41.6Z" fill="#F15C22"/>
<path d="M31.4 35.4C31.3 35.3 31.1 35.3 30.9 35.4L29.4 36.9C29.3 37 29.3 37.2 29.4 37.4L30.4 38.4C30.5 38.5 30.7 38.5 30.9 38.4L32.4 36.9C32.5 36.8 32.5 36.6 32.4 36.4L31.4 35.4ZM30.7 37.6L30.2 37.1L31.2 36.1L31.7 36.6L30.7 37.6Z" fill="#F15C22"/>
<path d="M28.7 32.8C28.8 32.8 28.9 32.8 28.9 32.7L29 32.6C29.1 32.5 29.1 32.2 29 32.1C28.9 32 28.7 32 28.5 32.1L28.4 32.2C28.3 32.3 28.3 32.5 28.4 32.7C28.5 32.7 28.6 32.8 28.7 32.8Z" fill="#F15C22"/>
<path d="M21.8 41.7L21.7 41.8C21.6 41.9 21.5 42.1 21.7 42.3C21.8 42.4 22 42.5 22.2 42.3L22.3 42.2C22.4 42.1 22.4 41.8 22.3 41.7C22.1 41.6 22 41.6 21.8 41.7Z" fill="#F15C22"/>
</g>
<defs>
<clipPath id="clip0">
<rect width="90.7" height="120.8" fill="white"/>
</clipPath>
</defs>
</svg>
