<svg width="91" height="122" viewBox="0 0 91 122" fill="none" xmlns="http://www.w3.org/2000/svg">
<g clip-path="url(#clip0)">
<path d="M90.2 13.7V116.3C90.2 118.6 88.3 120.5 86 120.5H4.7C2.4 120.5 0.5 118.6 0.5 116.3V13.7H90.2Z" fill="white"/>
<path d="M86 121.1H4.7C2.1 121.1 0 119 0 116.4V13.7C0 13.4 0.3 13.1 0.6 13.1H90.2C90.5 13.1 90.8 13.4 90.8 13.7V13.8V116.3C90.7 119 88.6 121.1 86 121.1ZM1.1 14.3V116.3C1.1 118.3 2.7 119.9 4.7 119.9H86C88 119.9 89.6 118.3 89.6 116.3V14.3H1.1V14.3Z" fill="#848F99"/>
<path d="M76.1 67.8H14.5C14.2 67.8 13.9 67.5 13.9 67.2C13.9 66.9 14.2 66.6 14.5 66.6H76.1C76.4 66.6 76.7 66.9 76.7 67.2C76.7 67.5 76.4 67.8 76.1 67.8Z" fill="#F15C22"/>
<path d="M59 80.7H31.5C31.2 80.7 30.9 80.4 30.9 80.1C30.9 79.8 31.2 79.5 31.5 79.5H59C59.3 79.5 59.6 79.8 59.6 80.1C59.6 80.4 59.3 80.7 59 80.7ZM74.2 76.4H16.3C16 76.4 15.7 76.1 15.7 75.8C15.7 75.5 16 75.2 16.3 75.2H74.2C74.5 75.2 74.8 75.5 74.8 75.8C74.8 76.1 74.5 76.4 74.2 76.4ZM74.1 72.4H16.4C16.1 72.4 15.8 72.1 15.8 71.8C15.8 71.5 16.1 71.2 16.4 71.2H74C74.3 71.2 74.6 71.5 74.6 71.8C74.6 72.1 74.4 72.4 74.1 72.4Z" fill="#BFCBD6"/>
<path d="M16 85.1H74.5C75.8 85.1 76.9 86.2 76.9 87.5V93.7C76.9 95 75.8 96.1 74.5 96.1H16C14.7 96.1 13.6 95 13.6 93.7V87.5C13.6 86.2 14.6 85.1 16 85.1Z" fill="#F15C22"/>
<path d="M23.4 91.6L24.2 91.9C24.1 92.3 23.9 92.7 23.6 92.9C23.3 93.1 22.9 93.3 22.5 93.2C22 93.2 21.5 93 21.1 92.6C20.7 92.2 20.5 91.6 20.6 91C20.6 90.4 20.8 89.8 21.1 89.3C21.5 88.9 22 88.7 22.6 88.7C23.1 88.7 23.5 88.9 23.9 89.2C24.1 89.4 24.3 89.7 24.3 90L23.4 90.2C23.3 89.8 22.9 89.5 22.5 89.5C22.2 89.5 21.9 89.6 21.7 89.8C21.5 90.1 21.4 90.5 21.4 90.9C21.4 91.3 21.5 91.7 21.7 92.1C21.9 92.3 22.2 92.5 22.5 92.5C22.7 92.5 22.9 92.4 23.1 92.3C23.3 92.1 23.4 91.8 23.4 91.6Z" fill="white"/>
<path d="M28.9 93.2H28L27.6 92.2H25.9L25.5 93.2H24.6L26.3 88.9H27.2L28.9 93.2ZM27.3 91.5L26.7 89.9L26.1 91.5H27.3Z" fill="white"/>
<path d="M29.4 93.2V88.9H30.2V92.4H32.4V93.2H29.4Z" fill="white"/>
<path d="M33 93.2V88.9H33.9V92.4H36.1V93.2H33Z" fill="white"/>
<path d="M39.2 93.2V89.6H37.9V88.9H41.3V89.6H40.1V93.2H39.2Z" fill="white"/>
<path d="M41.6 91C41.6 90.6 41.7 90.2 41.8 89.9C41.9 89.7 42 89.5 42.2 89.3C42.4 89.1 42.5 89 42.7 88.9C43 88.8 43.3 88.7 43.6 88.7C44.2 88.7 44.7 88.9 45.1 89.3C45.9 90.3 45.9 91.6 45.1 92.6C44.7 93 44.2 93.2 43.6 93.2C43 93.2 42.5 93 42.1 92.6C41.8 92.2 41.6 91.6 41.6 91ZM42.5 91C42.5 91.4 42.6 91.8 42.8 92.1C43.2 92.6 44 92.6 44.4 92.2C44.4 92.2 44.4 92.2 44.5 92.1C44.7 91.8 44.9 91.4 44.8 91C44.8 90.6 44.7 90.2 44.5 89.9C44 89.4 43.3 89.4 42.8 89.9C42.6 90.2 42.5 90.6 42.5 91Z" fill="white"/>
<path d="M51.8 93.2H50.9L50.5 92.2H48.8L48.4 93.2H47.5L49.2 88.9H50.1L51.8 93.2ZM50.2 91.5L49.6 89.9L49 91.4L50.2 91.5Z" fill="white"/>
<path d="M55 91.6L55.8 91.9C55.7 92.3 55.5 92.7 55.2 92.9C54.9 93.1 54.5 93.3 54.1 93.2C53.6 93.2 53.1 93 52.7 92.6C52.3 92.2 52.1 91.6 52.2 91C52.2 90.4 52.4 89.8 52.7 89.3C53.1 88.9 53.6 88.7 54.2 88.7C54.7 88.7 55.1 88.9 55.5 89.2C55.7 89.4 55.9 89.7 55.9 90L55 90.2C54.9 89.8 54.5 89.5 54.1 89.5C53.8 89.5 53.5 89.6 53.3 89.8C53 90.2 52.9 90.6 53 91C53 91.4 53.1 91.8 53.3 92.2C53.5 92.4 53.8 92.6 54.1 92.6C54.3 92.6 54.5 92.5 54.7 92.4C54.8 92.1 55 91.9 55 91.6Z" fill="white"/>
<path d="M57.5 93.2V89.6H56.3V88.9H59.7V89.6H58.4V93.2H57.5Z" fill="white"/>
<path d="M60.2 93.2V88.9H61.1V93.2H60.2Z" fill="white"/>
<path d="M61.7 91C61.7 90.6 61.8 90.2 61.9 89.9C62 89.7 62.1 89.5 62.3 89.3C62.5 89.1 62.6 89 62.9 88.9C63.2 88.8 63.5 88.7 63.8 88.7C64.4 88.7 64.9 88.9 65.3 89.3C66.1 90.3 66.1 91.6 65.3 92.6C64.9 93 64.4 93.2 63.8 93.2C63.2 93.2 62.7 93 62.3 92.6C61.9 92.2 61.7 91.6 61.7 91ZM62.6 91C62.6 91.4 62.7 91.8 62.9 92.1C63.3 92.6 64.1 92.6 64.5 92.2C64.5 92.2 64.5 92.2 64.6 92.1C64.8 91.8 65 91.4 64.9 91C64.9 90.6 64.8 90.2 64.6 89.9C64.1 89.4 63.4 89.4 62.9 89.9C62.7 90.2 62.6 90.6 62.6 91Z" fill="white"/>
<path d="M66.6 93.2V88.9H67.4L69.2 91.7V88.9H70V93.2H69.1L67.4 90.3V93.2H66.6Z" fill="white"/>
<path d="M11.8 103.6C10.2 103.6 8.89999 102.3 8.89999 100.7V33.7C8.89999 32.1 10.2 30.8 11.8 30.8H78.9C80.5 30.8 81.8 32.1 81.8 33.7V100.7C81.8 102.3 80.5 103.6 78.9 103.6H11.8ZM11.8 31.9C10.8 31.9 9.99999 32.7 9.99999 33.7V100.7C9.99999 101.7 10.8 102.5 11.8 102.5H78.9C79.9 102.5 80.7 101.7 80.7 100.7V33.7C80.7 32.7 79.9 31.9 78.9 31.9H11.8V31.9ZM74.1 62.2H16.9C15.3 62.2 14.1 60.9 14.1 59.4V39.4C14.1 37.8 15.4 36.6 16.9 36.6H74.2C75.8 36.6 77 37.9 77 39.4V59.4C77 61 75.7 62.2 74.1 62.2ZM16.9 37.7C16 37.7 15.2 38.5 15.2 39.4V59.4C15.2 60.3 16 61.1 16.9 61.1H74.2C75.1 61.1 75.9 60.3 75.9 59.4V39.4C75.9 38.5 75.1 37.7 74.2 37.7H16.9ZM56.3 57.1H34.7C34.4 57.1 34.2 56.9 34.1 56.6C34.1 56.4 34.2 56.2 34.4 56.1L40.4 48C40.5 47.9 40.7 47.8 40.8 47.8C41 47.8 41.1 47.9 41.2 48L43.8 50.8L48.5 46C48.6 45.9 48.8 45.8 48.9 45.8C49.1 45.8 49.2 45.9 49.3 46L56.6 56.2C56.7 56.4 56.7 56.6 56.6 56.8C56.7 57 56.5 57.1 56.3 57.1ZM35.9 56H55.2L48.9 47.2L44.2 51.9C44.1 52 44 52 43.8 52.1C43.6 52.1 43.5 52 43.4 51.9L40.9 49.1L35.9 56ZM43.4 46.6C42.1 46.6 41 45.5 41 44.2C41 42.9 42.1 41.8 43.4 41.8C44.7 41.8 45.8 42.9 45.8 44.2C45.8 45.5 44.7 46.6 43.4 46.6ZM43.4 42.8C42.7 42.8 42.1 43.4 42.1 44.1C42.1 44.8 42.7 45.4 43.4 45.4C44.1 45.4 44.7 44.8 44.7 44.1C44.7 43.4 44.1 42.8 43.4 42.8Z" fill="#F15C22"/>
<path d="M4.70001 0.6H86C88.3 0.6 90.2 2.5 90.2 4.8V13.5H0.600006V4.7C0.600006 2.4 2.40001 0.6 4.70001 0.6Z" fill="#DFE9F2"/>
<path d="M90.2 14H0.6C0.3 14 0 13.8 0 13.5V4.7C0 2.1 2.1 0 4.7 0H86C88.6 0 90.7 2.1 90.7 4.7V13.4C90.7 13.8 90.5 14 90.2 14ZM1.1 12.9H89.6V4.7C89.6 2.7 88 1.1 86 1.1H4.7C2.7 1.1 1.1 2.7 1.1 4.7V12.9Z" fill="#848F99"/>
<path d="M29.5 4.4H81.6C82 4.4 82.4 4.8 82.4 5.2V8.8C82.4 9.2 82 9.6 81.6 9.6H29.5C29.1 9.6 28.7 9.2 28.7 8.8V5.2C28.7 4.8 29 4.4 29.5 4.4Z" fill="white"/>
<path d="M9.2 5.3C10.1 5.3 10.9 6.1 10.9 7C10.9 7.9 10.1 8.7 9.2 8.7C8.3 8.7 7.5 8 7.5 7C7.5 6 8.2 5.3 9.2 5.3Z" fill="#FF6259"/>
<path d="M14.1 5.3C15 5.3 15.8 6.1 15.8 7C15.8 7.9 15 8.7 14.1 8.7C13.2 8.7 12.4 8 12.4 7C12.4 6 13.1 5.3 14.1 5.3Z" fill="#FFBD2D"/>
<path d="M19 5.3C19.9 5.3 20.7 6.1 20.7 7C20.7 7.9 19.9 8.7 19 8.7C18.1 8.7 17.3 8 17.3 7C17.3 6 18.1 5.3 19 5.3Z" fill="#2BCA41"/>
</g>
<defs>
<clipPath id="clip0">
<rect width="90.7" height="121.1" fill="white"/>
</clipPath>
</defs>
</svg>
