<svg width="51" height="51" viewBox="0 0 51 51" fill="none" xmlns="http://www.w3.org/2000/svg">
<g clip-path="url(#clip0)">
<path d="M25.1 50.2C24 50.2 22.9 49.8 22.1 49L1.2 28.1C-0.4 26.5 -0.4 23.8 1.2 22.1L22.1 1.2C23.7 -0.4 26.4 -0.4 28.1 1.2L49 22.1C50.6 23.7 50.6 26.4 49 28.1L28.1 49C27.3 49.8 26.2 50.2 25.1 50.2ZM25.1 1.1C24.3 1.1 23.5 1.4 22.9 2L2 22.9C0.8 24.1 0.8 26.1 2 27.3L22.9 48.2C24.1 49.4 26.1 49.4 27.3 48.2L48.2 27.3C49.4 26.1 49.4 24.1 48.2 22.9L27.3 2C26.7 1.4 25.9 1.1 25.1 1.1Z" fill="#636E84"/>
<path d="M25.2 24.4C25.2 24.4 25.1 24.4 25.2 24.4H25C24.8 24.3 24.6 24.2 24.5 24C24.3 23.8 24.3 23.5 24.3 23.3C24.3 23 24.5 22.8 24.7 22.7C24.9 22.5 25.2 22.5 25.4 22.5C25.9 22.6 26.2 23 26.2 23.5C26.2 23.7 26.3 23.9 26.4 24C26.5 24.1 26.7 24.2 26.9 24.2C27.3 24.2 27.6 23.9 27.6 23.5C27.6 22.4 26.8 21.5 25.8 21.3V21C25.8 20.6 25.5 20.3 25.1 20.3C24.7 20.3 24.4 20.6 24.4 21V21.2C23.4 21.4 22.6 22.3 22.6 23.4C22.6 24.7 23.7 25.7 25 25.7H25.1C25.4 25.7 25.6 25.9 25.7 26.1C25.9 26.3 25.9 26.6 25.9 26.8C25.9 27.1 25.7 27.3 25.5 27.4C25.3 27.6 25 27.6 24.8 27.6C24.3 27.5 24 27.1 24 26.6C24 26.4 23.9 26.3 23.8 26.1C23.7 26 23.5 25.9 23.3 25.9C23.1 25.9 23 26 22.8 26.1C22.7 26.2 22.6 26.4 22.6 26.6C22.6 27.7 23.4 28.6 24.4 28.8V29C24.4 29.2 24.5 29.4 24.6 29.5C24.7 29.6 24.9 29.7 25.1 29.7C25.5 29.7 25.8 29.4 25.8 29V28.9C26.8 28.7 27.6 27.8 27.6 26.7C27.5 25.4 26.5 24.4 25.2 24.4Z" fill="#F15C22"/>
<path d="M31.8 21.8L31.4 21.1C30.7 19.9 29.6 19 28.3 18.4C28 18.3 27.6 18.5 27.4 18.8C27.3 19.1 27.4 19.4 27.7 19.6C29.2 20.3 30.3 21.5 30.8 23.1C31.3 24.7 31.2 26.3 30.5 27.7C30.5 27.8 30.4 27.8 30.4 27.9C30.2 28.2 30.4 28.6 30.7 28.8C30.8 28.9 30.9 28.9 31 28.9C31.2 28.9 31.5 28.8 31.6 28.5C32.8 26.5 32.8 23.9 31.8 21.8Z" fill="#F15C22"/>
<path d="M26 17.7C25.6 17.7 25.3 18 25.3 18.4C25.3 18.8 25.6 19.1 26 19.1C26.4 19.1 26.7 18.8 26.7 18.4C26.7 18 26.4 17.7 26 17.7Z" fill="#F15C22"/>
<path d="M22.6 30.6C22.6 30.6 22.5 30.6 22.5 30.5C19.5 29 18.2 25.4 19.7 22.4C19.7 22.3 19.8 22.3 19.8 22.2C20 21.9 19.8 21.5 19.5 21.3C19.3 21.2 19.2 21.2 19 21.3C18.8 21.4 18.7 21.5 18.6 21.6C17.7 23.3 17.5 25.4 18.1 27.2C18.7 29.1 20 30.6 21.7 31.6C21.8 31.6 21.9 31.7 22 31.7C22.1 31.8 22.2 31.8 22.4 31.8C22.4 31.8 22.5 31.8 22.6 31.8C22.8 31.8 22.9 31.7 23 31.5C23 31.2 22.9 30.8 22.6 30.6Z" fill="#F15C22"/>
<path d="M24.3 31.2C23.9 31.2 23.6 31.5 23.6 31.9C23.6 32.3 23.9 32.6 24.3 32.6C24.5 32.6 24.6 32.5 24.8 32.4C24.9 32.3 25 32.1 25 31.9C24.9 31.5 24.6 31.2 24.3 31.2Z" fill="#F15C22"/>
<path d="M25.1 36.2C19 36.2 14 31.2 14 25.1C14 19 19 14 25.1 14C31.2 14 36.2 19 36.2 25.1C36.2 31.2 31.2 36.2 25.1 36.2ZM25.1 15.1C19.6 15.1 15.1 19.6 15.1 25.1C15.1 30.6 19.6 35.1 25.1 35.1C30.6 35.1 35.1 30.6 35.1 25.1C35.1 19.6 30.6 15.1 25.1 15.1Z" fill="#636E84"/>
</g>
<defs>
<clipPath id="clip0">
<rect width="50.2" height="50.2" fill="white"/>
</clipPath>
</defs>
</svg>
