<svg width="38" height="38" viewBox="0 0 38 38" fill="none" xmlns="http://www.w3.org/2000/svg">
<path d="M19 0C29.5 0 38 8.5 38 19C38 29.5 29.5 38 19 38C8.5 38 0 29.5 0 19C0 14 2 9.1 5.6 5.6C9.1 2 14 0 19 0ZM31.6 6.4C24.6 -0.6 13.3 -0.6 6.3 6.4C-0.7 13.4 -0.7 24.7 6.3 31.7C13.3 38.7 24.6 38.7 31.6 31.7C35 28.4 36.8 23.8 36.8 19.1C36.9 14.3 35 9.7 31.6 6.4Z" fill="#636E84"/>
<path d="M18 26.5C18.1 26.4 18.2 26.3 18.4 26.4H19C19.3 26.4 19.5 26.6 19.5 26.9C19.5 27.2 19.3 27.4 19 27.4H18.3C18 27.4 17.8 27.2 17.8 26.9C17.8 26.7 17.9 26.6 18 26.5Z" fill="#F15C22"/>
<path d="M24.8 14.5H27.6C28.3 14.5 28.8 15 28.8 15.7V21.7C28.8 22.4 28.3 22.9 27.6 22.9H24.8V27.7C24.8 28.4 24.3 28.9 23.6 28.9H13.7C13 28.9 12.5 28.4 12.5 27.7V9.7C12.5 9 13 8.5 13.7 8.5H23.6C24.3 8.5 24.8 9 24.8 9.7V11.7C24.8 12 24.6 12.2 24.3 12.2H16.4C16.1 12.2 15.9 12 15.9 11.7C15.9 11.4 16.1 11.2 16.4 11.2H23.8V9.7C23.8 9.6 23.7 9.6 23.7 9.6H13.8C13.7 9.6 13.7 9.7 13.7 9.7V11.2H14.5C14.8 11.2 15 11.4 15 11.7C15 12 14.8 12.2 14.5 12.2H13.7V24.7H21C21.3 24.7 21.5 24.9 21.5 25.2C21.5 25.5 21.3 25.7 21 25.7H13.6V27.5C13.6 27.6 13.7 27.6 13.7 27.6H23.6C23.7 27.6 23.7 27.5 23.7 27.5V25.7H23C22.7 25.7 22.5 25.5 22.5 25.2C22.5 24.9 22.7 24.7 23 24.7H23.8V22.8H19C18.3 22.8 17.8 22.3 17.8 21.6V15.6C17.8 14.9 18.3 14.4 19 14.4H23.8V13.6C23.8 13.3 24 13.1 24.3 13.1C24.6 13.1 24.8 13.3 24.8 13.6V14.5ZM27.7 21.7C27.7 21.7 27.7 21.6 27.7 21.7V15.7C27.7 15.6 27.6 15.6 27.6 15.6H19C18.9 15.6 18.9 15.7 18.9 15.7V21.7C18.9 21.8 19 21.8 19 21.8H27.6C27.6 21.7 27.7 21.7 27.7 21.7Z" fill="#636E84"/>
<path d="M26.8 16.1C27.1 16 27.4 16.2 27.4 16.5C27.4 16.7 27.4 16.9 27.2 17C26 18 24.8 18.9 23.5 19.7H23.4H23.2H23.1C21.8 18.9 20.6 18 19.4 17C19.2 16.9 19.2 16.7 19.2 16.5C19.2 16.3 19.3 16.1 19.5 16.1C19.6 16.1 19.7 16.1 19.8 16.1C19.9 16.1 20 16.1 20.1 16.2L23.4 18.6L26.7 16.2C26.7 16.2 26.8 16.2 26.8 16.1Z" fill="#F15C22"/>
<path d="M19.3 20.6L20.8 19.1C21 18.9 21.3 18.9 21.6 19.1C21.9 19.3 21.8 19.6 21.6 19.9L20 21.3C19.9 21.4 19.9 21.4 19.8 21.4C19.6 21.5 19.4 21.4 19.3 21.3C19.2 21.2 19.2 21.2 19.2 21.1C19.1 20.9 19.1 20.7 19.3 20.6Z" fill="#F15C22"/>
<path d="M25.4 18.9C25.5 18.9 25.7 19 25.8 19C25.9 19.1 27.2 20.4 27.3 20.5C27.5 20.7 27.5 21 27.3 21.3C27.1 21.6 26.8 21.5 26.5 21.3C26.4 21.2 25.1 19.9 25 19.8C24.8 19.6 24.8 19.2 25 19.1C25.2 19 25.3 18.9 25.4 18.9Z" fill="#F15C22"/>
</svg>
