<svg width="38" height="38" viewBox="0 0 38 38" fill="none" xmlns="http://www.w3.org/2000/svg">
<path d="M19 0C29.5 0 38 8.5 38 19C38 29.5 29.5 38 19 38C8.5 38 0 29.5 0 19C0 14 2 9.1 5.6 5.6C9.1 2 14 0 19 0ZM31.6 6.4C24.6 -0.6 13.3 -0.6 6.3 6.4C-0.7 13.4 -0.7 24.7 6.3 31.7C13.3 38.7 24.6 38.7 31.6 31.7C35 28.4 36.8 23.8 36.8 19.1C36.9 14.3 35 9.7 31.6 6.4Z" fill="#636E84"/>
<path d="M12 11.9H26C27.3 11.9 28.3 12.9 28.3 14.2V23.8C28.3 25.1 27.3 26.1 26 26.1H12C10.7 26.1 9.7 25.1 9.7 23.8V14.2C9.7 12.9 10.7 11.9 12 11.9ZM26.8 24.6C27 24.4 27.1 24.1 27.1 23.8V14.2C27.1 13.6 26.6 13 26 13C26 13 26 13 25.9 13H12C11.4 13 10.8 13.5 10.8 14.2V23.8C10.8 24.4 11.2 25 11.9 25H12H26C26.3 25 26.6 24.9 26.8 24.6Z" fill="#636E84"/>
<path d="M17.8 18.5L19 19.6L25.2 14C25.4 13.8 25.8 13.8 26 14C26.1 14.1 26.2 14.3 26.1 14.4C26.1 14.5 26 14.7 25.9 14.8L21.4 18.8L25.9 23.1C26.1 23.3 26.1 23.7 25.9 23.9C25.8 24 25.6 24.1 25.5 24.1C25.4 24.1 25.2 24 25.1 23.9L20.5 19.5L19.3 20.6C19.2 20.6 19.2 20.7 19.1 20.7C19 20.8 18.8 20.8 18.7 20.7C18.6 20.7 18.6 20.6 18.5 20.6L17.3 19.5L12.8 24C12.7 24 12.7 24.1 12.6 24.1C12.5 24.2 12.3 24.2 12.2 24.1C12.1 24.1 12.1 24 12 24C11.8 23.8 11.8 23.4 12 23.2L16.5 19L12 14.9C11.8 14.7 11.8 14.3 12 14.1C12.1 14 12.2 13.9 12.4 13.9C12.6 13.9 12.7 13.9 12.8 14L17.8 18.5Z" fill="#F15C22"/>
</svg>
