<svg width="91" height="121" viewBox="0 0 91 121" fill="none" xmlns="http://www.w3.org/2000/svg">
<g clip-path="url(#clip0)">
<path d="M90.2 13.5V116.1C90.2 118.4 88.3 120.3 86 120.3H4.7C2.4 120.3 0.5 118.4 0.5 116.1V13.5H90.2Z" fill="white"/>
<path d="M4.7 120.8C2.1 120.8 0 118.7 0 116.1V13.5C0 13.2 0.3 12.9 0.6 12.9H90.2C90.5 12.9 90.8 13.2 90.8 13.5V13.6V116.1C90.8 118.7 88.7 120.8 86.1 120.8H4.7ZM1.1 14V116C1.1 118 2.7 119.6 4.7 119.6H86C88 119.6 89.6 118 89.6 116V14H1.1Z" fill="#848F99"/>
<path d="M10.7 93.5H80C81.3 93.5 82.4 94.6 82.4 95.9V102.1C82.4 103.4 81.3 104.5 80 104.5H10.7C9.39999 104.5 8.29999 103.4 8.29999 102.1V96C8.29999 94.6 9.39999 93.6 10.7 93.5Z" fill="#F15C22"/>
<path d="M23.5 100L24.3 100.3C24.2 100.7 24 101.1 23.7 101.3C23.4 101.5 23 101.7 22.6 101.6C22.1 101.6 21.6 101.4 21.2 101C20.8 100.6 20.6 100 20.7 99.4C20.7 98.8 20.9 98.2 21.2 97.7C21.6 97.3 22.1 97.1 22.7 97.1C23.2 97.1 23.6 97.3 24 97.6C24.2 97.8 24.4 98.1 24.4 98.4L23.5 98.6C23.4 98.2 23 97.9 22.6 97.9C22.3 97.9 22 98 21.8 98.2C21.6 98.5 21.5 98.9 21.5 99.3C21.5 99.7 21.6 100.1 21.8 100.5C22 100.7 22.3 100.9 22.6 100.9C22.8 100.9 23 100.8 23.2 100.7C23.4 100.5 23.5 100.2 23.5 100Z" fill="white"/>
<path d="M29 101.6H28.1L27.7 100.6H26L25.6 101.6H24.7L26.4 97.3H27.3L29 101.6ZM27.4 99.9L26.8 98.3L26.2 99.9H27.4Z" fill="white"/>
<path d="M29.5 101.6V97.3H30.4V100.9H32.5V101.6H29.5Z" fill="white"/>
<path d="M33.1 101.6V97.3H34V100.9H36.2V101.6H33.1Z" fill="white"/>
<path d="M39.3 101.6V98H38V97.3H41.4V98H40.2V101.6H39.3Z" fill="white"/>
<path d="M41.7 99.5C41.7 99.1 41.8 98.7 41.9 98.4C42 98.2 42.1 98 42.3 97.8C42.5 97.6 42.6 97.5 42.9 97.4C43.2 97.3 43.5 97.2 43.8 97.2C44.4 97.2 44.9 97.4 45.3 97.8C46.1 98.8 46.1 100.1 45.3 101.1C44.9 101.5 44.4 101.7 43.8 101.7C43.2 101.7 42.7 101.5 42.3 101.1C41.9 100.6 41.7 100 41.7 99.5ZM42.6 99.5C42.6 99.9 42.7 100.3 42.9 100.6C43.3 101.1 44.1 101.1 44.5 100.7C44.5 100.7 44.5 100.7 44.6 100.6C44.8 100.3 45 99.9 44.9 99.5C44.9 99.1 44.8 98.7 44.6 98.4C44.1 97.9 43.4 97.9 42.9 98.4C42.7 98.7 42.6 99.1 42.6 99.5Z" fill="white"/>
<path d="M51.9 101.6H51L50.6 100.6H48.9L48.5 101.6H47.6L49.3 97.3H50.2L51.9 101.6ZM50.3 99.9L49.7 98.3L49.1 99.9H50.3Z" fill="white"/>
<path d="M55.1 100L55.9 100.3C55.8 100.7 55.6 101.1 55.3 101.3C55 101.5 54.6 101.7 54.2 101.6C53.7 101.6 53.2 101.4 52.8 101C52.4 100.6 52.2 100 52.3 99.4C52.3 98.8 52.5 98.2 52.8 97.7C53.2 97.3 53.7 97.1 54.3 97.1C54.8 97.1 55.2 97.3 55.6 97.6C55.8 97.8 56 98.1 56 98.4L55.1 98.6C55 98.2 54.6 97.9 54.2 97.9C53.9 97.9 53.6 98 53.4 98.2C53.2 98.5 53.1 98.9 53.1 99.3C53.1 99.7 53.2 100.1 53.4 100.5C53.6 100.7 53.9 100.9 54.2 100.9C54.4 100.9 54.6 100.8 54.8 100.7C54.9 100.5 55 100.2 55.1 100Z" fill="white"/>
<path d="M57.6 101.6V98H56.4V97.3H59.8V98H58.5V101.6H57.6Z" fill="white"/>
<path d="M60.3 101.6V97.3H61.2V101.6H60.3Z" fill="white"/>
<path d="M61.8 99.5C61.8 99.1 61.9 98.7 62 98.4C62.1 98.2 62.2 98 62.4 97.8C62.6 97.6 62.7 97.5 63 97.4C63.3 97.3 63.6 97.2 63.9 97.2C64.5 97.2 65 97.4 65.4 97.8C66.2 98.8 66.2 100.1 65.4 101.1C65 101.5 64.5 101.7 63.9 101.7C63.3 101.7 62.8 101.5 62.4 101.1C62 100.6 61.8 100 61.8 99.5ZM62.7 99.5C62.7 99.9 62.8 100.3 63 100.6C63.4 101.1 64.2 101.1 64.6 100.7C64.6 100.7 64.6 100.7 64.7 100.6C64.9 100.3 65.1 99.9 65 99.5C65 99.1 64.9 98.7 64.7 98.4C64.2 97.9 63.5 97.9 63 98.4C62.8 98.7 62.7 99.1 62.7 99.5Z" fill="white"/>
<path d="M66.7 101.6V97.3H67.5L69.3 100.2V97.3H70.1V101.6H69.2L67.5 98.8V101.6H66.7Z" fill="white"/>
<path d="M16.2 56.7H10.2C9.89998 56.7 9.59998 56.4 9.59998 56.1V50.1C9.59998 49.8 9.89998 49.5 10.2 49.5H16.2C16.5 49.5 16.8 49.8 16.8 50.1V56.1C16.8 56.5 16.5 56.7 16.2 56.7ZM10.8 55.6H15.7V50.7H10.8V55.6ZM81.3 53.7H28.7C28.4 53.7 28.1 53.4 28.1 53.1C28.1 52.8 28.4 52.5 28.7 52.5H81.3C81.6 52.5 81.9 52.8 81.9 53.1C81.9 53.4 81.6 53.7 81.3 53.7Z" fill="#B4BCC8"/>
<path d="M11.9 51.8H14.6V54.5H11.9V51.8Z" fill="#F15C22"/>
<path d="M24.4 65.1H18.4C18.1 65.1 17.8 64.8 17.8 64.5V58.5C17.8 58.2 18.1 57.9 18.4 57.9H24.4C24.7 57.9 25 58.2 25 58.5V64.5C25 64.8 24.7 65.1 24.4 65.1ZM19 63.9H23.9V59H19V63.9ZM24.4 56.7H18.4C18.1 56.7 17.8 56.4 17.8 56.1V50.1C17.8 49.8 18.1 49.5 18.4 49.5H24.4C24.7 49.5 25 49.8 25 50.1V56.1C25 56.5 24.7 56.7 24.4 56.7ZM19 55.6H23.9V50.7H19V55.6Z" fill="#B4BCC8"/>
<path d="M22.7 60.2H20.1V62.9H22.7V60.2Z" fill="#F15C22"/>
<path d="M16.2 73.4H10.2C9.89998 73.4 9.59998 73.1 9.59998 72.8V66.8C9.59998 66.5 9.89998 66.2 10.2 66.2H16.2C16.5 66.2 16.8 66.5 16.8 66.8V72.8C16.8 73.2 16.5 73.4 16.2 73.4ZM10.8 72.3H15.7V67.4H10.8V72.3ZM16.2 65.1H10.2C9.89998 65.1 9.59998 64.8 9.59998 64.5V58.5C9.59998 58.2 9.89998 57.9 10.2 57.9H16.2C16.5 57.9 16.8 58.2 16.8 58.5V64.5C16.8 64.8 16.5 65.1 16.2 65.1ZM10.8 63.9H15.7V59H10.8V63.9Z" fill="#B4BCC8"/>
<path d="M11.9 68.6H14.6V71.2H11.9V68.6Z" fill="#F15C22"/>
<path d="M16.2 81.8H10.2C9.89998 81.8 9.59998 81.5 9.59998 81.2V75.2C9.59998 74.9 9.89998 74.6 10.2 74.6H16.2C16.5 74.6 16.8 74.9 16.8 75.2V81.2C16.8 81.5 16.6 81.8 16.2 81.8ZM10.8 80.7H15.7V75.8H10.8V80.7ZM24.4 73.4H18.4C18.1 73.4 17.8 73.1 17.8 72.8V66.8C17.8 66.5 18.1 66.2 18.4 66.2H24.4C24.7 66.2 25 66.5 25 66.8V72.8C25 73.2 24.7 73.4 24.4 73.4ZM19 72.3H23.9V67.4H19V72.3Z" fill="#B4BCC8"/>
<path d="M11.9 76.9H14.6V79.6H11.9V76.9Z" fill="#F15C22"/>
<path d="M24.4 90.2H18.4C18.1 90.2 17.8 89.9 17.8 89.6V83.6C17.8 83.3 18.1 83 18.4 83H24.4C24.7 83 25 83.3 25 83.6V89.6C25 89.9 24.7 90.2 24.4 90.2ZM19 89H23.9V84.1H19V89ZM24.4 81.8H18.4C18.1 81.8 17.8 81.5 17.8 81.2V75.2C17.8 74.9 18.1 74.6 18.4 74.6H24.4C24.7 74.6 25 74.9 25 75.2V81.2C25 81.5 24.7 81.8 24.4 81.8ZM19 80.7H23.9V75.8H19V80.7Z" fill="#B4BCC8"/>
<path d="M22.7 85.3H20.1V88H22.7V85.3Z" fill="#F15C22"/>
<path d="M16.2 90.2H10.2C9.89998 90.2 9.59998 89.9 9.59998 89.6V83.6C9.59998 83.3 9.89998 83 10.2 83H16.2C16.5 83 16.8 83.3 16.8 83.6V89.6C16.8 89.9 16.5 90.2 16.2 90.2ZM10.8 89H15.7V84.1H10.8V89ZM81.3 87.2H28.7C28.4 87.2 28.1 86.9 28.1 86.6C28.1 86.3 28.4 86 28.7 86H81.3C81.6 86 81.9 86.3 81.9 86.6C81.9 86.9 81.6 87.2 81.3 87.2ZM65.9 78.8H28.7C28.4 78.8 28.1 78.5 28.1 78.2C28.1 77.9 28.4 77.6 28.7 77.6H65.9C66.2 77.6 66.5 77.9 66.5 78.2C66.5 78.5 66.3 78.8 65.9 78.8ZM78.5 70.5H28.7C28.4 70.5 28.1 70.2 28.1 69.9C28.1 69.6 28.4 69.3 28.7 69.3H78.5C78.8 69.3 79.1 69.6 79.1 69.9C79.1 70.2 78.8 70.5 78.5 70.5ZM71.7 62.1H28.7C28.4 62.1 28.1 61.8 28.1 61.5C28.1 61.2 28.4 60.9 28.7 60.9H71.7C72 60.9 72.3 61.2 72.3 61.5C72.3 61.8 72 62.1 71.7 62.1Z" fill="#B4BCC8"/>
<path d="M82 29.6H9.89999C9.59999 29.6 9.29999 29.3 9.29999 29C9.29999 28.7 9.59999 28.4 9.89999 28.4H82C82.3 28.4 82.6 28.7 82.6 29C82.6 29.3 82.3 29.6 82 29.6Z" fill="#F15C22"/>
<path d="M57.5 42.6H34.4C34.1 42.6 33.8 42.3 33.8 42C33.8 41.7 34.1 41.4 34.4 41.4H57.5C57.8 41.4 58.1 41.7 58.1 42C58.1 42.3 57.8 42.6 57.5 42.6ZM70.1 38.2H21.6C21.3 38.2 21 37.9 21 37.6C21 37.3 21.3 37 21.6 37H70.1C70.4 37 70.7 37.3 70.7 37.6C70.7 37.9 70.4 38.2 70.1 38.2ZM79.6 34.2H12.2C11.9 34.2 11.6 33.9 11.6 33.6C11.6 33.3 11.9 33 12.2 33H79.7C80 33 80.3 33.3 80.3 33.6C80.3 33.9 80 34.2 79.6 34.2Z" fill="#BFCBD6"/>
<path d="M4.69998 0.6H86C88.3 0.6 90.2 2.5 90.2 4.8V13.5H0.599976V4.7C0.599976 2.4 2.39998 0.6 4.69998 0.6Z" fill="#DFE9F2"/>
<path d="M90.2 14H0.6C0.3 14 0 13.8 0 13.5V4.7C0 2.1 2.1 0 4.7 0H86C88.6 0 90.7 2.1 90.7 4.7V13.4C90.7 13.8 90.5 14 90.2 14ZM1.1 12.9H89.6V4.7C89.6 2.7 88 1.1 86 1.1H4.7C2.7 1.1 1.1 2.7 1.1 4.7V12.9Z" fill="#848F99"/>
<path d="M29.5 4.4H81.6C82 4.4 82.4 4.8 82.4 5.2V8.8C82.4 9.2 82 9.6 81.6 9.6H29.5C29.1 9.6 28.7 9.2 28.7 8.8V5.2C28.7 4.8 29 4.4 29.5 4.4Z" fill="white"/>
<path d="M9.2 5.3C10.1 5.3 10.9 6.1 10.9 7C10.9 7.9 10.1 8.7 9.2 8.7C8.3 8.7 7.5 8 7.5 7C7.5 6 8.2 5.3 9.2 5.3Z" fill="#FF6259"/>
<path d="M14.1 5.3C15 5.3 15.8 6.1 15.8 7C15.8 7.9 15 8.7 14.1 8.7C13.2 8.7 12.4 8 12.4 7C12.4 6 13.1 5.3 14.1 5.3Z" fill="#FFBD2D"/>
<path d="M19 5.3C19.9 5.3 20.7 6.1 20.7 7C20.7 7.9 19.9 8.7 19 8.7C18.1 8.7 17.3 8 17.3 7C17.3 6 18.1 5.3 19 5.3Z" fill="#2BCA41"/>
</g>
<defs>
<clipPath id="clip0">
<rect width="90.7" height="120.8" fill="white"/>
</clipPath>
</defs>
</svg>
