<svg width="91" height="122" viewBox="0 0 91 122" fill="none" xmlns="http://www.w3.org/2000/svg">
<g clip-path="url(#clip0)">
<path d="M90.2 13.7V116.3C90.2 118.6 88.3 120.5 86 120.5H4.7C2.4 120.5 0.5 118.6 0.5 116.3V13.7H90.2Z" fill="white"/>
<path d="M4.7 121.1C2.1 121.1 0 119 0 116.4V13.7C0 13.4 0.3 13.1 0.6 13.1H90.2C90.5 13.1 90.8 13.4 90.8 13.7V13.8V116.3C90.8 118.9 88.7 121 86.1 121H4.7V121.1ZM1.1 14.3V116.3C1.1 118.3 2.7 119.9 4.7 119.9H86C88 119.9 89.6 118.3 89.6 116.3V14.3H1.1V14.3Z" fill="#848F99"/>
<path d="M10.2 86H80.5C81.6 86 82.4 86.9 82.4 87.9V92.8C82.4 93.9 81.5 94.7 80.5 94.7H10.2C9.09999 94.7 8.29999 93.8 8.29999 92.8V88C8.29999 86.9 9.19999 86.1 10.2 86Z" fill="white"/>
<path d="M80.5 95.4H10.2C8.80001 95.4 7.70001 94.3 7.70001 92.9V88C7.70001 86.7 8.70001 85.6 10 85.5C10.1 85.5 10.1 85.5 10.2 85.5H80.5C81.9 85.5 83 86.6 83 88V92.9C83 94.2 81.9 95.4 80.5 95.4ZM10.4 86.6C10.3 86.6 10.3 86.6 10.2 86.6C9.50001 86.6 8.80001 87.2 8.80001 88V92.9C8.80001 93.6 9.40001 94.3 10.2 94.3H80.5C81.2 94.3 81.9 93.7 81.9 92.9V88C81.9 87.3 81.3 86.6 80.5 86.6H10.4Z" fill="#BFCBD6"/>
<path d="M10.7 97.9H80C81.3 97.9 82.4 99 82.4 100.3V106.5C82.4 107.8 81.3 108.9 80 108.9H10.7C9.39999 108.9 8.29999 107.8 8.29999 106.5V100.3C8.29999 99 9.39999 97.9 10.7 97.9Z" fill="#F15C22"/>
<path d="M23.5 104.4L24.3 104.7C24.2 105.1 24 105.5 23.7 105.7C23.4 105.9 23 106.1 22.6 106C22.1 106 21.6 105.8 21.2 105.4C20.8 105 20.6 104.4 20.7 103.8C20.7 103.2 20.9 102.6 21.2 102.1C21.6 101.7 22.1 101.5 22.7 101.5C23.2 101.5 23.6 101.7 24 102C24.2 102.2 24.4 102.5 24.4 102.8L23.5 103C23.4 102.6 23 102.3 22.6 102.3C22.3 102.3 22 102.4 21.8 102.6C21.6 102.9 21.5 103.3 21.5 103.7C21.5 104.1 21.6 104.5 21.8 104.9C22 105.1 22.3 105.3 22.6 105.3C22.8 105.3 23 105.2 23.2 105.1C23.4 104.9 23.5 104.6 23.5 104.4Z" fill="white"/>
<path d="M29 106H28.1L27.7 105H26L25.6 106H24.7L26.4 101.7H27.3L29 106ZM27.4 104.3L26.8 102.7L26.2 104.3H27.4Z" fill="white"/>
<path d="M29.5 106V101.7H30.4V105.3H32.5V106H29.5Z" fill="white"/>
<path d="M33.1 106V101.7H34V105.3H36.2V106H33.1Z" fill="white"/>
<path d="M39.3 106V102.4H38V101.7H41.4V102.4H40.2V106H39.3Z" fill="white"/>
<path d="M41.7 103.9C41.7 103.5 41.8 103.1 41.9 102.8C42 102.6 42.1 102.4 42.3 102.2C42.5 102 42.6 101.9 42.9 101.8C43.2 101.7 43.5 101.6 43.8 101.6C44.4 101.6 44.9 101.8 45.3 102.2C46.1 103.2 46.1 104.5 45.3 105.5C44.9 105.9 44.4 106.1 43.8 106.1C43.2 106.1 42.7 105.9 42.3 105.5C41.9 105 41.7 104.4 41.7 103.9ZM42.6 103.9C42.6 104.3 42.7 104.7 42.9 105C43.3 105.5 44.1 105.5 44.5 105.1C44.5 105.1 44.5 105.1 44.6 105C44.8 104.7 45 104.3 44.9 103.9C44.9 103.5 44.8 103.1 44.6 102.8C44.1 102.3 43.4 102.3 42.9 102.8C42.7 103.1 42.6 103.5 42.6 103.9Z" fill="white"/>
<path d="M51.9 106H51L50.6 105H48.9L48.5 106H47.6L49.3 101.7H50.2L51.9 106ZM50.3 104.3L49.7 102.7L49.1 104.3H50.3Z" fill="white"/>
<path d="M55.1 104.4L55.9 104.7C55.8 105.1 55.6 105.5 55.3 105.7C55 105.9 54.6 106.1 54.2 106C53.7 106 53.2 105.8 52.8 105.4C52.4 105 52.2 104.4 52.3 103.8C52.3 103.2 52.5 102.6 52.8 102.1C53.2 101.7 53.7 101.5 54.3 101.5C54.8 101.5 55.2 101.7 55.6 102C55.8 102.2 56 102.5 56 102.8L55.1 103C55 102.6 54.6 102.3 54.2 102.3C53.9 102.3 53.6 102.4 53.4 102.6C53.2 102.9 53.1 103.3 53.1 103.7C53.1 104.1 53.2 104.5 53.4 104.9C53.6 105.1 53.9 105.3 54.2 105.3C54.4 105.3 54.6 105.2 54.8 105.1C54.9 104.9 55 104.6 55.1 104.4Z" fill="white"/>
<path d="M57.6 106V102.4H56.4V101.7H59.8V102.4H58.5V106H57.6Z" fill="white"/>
<path d="M60.3 106V101.7H61.2V106H60.3Z" fill="white"/>
<path d="M61.8 103.9C61.8 103.5 61.9 103.1 62 102.8C62.1 102.6 62.2 102.4 62.4 102.2C62.6 102 62.7 101.9 62.9 101.8C63.2 101.7 63.5 101.6 63.8 101.6C64.4 101.6 64.9 101.8 65.3 102.2C66.1 103.2 66.1 104.5 65.3 105.5C64.9 105.9 64.4 106.1 63.8 106.1C63.2 106.1 62.7 105.9 62.3 105.5C62 105 61.8 104.4 61.8 103.9ZM62.7 103.9C62.7 104.3 62.8 104.7 63 105C63.4 105.5 64.2 105.5 64.6 105.1C64.6 105.1 64.6 105.1 64.7 105C64.9 104.7 65.1 104.3 65 103.9C65 103.5 64.9 103.1 64.7 102.8C64.2 102.3 63.5 102.3 63 102.8C62.8 103.1 62.7 103.5 62.7 103.9Z" fill="white"/>
<path d="M66.7 106V101.7H67.5L69.3 104.6V101.7H70.1V106H69.2L67.5 103.2V106H66.7Z" fill="white"/>
<path d="M81.4 68.4H9.30001C9.00001 68.4 8.70001 68.1 8.70001 67.8C8.70001 67.5 9.00001 67.2 9.30001 67.2H81.4C81.7 67.2 82 67.5 82 67.8C82 68.1 81.7 68.4 81.4 68.4Z" fill="#F15C22"/>
<path d="M61.5 81.3H29.2C28.9 81.3 28.6 81 28.6 80.7C28.6 80.4 28.9 80.1 29.2 80.1H61.4C61.7 80.1 62 80.4 62 80.7C62 81 61.8 81.3 61.5 81.3ZM79.2 77H11.5C11.2 77 10.9 76.7 10.9 76.4C10.9 76.1 11.2 75.8 11.5 75.8H79.2C79.5 75.8 79.8 76.1 79.8 76.4C79.8 76.7 79.5 77 79.2 77ZM79.1 73H11.6C11.3 73 11 72.7 11 72.4C11 72.1 11.3 71.8 11.6 71.8H79.1C79.4 71.8 79.7 72.1 79.7 72.4C79.7 72.7 79.4 73 79.1 73Z" fill="#BFCBD6"/>
<path d="M45.4 60.3C35.6 60.3 27.6 52.3 27.6 42.5C27.6 32.7 35.6 24.7 45.4 24.7C55.2 24.7 63.2 32.7 63.2 42.5C63.2 52.3 55.2 60.3 45.4 60.3ZM45.4 25.8C36.2 25.8 28.7 33.3 28.7 42.5C28.7 51.7 36.2 59.2 45.4 59.2C54.6 59.2 62 51.7 62 42.5C62 33.3 54.6 25.8 45.4 25.8ZM43.3 48C43.2 48 43 47.9 42.9 47.8L36.9 41.8C36.7 41.6 36.7 41.2 36.9 41C37.1 40.8 37.5 40.8 37.7 41L43.3 46.6L53 37C53.2 36.8 53.6 36.8 53.8 37C54 37.2 54 37.6 53.8 37.8L43.7 47.9C43.6 48 43.4 48 43.3 48Z" fill="#F15C22"/>
<path d="M4.69998 0.6H86C88.3 0.6 90.2 2.5 90.2 4.8V13.5H0.599976V4.7C0.599976 2.4 2.39998 0.6 4.69998 0.6Z" fill="#DFE9F2"/>
<path d="M90.2 14H0.6C0.3 14 0 13.8 0 13.5V4.7C0 2.1 2.1 0 4.7 0H86C88.6 0 90.7 2.1 90.7 4.7V13.4C90.7 13.8 90.5 14 90.2 14ZM1.1 12.9H89.6V4.7C89.6 2.7 88 1.1 86 1.1H4.7C2.7 1.1 1.1 2.7 1.1 4.7V12.9Z" fill="#848F99"/>
<path d="M29.5 4.4H81.6C82 4.4 82.4 4.8 82.4 5.2V8.8C82.4 9.2 82 9.6 81.6 9.6H29.5C29.1 9.6 28.7 9.2 28.7 8.8V5.2C28.7 4.8 29 4.4 29.5 4.4Z" fill="white"/>
<path d="M9.2 5.3C10.1 5.3 10.9 6.1 10.9 7C10.9 7.9 10.1 8.7 9.2 8.7C8.3 8.7 7.5 8 7.5 7C7.5 6 8.2 5.3 9.2 5.3Z" fill="#FF6259"/>
<path d="M14.1 5.3C15 5.3 15.8 6.1 15.8 7C15.8 7.9 15 8.7 14.1 8.7C13.2 8.7 12.4 8 12.4 7C12.4 6 13.1 5.3 14.1 5.3Z" fill="#FFBD2D"/>
<path d="M19 5.3C19.9 5.3 20.7 6.1 20.7 7C20.7 7.9 19.9 8.7 19 8.7C18.1 8.7 17.3 8 17.3 7C17.3 6 18.1 5.3 19 5.3Z" fill="#2BCA41"/>
</g>
<defs>
<clipPath id="clip0">
<rect width="90.7" height="121.1" fill="white"/>
</clipPath>
</defs>
</svg>
