<svg width="38" height="38" viewBox="0 0 38 38" fill="none" xmlns="http://www.w3.org/2000/svg">
<path d="M33.8 38H4.2C1.9 38 0 36.1 0 33.8V4.2C0 1.9 1.9 0 4.2 0H4.3H33.8C36.1 0 38 1.9 38 4.2V33.8C38 36.1 36.1 38 33.8 38ZM4.1 1.1C2.4 1.2 1.1 2.5 1.1 4.2V33.8C1.1 35.5 2.5 36.9 4.2 36.9H33.8C35.5 36.9 36.9 35.5 36.9 33.8V4.2C36.9 2.5 35.5 1.1 33.8 1.1H4.1C4.2 1.1 4.2 1.1 4.1 1.1Z" fill="#349CEB"/>
<path d="M28.6 13.3L27.3 13.4L28 11.4C28 11.4 25.8 12.2 25.2 12.4C23.7 11.1 21.6 11 19.9 12C18.6 12.8 17.9 14.3 18.1 15.7C15.6 15.4 13.4 14.1 11.8 12.2L11.3 11.6L11 12.2C10.5 13.1 10.3 14.1 10.5 15.2C10.6 15.6 10.7 16 10.9 16.3L10.4 16.1V16.9C10.4 17.8 10.6 18.6 11.1 19.3C11.3 19.5 11.4 19.8 11.6 20H11.4L11.7 20.9C12 22 12.8 22.9 13.9 23.4C12.9 23.8 12.1 24.1 10.7 24.5L9.5 24.9L10.6 25.5C11.7 26.1 12.9 26.5 14.1 26.8C17.5 27.3 21.2 26.9 23.8 24.6C25.8 22.6 26.8 19.9 26.5 17.1C26.5 16.7 26.6 16.3 26.8 15.9C27.3 15.3 28.6 13.4 28.6 13.4V13.3ZM25.8 15.1C25.4 15.6 25.2 16.3 25.2 17C25.3 19.9 24.6 22.1 22.9 23.6C20.9 25.4 17.7 26.1 14.1 25.5C13.5 25.4 12.8 25.2 12.2 24.9C13.4 24.5 14.5 24 15.6 23.5L17.6 22.6L15.4 22.5C14.4 22.5 13.5 21.9 13 21.1C13.3 21.1 13.6 21 13.8 21L15.9 20.4L13.8 19.9C13 19.7 12.3 19.2 11.9 18.6C11.7 18.3 11.6 18 11.5 17.7C11.8 17.8 12.1 17.8 12.3 17.8L14.2 18L12.7 16.8C11.6 16 11.2 14.7 11.5 13.4C13.6 15.5 16.4 16.7 19.4 16.8C19.4 16.5 19.3 16.1 19.3 15.8C18.9 14.6 19.4 13.3 20.4 12.7C21.7 11.9 23.3 12 24.4 13C24.6 13.2 25 13.3 25.3 13.2C25.6 13.1 25.8 13.1 26.1 13L25.6 14.4H26.2L25.8 15.1Z" fill="#349CEB"/>
</svg>
