<svg width="38" height="38" viewBox="0 0 38 38" fill="none" xmlns="http://www.w3.org/2000/svg">
<path d="M33.8 38H4.2C1.9 38 0 36.1 0 33.8V4.2C0 1.9 1.9 0 4.2 0H4.3H33.8C36.1 0 38 1.9 38 4.2V33.8C38 36.1 36.1 38 33.8 38ZM4.1 1.1C2.4 1.2 1.1 2.5 1.1 4.2V33.8C1.1 35.5 2.5 36.9 4.2 36.9H33.8C35.5 36.9 36.9 35.5 36.9 33.8V4.2C36.9 2.5 35.5 1.1 33.8 1.1H4.1C4.2 1.1 4.2 1.1 4.1 1.1Z" fill="#50ABF1"/>
<path d="M17 28.5H16L15.6 27.4H13.7L13.3 28.5H12.3L14.1 23.9H15.1L17 28.5ZM15.3 26.6L14.7 24.9L14 26.6H15.3Z" fill="#50ABF1"/>
<path d="M17.5 23.8H19.2C19.5 23.8 19.8 23.8 20.1 23.9C20.4 24 20.6 24.1 20.8 24.3C21 24.5 21.2 24.8 21.2 25.1C21.3 25.5 21.4 25.8 21.3 26.2C21.3 26.5 21.3 26.9 21.2 27.2C21.1 27.5 20.9 27.8 20.7 28C20.5 28.2 20.3 28.3 20 28.4C19.7 28.5 19.5 28.5 19.2 28.5H17.4L17.5 23.8ZM18.4 24.6V27.7H19.1C19.3 27.7 19.5 27.7 19.7 27.7C19.8 27.7 20 27.6 20.1 27.5C20.2 27.4 20.3 27.2 20.3 27C20.4 26.7 20.4 26.4 20.4 26.1C20.4 25.8 20.4 25.5 20.3 25.3C20.2 25.1 20.2 25 20 24.8C19.9 24.7 19.7 24.6 19.6 24.6C19.3 24.6 19.1 24.6 18.8 24.6H18.4Z" fill="#50ABF1"/>
<path d="M21.9 27L22.8 26.9C22.8 27.2 22.9 27.4 23.1 27.6C23.3 27.8 23.5 27.8 23.8 27.8C24 27.8 24.3 27.8 24.5 27.6C24.6 27.5 24.7 27.3 24.7 27.1C24.7 27 24.7 26.9 24.6 26.8C24.5 26.7 24.4 26.6 24.3 26.6L23.5 26.4C23.1 26.3 22.8 26.2 22.4 25.9C21.9 25.5 21.8 24.8 22.2 24.3C22.3 24.1 22.5 23.9 22.8 23.8C23.1 23.7 23.4 23.6 23.7 23.6C24.2 23.6 24.6 23.7 25 24C25.3 24.3 25.5 24.6 25.5 25H24.6C24.6 24.8 24.5 24.6 24.3 24.5C24.1 24.4 23.9 24.3 23.7 24.3C23.5 24.3 23.2 24.3 23.1 24.5C23 24.7 23 24.8 23 25C23 25.1 23.1 25.2 23.1 25.3C23.4 25.5 23.7 25.6 24 25.6C24.3 25.7 24.7 25.8 25 25.9C25.2 26 25.4 26.2 25.5 26.4C25.6 26.6 25.7 26.9 25.7 27.1C25.7 27.4 25.6 27.6 25.5 27.9C25.3 28.1 25.1 28.3 24.9 28.4C24.6 28.5 24.2 28.6 23.9 28.6C23.4 28.6 22.9 28.5 22.5 28.2C22.1 27.8 21.9 27.4 21.9 27Z" fill="#50ABF1"/>
<path d="M26.3 11H25.3L25.8 9.4C25.8 9.4 24.1 10 23.7 10.1C22.6 9.1 21 9 19.7 9.8C18.7 10.4 18.2 11.5 18.4 12.7C16.5 12.4 14.8 11.5 13.6 10L13.2 9.5L12.9 10.1C12.5 10.8 12.4 11.6 12.5 12.4C12.6 12.7 12.7 13 12.8 13.3L12.4 13.2V13.8C12.4 14.5 12.6 15.1 12.9 15.6C13 15.8 13.2 15.9 13.3 16.1H13.1L13.3 16.8C13.6 17.6 14.2 18.3 15 18.7C14.2 19 13.6 19.2 12.6 19.6L11.7 19.9L12.6 20.4C13.4 20.9 14.3 21.2 15.3 21.4C17.9 21.8 20.8 21.5 22.7 19.7C24.2 18.2 25 16.1 24.8 13.9C24.8 13.6 24.9 13.3 25.1 13L26.3 11ZM24.2 12.4C23.9 12.8 23.7 13.3 23.8 13.9C24 15.8 23.4 17.7 22 19.1C20.5 20.5 18 21 15.3 20.6C14.8 20.5 14.3 20.4 13.9 20.2C14.8 19.9 15.7 19.5 16.5 19.1L18 18.4L16.3 18.3C15.5 18.3 14.9 17.9 14.4 17.2C14.6 17.2 14.8 17.1 15 17.1L16.6 16.7L15 16.3C14.4 16.2 13.9 15.8 13.5 15.3C13.4 15.1 13.3 14.9 13.2 14.6C13.4 14.7 13.6 14.7 13.8 14.7L15.3 14.8L14.1 13.9C13.3 13.3 12.9 12.3 13.2 11.3C14.8 12.9 16.9 13.9 19.2 13.9C19.2 13.7 19.2 13.4 19.1 13.2C18.8 12.3 19.2 11.3 20 10.8C20.9 10.2 22.2 10.3 23 11C23.2 11.2 23.5 11.3 23.7 11.2C23.9 11.1 24.1 11.1 24.3 11L24 12H24.5L24.2 12.4Z" fill="#50ABF1"/>
</svg>
