<svg width="91" height="121" viewBox="0 0 91 121" fill="none" xmlns="http://www.w3.org/2000/svg">
<g clip-path="url(#clip0)">
<path d="M90.2 13.5V116.1C90.2 118.4 88.3 120.3 86 120.3H4.7C2.4 120.3 0.5 118.4 0.5 116.1V13.5H90.2Z" fill="white"/>
<path d="M4.7 120.8C2.1 120.8 0 118.7 0 116.1V13.5C0 13.2 0.3 12.9 0.6 12.9H90.2C90.5 12.9 90.8 13.2 90.8 13.5V13.6V116.1C90.8 118.7 88.7 120.8 86.1 120.8H4.7ZM1.1 14V116C1.1 118 2.7 119.6 4.7 119.6H86C88 119.6 89.6 118 89.6 116V14H1.1Z" fill="#848F99"/>
<path d="M4.69998 0.6H86C88.3 0.6 90.2 2.5 90.2 4.8V13.5H0.599976V4.7C0.599976 2.4 2.39998 0.6 4.69998 0.6Z" fill="#DFE9F2"/>
<path d="M90.2 14H0.6C0.3 14 0 13.8 0 13.5V4.7C0 2.1 2.1 0 4.7 0H86C88.6 0 90.7 2.1 90.7 4.7V13.4C90.7 13.8 90.5 14 90.2 14ZM1.1 12.9H89.6V4.7C89.6 2.7 88 1.1 86 1.1H4.7C2.7 1.1 1.1 2.7 1.1 4.7V12.9Z" fill="#848F99"/>
<path d="M29.5 4.4H81.6C82 4.4 82.4 4.8 82.4 5.2V8.8C82.4 9.2 82 9.6 81.6 9.6H29.5C29.1 9.6 28.7 9.2 28.7 8.8V5.2C28.7 4.8 29 4.4 29.5 4.4Z" fill="white"/>
<path d="M9.2 5.3C10.1 5.3 10.9 6.1 10.9 7C10.9 7.9 10.1 8.7 9.2 8.7C8.3 8.7 7.5 8 7.5 7C7.5 6 8.2 5.3 9.2 5.3Z" fill="#FF6259"/>
<path d="M14.1 5.3C15 5.3 15.8 6.1 15.8 7C15.8 7.9 15 8.7 14.1 8.7C13.2 8.7 12.4 8 12.4 7C12.4 6 13.1 5.3 14.1 5.3Z" fill="#FFBD2D"/>
<path d="M19 5.3C19.9 5.3 20.7 6.1 20.7 7C20.7 7.9 19.9 8.7 19 8.7C18.1 8.7 17.3 8 17.3 7C17.3 6 18.1 5.3 19 5.3Z" fill="#2BCA41"/>
<path d="M10.7 90.8H80C81.3 90.8 82.4 91.9 82.4 93.2V99.4C82.4 100.7 81.3 101.8 80 101.8H10.7C9.39999 101.8 8.29999 100.7 8.29999 99.4V93.2C8.29999 91.9 9.39999 90.8 10.7 90.8Z" fill="#F15C22"/>
<path d="M32.1 94.1H34C34.3 94.1 34.6 94.1 34.8 94.1C35 94.1 35.1 94.2 35.3 94.3C35.4 94.4 35.6 94.5 35.7 94.7C35.8 94.9 35.8 95.1 35.8 95.2C35.8 95.6 35.5 96 35.1 96.2C35.4 96.3 35.6 96.4 35.8 96.6C36 96.8 36 97.1 36 97.3C36 97.5 35.9 97.7 35.9 97.9C35.8 98.1 35.7 98.3 35.5 98.4C35.3 98.5 35.1 98.6 34.9 98.6C34.7 98.6 34.4 98.6 33.8 98.6H32.2V94L32.1 94.1ZM33.1 94.9V96H33.7H34.4C34.5 96 34.7 95.9 34.8 95.8C34.9 95.7 34.9 95.6 34.9 95.4C34.9 95.3 34.9 95.1 34.8 95C34.7 94.9 34.6 94.8 34.4 94.8H33.6L33.1 94.9ZM33.1 96.8V98H34C34.2 98 34.4 98 34.6 98C34.7 98 34.9 97.9 35 97.8C35.1 97.7 35.1 97.5 35.1 97.4C35.1 97.3 35.1 97.1 35 97C34.9 96.9 34.8 96.8 34.7 96.8C34.4 96.7 34.1 96.7 33.8 96.7L33.1 96.8Z" fill="white"/>
<path d="M38.1 98.8V96.8L36.4 94.1H37.5L38.6 96L39.7 94.1H40.8L39.1 96.9V98.8H38.1Z" fill="white"/>
<path d="M43 98.8V94.1H43.9L45.9 97.3V94.1H46.7V98.8H45.8L43.9 95.7V98.8H43Z" fill="white"/>
<path d="M47.6 96.5C47.6 96.1 47.7 95.7 47.8 95.3C47.9 95.1 48.1 94.8 48.2 94.7C48.4 94.5 48.6 94.4 48.8 94.3C49.1 94.2 49.5 94.1 49.8 94.1C50.4 94.1 51 94.3 51.5 94.7C52.3 95.8 52.3 97.2 51.5 98.3C51.1 98.7 50.5 99 49.8 98.9C49.2 98.9 48.6 98.7 48.1 98.3C47.7 97.8 47.5 97.2 47.6 96.5ZM48.6 96.5C48.6 96.9 48.7 97.4 49 97.7C49.5 98.2 50.3 98.3 50.8 97.8C50.8 97.8 50.8 97.8 50.9 97.7C51.2 97.3 51.3 96.9 51.3 96.5C51.3 96.1 51.2 95.6 50.9 95.3C50.7 95 50.3 94.9 49.9 94.9C49.5 94.9 49.2 95 48.9 95.3C48.6 95.6 48.5 96.1 48.6 96.5Z" fill="white"/>
<path d="M53.5 98.8L52.4 94.1H53.4L54.1 97.4L55 94.1H56.1L56.9 97.4L57.6 94.1H58.6L57.5 98.8H56.4L55.5 95.3L54.6 98.8H53.5Z" fill="white"/>
<path d="M78.9 85.8H11.8C10.3 85.8 9 84.6 9 83V52.3C9 50.7 10.3 49.5 11.8 49.5C11.9 49.5 12 49.5 12 49.6H78.9C80.5 49.6 81.7 50.9 81.7 52.4V83C81.8 84.6 80.5 85.8 78.9 85.8ZM11.6 50.6C10.8 50.7 10.1 51.4 10.1 52.3V83C10.1 83.9 10.9 84.7 11.8 84.7H78.9C79.8 84.7 80.6 83.9 80.6 83V52.3C80.6 51.4 79.8 50.6 78.9 50.6H11.8C11.7 50.6 11.7 50.6 11.6 50.6ZM42.3 74.4C42.2 74.4 42.2 74.4 42.1 74.4C41.9 74.3 41.8 74.1 41.8 73.9V61.6C41.8 61.4 41.9 61.2 42.1 61.1C42.3 61 42.6 61.1 42.7 61.2L48.8 67.3C48.9 67.4 49 67.5 49 67.7C49 67.9 48.9 68 48.8 68.1L42.7 74.2C42.6 74.3 42.5 74.4 42.3 74.4ZM42.9 62.9V72.4L47.7 67.6L42.9 62.9ZM56.6 36.6H9.6C9.3 36.6 9 36.3 9 36C9 35.7 9.3 35.4 9.6 35.4H56.7C57 35.4 57.3 35.7 57.3 36C57.3 36.3 57 36.6 56.6 36.6ZM80.7 32.4H9.6C9.3 32.4 9 32.1 9 31.8C9 31.5 9.3 31.2 9.6 31.2H80.7C81 31.2 81.3 31.5 81.3 31.8C81.3 32.1 81 32.4 80.7 32.4Z" fill="#F15C22"/>
<path d="M46.2 45.1H9.50002C9.20002 45.1 8.90002 44.8 8.90002 44.5C8.90002 44.2 9.20002 43.9 9.50002 43.9H46.2C46.5 43.9 46.8 44.2 46.8 44.5C46.8 44.8 46.6 45.1 46.2 45.1ZM73.2 40.9H9.50002C9.20002 40.9 8.90002 40.6 8.90002 40.3C8.90002 40 9.20002 39.7 9.50002 39.7H73.2C73.5 39.7 73.8 40 73.8 40.3C73.8 40.6 73.5 40.9 73.2 40.9Z" fill="#BFCBD6"/>
</g>
<defs>
<clipPath id="clip0">
<rect width="90.7" height="120.8" fill="white"/>
</clipPath>
</defs>
</svg>
