<svg width="51" height="51" viewBox="0 0 51 51" fill="none" xmlns="http://www.w3.org/2000/svg">
<path d="M25.1 50.2C24 50.2 22.9 49.8 22.1 49L1.2 28.1C-0.4 26.5 -0.4 23.8 1.2 22.1L22.1 1.2C23.7 -0.4 26.4 -0.4 28.1 1.2L49 22.1C50.6 23.7 50.6 26.4 49 28.1L28.1 49C27.3 49.8 26.2 50.2 25.1 50.2ZM25.1 1.1C24.3 1.1 23.5 1.4 22.9 2L2 22.9C0.8 24.1 0.8 26.1 2 27.3L22.9 48.2C24.1 49.4 26.1 49.4 27.3 48.2L48.2 27.3C49.4 26.1 49.4 24.1 48.2 22.9L27.3 2C26.7 1.4 25.9 1.1 25.1 1.1Z" fill="#636E84"/>
<path d="M32.4 16.5H17.9C16.8 16.5 15.8 17.4 15.8 18.6V31.6C15.8 32.7 16.7 33.7 17.9 33.7H32.4C33.5 33.7 34.5 32.8 34.5 31.6V18.6C34.4 17.5 33.5 16.5 32.4 16.5ZM32.4 32.5H17.9C17.4 32.5 17 32.1 17 31.6V31.3V26.9V18.5C17 18 17.4 17.6 17.9 17.6H32.4C32.9 17.6 33.3 18 33.3 18.5V31.5C33.2 32.1 32.8 32.5 32.4 32.5Z" fill="#636E84"/>
<path d="M17 26.9V28.4H26.2V28.3C26.6 27.2 27.8 26.7 28.9 27C29.5 27.2 30 27.7 30.2 28.3V28.4H33.2V29.6H30.2V29.7C29.8 30.8 28.6 31.3 27.5 31C26.9 30.8 26.4 30.3 26.2 29.7V29.6H17V31.3V26.9ZM29.1 29C29.1 29.5 28.7 29.9 28.2 29.9C27.7 29.9 27.3 29.5 27.3 29C27.3 28.5 27.7 28.1 28.2 28.1C28.7 28.1 29.1 28.5 29.1 29Z" fill="#F15C22"/>
<path d="M22.9 20V26.3L28 23.2L22.9 20ZM24.1 22.2L25.7 23.2L24.1 24.2V22.2Z" fill="#F15C22"/>
</svg>
