<svg width="38" height="38" viewBox="0 0 38 38" fill="none" xmlns="http://www.w3.org/2000/svg">
<path d="M33.8 38H4.2C1.9 38 0 36.1 0 33.8V4.2C0 1.9 1.9 0 4.2 0H4.3H33.8C36.1 0 38 1.9 38 4.2V33.8C38 36.1 36.1 38 33.8 38ZM4.1 1.1C2.4 1.2 1.1 2.5 1.1 4.2V33.8C1.1 35.5 2.5 36.9 4.2 36.9H33.8C35.5 36.9 36.9 35.5 36.9 33.8V4.2C36.9 2.5 35.5 1.1 33.8 1.1H4.1C4.2 1.1 4.2 1.1 4.1 1.1Z" fill="#ED2D2D"/>
<path d="M22.2 18.1L17.6 15.6C17.2 15.4 16.7 15.5 16.5 15.9C16.4 16 16.4 16.2 16.4 16.3V21.3C16.4 21.8 16.8 22.1 17.2 22.1C17.3 22.1 17.5 22.1 17.6 22L22.2 19.5C22.6 19.3 22.8 18.8 22.5 18.4C22.4 18.3 22.3 18.2 22.2 18.1ZM17.6 20.6V16.9L21 18.8L17.6 20.6Z" fill="#ED2D2D"/>
<path d="M29.2 14.9C29.1 14 28.8 13.2 28.3 12.5C27.7 11.9 26.9 11.5 26.1 11.5H26C23.3 11.3 19.1 11.3 19.1 11.3C19.1 11.3 14.9 11.3 12.2 11.5H12.1C11.3 11.6 10.5 11.9 9.89999 12.6C9.39999 13.3 9.09999 14.1 8.99999 15C8.99999 15.1 8.89999 16.7 8.89999 18.4V19.9C8.89999 21.5 8.99999 23.2 8.99999 23.3C9.09999 24.2 9.39999 25 9.89999 25.7C10.5 26.3 11.3 26.7 12.2 26.7H12.4C14 26.8 18.9 26.9 19.1 26.9C19.1 26.9 23.3 26.9 26 26.7C26.8 26.7 27.6 26.3 28.2 25.7C28.7 25 29 24.2 29.1 23.3C29.1 23.2 29.2 21.6 29.2 19.9V18.4C29.3 16.6 29.1 14.9 29.2 14.9ZM28.1 19.8C28.1 21.3 28 22.9 28 23C27.9 23.6 27.7 24.2 27.4 24.7C27 25.1 26.5 25.3 26 25.4H25.9C23.3 25.6 19.3 25.6 19.1 25.6C18.9 25.6 14 25.5 12.5 25.4H12.3C11.7 25.4 11.2 25.2 10.8 24.8C10.4 24.3 10.2 23.7 10.2 23.1C10.2 23 10.1 21.4 10.1 19.8V18.3C10.1 16.8 10.2 15.2 10.2 15.1C10.3 14.5 10.5 13.9 10.8 13.4C11.2 13 11.7 12.7 12.3 12.7H12.4C15.1 12.5 19.1 12.5 19.2 12.5C19.3 12.5 23.3 12.5 26 12.7H26.1C26.7 12.7 27.2 13 27.6 13.4C28 13.9 28.2 14.5 28.2 15.2C28.2 15.3 28.3 16.9 28.3 18.5L28.1 19.8Z" fill="#ED2D2D"/>
</svg>
