<svg width="38" height="38" viewBox="0 0 38 38" fill="none" xmlns="http://www.w3.org/2000/svg">
<path d="M33.8 38H4.2C1.9 38 0 36.1 0 33.8V4.2C0 1.9 1.9 0 4.2 0H4.3H33.8C36.1 0 38 1.9 38 4.2V33.8C38 36.1 36.1 38 33.8 38ZM4.1 1.1C2.4 1.2 1.1 2.5 1.1 4.2V33.8C1.1 35.5 2.5 36.9 4.2 36.9H33.8C35.5 36.9 36.9 35.5 36.9 33.8V4.2C36.9 2.5 35.5 1.1 33.8 1.1H4.1C4.2 1.1 4.2 1.1 4.1 1.1Z" fill="#FF3636"/>
<path d="M17 29.4H16L15.6 28.3H13.7L13.3 29.4H12.3L14.1 24.8H15.1L17 29.4ZM15.3 27.6L14.7 25.9L14 27.6H15.3Z" fill="#FF3636"/>
<path d="M17.5 24.8H19.2C19.5 24.8 19.8 24.8 20.1 24.9C20.4 25 20.6 25.1 20.8 25.3C21 25.5 21.2 25.8 21.2 26.1C21.3 26.5 21.4 26.8 21.3 27.2C21.3 27.5 21.3 27.9 21.2 28.2C21.1 28.5 20.9 28.8 20.7 29C20.5 29.2 20.3 29.3 20 29.4C19.7 29.5 19.5 29.5 19.2 29.5H17.4L17.5 24.8ZM18.4 25.5V28.6H19.1C19.3 28.6 19.5 28.6 19.7 28.6C19.8 28.6 20 28.5 20.1 28.4C20.2 28.3 20.3 28.1 20.3 27.9C20.4 27.6 20.4 27.3 20.4 27C20.4 26.7 20.4 26.4 20.3 26.2C20.2 26 20.2 25.9 20 25.7C19.9 25.6 19.7 25.5 19.6 25.5C19.3 25.5 19.1 25.5 18.8 25.5H18.4Z" fill="#FF3636"/>
<path d="M21.9 27.9L22.8 27.8C22.8 28.1 22.9 28.3 23.1 28.5C23.3 28.7 23.5 28.7 23.8 28.7C24 28.7 24.3 28.7 24.5 28.5C24.6 28.4 24.7 28.2 24.7 28C24.7 27.9 24.7 27.8 24.6 27.7C24.5 27.6 24.4 27.5 24.3 27.5L23.5 27.3C23.1 27.2 22.8 27.1 22.4 26.8C21.9 26.4 21.8 25.7 22.2 25.2C22.3 25 22.5 24.8 22.8 24.7C23.1 24.6 23.4 24.5 23.7 24.5C24.2 24.5 24.6 24.6 25 24.9C25.3 25.2 25.5 25.5 25.5 25.9H24.6C24.6 25.7 24.5 25.5 24.3 25.4C24.1 25.3 23.9 25.2 23.7 25.2C23.5 25.2 23.2 25.2 23.1 25.4C23 25.6 23 25.7 23 25.8C23 25.9 23.1 26 23.1 26.1C23.4 26.3 23.7 26.4 24 26.4C24.3 26.5 24.7 26.6 25 26.7C25.2 26.8 25.4 27 25.5 27.2C25.6 27.4 25.7 27.7 25.7 27.9C25.7 28.2 25.6 28.4 25.5 28.7C25.3 28.9 25.1 29.1 24.9 29.2C24.6 29.3 24.2 29.4 23.9 29.4C23.4 29.4 22.9 29.3 22.5 29C22.1 28.7 21.9 28.3 21.9 27.9Z" fill="#FF3636"/>
<path d="M21.8 14.7L17.7 12.5C17.3 12.3 16.9 12.4 16.7 12.8C16.6 12.9 16.6 13 16.6 13.2V17.6C16.6 18 16.9 18.4 17.3 18.4C17.4 18.4 17.6 18.4 17.7 18.3L21.8 16.1C22.2 15.9 22.3 15.4 22.1 15.1C22.1 14.9 22 14.8 21.8 14.7ZM17.7 17V13.7L20.8 15.4L17.7 17Z" fill="#FF3636"/>
<path d="M28.1 11.8C28 11 27.7 10.3 27.3 9.7C26.8 9.1 26.1 8.8 25.3 8.8H25.2C22.7 8.5 19 8.5 19 8.5C19 8.5 15.3 8.5 12.8 8.7H12.7C11.9 8.8 11.2 9.1 10.7 9.7C10.3 10.3 9.99999 11 9.89999 11.8C9.89999 11.9 9.79999 13.3 9.79999 14.8V16.2C9.79999 17.7 9.89999 19.2 9.89999 19.2C9.99999 20 10.3 20.7 10.7 21.3C11.2 21.9 12 22.2 12.8 22.2H13C14.4 22.3 18.9 22.4 19 22.4C19 22.4 22.7 22.4 25.2 22.2H25.3C26.1 22.2 26.8 21.8 27.3 21.3C27.7 20.7 28 20 28.1 19.2C28.1 19.1 28.2 17.7 28.2 16.2V14.8C28.2 13.3 28.1 11.8 28.1 11.8ZM27.2 16.2C27.2 17.6 27.1 19 27.1 19.1C27 19.6 26.9 20.1 26.6 20.6C26.3 21 25.8 21.2 25.3 21.2H25.2C22.8 21.4 19.3 21.4 19.1 21.4C18.9 21.4 14.6 21.3 13.2 21.2H13C12.5 21.2 12 21 11.6 20.6C11.3 20.2 11.1 19.6 11.1 19.1C11.1 19 11 17.6 11 16.2V14.8C11 13.4 11.1 12 11.1 11.9C11.2 11.4 11.3 10.9 11.6 10.4C11.9 10 12.4 9.8 12.9 9.8H13C15.4 9.6 19 9.6 19.1 9.6C19.2 9.6 22.8 9.6 25.2 9.8H25.3C25.8 9.8 26.3 10 26.6 10.4C26.9 10.9 27.1 11.4 27.1 11.9C27.1 12 27.2 13.4 27.2 14.8V16.2Z" fill="#FF3636"/>
</svg>
