<svg width="38" height="38" viewBox="0 0 38 38" fill="none" xmlns="http://www.w3.org/2000/svg">
<path d="M4.20001 0.599998H33.8C35.8 0.599998 37.4 2.2 37.4 4.2V33.8C37.4 35.8 35.8 37.4 33.8 37.4H4.20001C2.20001 37.4 0.600006 35.8 0.600006 33.8V4.2C0.600006 2.2 2.20001 0.599998 4.20001 0.599998Z" stroke="#636E84" stroke-width="1.13" stroke-linecap="round" stroke-linejoin="round"/>
<path d="M23.9 10.4H9.50002C8.80002 10.4 8.30002 10.9 8.30002 11.6V20.2C8.30002 20.9 8.80002 21.4 9.50002 21.4H10.4V24.6C10.4 24.9 10.6 25.1 10.9 25.1C11 25.1 11.1 25 11.2 25L14.8 21.4H15.5C15.8 21.5 16 21.3 16.1 21C16.2 20.7 16 20.5 15.7 20.4C15.6 20.4 15.6 20.4 15.5 20.4H14.5C14.4 20.4 14.3 20.5 14.2 20.5L11.3 23.4V20.9C11.3 20.6 11.1 20.4 10.8 20.4H9.50002C9.40002 20.4 9.30002 20.3 9.30002 20.2V11.6C9.30002 11.5 9.40002 11.4 9.50002 11.4H23.9C24 11.4 24.1 11.5 24.1 11.6V14.9C24 15.2 24.2 15.4 24.5 15.5C24.8 15.6 25 15.4 25.1 15.1C25.1 15 25.1 15 25.1 14.9V11.6C25 11 24.5 10.4 23.9 10.4Z" fill="#636E84"/>
<path d="M28.5 16.6H18.4C17.7 16.6 17.2 17.1 17.2 17.8V23.7C17.2 24.4 17.7 24.9 18.4 24.9H24.7L27.2 27.4C27.4 27.6 27.7 27.6 27.9 27.4C28 27.3 28 27.2 28 27.1V24.9H28.4C29.1 24.9 29.6 24.4 29.6 23.7V17.8C29.7 17.1 29.2 16.6 28.5 16.6ZM28.7 23.7C28.7 23.8 28.6 23.9 28.5 23.9H27.6C27.3 23.9 27.1 24.1 27.1 24.4V25.9L25.3 24C25.2 23.9 25.1 23.9 25 23.9H18.5C18.4 23.9 18.3 23.8 18.3 23.7V17.8C18.3 17.7 18.4 17.6 18.5 17.6H28.5C28.6 17.6 28.7 17.7 28.7 17.8V23.7Z" fill="#636E84"/>
<path d="M23.5 20.2C23.2 20.2 23 20.4 23 20.7C23 21 23.2 21.2 23.5 21.2C23.8 21.2 24 21 24 20.7C24 20.5 23.8 20.2 23.5 20.2Z" fill="#636E84"/>
<path d="M21.3 13.8H12.1C11.8 13.7 11.6 13.9 11.5 14.2C11.4 14.5 11.6 14.7 11.9 14.8C12 14.8 12 14.8 12.1 14.8H21.3C21.6 14.7 21.8 14.5 21.7 14.2C21.6 14 21.5 13.8 21.3 13.8Z" fill="#636E84"/>
<path d="M15.6 17.1H12.1C11.8 17 11.6 17.2 11.5 17.5C11.4 17.8 11.6 18 11.9 18.1C12 18.1 12 18.1 12.1 18.1H15.6C15.9 18 16.1 17.8 16 17.5C15.9 17.3 15.8 17.1 15.6 17.1Z" fill="#636E84"/>
<path d="M21.1 20.2C20.8 20.2 20.6 20.4 20.6 20.7C20.6 21 20.8 21.2 21.1 21.2C21.4 21.2 21.6 21 21.6 20.7C21.6 20.5 21.4 20.2 21.1 20.2Z" fill="#636E84"/>
<path d="M25.8 20.2C25.5 20.2 25.3 20.4 25.3 20.7C25.3 21 25.5 21.2 25.8 21.2C26.1 21.2 26.3 21 26.3 20.7C26.3 20.5 26.1 20.2 25.8 20.2Z" fill="#636E84"/>
</svg>
