<svg width="38" height="38" viewBox="0 0 38 38" fill="none" xmlns="http://www.w3.org/2000/svg">
<path d="M33.8 38H4.2C1.9 38 0 36.1 0 33.8V4.2C0 1.9 1.9 0 4.2 0H4.3H33.8C36.1 0 38 1.9 38 4.2V33.8C38 36.1 36.1 38 33.8 38ZM4.1 1.1C2.4 1.2 1.1 2.5 1.1 4.2V33.8C1.1 35.5 2.5 36.9 4.2 36.9H33.8C35.5 36.9 36.9 35.5 36.9 33.8V4.2C36.9 2.5 35.5 1.1 33.8 1.1H4.1C4.2 1.1 4.2 1.1 4.1 1.1Z" fill="#F15C22"/>
<path d="M27 10.8H11C10.3 10.8 9.79999 11.4 9.79999 12V23C9.79999 23.7 10.4 24.2 11 24.2H16.3V24.9C16.3 25.6 15.8 26.1 15.1 26.1H13.9C13.8 26.1 13.6 26.2 13.5 26.3C13.4 26.4 13.3 26.5 13.3 26.7C13.3 27 13.6 27.3 13.9 27.3H24C24.3 27.3 24.6 27 24.6 26.7C24.6 26.4 24.3 26.1 24 26.1H22.8C22.1 26.1 21.6 25.6 21.6 24.9V24.2H27C27.7 24.2 28.2 23.6 28.2 23V12C28.2 11.3 27.7 10.8 27 10.8ZM20.9 26.1H17.2C17.4 25.7 17.5 25.3 17.5 24.9V24.2H20.6V24.9C20.6 25.3 20.7 25.8 20.9 26.1ZM27.1 20.9V23L27 23.1H11C10.9 23.1 10.9 23 10.9 23V20.9H27.1ZM10.9 19.9V12C10.9 11.9 11 11.9 11 11.9H27C27.1 11.9 27.1 12 27.1 12V19.9H10.9Z" fill="#F15C22"/>
<path d="M19 22.7C19.3314 22.7 19.6 22.4314 19.6 22.1C19.6 21.7686 19.3314 21.5 19 21.5C18.6686 21.5 18.4 21.7686 18.4 22.1C18.4 22.4314 18.6686 22.7 19 22.7Z" fill="#F15C22"/>
<path d="M19.8 13.7C19.6 13.5 19.2 13.5 19 13.7L16 16.7C15.9 16.8 15.8 16.9 15.8 17.1C15.8 17.2 15.8 17.4 15.9 17.5C16 17.6 16.1 17.7 16.3 17.7C16.3 17.7 16.3 17.7 16.4 17.7C16.5 17.7 16.6 17.7 16.7 17.6L16.8 17.5L19.8 14.5C20 14.3 20 13.9 19.8 13.7Z" fill="#F15C22"/>
<path d="M21.6 15.4C21.4 15.2 21 15.2 20.8 15.4L19.6 16.6C19.4 16.8 19.3 17.1 19.5 17.4C19.6 17.5 19.8 17.6 19.9 17.6C20 17.6 20.1 17.6 20.2 17.5L20.3 17.4L21.5 16.2C21.8 16 21.8 15.6 21.6 15.4Z" fill="#F15C22"/>
</svg>
