<svg width="38" height="38" viewBox="0 0 38 38" fill="none" xmlns="http://www.w3.org/2000/svg">
<path d="M23.6 15.5H25.8C26.3 15.5 26.7 15.9 26.6 16.4V17.4C26.6 17.9 26.3 18.3 25.8 18.3H23.6C23.1 18.3 22.7 17.9 22.8 17.4V17.2H21.9L21.4 18L22 18.2C22.2 18.3 22.4 18.5 22.4 18.7V22C22.4 22.2 22.3 22.4 22.1 22.5L19.7 23.7V25C19.7 25.3 19.4 25.5 19.1 25.5C18.8 25.5 18.6 25.3 18.6 25V23.8L17.4 23.2L17 23.9C16.9 24.1 16.7 24.2 16.5 24.2H15C14.9 24.5 14.6 24.7 14.2 24.7H12C11.5 24.7 11.1 24.3 11.2 23.8V22.8C11.2 22.3 11.5 21.9 12 21.9H14.2C14.7 21.9 15.1 22.3 15 22.8V23H16L16.2 22.6C15.9 22.5 15.7 22.3 15.7 22V18.7C15.7 18.5 15.8 18.3 16.1 18.2L18.4 17.2V15.8C18.4 15.5 18.7 15.3 19 15.3C19.3 15.3 19.5 15.5 19.5 15.8V17.2L20.3 17.5L21 16.3C21.1 16.1 21.3 16 21.5 16H22.8C23 15.8 23.3 15.5 23.6 15.5ZM17.6 18.9L19.1 19.7L20.5 18.9L19 18.2L17.6 18.9ZM21.2 21.8V19.8C18.5 21.3 19.7 21.3 16.9 19.8V21.8C18.7 22.7 19.2 22.8 21.2 21.8ZM12.4 23.7H14V23.2H12.4V23.7ZM25.5 16.7H23.9V17.2H25.5V16.7Z" fill="#F15C22"/>
<path d="M11 10.4H27C28 10.4 28.7 11.2 28.8 12.2V26C28.8 27 28 27.7 27 27.8H11C10 27.8 9.30001 27 9.20001 26V12.1C9.30001 11.1 10 10.4 11 10.4ZM27 11.5H11C10.7 11.5 10.4 11.8 10.4 12.1V13.3H27.6V12.1C27.6 11.8 27.3 11.5 27 11.5ZM27.6 25.9V14.4H10.4V25.9C10.4 26.2 10.7 26.5 11 26.5H27C27.4 26.5 27.6 26.2 27.6 25.9Z" fill="#636E84"/>
<path d="M19 0C29.5 0 38 8.5 38 19C38 29.5 29.5 38 19 38C8.5 38 0 29.5 0 19C0 8.5 8.5 0 19 0ZM31.6 6.4C24.6 -0.6 13.3 -0.6 6.3 6.4C-0.7 13.4 -0.7 24.7 6.3 31.7C13.3 38.7 24.6 38.7 31.6 31.7C35 28.4 36.8 23.8 36.8 19.1C36.9 14.3 35 9.7 31.6 6.4Z" fill="#636E84"/>
</svg>
