<svg width="38" height="38" viewBox="0 0 38 38" fill="none" xmlns="http://www.w3.org/2000/svg">
<path d="M33.8 38H4.2C1.9 38 0 36.1 0 33.8V4.2C0 1.9 1.9 0 4.2 0H4.3H33.8C36.1 0 38 1.9 38 4.2V33.8C38 36.1 36.1 38 33.8 38ZM4.1 1.1C2.4 1.2 1.1 2.5 1.1 4.2V33.8C1.1 35.5 2.5 36.9 4.2 36.9H33.8C35.5 36.9 36.9 35.5 36.9 33.8V4.2C36.9 2.5 35.5 1.1 33.8 1.1H4.1C4.2 1.1 4.2 1.1 4.1 1.1Z" fill="#3B5998"/>
<path d="M17 29.8H16L15.6 28.7H13.7L13.3 29.8H12.3L14.1 25.2H15.1L17 29.8ZM15.3 27.9L14.7 26.2L14 27.9H15.3Z" fill="#3B5998"/>
<path d="M17.5 25.1H19.2C19.5 25.1 19.8 25.1 20.1 25.2C20.4 25.3 20.6 25.4 20.8 25.6C21 25.8 21.2 26.1 21.2 26.4C21.3 26.8 21.4 27.1 21.3 27.5C21.3 27.8 21.3 28.2 21.2 28.5C21.1 28.8 20.9 29.1 20.7 29.3C20.5 29.5 20.3 29.6 20 29.7C19.7 29.8 19.5 29.8 19.2 29.8H17.4L17.5 25.1ZM18.4 25.9V29H19.1C19.3 29 19.5 29 19.7 29C19.8 29 20 28.9 20.1 28.8C20.2 28.7 20.3 28.5 20.3 28.3C20.4 28 20.4 27.7 20.4 27.4C20.4 27.1 20.4 26.8 20.3 26.6C20.2 26.4 20.2 26.3 20 26.1C19.9 26 19.7 25.9 19.6 25.9C19.3 25.9 19.1 25.9 18.8 25.9H18.4Z" fill="#3B5998"/>
<path d="M21.9 28.3L22.8 28.2C22.8 28.5 22.9 28.7 23.1 28.9C23.3 29.1 23.5 29.1 23.8 29.1C24 29.1 24.3 29.1 24.5 28.9C24.6 28.8 24.7 28.6 24.7 28.4C24.7 28.3 24.7 28.2 24.6 28.1C24.5 28 24.4 27.9 24.3 27.9L23.5 27.7C23.1 27.6 22.8 27.5 22.4 27.2C21.9 26.8 21.8 26.1 22.2 25.6C22.3 25.4 22.5 25.2 22.8 25.1C23.1 25 23.4 24.9 23.7 24.9C24.2 24.9 24.6 25 25 25.3C25.3 25.6 25.5 25.9 25.5 26.3H24.6C24.6 26.1 24.5 25.9 24.3 25.8C24.1 25.7 23.9 25.6 23.7 25.6C23.5 25.6 23.2 25.6 23.1 25.8C23 26 23 26.1 23 26.2C23 26.3 23.1 26.4 23.1 26.5C23.4 26.7 23.7 26.8 24 26.8C24.3 26.9 24.7 27 25 27.1C25.2 27.2 25.4 27.4 25.5 27.6C25.6 27.8 25.7 28.1 25.7 28.3C25.7 28.6 25.6 28.8 25.5 29.1C25.3 29.3 25.1 29.5 24.9 29.6C24.6 29.7 24.2 29.8 23.9 29.8C23.4 29.8 22.9 29.7 22.5 29.4C22.1 29.1 21.9 28.7 21.9 28.3Z" fill="#3B5998"/>
<path d="M19.7 22.2H17.4C17 22.2 16.7 21.9 16.7 21.5V16.4H15.4C15 16.4 14.7 16.1 14.7 15.7V13.5C14.7 13.1 15 12.8 15.4 12.8H16.7V11.7C16.7 10.7 17 9.8 17.7 9C18.4 8.3 19.3 8 20.3 8H22C22.4 8 22.7 8.3 22.7 8.7V10.7C22.7 11.1 22.4 11.4 22 11.4H20.8C20.6 11.4 20.5 11.4 20.3 11.5C20.2 11.6 20.2 11.8 20.2 11.9V12.8H22C22.1 12.8 22.2 12.8 22.3 12.9C22.5 13 22.6 13.3 22.7 13.5V15.7C22.7 16.1 22.4 16.4 22 16.4H20.4V21.5C20.4 21.9 20.1 22.2 19.7 22.2ZM17.6 21.4H19.6V16.1C19.6 15.8 19.8 15.6 20.1 15.6H21.9V13.7H20C19.7 13.7 19.5 13.5 19.5 13.2V12C19.4 11.4 19.8 10.8 20.5 10.7C20.6 10.7 20.8 10.7 20.9 10.7H21.9V8.9H20.3C18.9 8.8 17.6 9.9 17.5 11.3C17.5 11.4 17.5 11.6 17.5 11.7V13.2C17.5 13.5 17.3 13.7 17 13.7H15.5V15.6H17C17.3 15.6 17.5 15.8 17.5 16.1L17.6 21.4Z" fill="#3B5998"/>
</svg>
