<svg width="51" height="51" viewBox="0 0 51 51" fill="none" xmlns="http://www.w3.org/2000/svg">
<g clip-path="url(#clip0)">
<path d="M25.1 50.2C24 50.2 22.9 49.8 22.1 49L1.2 28.1C-0.4 26.5 -0.4 23.8 1.2 22.1L22.1 1.2C23.7 -0.4 26.4 -0.4 28.1 1.2L49 22.1C50.6 23.7 50.6 26.4 49 28.1L28.1 49C27.3 49.8 26.2 50.2 25.1 50.2ZM25.1 1.1C24.3 1.1 23.5 1.4 22.9 2L2 22.9C0.8 24.1 0.8 26.1 2 27.3L22.9 48.2C24.1 49.4 26.1 49.4 27.3 48.2L48.2 27.3C49.4 26.1 49.4 24.1 48.2 22.9L27.3 2C26.7 1.4 25.9 1.1 25.1 1.1ZM31.2 34.6C29.5 34.6 28 33.9 26.9 32.7H17.2C16.5 32.7 16 32.1 16 31.5V16.8C16 16.5 16.1 16.2 16.3 16C16.5 15.8 16.8 15.6 17.1 15.6C17.2 15.6 17.2 15.6 17.3 15.6H31.2C31.5 15.6 31.8 15.7 32.1 16C32.3 16.2 32.4 16.5 32.4 16.9V19.2V23C35 23.6 37 25.9 37 28.7C37.1 32 34.5 34.6 31.2 34.6ZM27.7 31.9C28.6 32.9 29.8 33.5 31.2 33.5C33.8 33.5 36 31.4 36 28.7C36 26 33.8 24 31.2 24C31 24 30.7 24 30.5 24.1C29.7 24.2 29 24.5 28.3 25C27.3 25.8 26.7 26.9 26.5 28.2C26.5 28.4 26.5 28.6 26.5 28.8C26.5 29.9 26.9 31 27.7 31.9ZM17.1 19.8V31.6C17.1 31.6 17.1 31.7 17.2 31.7H26.1C25.6 30.8 25.3 29.9 25.3 28.8C25.3 25.9 27.4 23.5 30.2 23C30.6 22.9 30.9 22.9 31.3 22.9V19.8H17.1ZM17.1 18.6H31.3V16.8L31.2 16.2V16.8H17.2V16.9V18.6H17.1ZM30.7 30.6C30.6 30.6 30.4 30.5 30.3 30.4L29.1 29.2C28.9 29 28.9 28.6 29.1 28.4C29.3 28.2 29.7 28.2 29.9 28.4L30.7 29.2L32.6 27.3C32.8 27.1 33.2 27.1 33.4 27.3C33.6 27.5 33.6 27.9 33.4 28.1L31.1 30.4C31 30.6 30.8 30.6 30.7 30.6ZM21.6 26.7H19.2C18.9 26.7 18.6 26.4 18.6 26.1C18.6 25.8 18.9 25.5 19.2 25.5H21.6C21.9 25.5 22.2 25.8 22.2 26.1C22.2 26.5 21.9 26.7 21.6 26.7ZM24.1 23.8H19.2C18.9 23.8 18.6 23.5 18.6 23.2C18.6 22.9 18.9 22.6 19.2 22.6H24.1C24.4 22.6 24.7 22.9 24.7 23.2C24.7 23.5 24.4 23.8 24.1 23.8Z" fill="#636E84"/>
<path d="M31.2 34.6C27.9 34.6 25.3 32 25.3 28.7C25.3 25.4 27.9 22.8 31.2 22.8C34.5 22.8 37.1 25.4 37.1 28.7C37.1 32 34.5 34.6 31.2 34.6ZM31.2 23.9C28.6 23.9 26.4 26 26.4 28.7C26.4 31.4 28.5 33.5 31.2 33.5C33.9 33.5 36 31.4 36 28.7C36 26 33.9 23.9 31.2 23.9ZM30.7 30.6C30.6 30.6 30.4 30.5 30.3 30.4L29.1 29.2C28.9 29 28.9 28.6 29.1 28.4C29.3 28.2 29.7 28.2 29.9 28.4L30.7 29.2L32.6 27.3C32.8 27.1 33.2 27.1 33.4 27.3C33.6 27.5 33.6 27.9 33.4 28.1L31.1 30.4C31 30.5 30.9 30.6 30.7 30.6Z" fill="#F15C22"/>
</g>
<defs>
<clipPath id="clip0">
<rect width="50.2" height="50.2" fill="white"/>
</clipPath>
</defs>
</svg>
