<svg width="38" height="38" viewBox="0 0 38 38" fill="none" xmlns="http://www.w3.org/2000/svg">
<path d="M33.8 38H4.2C1.9 38 0 36.1 0 33.8V4.2C0 1.9 1.9 0 4.2 0H4.3H33.8C36.1 0 38 1.9 38 4.2V33.8C38 36.1 36.1 38 33.8 38ZM4.1 1.1C2.4 1.2 1.1 2.5 1.1 4.2V33.8C1.1 35.5 2.5 36.9 4.2 36.9H33.8C35.5 36.9 36.9 35.5 36.9 33.8V4.2C36.9 2.5 35.5 1.1 33.8 1.1H4.1C4.2 1.1 4.2 1.1 4.1 1.1Z" fill="#E8476B"/>
<path d="M23.6 28.5H14.3C11.6 28.5 9.5 26.3 9.4 23.6V14.3C9.4 11.6 11.6 9.49999 14.3 9.39999H23.6C26.3 9.39999 28.4 11.6 28.5 14.3V23.6C28.5 26.3 26.3 28.5 23.6 28.5ZM25.1 15.2H22.7C22.4 15.2 22.2 15 22.2 14.7V12.3C22.2 12 22.4 11.8 22.7 11.8H25.1C25.4 11.8 25.6 12 25.6 12.3V14.7C25.7 15 25.4 15.2 25.1 15.2ZM23.2 14.1H24.6V12.7H23.2V14.1ZM19 23.2C16.7 23.2 14.8 21.3 14.8 19C14.8 18.1 15.1 17.3 15.5 16.6H10.6V23.6C10.6 25.7 12.3 27.4 14.4 27.4H23.7C25.8 27.4 27.5 25.7 27.5 23.6V16.6H22.6C23.9 18.5 23.4 21.2 21.5 22.5C20.7 23 19.8 23.2 19 23.2ZM16.6 15.5C18.1 14.5 20 14.5 21.5 15.5H27.5V14.3C27.5 12.2 25.8 10.5 23.7 10.5H14.4C12.3 10.5 10.6 12.2 10.6 14.3V15.5H16.6ZM19 15.9C17.3 15.9 15.9 17.3 15.9 19C15.9 20.7 17.3 22.1 19 22.1C20.7 22.1 22.1 20.7 22.1 19C22.2 17.3 20.7 15.9 19 15.9Z" fill="#E8476B"/>
</svg>
