<svg width="38" height="38" viewBox="0 0 38 38" fill="none" xmlns="http://www.w3.org/2000/svg">
<path d="M33.8 38H4.2C1.9 38 0 36.1 0 33.8V4.2C0 1.9 1.9 0 4.2 0H4.3H33.8C36.1 0 38 1.9 38 4.2V33.8C38 36.1 36.1 38 33.8 38ZM4.1 1.1C2.4 1.2 1.1 2.5 1.1 4.2V33.8C1.1 35.5 2.5 36.9 4.2 36.9H33.8C35.5 36.9 36.9 35.5 36.9 33.8V4.2C36.9 2.5 35.5 1.1 33.8 1.1H4.1C4.2 1.1 4.2 1.1 4.1 1.1Z" fill="#006EF5"/>
<path d="M28.6 18.6C28.6 13.3 24.3 9 19 9C13.7 9 9.4 13.3 9.4 18.6C9.4 21.2 10.5 23.6 12.4 25.3V27.6C12.4 28 12.7 28.4 13.2 28.5H13.4C13.6 28.5 13.8 28.5 13.9 28.4L15.8 27.2C16.8 27.6 18 27.8 19.1 27.7H19.3C24.3 27.8 28.5 23.7 28.6 18.6ZM24.9 24.4C23.4 25.9 21.3 26.7 19.2 26.7H19C18 26.7 17 26.5 16 26.2C15.8 26.1 15.5 26.1 15.3 26.3L13.6 27.4V25.3C13.6 25.1 13.5 24.8 13.3 24.7C11.6 23.2 10.6 21 10.6 18.8C10.7 14.2 14.5 10.6 19.1 10.7C23.5 10.4 27.3 13.8 27.6 18.2C27.6 20.4 26.7 22.8 24.9 24.4Z" fill="#006EF5"/>
<path d="M24.2 15.5L20.6 17.4L18.5 15.6C18.1 15.3 17.6 15.3 17.2 15.6L12.7 20.1C12.3 20.5 12.3 21.1 12.7 21.4C12.9 21.6 13.1 21.7 13.4 21.7C13.6 21.7 13.7 21.7 13.9 21.6L17.5 19.6L19.6 21.4C20 21.7 20.5 21.7 20.9 21.4L25.4 16.9C25.8 16.5 25.7 15.9 25.4 15.6C25 15.4 24.5 15.3 24.2 15.5ZM20.1 20.6L17.9 18.7C17.8 18.6 17.6 18.5 17.4 18.5C17.3 18.5 17.1 18.5 17 18.6L14.4 20L17.9 16.5L20.1 18.4C20.4 18.6 20.7 18.7 21 18.5L23.6 17.1L20.1 20.6Z" fill="#006EF5"/>
</svg>
