<svg width="51" height="51" viewBox="0 0 51 51" fill="none" xmlns="http://www.w3.org/2000/svg">
<g clip-path="url(#clip0)">
<path d="M25.1 50.2C24 50.2 22.9 49.8 22.1 49L1.2 28.1C-0.4 26.5 -0.4 23.8 1.2 22.1L22.1 1.2C23.7 -0.4 26.4 -0.4 28.1 1.2L49 22.1C50.6 23.7 50.6 26.4 49 28.1L28.1 49C27.3 49.8 26.2 50.2 25.1 50.2ZM25.1 1.1C24.3 1.1 23.5 1.4 22.9 2L2 22.9C0.8 24.1 0.8 26.1 2 27.3L22.9 48.2C24.1 49.4 26.1 49.4 27.3 48.2L48.2 27.3C49.4 26.1 49.4 24.1 48.2 22.9L27.3 2C26.7 1.4 25.9 1.1 25.1 1.1ZM33.1 34.1H17.2C16.6 34.1 16.1 33.6 16.1 33V17.2C16.1 16.6 16.6 16.1 17.2 16.1H17.3H33.1C33.7 16.1 34.2 16.6 34.2 17.2V33C34.2 33.6 33.7 34.1 33.1 34.1ZM17.2 17.2V33H33.1V17.2H17.2Z" fill="#636E84"/>
<path d="M28.1 30.9H22.1C21.8 30.9 21.5 30.6 21.5 30.3C21.5 30 21.8 29.7 22.1 29.7H28.1C28.4 29.7 28.7 30 28.7 30.3C28.7 30.6 28.4 30.9 28.1 30.9ZM30.3 28H20C19.7 28 19.4 27.7 19.4 27.4C19.4 27.1 19.7 26.8 20 26.8H30.3C30.6 26.8 30.9 27.1 30.9 27.4C30.9 27.7 30.6 28 30.3 28ZM19.5 25C19.3 25 19 24.9 18.8 24.7C18.6 24.5 18.5 24.3 18.5 24V20.3C18.5 20 18.6 19.8 18.8 19.6C19 19.4 19.2 19.3 19.5 19.3H30.7C31 19.3 31.2 19.4 31.4 19.6C31.6 19.8 31.7 20 31.7 20.3V24C31.7 24.6 31.2 25 30.7 25H19.5ZM19.7 20.5V23.9H30.7V20.5H19.7Z" fill="#F15C22"/>
</g>
<defs>
<clipPath id="clip0">
<rect width="50.2" height="50.2" fill="white"/>
</clipPath>
</defs>
</svg>
