<svg width="38" height="38" viewBox="0 0 38 38" fill="none" xmlns="http://www.w3.org/2000/svg">
<path d="M14.6 12.6C15.4 11.8 16.7 11.8 17.5 12.6C18.3 13.4 18.3 14.7 17.5 15.5C16.7 16.3 15.4 16.3 14.6 15.5C13.8 14.8 13.8 13.5 14.6 12.6ZM19 0C29.5 0 38 8.5 38 19C38 29.5 29.5 38 19 38C8.5 38 0 29.5 0 19C0 8.5 8.5 0 19 0ZM31.6 6.4C24.6 -0.6 13.3 -0.6 6.3 6.4C-0.7 13.4 -0.7 24.7 6.3 31.7C13.3 38.7 24.6 38.7 31.6 31.7C35 28.4 36.8 23.8 36.8 19.1C36.9 14.3 35 9.7 31.6 6.4ZM15.4 14.7C15.8 15.1 16.3 15.1 16.7 14.7C17.1 14.3 17.1 13.8 16.7 13.4C16.3 13 15.8 13 15.4 13.4C15 13.8 15.1 14.4 15.4 14.7ZM19.5 9.9L29.4 19.8C30.1 20.4 30.1 21.5 29.4 22.1L24 27.5C23.4 28.1 22.4 28.1 21.8 27.5L19.6 25.3C18.2 27.2 15.5 27.7 13.6 26.3C11.7 24.9 11.2 22.2 12.6 20.3C12.9 19.9 13.2 19.6 13.6 19.3L11.7 17.4V11.4C11.7 10.5 12.5 9.7 13.4 9.7L19.5 9.9ZM13.8 25.2C15 26.4 17 26.4 18.3 25.2C19.5 24 19.5 22 18.3 20.7C17.1 19.5 15.1 19.5 13.8 20.7C12.6 22 12.6 24 13.8 25.2ZM23.3 26.7L28.7 21.3C28.9 21.1 28.9 20.8 28.7 20.6C25.5 17.8 22 14 18.9 10.9H13.4C13.1 10.9 12.9 11.1 12.9 11.4V17L14.8 18.9C15.2 18.8 15.6 18.7 16 18.7C18.4 18.7 20.3 20.7 20.3 23C20.3 23.4 20.2 23.8 20.1 24.2L22.5 26.6C22.8 26.9 23.1 27 23.3 26.7C23.3 26.7 23.3 26.8 23.3 26.7Z" fill="#636E84"/>
<path d="M18.3 22.5V23.5H13.9V22.5H18.3Z" fill="#F15C22"/>
<path d="M16.1 18.7C18.5 18.7 20.4 20.6 20.5 22.9C20.6 25.2 18.6 27.2 16.3 27.3C15.1 27.3 14 26.9 13.2 26C11.5 24.3 11.6 21.6 13.3 19.9C13.9 19.2 15 18.7 16.1 18.7ZM18.3 20.8C17.1 19.6 15.1 19.5 13.8 20.8C12.5 22.1 12.5 24 13.8 25.3C15 26.5 17 26.5 18.3 25.3C19.6 24.1 19.5 22 18.3 20.8Z" fill="#F15C22"/>
</svg>
