<svg width="91" height="121" viewBox="0 0 91 121" fill="none" xmlns="http://www.w3.org/2000/svg">
<g clip-path="url(#clip0)">
<path d="M90.2 13.5V116.1C90.2 118.4 88.3 120.3 86 120.3H4.7C2.4 120.3 0.5 118.4 0.5 116.1V13.5H90.2Z" fill="white"/>
<path d="M4.7 120.8C2.1 120.8 0 118.7 0 116.1V13.5C0 13.2 0.3 12.9 0.6 12.9H90.2C90.5 12.9 90.8 13.2 90.8 13.5V13.6V116.1C90.8 118.7 88.7 120.8 86.1 120.8H4.7ZM1.1 14V116C1.1 118 2.7 119.6 4.7 119.6H86C88 119.6 89.6 118 89.6 116V14H1.1Z" fill="#848F99"/>
<path d="M4.70001 0.6H86C88.3 0.6 90.2 2.5 90.2 4.8V13.5H0.600006V4.7C0.600006 2.4 2.40001 0.6 4.70001 0.6Z" fill="#DFE9F2"/>
<path d="M90.2 14H0.6C0.3 14 0 13.8 0 13.5V4.7C0 2.1 2.1 0 4.7 0H86C88.6 0 90.7 2.1 90.7 4.7V13.4C90.7 13.8 90.5 14 90.2 14ZM1.1 12.9H89.6V4.7C89.6 2.7 88 1.1 86 1.1H4.7C2.7 1.1 1.1 2.7 1.1 4.7V12.9Z" fill="#848F99"/>
<path d="M29.5 4.4H81.6C82 4.4 82.4 4.8 82.4 5.2V8.8C82.4 9.2 82 9.6 81.6 9.6H29.5C29.1 9.6 28.7 9.2 28.7 8.8V5.2C28.7 4.8 29 4.4 29.5 4.4Z" fill="white"/>
<path d="M9.2 5.3C10.1 5.3 10.9 6.1 10.9 7C10.9 7.9 10.1 8.7 9.2 8.7C8.3 8.7 7.5 8 7.5 7C7.5 6 8.2 5.3 9.2 5.3Z" fill="#FF6259"/>
<path d="M14.1 5.3C15 5.3 15.8 6.1 15.8 7C15.8 7.9 15 8.7 14.1 8.7C13.2 8.7 12.4 8 12.4 7C12.4 6 13.1 5.3 14.1 5.3Z" fill="#FFBD2D"/>
<path d="M19 5.3C19.9 5.3 20.7 6.1 20.7 7C20.7 7.9 19.9 8.7 19 8.7C18.1 8.7 17.3 8 17.3 7C17.3 6 18.1 5.3 19 5.3Z" fill="#2BCA41"/>
<path d="M10.2 87.6H80.5C81.6 87.6 82.4 88.5 82.4 89.5V94.4C82.4 95.5 81.5 96.3 80.5 96.3H10.2C9.10002 96.3 8.30002 95.4 8.30002 94.4V89.5C8.30002 88.5 9.20002 87.6 10.2 87.6Z" fill="white"/>
<path d="M80.5 96.9H10.2C8.80001 96.9 7.70001 95.8 7.70001 94.4V89.5C7.70001 88.1 8.80001 87 10.2 87H80.5C81.9 87 83 88.1 83 89.5V94.4C83 95.8 81.9 96.9 80.5 96.9ZM10.2 88.2C9.50001 88.2 8.80001 88.8 8.80001 89.6V94.5C8.80001 95.2 9.40001 95.9 10.2 95.9H80.5C81.2 95.9 81.9 95.3 81.9 94.5V89.6C81.9 88.9 81.3 88.2 80.5 88.2H10.2Z" fill="#BFCBD6"/>
<path d="M10.7 99.5H80C81.3 99.5 82.4 100.6 82.4 101.9V108.1C82.4 109.4 81.3 110.5 80 110.5H10.7C9.39999 110.5 8.29999 109.4 8.29999 108.1V101.9C8.29999 100.6 9.39999 99.5 10.7 99.5Z" fill="#F15C22"/>
<path d="M23.5 106L24.3 106.3C24.2 106.7 24 107.1 23.7 107.3C23.4 107.5 23 107.7 22.6 107.6C22.1 107.6 21.6 107.4 21.2 107C20.8 106.6 20.6 106 20.7 105.4C20.7 104.8 20.9 104.2 21.2 103.7C21.6 103.3 22.1 103.1 22.7 103.1C23.2 103.1 23.6 103.3 24 103.6C24.2 103.8 24.4 104.1 24.4 104.4L23.5 104.6C23.4 104.2 23 103.9 22.6 103.9C22.3 103.9 22 104 21.8 104.2C21.6 104.5 21.5 104.9 21.5 105.3C21.5 105.7 21.6 106.1 21.8 106.5C22 106.7 22.3 106.9 22.6 106.9C22.8 106.9 23 106.8 23.2 106.7C23.4 106.5 23.5 106.2 23.5 106Z" fill="white"/>
<path d="M29 107.5H28.1L27.7 106.5H26L25.6 107.5H24.7L26.4 103.2H27.3L29 107.5ZM27.4 105.8L26.8 104.2L26.2 105.8H27.4Z" fill="white"/>
<path d="M29.5 107.5V103.3H30.4V106.8H32.5V107.5H29.5Z" fill="white"/>
<path d="M33.1 107.5V103.3H34V106.8H36.2V107.5H33.1Z" fill="white"/>
<path d="M39.3 107.5V104H38V103.2H41.4V104H40.2V107.5H39.3Z" fill="white"/>
<path d="M41.7 105.4C41.7 105 41.8 104.6 41.9 104.3C42 104.1 42.1 103.9 42.3 103.7C42.5 103.5 42.6 103.4 42.9 103.3C43.2 103.2 43.5 103.1 43.8 103.1C44.4 103.1 44.9 103.3 45.3 103.7C46.1 104.7 46.1 106 45.3 107C44.9 107.4 44.4 107.6 43.8 107.6C43.2 107.6 42.7 107.4 42.3 107C41.9 106.6 41.7 106 41.7 105.4ZM42.6 105.4C42.6 105.8 42.7 106.2 42.9 106.5C43.3 107 44.1 107 44.5 106.6C44.5 106.6 44.5 106.6 44.6 106.5C44.8 106.2 45 105.8 44.9 105.4C44.9 105 44.8 104.6 44.6 104.3C44.1 103.8 43.4 103.8 42.9 104.3C42.7 104.6 42.6 105 42.6 105.4Z" fill="white"/>
<path d="M51.9 107.5H51L50.6 106.5H48.9L48.5 107.5H47.6L49.3 103.2H50.2L51.9 107.5ZM50.3 105.8L49.7 104.2L49.1 105.8H50.3Z" fill="white"/>
<path d="M55.1 106L55.9 106.3C55.8 106.7 55.6 107.1 55.3 107.3C55 107.5 54.6 107.7 54.2 107.6C53.7 107.6 53.2 107.4 52.8 107C52.4 106.6 52.2 106 52.3 105.4C52.3 104.8 52.5 104.2 52.8 103.7C53.2 103.3 53.7 103.1 54.3 103.1C54.8 103.1 55.2 103.3 55.6 103.6C55.8 103.8 56 104.1 56 104.4L55.1 104.6C55 104.2 54.6 103.9 54.2 103.9C53.9 103.9 53.6 104 53.4 104.2C53.2 104.5 53.1 104.9 53.1 105.3C53.1 105.7 53.2 106.1 53.4 106.5C53.6 106.7 53.9 106.9 54.2 106.9C54.4 106.9 54.6 106.8 54.8 106.7C54.9 106.5 55 106.2 55.1 106Z" fill="white"/>
<path d="M57.6 107.5V104H56.4V103.2H59.8V104H58.5V107.5H57.6Z" fill="white"/>
<path d="M60.3 107.5V103.2H61.2V107.5H60.3Z" fill="white"/>
<path d="M61.8 105.4C61.8 105 61.9 104.6 62 104.3C62.1 104.1 62.2 103.9 62.4 103.7C62.6 103.5 62.7 103.4 63 103.3C63.3 103.2 63.6 103.1 63.9 103.1C64.5 103.1 65 103.3 65.4 103.7C66.2 104.7 66.2 106 65.4 107C65 107.4 64.5 107.6 63.9 107.6C63.3 107.6 62.8 107.4 62.4 107C62 106.6 61.8 106 61.8 105.4ZM62.7 105.4C62.7 105.8 62.8 106.2 63 106.5C63.4 107 64.2 107 64.6 106.6C64.6 106.6 64.6 106.6 64.7 106.5C64.9 106.2 65.1 105.8 65 105.4C65 105 64.9 104.6 64.7 104.3C64.2 103.8 63.5 103.8 63 104.3C62.8 104.6 62.7 105 62.7 105.4Z" fill="white"/>
<path d="M66.7 107.5V103.2H67.5L69.3 106.1V103.2H70.1V107.5H69.2L67.5 104.7V107.5H66.7Z" fill="white"/>
<path d="M10.2 77.3H80.5C81.6 77.3 82.4 78.2 82.4 79.2V84.1C82.4 85.2 81.5 86 80.5 86H10.2C9.10002 86 8.30002 85.1 8.30002 84.1V79.2C8.30002 78.1 9.20002 77.3 10.2 77.3Z" fill="white"/>
<path d="M80.5 86.6H10.2C8.80001 86.6 7.70001 85.5 7.70001 84.1V79.2C7.70001 77.8 8.80001 76.7 10.2 76.7H80.5C81.9 76.7 83 77.8 83 79.2V84.1C83 85.5 81.9 86.6 80.5 86.6ZM10.2 77.8C9.50001 77.8 8.80001 78.4 8.80001 79.2V84.1C8.80001 84.8 9.40001 85.5 10.2 85.5H80.5C81.2 85.5 81.9 84.9 81.9 84.1V79.2C81.9 78.5 81.3 77.8 80.5 77.8H10.2Z" fill="#BFCBD6"/>
<path d="M81.4 58.8H9.30001C9.00001 58.8 8.70001 58.5 8.70001 58.2C8.70001 57.9 9.00001 57.6 9.30001 57.6H81.4C81.7 57.6 82 57.9 82 58.2C82 58.5 81.7 58.8 81.4 58.8Z" fill="#F15C22"/>
<path d="M69 71.7H21.7C21.4 71.7 21.1 71.4 21.1 71.1C21.1 70.8 21.4 70.5 21.7 70.5H69C69.3 70.5 69.6 70.8 69.6 71.1C69.6 71.4 69.3 71.7 69 71.7ZM81.4 67.4H9.30001C9.00001 67.4 8.70001 67.1 8.70001 66.8C8.70001 66.5 9.00001 66.2 9.30001 66.2H81.4C81.7 66.2 82 66.5 82 66.8C82 67.1 81.7 67.4 81.4 67.4ZM67.6 63.4H23.2C22.9 63.4 22.6 63.1 22.6 62.8C22.6 62.5 22.9 62.2 23.2 62.2H67.6C67.9 62.2 68.2 62.5 68.2 62.8C68.2 63.1 67.9 63.4 67.6 63.4Z" fill="#BFCBD6"/>
<path d="M78.9 53.1H11.8C10.2 53.1 9 51.8 9 50.3V25.9C9 24.3 10.3 23.1 11.8 23.1H78.9C80.5 23.1 81.7 24.4 81.7 25.9V50.2C81.8 51.8 80.5 53.1 78.9 53.1ZM11.8 24.2C10.9 24.2 10.1 25 10.1 25.9V50.2C10.1 51.1 10.9 51.9 11.8 51.9H78.9C79.8 51.9 80.6 51.1 80.6 50.2V25.9C80.6 25 79.8 24.2 78.9 24.2H11.8ZM59 45.1H37.4C37.1 45.1 36.8 44.8 36.8 44.5C36.8 44.3 36.9 44.1 37.1 44L43.1 35.9C43.2 35.8 43.4 35.7 43.5 35.7C43.7 35.7 43.8 35.8 43.9 35.9L46.5 38.7L51.2 33.9C51.3 33.8 51.5 33.7 51.6 33.7C51.8 33.7 51.9 33.8 52 33.9L59.3 44.1C59.4 44.3 59.4 44.5 59.3 44.7C59.4 45 59.2 45.1 59 45.1ZM38.6 44H57.9L51.6 35.2L46.9 40C46.8 40.1 46.6 40.2 46.5 40.2C46.3 40.2 46.2 40.1 46.1 40L43.6 37.2L38.6 44ZM46.1 34.6C44.8 34.6 43.7 33.5 43.7 32.2C43.7 30.9 44.8 29.8 46.1 29.8C47.4 29.8 48.5 30.9 48.5 32.2C48.5 33.5 47.4 34.6 46.1 34.6ZM46.1 30.9C45.4 30.9 44.8 31.5 44.8 32.2C44.8 32.9 45.4 33.5 46.1 33.5C46.8 33.5 47.4 32.9 47.4 32.2C47.4 31.5 46.8 30.9 46.1 30.9Z" fill="#F15C22"/>
</g>
<defs>
<clipPath id="clip0">
<rect width="90.7" height="120.8" fill="white"/>
</clipPath>
</defs>
</svg>
