<svg width="51" height="51" viewBox="0 0 51 51" fill="none" xmlns="http://www.w3.org/2000/svg">
<g clip-path="url(#clip0)">
<path d="M25.1 50.2C24 50.2 22.9 49.8 22.1 49L1.2 28.1C-0.4 26.5 -0.4 23.8 1.2 22.1L22.1 1.2C23.7 -0.4 26.4 -0.4 28.1 1.2L49 22.1C50.6 23.7 50.6 26.4 49 28.1L28.1 49C27.3 49.8 26.2 50.2 25.1 50.2ZM25.1 1.1C24.3 1.1 23.5 1.4 22.9 2L2 22.9C0.8 24.1 0.8 26.1 2 27.3L22.9 48.2C24.1 49.4 26.1 49.4 27.3 48.2L48.2 27.3C49.4 26.1 49.4 24.1 48.2 22.9L27.3 2C26.7 1.4 25.9 1.1 25.1 1.1Z" fill="#636E84"/>
<path d="M25.1 14.7C19.4 14.7 14.7 19.4 14.7 25.1C14.7 30.8 19.4 35.5 25.1 35.5C30.8 35.5 35.5 30.8 35.5 25.1C35.5 19.4 30.8 14.7 25.1 14.7ZM25.1 34.3C20 34.3 15.9 30.2 15.9 25.1C15.9 20 20 15.9 25.1 15.9C30.2 15.9 34.3 20 34.3 25.1C34.3 30.2 30.2 34.3 25.1 34.3Z" fill="#636E84"/>
<path d="M27.3 25.1C27.3 23.9 26.3 22.9 25.1 22.9C23.9 22.9 22.9 23.9 22.9 25.1C22.9 26.3 23.9 27.3 25.1 27.3C26.3 27.3 27.3 26.3 27.3 25.1ZM24 25.1C24 24.5 24.5 24 25.1 24C25.7 24 26.2 24.5 26.2 25.1C26.2 25.7 25.7 26.2 25.1 26.2C24.5 26.2 24 25.7 24 25.1Z" fill="#F15C22"/>
<path d="M25.6 17.5C25.4 17.2 25.1 17.2 24.8 17.3C24.7 17.3 24.7 17.4 24.6 17.5L22.4 20.9C22.2 21.2 22.3 21.5 22.6 21.7C22.7 21.8 22.8 21.8 22.9 21.8H27.4C27.7 21.8 28 21.5 28 21.2C28 21.1 28 21 27.9 20.9L25.6 17.5ZM23.9 20.6L25.1 18.8L26.3 20.6H23.9Z" fill="#F15C22"/>
<path d="M27.3 28.5H22.8C22.5 28.5 22.2 28.8 22.2 29.1C22.2 29.2 22.2 29.3 22.3 29.4L24.5 32.8C24.7 33.1 25 33.1 25.3 33C25.4 33 25.4 32.9 25.5 32.8L27.7 29.4C27.9 29.1 27.8 28.8 27.5 28.6C27.6 28.5 27.5 28.5 27.3 28.5ZM25.1 31.4L23.9 29.6H26.3L25.1 31.4Z" fill="#F15C22"/>
</g>
<defs>
<clipPath id="clip0">
<rect width="50.2" height="50.2" fill="white"/>
</clipPath>
</defs>
</svg>
