<svg width="38" height="38" viewBox="0 0 38 38" fill="none" xmlns="http://www.w3.org/2000/svg">
<path d="M33.8 38H4.2C1.9 38 0 36.1 0 33.8V4.2C0 1.9 1.9 0 4.2 0H4.3H33.8C36.1 0 38 1.9 38 4.2V33.8C38 36.1 36.1 38 33.8 38ZM4.1 1.1C2.4 1.2 1.1 2.5 1.1 4.2V33.8C1.1 35.5 2.5 36.9 4.2 36.9H33.8C35.5 36.9 36.9 35.5 36.9 33.8V4.2C36.9 2.5 35.5 1.1 33.8 1.1H4.1C4.2 1.1 4.2 1.1 4.1 1.1Z" fill="#0F9390"/>
<path d="M27.5 26.5L23.3 22.3C25.9 19.2 25.4 14.5 22.3 12C19.2 9.4 14.5 9.9 12 13C9.4 16.1 9.9 20.8 13 23.3C15.7 25.5 19.6 25.5 22.3 23.3L26.5 27.5C26.7 27.8 27.2 28 27.5 27.8C27.8 27.6 28 27.1 27.8 26.8C27.7 26.6 27.6 26.5 27.5 26.5ZM17.6 23.5C14.3 23.5 11.7 20.9 11.7 17.6C11.7 14.3 14.3 11.7 17.6 11.7C20.9 11.7 23.5 14.3 23.5 17.6C23.5 20.8 20.9 23.5 17.6 23.5Z" fill="#0F9390"/>
</svg>
