<svg width="91" height="122" viewBox="0 0 91 122" fill="none" xmlns="http://www.w3.org/2000/svg">
<g clip-path="url(#clip0)">
<path d="M90.2 13.7V116.3C90.2 118.6 88.3 120.5 86 120.5H4.7C2.4 120.5 0.5 118.6 0.5 116.3V13.7H90.2Z" fill="white"/>
<path d="M86 121.1H4.7C2.1 121.1 0 119 0 116.4V13.7C0 13.4 0.3 13.1 0.6 13.1H90.2C90.5 13.1 90.8 13.4 90.8 13.7V13.8V116.3C90.7 119 88.6 121.1 86 121.1ZM1.1 14.3V116.3C1.1 118.3 2.7 119.9 4.7 119.9H86C88 119.9 89.6 118.3 89.6 116.3V14.3H1.1V14.3Z" fill="#848F99"/>
<path d="M81.4 70.9H9.30001C9.00001 70.9 8.70001 70.6 8.70001 70.3C8.70001 70 9.00001 69.7 9.30001 69.7H81.4C81.7 69.7 82 70 82 70.3C82 70.6 81.7 70.9 81.4 70.9Z" fill="#F15C22"/>
<path d="M56.9 83.9H33.8C33.5 83.9 33.2 83.6 33.2 83.3C33.2 83 33.5 82.7 33.8 82.7H56.9C57.2 82.7 57.5 83 57.5 83.3C57.5 83.6 57.2 83.9 56.9 83.9ZM69.6 79.6H21.1C20.8 79.6 20.5 79.3 20.5 79C20.5 78.7 20.8 78.4 21.1 78.4H69.6C69.9 78.4 70.2 78.7 70.2 79C70.2 79.3 69.9 79.6 69.6 79.6ZM79.1 75.6H11.6C11.3 75.6 11 75.3 11 75C11 74.7 11.3 74.4 11.6 74.4H79.1C79.4 74.4 79.7 74.7 79.7 75C79.7 75.3 79.4 75.6 79.1 75.6Z" fill="#BFCBD6"/>
<path d="M10.7 89.5H80C81.3 89.5 82.4 90.6 82.4 91.9V98.1C82.4 99.4 81.3 100.5 80 100.5H10.7C9.39999 100.5 8.29999 99.4 8.29999 98.1V91.9C8.29999 90.6 9.39999 89.5 10.7 89.5Z" fill="#F15C22"/>
<path d="M33.3 92.9H35C35.3 92.9 35.5 92.9 35.8 92.9C36 92.9 36.1 93 36.3 93.1C36.4 93.2 36.5 93.3 36.6 93.5C36.7 93.7 36.7001 93.8 36.7001 94C36.7001 94.4 36.5 94.8 36.1 94.9C36.3 95 36.5001 95.1 36.7001 95.3C36.8001 95.5 36.9001 95.7 36.9001 95.9C36.9001 96.1 36.9 96.3 36.8 96.5C36.7 96.7 36.6001 96.8 36.4001 96.9C36.2001 97 36 97.1 35.8 97.1C35.7 97.1 35.3 97.1 34.8 97.1H33.3V92.9ZM34.2001 93.6V94.6H34.8H35.4001C35.5001 94.6 35.7 94.5 35.8 94.5C35.9 94.4 35.9001 94.3 35.9001 94.2C35.9001 94.1 35.9 94 35.8 93.9C35.7 93.8 35.6 93.8 35.5 93.8H34.8L34.2001 93.6ZM34.2001 95.3V96.4H35C35.2 96.4 35.4 96.4 35.6 96.4C35.7 96.4 35.8001 96.3 35.9001 96.2C36.0001 96.2 36 96 36 95.9C36 95.8 36.0001 95.7 35.9001 95.6C35.8001 95.5 35.7 95.4 35.6 95.4C35.3 95.3 35.1 95.3 34.8 95.3H34.2001Z" fill="white"/>
<path d="M38.7999 97.2V95.4L37.2 92.9H38.2L39.2 94.6L40.2 92.9H41.2L39.5999 95.4V97.2H38.7999Z" fill="white"/>
<path d="M43.2 97.2V92.9H44.0999L45.7999 95.8V92.9H46.5999V97.2H45.7999L44 94.4V97.2H43.2Z" fill="white"/>
<path d="M47.4 95.1C47.4 94.7 47.5 94.3 47.6 94C47.7 93.8 47.8 93.6 48 93.4C48.2 93.2 48.3 93.1 48.6 93C48.9 92.9 49.2 92.8 49.5 92.8C50.1 92.8 50.6 93 51 93.4C51.8 94.4 51.8 95.7 51 96.7C50.6 97.1 50.1 97.3 49.5 97.3C48.9 97.3 48.4 97.1 48 96.7C47.5 96.2 47.3 95.6 47.4 95.1ZM48.3 95.1C48.3 95.5 48.4 95.9 48.6 96.2C49 96.7 49.8 96.7 50.2 96.3C50.2 96.3 50.2 96.3 50.3 96.2C50.5 95.9 50.7 95.5 50.6 95.1C50.6 94.7 50.5 94.3 50.3 94C49.8 93.5 49.1 93.5 48.6 94C48.3 94.3 48.2 94.7 48.3 95.1Z" fill="white"/>
<path d="M52.8 97.2L51.8 92.9H52.7001L53.3 95.8L54.1 92.9H55.1L55.9001 95.9L56.5 92.9H57.4001L56.4001 97.2H55.5L54.6 94L53.8 97.2H52.8Z" fill="white"/>
<path d="M78.9 64.3H11.8C10.3 64.3 9 63 9 61.5V36C9 34.5 10.2 33.3 11.6 33.2C11.7 33.2 11.7 33.2 11.8 33.2H78.9C80.5 33.2 81.7 34.5 81.7 36V61.5C81.8 63 80.5 64.3 78.9 64.3ZM12 34.2C11.9 34.2 11.9 34.2 11.8 34.2C10.9 34.2 10.1 35 10.1 35.9V61.4C10.1 62.3 10.9 63.1 11.8 63.1H78.9C79.8 63.1 80.6 62.3 80.6 61.4V36C80.6 35.1 79.8 34.3 78.9 34.3H12V34.2ZM42.3 55.4C42.2 55.4 42.2 55.4 42.1 55.4C41.9 55.3 41.8 55.1 41.8 54.9V42.6C41.8 42.4 41.9 42.2 42.1 42.1C42.3 42 42.6 42.1 42.7 42.2L48.8 48.3C48.9 48.4 49 48.5 49 48.7C49 48.9 48.9 49 48.8 49.1L42.7 55.2C42.6 55.4 42.5 55.4 42.3 55.4ZM42.9 43.9V53.4L47.7 48.6L42.9 43.9Z" fill="#F15C22"/>
<path d="M4.69998 0.6H86C88.3 0.6 90.2 2.5 90.2 4.8V13.5H0.599976V4.7C0.599976 2.4 2.39998 0.6 4.69998 0.6Z" fill="#DFE9F2"/>
<path d="M90.2 14H0.6C0.3 14 0 13.8 0 13.5V4.7C0 2.1 2.1 0 4.7 0H86C88.6 0 90.7 2.1 90.7 4.7V13.4C90.7 13.8 90.5 14 90.2 14ZM1.1 12.9H89.6V4.7C89.6 2.7 88 1.1 86 1.1H4.7C2.7 1.1 1.1 2.7 1.1 4.7V12.9Z" fill="#848F99"/>
<path d="M29.5 4.4H81.6C82 4.4 82.4 4.8 82.4 5.2V8.8C82.4 9.2 82 9.6 81.6 9.6H29.5C29.1 9.6 28.7 9.2 28.7 8.8V5.2C28.7 4.8 29 4.4 29.5 4.4Z" fill="white"/>
<path d="M9.2 5.3C10.1 5.3 10.9 6.1 10.9 7C10.9 7.9 10.1 8.7 9.2 8.7C8.3 8.7 7.5 8 7.5 7C7.5 6 8.2 5.3 9.2 5.3Z" fill="#FF6259"/>
<path d="M14.1 5.3C15 5.3 15.8 6.1 15.8 7C15.8 7.9 15 8.7 14.1 8.7C13.2 8.7 12.4 8 12.4 7C12.4 6 13.1 5.3 14.1 5.3Z" fill="#FFBD2D"/>
<path d="M19 5.3C19.9 5.3 20.7 6.1 20.7 7C20.7 7.9 19.9 8.7 19 8.7C18.1 8.7 17.3 8 17.3 7C17.3 6 18.1 5.3 19 5.3Z" fill="#2BCA41"/>
</g>
<defs>
<clipPath id="clip0">
<rect width="90.7" height="121.1" fill="white"/>
</clipPath>
</defs>
</svg>
