<svg width="91" height="122" viewBox="0 0 91 122" fill="none" xmlns="http://www.w3.org/2000/svg">
<g clip-path="url(#clip0)">
<path d="M90.2 13.7V116.3C90.2 118.6 88.3 120.5 86 120.5H4.7C2.4 120.5 0.5 118.6 0.5 116.3V13.7H90.2Z" fill="white"/>
<path d="M86 121.1H4.7C2.1 121.1 0 119 0 116.4V13.7C0 13.4 0.3 13.1 0.6 13.1H90.2C90.5 13.1 90.8 13.4 90.8 13.7V13.8V116.3C90.7 119 88.6 121.1 86 121.1ZM1.1 14.3V116.3C1.1 118.3 2.7 119.9 4.7 119.9H86C88 119.9 89.6 118.3 89.6 116.3V14.3H1.1V14.3Z" fill="#848F99"/>
<path d="M81.1 60.6H9.00002C8.70002 60.6 8.40002 60.3 8.40002 60C8.40002 59.7 8.70002 59.4 9.00002 59.4H81.1C81.4 59.4 81.7 59.7 81.7 60C81.7 60.3 81.4 60.6 81.1 60.6ZM78.7 53.8H11.5C9.90002 53.8 8.70002 52.5 8.70002 51V25.4C8.70002 23.8 10 22.6 11.5 22.6H78.6C80.2 22.6 81.4 23.9 81.4 25.4V51C81.5 52.6 80.2 53.8 78.7 53.8ZM11.5 23.7C10.6 23.7 9.80002 24.5 9.80002 25.4V51C9.80002 51.9 10.6 52.7 11.5 52.7H78.6C79.5 52.7 80.3 51.9 80.3 51V25.4C80.3 24.5 79.5 23.7 78.6 23.7H11.5Z" fill="#F15C22"/>
<path d="M66.6999 95.5H15.4C15.1 95.5 14.8 95.2 14.8 94.9C14.8 94.6 15.1 94.3 15.4 94.3H66.6999C66.9999 94.3 67.3 94.6 67.3 94.9C67.3 95.2 66.9999 95.5 66.6999 95.5ZM66.6999 92.1H9.29995C8.99995 92.1 8.69995 91.8 8.69995 91.5C8.69995 91.2 8.99995 90.9 9.29995 90.9H66.6999C66.9999 90.9 67.3 91.2 67.3 91.5C67.3 91.8 66.9999 92.1 66.6999 92.1ZM81.2 83H23.8C23.5 83 23.2 82.7 23.2 82.4C23.2 82.1 23.5 81.8 23.8 81.8H81.2C81.5 81.8 81.8 82.1 81.8 82.4C81.8 82.7 81.5 83 81.2 83ZM75.1 79.6H23.8C23.5 79.6 23.2 79.3 23.2 79C23.2 78.7 23.5 78.4 23.8 78.4H75.1C75.4 78.4 75.7 78.7 75.7 79C75.7 79.3 75.4 79.6 75.1 79.6ZM69.3 69.1H20.8C20.5 69.1 20.2 68.8 20.2 68.5C20.2 68.2 20.5 67.9 20.8 67.9H69.3C69.6 67.9 69.9 68.2 69.9 68.5C69.9 68.8 69.6 69.1 69.3 69.1ZM78.8 65.1H11.4C11.1 65.1 10.8 64.8 10.8 64.5C10.8 64.2 11.1 63.9 11.4 63.9H78.9C79.2 63.9 79.5 64.2 79.5 64.5C79.5 64.8 79.1 65.1 78.8 65.1Z" fill="#BFCBD6"/>
<path d="M19.4 86.2H9.19998C8.89998 86.2 8.59998 85.9 8.59998 85.6C8.59998 85.4 8.69998 85.3 8.79998 85.2C9.59998 83.9 10.7 82.8 12 82.1C10.8 80.7 10.7 79.1 11.1 78C11.5 76.6 12.7 75.7 13.9 75.6C15.4 75.6 16.8 76.4 17.4 77.8C18 79.2 17.7 80.8 16.5 82.1C17.9 82.9 19 84 19.8 85.4C19.9 85.6 19.9 85.8 19.8 86C19.7 86.2 19.6 86.2 19.4 86.2ZM10.3 85H18.4C17.7 84 16.6 83.2 15.5 82.6C15.3 82.5 15.2 82.4 15.2 82.2C15.2 82 15.2 81.8 15.4 81.7C16.6 80.5 17 79.2 16.5 78C16.1 77 15.2 76.5 14.1 76.5C13.3 76.6 12.6 77.2 12.3 78.1C11.9 79.4 12.3 80.7 13.4 81.6C13.6 81.7 13.6 81.9 13.6 82.1C13.6 82.3 13.4 82.5 13.3 82.5C12.1 83.2 11 84 10.3 85Z" fill="#F15C22"/>
<path d="M81.1999 108.6H23.7999C23.4999 108.6 23.2 108.3 23.2 108C23.2 107.7 23.4999 107.4 23.7999 107.4H81.1999C81.4999 107.4 81.8 107.7 81.8 108C81.8 108.3 81.4999 108.6 81.1999 108.6ZM75.0999 105.1H23.7999C23.4999 105.1 23.2 104.8 23.2 104.5C23.2 104.2 23.4999 103.9 23.7999 103.9H75.0999C75.3999 103.9 75.6999 104.2 75.6999 104.5C75.6999 104.8 75.3999 105.1 75.0999 105.1Z" fill="#BFCBD6"/>
<path d="M19.4 111.7H9.19998C8.89998 111.7 8.59998 111.4 8.59998 111.1C8.59998 110.9 8.69998 110.8 8.79998 110.7C9.59998 109.4 10.7 108.3 12 107.6C10.8 106.2 10.7 104.6 11.1 103.5C11.5 102.1 12.7 101.2 13.9 101.1C15.4 101.1 16.8 101.9 17.4 103.3C18 104.7 17.7 106.3 16.5 107.6C17.9 108.4 19 109.5 19.8 110.9C19.9 111.1 19.9 111.3 19.8 111.5C19.7 111.7 19.6 111.7 19.4 111.7ZM10.3 110.6H18.4C17.7 109.6 16.6 108.8 15.5 108.2C15.3 108.1 15.2 108 15.2 107.8C15.2 107.6 15.2 107.4 15.4 107.3C16.6 106.1 17 104.8 16.5 103.6C16.1 102.6 15.2 102.1 14.1 102.1C13.3 102.2 12.6 102.8 12.3 103.7C11.9 105 12.3 106.3 13.4 107.2C13.6 107.3 13.6 107.5 13.6 107.7C13.6 107.9 13.4 108.1 13.3 108.1C12.1 108.7 11 109.5 10.3 110.6ZM81.7 98.4H71.5C71.2 98.4 70.9 98.1 70.9 97.8C70.9 97.6 71 97.5 71.1 97.4C71.9 96.1 73 95 74.3 94.3C74.2 94.2 74.1 94.1 74 94C73.5 94.5 72.8 94.8 72 94.8C71.7 94.8 71.4 94.5 71.5 94.2C71.6 93.9 71.7 93.7 72.1 93.7C72.6 93.7 73.1 93.5 73.5 93C73.1 92 73.2 91 73.4 90.3C73.8 88.9 75 88 76.2 87.9C77.7 87.9 79.1 88.7 79.7 90.1C80.1 91.1 80.1 92.2 79.6 93.3C79.9 93.6 80.3 93.7 80.7 93.7C81 93.7 81.3 93.9 81.3 94.2C81.3 94.5 81.1 94.8 80.8 94.8C80.1 94.8 79.5 94.6 79 94.2C79 94.2 78.9 94.3 78.9 94.4C80.3 95.2 81.4 96.3 82.2 97.7C82.3 97.9 82.3 98.1 82.2 98.3C82.1 98.3 81.9 98.4 81.7 98.4ZM72.6 97.3H80.7C79.9 96.3 78.9 95.5 77.8 94.9C77.6 94.8 77.5 94.7 77.5 94.5C77.5 94.3 77.5 94.1 77.7 94C78.1 93.7 78.3 93.3 78.6 92.9C78.6 92.9 78.6 92.9 78.6 92.8C79.1 92 79.2 91.1 78.8 90.3C78.4 89.3 77.5 88.8 76.4 88.8C75.6 88.9 74.9 89.5 74.6 90.4C74.2 91.7 74.6 93 75.7 93.9C75.8 94 75.9 94.2 75.9 94.4C75.9 94.6 75.7 94.8 75.6 94.8C74.4 95.4 73.3 96.3 72.6 97.3Z" fill="#F15C22"/>
<path d="M4.69998 0.6H86C88.3 0.6 90.2 2.5 90.2 4.8V13.5H0.599976V4.7C0.599976 2.4 2.39998 0.6 4.69998 0.6Z" fill="#DFE9F2"/>
<path d="M90.2 14H0.6C0.3 14 0 13.8 0 13.5V4.7C0 2.1 2.1 0 4.7 0H86C88.6 0 90.7 2.1 90.7 4.7V13.4C90.7 13.8 90.5 14 90.2 14ZM1.1 12.9H89.6V4.7C89.6 2.7 88 1.1 86 1.1H4.7C2.7 1.1 1.1 2.7 1.1 4.7V12.9Z" fill="#848F99"/>
<path d="M29.5 4.4H81.5999C81.9999 4.4 82.4 4.8 82.4 5.2V8.8C82.4 9.2 81.9999 9.6 81.5999 9.6H29.5C29.1 9.6 28.7 9.2 28.7 8.8V5.2C28.7 4.8 29 4.4 29.5 4.4Z" fill="white"/>
<path d="M9.2 5.3C10.1 5.3 10.9 6.1 10.9 7C10.9 7.9 10.1 8.7 9.2 8.7C8.3 8.7 7.5 8 7.5 7C7.5 6 8.2 5.3 9.2 5.3Z" fill="#FF6259"/>
<path d="M14.1 5.3C15 5.3 15.8 6.1 15.8 7C15.8 7.9 15 8.7 14.1 8.7C13.2 8.7 12.4 8 12.4 7C12.4 6 13.1 5.3 14.1 5.3Z" fill="#FFBD2D"/>
<path d="M19 5.3C19.9 5.3 20.7001 6.1 20.7001 7C20.7001 7.9 19.9 8.7 19 8.7C18.1 8.7 17.3 8 17.3 7C17.3 6 18.1 5.3 19 5.3Z" fill="#2BCA41"/>
<path d="M38.9 37C38.1 37 37.4 36.3 37.4 35.5C37.4 34.7 38.1 34 38.9 34C39.7 34 40.4 34.7 40.4 35.5C40.5 36.3 39.8 37 38.9 37ZM38.9 34.5C38.4 34.5 38 34.9 38 35.4C38 35.9 38.4 36.3 38.9 36.3C39.4 36.3 39.8 35.9 39.8 35.4C39.8 34.9 39.4 34.5 38.9 34.5Z" fill="#F15C22"/>
<path d="M38.9001 37.1C38.0001 37.1 37.3 36.4 37.3 35.5C37.3 34.6 38.0001 33.9 38.9001 33.9C39.8001 33.9 40.5 34.6 40.5 35.5C40.5 36.4 39.8001 37.1 38.9001 37.1ZM38.9001 34C38.1001 34 37.5 34.6 37.5 35.4C37.5 36.2 38.1001 36.8 38.9001 36.8C39.7001 36.8 40.3 36.2 40.3 35.4C40.4 34.7 39.7001 34 38.9001 34ZM38.9001 36.5C38.3001 36.5 37.9001 36 37.9001 35.5C37.9001 34.9 38.4001 34.5 38.9001 34.5C39.4001 34.5 39.9001 35 39.9001 35.5C40.0001 36 39.5001 36.5 38.9001 36.5ZM38.9001 34.7C38.5001 34.7 38.1 35.1 38.1 35.5C38.1 35.9 38.5001 36.3 38.9001 36.3C39.3001 36.3 39.7001 35.9 39.7001 35.5C39.7001 35.1 39.4001 34.7 38.9001 34.7Z" fill="#F15C22"/>
<path d="M37.7 37.3C36.9 37.3 36.2 38 36.2 38.8V42.2H36.7999V47.7H40.5V42.2H41.0999V39.1H43.5999C44.0999 39.1 44.5 38.7 44.5 38.2V37.3H37.7ZM39.7999 47.1H38.9V43.4H38.2999V47.1H37.4V42.2H39.9V47.1H39.7999ZM43.7999 38.2C43.7999 38.4 43.7 38.5 43.5 38.5H40.4V41.6H36.7V38.8C36.7 38.3 37.0999 37.9 37.5999 37.9H43.7L43.7999 38.2Z" fill="#F15C22"/>
<path d="M40.5 47.8H36.8C36.7 47.8 36.7 47.8 36.7 47.7V42.3H36.2C36.1 42.3 36.1 42.3 36.1 42.2V38.8C36.1 37.9 36.8 37.2 37.7 37.2H44.4C44.5 37.2 44.5 37.2 44.5 37.3V38.2C44.5 38.8 44 39.2 43.5 39.2H41.2V42.2C41.2 42.3 41.2 42.3 41.1 42.3H40.6V47.7C40.6 47.7 40.5 47.8 40.5 47.8ZM36.9 47.6H40.4V42.2C40.4 42.1 40.4 42.1 40.5 42.1H41V39.1C41 39 41 39 41.1 39H43.5C43.9 39 44.3 38.6 44.3 38.2V37.4H37.7C36.9 37.4 36.3 38 36.3 38.8V42.1H36.8C36.9 42.1 36.9 42.1 36.9 42.2V47.6ZM39.8 47.2H38.9C38.8 47.2 38.8 47.2 38.8 47.1V43.5H38.4V47.1C38.4 47.2 38.4 47.2 38.3 47.2H37.4C37.3 47.2 37.3 47.2 37.3 47.1V42.2C37.3 42.1 37.3 42.1 37.4 42.1H39.9C40 42.1 40 42.1 40 42.2V47.1C40 47.1 39.9 47.2 39.8 47.2ZM39 47H39.7V42.3H37.5V47H38.2V43.4C38.2 43.3 38.2 43.3 38.3 43.3H38.9C39 43.3 39 43.3 39 43.4V47V47ZM40.5 41.7H36.8C36.7 41.7 36.7 41.7 36.7 41.6V38.8C36.7 38.2 37.2 37.8 37.7 37.8H43.8C43.9 37.8 43.9 37.8 43.9 37.9V38.2C43.9 38.4 43.7 38.6 43.5 38.6H40.5V41.6C40.6 41.6 40.5 41.7 40.5 41.7ZM36.9 41.5H40.4V38.5C40.4 38.4 40.4 38.4 40.5 38.4H43.6C43.7 38.4 43.8 38.3 43.8 38.2V38H37.8C37.4 38 37 38.4 37 38.8V41.5H36.9Z" fill="#F15C22"/>
<path d="M41.7 29.3V37H42.2999V32.4H53.9V42.2H42.2999V39.4H41.7V42.8H54.5999V29.3H41.7ZM42.2999 31.8V30H53.9V31.8H42.2999Z" fill="#F15C22"/>
<path d="M54.6 42.9H41.7C41.6 42.9 41.6 42.9 41.6 42.8V39.4C41.6 39.3 41.6 39.3 41.7 39.3H42.3C42.4 39.3 42.4 39.3 42.4 39.4V42H53.8V32.4H42.4V37C42.4 37.1 42.4 37.1 42.3 37.1H41.7C41.6 37.1 41.6 37.1 41.6 37V29.3C41.6 29.2 41.6 29.2 41.7 29.2H54.6C54.7 29.2 54.7 29.2 54.7 29.3V42.8C54.7 42.9 54.6 42.9 54.6 42.9ZM41.8 42.7H54.4V29.4H41.8V36.9H42.2V32.4C42.2 32.3 42.2 32.3 42.3 32.3H53.9C54 32.3 54 32.3 54 32.4V42.2C54 42.3 54 42.3 53.9 42.3H42.3C42.2 42.3 42.2 42.3 42.2 42.2V39.6H41.8V42.7ZM53.9 31.9H42.3C42.2 31.9 42.2 31.9 42.2 31.8V30C42.2 29.9 42.2 29.9 42.3 29.9H53.9C54 29.9 54 29.9 54 30V31.8C54 31.8 54 31.9 53.9 31.9ZM42.4 31.6H53.8V30H42.4V31.6Z" fill="#F15C22"/>
<path d="M42.9 30.5H43.5V31.1H42.9V30.5Z" fill="#F15C22"/>
<path d="M43.5 31.3H42.9001C42.8001 31.3 42.8 31.3 42.8 31.2V30.6C42.8 30.5 42.8001 30.5 42.9001 30.5H43.5C43.6 30.5 43.6 30.5 43.6 30.6V31.2C43.6 31.2 43.6 31.3 43.5 31.3ZM43 31H43.4001V30.6H43V31Z" fill="#F15C22"/>
<path d="M44.1 30.5H44.8V31.1H44.1V30.5Z" fill="#F15C22"/>
<path d="M44.8 31.3H44.2C44.1 31.3 44.1 31.3 44.1 31.2V30.6C44.1 30.5 44.1 30.5 44.2 30.5H44.8C44.9 30.5 44.9 30.5 44.9 30.6V31.2L44.8 31.3ZM44.3 31H44.7V30.6H44.3V31Z" fill="#F15C22"/>
<path d="M45.4 30.5H46V31.1H45.4V30.5Z" fill="#F15C22"/>
<path d="M46 31.3H45.4001C45.3001 31.3 45.3 31.3 45.3 31.2V30.6C45.3 30.5 45.3001 30.5 45.4001 30.5H46C46.1 30.5 46.1 30.5 46.1 30.6V31.2L46 31.3ZM45.5 31H45.9001V30.6H45.5V31Z" fill="#F15C22"/>
<path d="M42.6 37H43.2V34.8H53V40.3H43.2V39.4H42.6V40.9H53.6V34.2H42.6V37Z" fill="#F15C22"/>
<path d="M53.6 41.1H42.6C42.5 41.1 42.5 41.1 42.5 41V39.5C42.5 39.4 42.5 39.4 42.6 39.4H43.2C43.3 39.4 43.3 39.4 43.3 39.5V40.3H52.9V35H43.3V37C43.3 37.1 43.3 37.1 43.2 37.1H42.6C42.5 37.1 42.5 37.1 42.5 37V34.2C42.5 34.1 42.5 34.1 42.6 34.1H53.6C53.7 34.1 53.7 34.1 53.7 34.2V40.9C53.7 41 53.7 41.1 53.6 41.1ZM42.7 40.8H53.5V34.3H42.7V36.8H43.1V34.8C43.1 34.7 43.1 34.7 43.2 34.7H53C53.1 34.7 53.1 34.7 53.1 34.8V40.3C53.1 40.4 53.1 40.4 53 40.4H43.2C43.1 40.4 43.1 40.4 43.1 40.3V39.5H42.7V40.8Z" fill="#F15C22"/>
<path d="M46.6 39.7L49.9 37.6L46.6 35.5V39.7ZM47.2 36.6L48.8 37.6L47.2 38.6V36.6Z" fill="#F15C22"/>
<path d="M46.6 39.8C46.5 39.8 46.5 39.8 46.5 39.7V35.5C46.5 35.5 46.5 35.4 46.6 35.4H46.7L50 37.5L50.1 37.6C50.1 37.6 50.1 37.7 50 37.7L46.6 39.8C46.6 39.8 46.7 39.8 46.6 39.8ZM46.7 35.7V39.5L49.7 37.6L46.7 35.7ZM47.2 38.7C47.1 38.7 47.1 38.6 47.1 38.6V36.6C47.1 36.6 47.1 36.5 47.2 36.5C47.3 36.5 47.3 36.5 47.3 36.5L48.9 37.5L49 37.6C49 37.6 49 37.7 48.9 37.7L47.2 38.7ZM47.3 36.8V38.4L48.6 37.6L47.3 36.8Z" fill="#F15C22"/>
<path d="M42.6 33.3H47.5V33.9H42.6V33.3Z" fill="#F15C22"/>
<path d="M47.5 34H42.6C42.5 34 42.5 34 42.5 33.9V33.3C42.5 33.2 42.5 33.2 42.6 33.2H47.5C47.6 33.2 47.6 33.2 47.6 33.3V33.9C47.6 34 47.6 34 47.5 34ZM42.7 33.8H47.4V33.4H42.7V33.8Z" fill="#F15C22"/>
</g>
<defs>
<clipPath id="clip0">
<rect width="90.7" height="121.1" fill="white"/>
</clipPath>
</defs>
</svg>
